<svg width="22" height="19" viewBox="0 0 22 19" fill="none" xmlns="http://www.w3.org/2000/svg">
<path fill-rule="evenodd" clip-rule="evenodd" d="M2.69723 0.257141H19.1696C20.3021 0.257141 21.2287 1.06789 21.2287 2.05881V12.8688C21.2287 13.8597 20.3021 14.6705 19.1696 14.6705H4.75628L0.638184 18.2738L0.648479 2.05881C0.648479 1.06789 1.56476 0.257141 2.69723 0.257141ZM16.0811 6.56297H5.78589C5.21965 6.56297 4.75637 6.96835 4.75637 7.46381C4.75637 7.95927 5.21965 8.36464 5.78589 8.36464H16.0811C16.6474 8.36464 17.1107 7.95927 17.1107 7.46381C17.1107 6.96835 16.6474 6.56297 16.0811 6.56297ZM11.963 11.0671H5.78589C5.21965 11.0671 4.75637 10.6618 4.75637 10.1663C4.75637 9.67085 5.21965 9.26547 5.78589 9.26547H11.963C12.5293 9.26547 12.9926 9.67085 12.9926 10.1663C12.9926 10.6618 12.5293 11.0671 11.963 11.0671ZM5.78589 5.66214H16.0811C16.6474 5.66214 17.1107 5.25677 17.1107 4.76131C17.1107 4.26585 16.6474 3.86048 16.0811 3.86048H5.78589C5.21965 3.86048 4.75637 4.26585 4.75637 4.76131C4.75637 5.25677 5.21965 5.66214 5.78589 5.66214Z" fill="#4CBC9A"/>
</svg>
