<svg width="60" height="23" viewBox="0 0 60 23" fill="none" xmlns="http://www.w3.org/2000/svg">
<path d="M29.9923 0C18.9447 0 8.56049 2.31271 3.38113 7.47185C1.03384 9.80997 -0.139807 12.631 0.0132772 16.0365C0.115334 18.0951 0.753185 19.9249 1.95235 21.1194C2.84534 22.0343 4.09553 22.5426 5.54983 22.3139L15.0156 20.7128C16.4443 20.484 17.4394 20.052 18.0772 19.3912C18.9192 18.578 19.1743 17.3581 19.1743 15.757V13.1901C19.1743 12.7835 19.3529 12.4785 19.6081 12.2243C19.8632 11.9194 20.2459 11.7923 20.5266 11.7161C22.2615 11.3094 25.7825 10.9282 29.9923 10.9282C34.2021 10.9282 37.6976 11.2332 39.458 11.7415C39.7132 11.8177 40.0704 11.9702 40.351 12.2243C40.5807 12.4785 40.7337 12.758 40.7593 13.1647L40.7848 15.757C40.8103 17.3581 41.0654 18.578 41.8819 19.3912C42.5452 20.052 43.5403 20.484 44.9691 20.7128L54.3072 22.2885C55.8126 22.5426 57.0883 22.0089 58.0833 21.0432C59.2825 19.8741 59.9458 18.0697 59.9969 16.0111C60.0734 12.5801 58.7467 9.75914 56.4504 7.47185C51.2711 2.31271 41.0399 0 29.9923 0Z" fill="white"/>
</svg>
