<svg width="36" height="47" viewBox="0 0 36 47" fill="none" xmlns="http://www.w3.org/2000/svg">
<path d="M35.5744 40.8351L2.84736 3.90649C2.7028 3.74337 2.52833 3.61106 2.33392 3.51711C2.13951 3.42316 1.92896 3.3694 1.7143 3.35892C1.49964 3.34844 1.28507 3.38143 1.08283 3.45601C0.8806 3.53059 0.694668 3.6453 0.535652 3.79359C0.376637 3.94188 0.247652 4.12085 0.156062 4.32028C0.0644721 4.51971 0.0120718 4.73568 0.00185168 4.95588C-0.00836843 5.17608 0.0237919 5.39619 0.0964973 5.60364C0.169203 5.81109 0.281029 6.00182 0.425591 6.16494L8.18188 14.917V23.5C8.18152 25.3079 8.65566 27.0825 9.5545 28.6376C10.4533 30.1926 11.7438 31.4708 13.2902 32.3378C14.8367 33.2049 16.5823 33.6288 18.3436 33.5652C20.1049 33.5015 21.817 32.9526 23.3002 31.9761L25.5246 34.4861C23.6651 35.827 21.4973 36.648 19.2346 36.8684C16.9719 37.0889 14.6922 36.7011 12.6199 35.7432C10.5476 34.7854 8.75424 33.2905 7.41623 31.4057C6.07823 29.521 5.24173 27.3113 4.98908 24.9942C4.94122 24.5518 4.72408 24.1471 4.3854 23.869C4.04672 23.5909 3.61423 23.4621 3.18302 23.511C2.75181 23.5599 2.35718 23.7825 2.08589 24.1297C1.81461 24.477 1.68888 24.9206 1.73635 25.363C2.14601 29.1819 3.82291 32.7403 6.48599 35.4417C9.14907 38.1432 12.6365 39.8236 16.3636 40.2011V45.3214C16.3636 45.7666 16.536 46.1936 16.8429 46.5084C17.1498 46.8232 17.566 47 18 47C18.434 47 18.8502 46.8232 19.1571 46.5084C19.4639 46.1936 19.6363 45.7666 19.6363 45.3214V40.1999C22.5713 39.9003 25.3721 38.7897 27.7404 36.9864L33.1526 43.0935C33.4446 43.4229 33.8522 43.6199 34.2857 43.6411C34.7192 43.6623 35.1432 43.5059 35.4644 43.2064C35.7855 42.9069 35.9775 42.4888 35.9981 42.0441C36.0188 41.5994 35.8664 41.1645 35.5744 40.8351ZM24.9709 23.8799C25.1931 24.1306 25.484 24.3064 25.8054 24.3843C26.1269 24.4622 26.4637 24.4385 26.7718 24.3163C27.0799 24.1942 27.3447 23.9792 27.5314 23.6998C27.7182 23.4203 27.8181 23.0895 27.8181 22.7507V10.0714C27.8179 7.8799 27.1209 5.74823 25.8329 3.99978C24.5449 2.25133 22.7361 0.98152 20.6809 0.382963C18.6257 -0.215595 16.4363 -0.110234 14.4448 0.683063C12.4532 1.47636 10.7683 2.9143 9.64545 4.77877C9.45848 5.08884 9.37498 5.45292 9.4076 5.81598C9.44021 6.17903 9.58716 6.52133 9.82623 6.79113L24.9709 23.8799ZM31.1246 30.5636C31.3247 30.6441 31.5383 30.6834 31.7532 30.6791C31.9681 30.6748 32.18 30.6271 32.3769 30.5387C32.5738 30.4503 32.7518 30.3229 32.9007 30.1639C33.0496 30.0049 33.1664 29.8173 33.2445 29.6119C33.7644 28.2475 34.107 26.819 34.2636 25.363C34.3113 24.9205 34.1857 24.4767 33.9144 24.1293C33.6431 23.7818 33.2484 23.5591 32.817 23.5102C32.3857 23.4613 31.9531 23.5902 31.6144 23.8685C31.2757 24.1468 31.0586 24.5517 31.0109 24.9942C30.8856 26.1575 30.6119 27.2988 30.1967 28.389C30.0386 28.8036 30.0476 29.2656 30.2216 29.6734C30.3956 30.0813 30.7204 30.4015 31.1246 30.5636Z" fill="#5155C3"/>
</svg>
