<svg width="62" height="62" viewBox="0 0 62 62" fill="none" xmlns="http://www.w3.org/2000/svg">
<path d="M45.957 55.4369L43.925 56.4091L36.0271 39.8666L38.0338 38.9066C39.0244 38.4326 40.1435 38.3733 41.1861 38.7407C42.2193 39.1048 43.054 39.8526 43.538 40.8462L47.8919 49.946C48.3615 50.9313 48.4215 52.0621 48.0589 53.0912C47.6963 54.1202 46.9405 54.9636 45.957 55.4369ZM30.8039 14.2954C31.0388 14.7829 31.1751 15.3119 31.205 15.852C31.2348 16.3922 31.1576 16.9329 30.9779 17.4431C30.7981 17.9532 30.5192 18.4229 30.1574 18.825C29.7955 19.2271 29.3576 19.5538 28.869 19.7863L26.8878 20.7342L18.9452 4.22879L20.9518 3.26873C21.4392 3.03283 21.9686 2.89579 22.5094 2.86552C23.0502 2.83526 23.5917 2.91237 24.1026 3.0924C24.6135 3.27243 25.0837 3.55181 25.486 3.91442C25.8884 4.27703 26.2149 4.71567 26.4467 5.20502L30.8039 14.2954Z" fill="#FCFAFB"/>
<path d="M34.3001 40.3294C32.5982 39.8883 29.6844 37.1644 27.3445 32.283C26.0506 29.5839 25.2559 26.8808 25.1008 24.6464C25.0179 23.4152 25.148 22.4177 25.4464 21.7875L17.3301 4.91802L16.1877 5.46456C10.052 8.392 10.7647 22.1764 17.7921 36.8528C22.9037 47.4999 30.0332 55.726 35.9582 57.8139C37.9552 58.5176 39.7367 58.5105 41.2651 57.7793L42.3834 57.2443L34.3001 40.3294Z" fill="#FCFAFB"/>
</svg>
