<svg width="25" height="25" viewBox="0 0 25 25" fill="none" xmlns="http://www.w3.org/2000/svg">
<path d="M14.2578 2.08987L7.83203 7.36331C7.73437 7.44144 7.61719 7.4805 7.5 7.50003L1.23047 8.20315C0.917969 8.24222 0.664062 8.51565 0.664062 8.82815V16.1719C0.664062 16.4844 0.898438 16.7578 1.23047 16.7969L7.5 17.4805C7.61719 17.5 7.73437 17.5391 7.83203 17.6172L14.2578 22.8907C14.668 23.2227 15.293 22.9297 15.293 22.4024V2.57815C15.293 2.05081 14.668 1.75784 14.2578 2.08987Z" fill="#4CBC9A"/>
<path d="M23.3202 13.5156H19.7655C19.1991 13.5156 18.7499 13.0664 18.7499 12.5C18.7499 11.9336 19.1991 11.4844 19.7655 11.4844H23.3202C23.8866 11.4844 24.3358 11.9336 24.3358 12.5C24.3358 13.0664 23.8671 13.5156 23.3202 13.5156ZM18.3202 8.3008C17.9296 8.3008 17.5585 8.08596 17.4022 7.71487C17.1679 7.20705 17.4022 6.60158 17.9101 6.36721L21.1327 4.90237C21.6405 4.66799 22.246 4.90237 22.4804 5.41018C22.7147 5.91799 22.4804 6.52346 21.9726 6.75783L18.7499 8.22268C18.6132 8.28127 18.4569 8.3008 18.3202 8.3008ZM21.5429 20.1953C21.4062 20.1953 21.2499 20.1563 21.1327 20.0977L17.9101 18.6328C17.4022 18.3985 17.1679 17.793 17.4022 17.2852C17.6366 16.7774 18.2421 16.543 18.7499 16.7774L21.9726 18.2422C22.4804 18.4766 22.7147 19.0821 22.4804 19.5899C22.3046 19.961 21.9335 20.1953 21.5429 20.1953Z" fill="#4CBC9A"/>
</svg>
