<svg width="294" height="257" viewBox="0 0 294 257" fill="none" xmlns="http://www.w3.org/2000/svg">
<path d="M4.34084 81.7558C2.0158 58.2243 20.501 37.8226 44.147 37.8226H115.393C138.844 37.8226 157.264 57.9042 155.244 81.268L146.146 186.502C144.358 207.181 127.051 223.057 106.295 223.057H54.5447C33.9766 223.057 16.7609 207.458 14.7385 186.99L4.34084 81.7558Z" fill="#FFD0D8"/>
<path d="M139.341 81.7558C137.016 58.2243 155.501 37.8226 179.147 37.8226H250.393C273.844 37.8226 292.264 57.9042 290.244 81.268L281.146 186.502C279.358 207.181 262.051 223.057 241.295 223.057H189.545C168.977 223.057 151.761 207.458 149.739 186.99L139.341 81.7558Z" fill="#CAF2E9"/>
<path d="M27.8028 44.3103C25.2384 20.6514 43.7724 0 67.5699 0H221.027C244.61 0 263.075 20.2987 260.848 43.7767L244.061 220.777C242.114 241.313 224.868 257 204.24 257H86.7548C66.3317 257 49.1885 241.614 46.9877 221.31L27.8028 44.3103Z" fill="#5155C3"/>
</svg>
