<svg width="609" height="645" viewBox="0 0 609 645" fill="none" xmlns="http://www.w3.org/2000/svg">
<path d="M161.666 554.262C161.59 563.603 158.708 568.236 156.037 570.742C151.914 574.613 149.034 574.874 141.111 581.254C137.627 584.06 133.801 585.269 134.082 586.265C135.597 591.632 185.424 586.558 187.949 572.955C188.744 568.672 185.607 559.466 185.607 559.466L161.666 554.262Z" fill="#FEA695"/>
<path d="M189.501 576.731C189.35 578.15 189.065 579.781 188.572 581.529C188.572 581.533 188.568 581.537 188.568 581.541C186.501 587.067 181.569 589.901 178.063 591.797C169.952 595.924 155.745 602.54 147.178 604.425C147.175 604.425 147.171 604.425 147.171 604.425C145.521 604.789 144.079 604.978 142.933 604.937C142.85 604.933 142.77 604.933 142.687 604.925C142.421 604.906 142.144 604.88 141.86 604.857C136.29 604.307 132.834 603.374 128.627 601.891C126.127 601.007 121.715 597.529 121.199 594.179C121.074 593.364 121.18 592.556 121.597 591.797C125.357 589.438 150.957 574.223 151.556 573.935C150.9 574.375 150.316 574.788 149.8 575.179C149.796 575.183 149.792 575.187 149.788 575.187C145.816 578.191 145.76 579.765 146.53 580.706C146.879 581.134 147.402 581.43 147.808 581.673C147.949 581.756 148.074 581.836 148.176 581.908C150.043 583.274 162.475 583.683 174.156 576.901C180.097 573.449 185.283 566.758 187.362 565.848C187.673 565.708 187.916 565.704 188.079 565.856C188.838 566.565 189.191 567.98 189.551 571.318C189.619 571.925 189.809 573.932 189.501 576.731Z" fill="#F2F5FC"/>
<path d="M189.501 576.73C189.463 577.887 189.285 579.613 188.572 581.529C188.572 581.532 188.568 581.536 188.568 581.54C186.501 587.067 181.569 589.9 178.063 591.797C164.444 599.148 156.757 602.914 147.178 604.424C147.175 604.424 147.171 604.424 147.171 604.424C145.805 604.64 144.398 604.811 142.933 604.936C138.654 605.308 130.804 605.873 125.239 600.764C122.784 598.514 121.544 595.874 120.895 594.05C120.895 594.05 120.998 594.095 121.199 594.179C123.133 594.956 134.082 599.03 147.614 597.194C150.103 596.857 152.599 596.698 155.885 595.768C164.921 593.208 168.473 588.758 180.753 581.51C182.923 580.232 185.886 578.555 189.501 576.73Z" fill="#C17168"/>
<path d="M146.004 580.934C143.227 583.105 140.338 585.12 137.355 586.996C136.24 587.697 137.268 589.472 138.39 588.767C141.524 586.796 144.538 584.663 147.454 582.384C148.494 581.571 147.033 580.129 146.004 580.934Z" fill="#CCB4BA"/>
<path d="M250.002 568.669C250.885 568.765 252.532 568.779 252.532 568.779C252.986 569.248 253.631 570.592 254.453 571.521C256.099 573.386 260.1 576.375 266.374 583.91C267.852 585.684 272.45 588.445 271.837 589.797C268.527 597.085 229.274 584.228 227.34 571.999C226.753 568.286 228.926 564.27 228.926 564.27C228.926 564.27 231.751 564.965 235.401 565.994C240.653 567.474 246.909 568.33 250.002 568.669Z" fill="#FEA695"/>
<path d="M282.081 599.315C281.443 602.915 278.052 605.695 275.574 606.681C271.462 608.32 268.313 608.502 264.254 608.915C264.056 608.938 263.829 608.9 263.624 608.919C263.605 608.919 263.59 608.919 263.575 608.923C263.507 608.931 263.427 608.904 263.328 608.893C261.318 608.676 259.087 607.967 256.761 606.939C256.75 606.931 256.734 606.927 256.719 606.92C249.063 603.533 240.376 596.732 235.03 592.741C233.865 591.873 232.739 591.307 231.711 590.894C231.635 590.841 231.559 590.788 231.479 590.731C228.183 588.367 226.57 585.929 225.899 584.699C226.233 584.02 226.646 583.402 226.673 582.727C226.71 581.854 226.445 581.441 226.392 581.179C226.104 579.859 225.853 576.954 225.77 576.18C225.77 576.168 225.766 576.157 225.766 576.146C225.603 574.602 225.834 570.957 225.903 570.6C226.278 568.605 226.225 565.309 227.428 564.922C229.416 564.277 236.264 575.247 238.972 577.17C243.608 580.459 254.546 587.446 260.616 584.123C264.14 582.188 260.84 577.875 258.381 575.744C266.462 582.405 274.209 589.68 282.043 596.732C282.229 597.627 282.225 598.492 282.081 599.315Z" fill="#F2F5FC"/>
<path d="M282.525 599.151C281.717 601.73 279.88 603.991 278.382 605.835C274.979 610.015 266.811 609.548 263.73 608.941C263.696 608.934 263.658 608.926 263.624 608.919C261.147 608.43 258.878 607.754 256.761 606.939C256.75 606.931 256.734 606.927 256.719 606.92C248.316 603.669 242.33 598.177 235.178 592.9C234.89 592.688 233.43 592.085 231.711 590.894C231.635 590.84 231.559 590.787 231.479 590.73C228.183 588.367 226.57 585.928 225.899 584.699C225.732 584.399 225.625 584.168 225.561 584.032C225.125 583.091 224.692 582.135 224.605 580.777C224.472 578.661 225.273 576.988 225.766 576.146C225.781 576.116 225.8 576.085 225.815 576.059C227.499 577.185 231.684 580.356 232.887 581.4C239.7 587.294 245.831 594.653 252.933 598.203C255.513 599.497 258.366 600.012 259.728 600.327C267.755 602.182 274.702 602.004 282.081 599.315C282.229 599.261 282.376 599.208 282.525 599.151Z" fill="#C17168"/>
<path d="M262.457 583.434C264.628 585.814 266.968 588.225 269.229 590.474C270.073 591.315 269.175 593.018 268.283 592.202C265.792 589.923 263.402 587.43 261.152 584.768C260.35 583.819 261.653 582.553 262.457 583.434Z" fill="#CCB4BA"/>
<path d="M266.357 444.249C270.684 475.791 263.15 557.806 260.315 567.191C257.895 575.204 222.554 563.579 222.554 563.579C218.509 551.308 217.185 459.389 216.175 450.967C215.161 442.541 215.814 351.351 213.398 358.567C210.978 365.787 203.744 435.874 197.867 454.269C192.223 471.925 193.546 559.108 189.691 569.356C186.601 577.572 156.006 574.548 155.167 574.218C152.201 573.043 150.115 570.96 150.802 558.524C151.614 543.789 151.61 475.083 149.524 433.373C148.964 422.177 148.256 412.923 147.372 407.184C147.358 407.102 147.345 407.019 147.334 406.94C147.334 406.934 147.334 406.93 147.334 406.93C144.537 389.25 148.874 354.2 152.129 332.516C152.383 330.829 152.631 329.224 152.861 327.716C153.799 321.743 154.569 317.269 154.937 315.173C155.085 314.321 155.167 313.867 155.167 313.867C155.167 313.867 157.958 314.187 162.563 314.713C181.738 316.895 232.421 322.547 244.444 322.87H244.495C250.197 323.008 257.38 320.661 264.154 319.276C268.43 318.396 272.547 317.901 276.022 318.654C278.17 319.118 280.077 320.059 281.631 321.681C281.847 327.571 281.978 332.609 282.122 335.423C283.226 356.619 272.626 389.827 267.581 418.847C265.982 428.019 265.316 436.675 266.357 444.249Z" fill="#FB9177"/>
<path d="M267.581 418.848C266.649 404.866 275.66 378.28 276.375 353.116C276.863 336.006 254.562 351.352 230.016 347.977C222.506 346.946 211.58 344.939 200.025 342.644C182.085 339.088 162.629 334.844 152.129 332.517C152.383 330.83 152.631 329.225 152.861 327.717C153.799 321.745 154.569 317.27 154.937 315.174L162.563 314.714C181.738 316.896 232.421 322.549 244.444 322.872H244.495C250.173 322.872 253.108 297.391 259.882 296.006L275.853 282.498C279.813 283.354 281.043 305.659 281.631 321.683C281.847 327.573 281.978 332.61 282.122 335.425C283.225 356.62 272.626 389.828 267.581 418.848Z" fill="#D17061"/>
<path d="M213.387 358.561C212.795 358.193 191.861 345.133 182.843 347.978C173.7 350.869 173.218 359.528 157.816 386.96C154.538 392.798 151.692 415.974 149.522 433.374C148.965 422.176 148.255 412.925 147.371 407.186C147.36 407.102 147.345 407.019 147.334 406.939C147.334 406.935 147.334 406.931 147.334 406.931C144.538 389.251 148.874 354.199 152.129 332.517C152.383 330.829 152.63 329.224 152.861 327.715C170.502 330.7 194.752 336.443 196.322 338.267C196.926 338.969 198.303 340.596 200.025 342.645C205.059 348.619 213.057 358.159 213.387 358.561Z" fill="#D17061"/>
<path d="M232.69 79.1642C232.69 79.1642 202.097 140.924 198.127 148.143C194.156 155.362 236.753 197.23 236.753 197.23L263.022 184.597C263.022 184.597 279.082 151.57 283.729 143.179C288.375 134.788 296.33 114.001 285.855 93.7151C275.379 73.4292 232.69 79.1642 232.69 79.1642Z" fill="#4F312D"/>
<path d="M263.021 136.234C263.021 136.234 256.727 165.472 248.544 178.042C247.58 179.525 246.529 180.986 245.41 182.393C245.403 182.397 245.399 182.4 245.399 182.408C245.019 182.878 244.636 183.341 244.245 183.8C244.234 183.815 244.226 183.827 244.215 183.842C243.995 184.092 243.779 184.343 243.558 184.589C243.558 184.589 243.558 184.589 243.555 184.593C235.231 193.951 223.6 200.209 211.964 194.588C197.764 187.726 173.579 165.107 173.579 165.107C173.579 165.107 180.806 164.167 189.687 160.612H189.691C202.901 155.325 219.764 144.249 221.942 121.869C221.942 121.869 230.735 144.833 241.567 143.179C252.394 141.525 263.021 136.234 263.021 136.234Z" fill="#FEA695"/>
<path d="M263.021 136.234C263.021 136.234 256.727 165.472 248.544 178.042C247.58 179.525 246.529 180.986 245.41 182.393C245.403 182.397 245.399 182.4 245.399 182.408C244.963 182.897 244.576 183.364 244.245 183.8C244.234 183.815 244.227 183.827 244.215 183.842C243.991 184.142 243.771 184.388 243.559 184.589C243.559 184.589 243.559 184.589 243.555 184.593C239.689 188.208 237.982 175.417 238.437 170.403C238.919 165.107 221.832 152.355 218.3 152.4C214.772 152.442 191.607 160.696 189.691 160.612C202.901 155.325 219.764 144.249 221.942 121.869C221.942 121.869 230.736 144.833 241.567 143.179C252.395 141.525 263.021 136.234 263.021 136.234Z" fill="#E57E73"/>
<path d="M311.525 144.494C311.525 144.494 311.449 146.03 310.796 149.216C309.672 154.71 306.823 165.102 299.657 180.971C299.544 181.222 299.43 181.476 299.313 181.731C299.269 181.834 299.22 181.933 299.176 182.036C298.894 182.655 298.612 183.277 298.334 183.902C298.052 184.528 297.774 185.157 297.492 185.792C297.004 186.895 296.519 188.012 296.038 189.15C295.88 189.528 295.718 189.906 295.56 190.287C295.368 190.741 295.182 191.194 294.993 191.655C294.983 191.679 294.973 191.703 294.966 191.723C294.766 192.208 294.571 192.693 294.375 193.184C294.275 193.428 294.179 193.675 294.083 193.923C293.57 195.218 293.065 196.541 292.567 197.895C292.44 198.239 292.316 198.586 292.189 198.936C292.141 199.067 292.096 199.197 292.048 199.332C291.9 199.74 291.756 200.153 291.611 200.569C291.02 202.266 290.443 204.015 289.883 205.826C282.569 229.434 278.056 263.368 283.683 326.445C283.59 326.961 283.291 327.648 282.772 328.448C280.892 331.366 276.104 335.782 267.735 338.73C265.948 339.362 263.996 339.926 261.872 340.393C261.628 340.445 261.377 340.5 261.126 340.551C260.374 340.706 259.6 340.847 258.806 340.977C253.07 341.912 246.234 342.156 238.199 341.242C212.982 338.379 201.187 338.469 186.921 338.27C183.216 338.215 179.342 338.143 175.025 337.995C154.088 337.273 144.341 330.778 144.341 330.778C144.341 330.778 159.501 238.739 159.501 235.489C159.501 234.715 157.669 233.984 154.875 233.32C145.984 231.2 127.37 229.764 127.37 229.764C138.381 200.5 149.108 184.043 158.625 174.83C164.062 169.566 169.107 166.669 173.579 165.106C173.579 165.106 174.269 164.865 200.29 156.508C200.29 156.508 200.833 157.175 201.806 158.295C207.58 164.965 228.459 187.665 239.278 180.339C246.241 175.624 248.925 168.349 250.843 161.941C251.231 160.649 251.582 159.398 251.933 158.205C253.008 154.566 254.057 151.515 255.885 149.841C262.175 144.096 272.062 150.161 287.418 150.048C288.852 150.041 290.333 149.975 291.859 149.841C293.643 149.687 295.354 149.453 296.98 149.158C296.99 149.154 297.004 149.154 297.014 149.151C303.211 148.03 308.177 146.058 311.525 144.494Z" fill="#F2F5FC"/>
<path d="M317.208 149.84C315.69 149.652 310.976 158.883 310.424 159.826C286.709 200.359 279.859 244.621 281.432 291.022C281.833 302.848 282.631 314.659 283.682 326.444C283.387 327.118 283.081 327.785 282.772 328.448C280.892 331.365 276.104 335.781 267.735 338.729C268.749 335.788 269.767 332.51 270.677 328.929C275.709 309.136 274.348 292.418 271.647 262.257C270.29 247.124 269.439 245.412 269.015 242.018C269.015 242.018 268.721 239.446 268.715 236.721C268.684 222.861 269.505 221.016 273.946 204.459C275.537 198.526 274.273 191.692 282.593 168.634C285.316 164.243 288.159 160.948 286.875 157.923C284.809 153.057 273.825 153.26 266.639 153.548C261.885 153.741 255.816 156.033 251.932 158.204C253.008 154.565 254.056 151.514 255.885 149.84C262.174 144.095 272.062 150.16 287.418 150.047C289.02 150.156 290.515 150.112 291.859 149.84C293.467 149.517 295.199 149.294 296.979 149.157C296.99 149.157 297.004 149.153 297.014 149.153C301.021 148.837 304.252 148.751 310.796 149.215C312.401 149.329 314.597 149.518 317.208 149.84ZM201.805 158.293C198.307 160.941 189.13 167.503 180.92 168.633C171.948 169.874 164.326 172.4 158.624 174.831C164.061 169.566 169.106 166.669 173.579 165.106C173.579 165.106 174.27 164.863 200.291 156.507C200.291 156.507 200.834 157.174 201.805 158.293Z" fill="#DADEEA"/>
<path d="M269.964 304.976C262.027 311.11 224.668 306.151 201.616 320.829C187.061 330.097 187.991 330.473 179.342 338.142C175.635 338.089 179.342 338.142 175.024 337.994C154.086 337.274 144.34 330.776 144.34 330.776C144.34 330.776 159.5 238.738 159.5 235.488C159.5 234.714 134.27 221.188 155.429 216.852C156.928 214.447 180.559 222.693 181.883 222.857C181.883 222.857 174.027 247.565 195.961 243.154C211.515 240.027 219.833 231.516 219.449 232.601C219.062 233.682 213.387 244.845 199.571 248.121C178.515 253.114 172.995 239.236 180.264 262.919C185.685 280.583 179.717 288.907 179.717 292.514C179.717 296.125 183.602 292.943 194.794 294.199C205.985 295.454 232.42 299.657 241.446 297.169C250.471 294.68 260.771 285.979 263.021 287.083C265.271 288.187 277.901 298.846 269.964 304.976ZM244.441 229.762C242.904 226.281 244.268 248.71 261.591 248.71C274.6 248.71 272.243 241.968 272.243 241.968C272.243 241.968 249.241 240.639 244.441 229.762ZM225.446 190.131C221.441 186.974 217.552 183.672 213.804 180.212C210.273 176.953 206.845 173.821 202.463 171.735C201.366 171.213 200.403 172.848 201.505 173.373C205.964 175.496 209.388 178.737 212.986 182.035C216.572 185.321 220.286 188.461 224.105 191.472C225.054 192.22 226.405 190.887 225.446 190.131ZM259.779 165.725C256.471 170.363 254.113 175.552 252.783 181.091C252.498 182.277 254.326 182.783 254.612 181.595C255.907 176.202 258.197 171.197 261.417 166.682C262.128 165.687 260.483 164.739 259.779 165.725Z" fill="#DADEEA"/>
<path d="M286.144 106.93C283.776 118.901 276.314 134.461 267.076 143.177C266.932 143.314 266.784 143.451 266.64 143.587C253.199 156.063 234.742 163.444 226.646 143.177C221.635 130.633 221.138 114.903 221.502 104.593C221.764 97.2688 224.218 90.1794 228.581 84.2887C259.898 42.0288 281.713 84.8387 285.856 93.7145C287.244 96.6881 287.233 101.43 286.144 106.93Z" fill="#FEA695"/>
<path d="M286.144 106.931C283.776 118.903 276.314 134.462 267.076 143.179C266.932 143.315 266.784 143.452 266.64 143.588C268.651 137.102 271.356 129.428 274.353 123.72C280.586 111.839 268.465 77.3787 268.165 76.5176L286.144 106.931Z" fill="#E57E73"/>
<path d="M292.866 95.2898C292.866 102.869 284.307 113.941 284.307 113.941C284.307 113.941 284.307 113.941 279.58 104.257C279.284 103.646 278.966 102.994 278.628 102.303C274.117 93.0593 270.623 80.5004 269.011 77.0938C268.597 76.2138 268.305 75.9446 268.157 76.5022C268.047 76.912 267.577 77.4466 266.818 78.08C262.554 81.6266 249.196 88.1585 240 91.838C234.309 94.114 231.71 98.3851 229.999 102.762C228.455 106.711 227.636 110.754 225.921 113.493C222.313 119.27 222.192 130.669 220.386 137.822C218.584 144.98 209.676 150.67 200.29 156.508C190.904 162.345 173.733 166.237 173.578 165.107C173.195 162.319 172.921 159.671 172.747 157.16C170.133 119.342 190.024 111.934 198.488 110.208C207.513 108.368 209.676 79.5668 229.893 65.1376C250.11 50.7085 268.157 68.377 268.157 68.377C268.157 68.377 270.399 66.135 274.352 66.9506C274.967 67.0795 275.623 67.2805 276.321 67.5726C276.829 67.7888 277.357 68.0542 277.907 68.3767C284.042 71.9845 292.866 87.7112 292.866 95.2898Z" fill="#664039"/>
<path d="M292.866 95.2907C292.866 102.87 284.308 113.942 284.308 113.942C284.308 113.942 284.308 113.942 279.581 104.258C277.612 91.6493 276.557 75.244 276.322 67.574C276.83 67.7902 277.357 68.0557 277.908 68.3781C284.042 71.9854 292.866 87.7121 292.866 95.2907ZM274.353 66.9521C273.454 70.1155 270.957 74.2045 269.011 77.095C268.597 76.215 268.305 75.9458 268.157 76.5034C268.048 76.9132 267.577 77.4478 266.818 78.0812L268.157 68.3784C268.157 68.3781 270.399 66.1365 274.353 66.9521ZM230 102.763C228.456 106.712 227.636 110.755 225.921 113.494C222.313 119.271 222.192 130.67 220.386 137.823C218.584 144.981 209.676 150.671 200.29 156.508C190.905 162.346 173.734 166.238 173.578 165.108C173.195 162.32 172.922 159.672 172.748 157.161C189.44 154.707 216.896 149.624 217.476 135.752C218.299 116.145 211.607 99.1254 224.18 100.115C226.293 100.283 228.266 101.223 230 102.763Z" fill="#4F312D"/>
<path d="M230.014 110.207C230.014 110.207 233.729 97.2048 225.775 98.0299C217.82 98.8549 216.236 103.798 218.3 116.144C220.363 128.49 224.905 127.89 225.775 126.928C226.645 125.965 230.014 110.207 230.014 110.207Z" fill="#FEA695"/>
<path d="M226.356 104.309C226.356 104.309 224.078 99.4966 221.832 103.026C219.585 106.555 219.104 116.717 220.388 115.004C221.671 113.292 221.671 107.697 222.313 106.565C222.955 105.432 225.585 106.234 226.356 104.309Z" fill="#E57E73"/>
<path d="M390.294 556.361C388.85 562.979 398.171 574.852 402.207 586.679C403.074 589.217 401 588.625 399.76 590.049C393.824 596.867 370.22 563.502 373.637 559.021C376.216 555.64 373.449 540.48 373.449 530.374C373.449 523.968 369.967 498.789 367.292 480.729C365.748 470.31 364.477 462.261 364.303 461.555L413.398 453.373C413.398 453.373 410.791 461.274 410.943 468.227C410.974 469.589 411.11 470.916 411.391 472.142C413.114 479.603 391.662 550.089 390.294 556.361Z" fill="#FEA695"/>
<path d="M410.943 468.227C398.215 471.649 375.43 478.18 367.292 480.729C365.748 470.31 364.477 462.261 364.303 461.555L413.398 453.373C413.398 453.373 410.792 461.274 410.943 468.227Z" fill="#E57E73"/>
<path d="M343.166 550.876C342.684 554.244 345.571 559.058 345.09 563.39C344.612 567.718 315.73 587.931 308.51 587.931C298.037 587.931 317.078 571.695 318.192 570.126C326.909 557.854 318.947 542.736 314.766 518.152C311.944 501.559 305.794 488.554 304.443 477.876C302.77 464.684 303.536 456.388 303.931 455.588L335.013 452.155L343.166 451.256C343.166 451.256 345.158 453.532 347.051 457.621C348.644 461.05 350.166 465.761 350.386 471.47C350.477 473.825 350.294 477.986 349.934 483.209C348.39 505.76 343.557 548.141 343.166 550.876Z" fill="#FEA695"/>
<path d="M349.934 483.209C337.422 484.779 314.668 480.334 304.443 477.876C302.77 464.683 303.536 456.388 303.931 455.587L335.013 452.154L347.051 457.62C348.644 461.049 350.166 465.76 350.386 471.469C350.477 473.825 350.295 477.986 349.934 483.209Z" fill="#E57E73"/>
<path d="M286.129 601.166C286.129 601.166 284.765 603.492 288.936 605.096C293.108 606.701 306.424 604.748 310.436 603.88C314.447 603.011 320.543 597.076 322.95 594.028C325.356 590.98 327.924 587.289 329.207 587.932C330.491 588.574 329.688 589.697 330.651 589.857C330.651 589.857 342.179 585.365 343.326 583.922C344.473 582.478 345.491 569.617 342.203 572.532C338.915 575.448 316.532 597.666 307.227 598.654C297.922 599.642 286.129 601.166 286.129 601.166Z" fill="#5E4E53"/>
<path d="M314.262 574.555C314.262 574.555 304.419 585.043 306.344 586.728C308.27 588.412 316.693 581.674 323.672 578.065C330.651 574.456 341.836 553.169 343.945 556.112C346.054 559.056 350.409 568.841 343.945 576.262C342.091 578.39 331.038 584.844 327.823 586.968C324.811 588.959 316.45 600.847 305.141 602.529C294.098 604.17 286.129 604.053 286.129 601.165C286.129 598.278 303.938 582.129 307.788 579.856C311.639 577.584 314.262 574.555 314.262 574.555Z" fill="#CCB4BA"/>
<path d="M369.357 569.355C369.357 569.355 367.191 576.334 368.314 578.74C369.437 581.146 373.765 584.6 374.411 584.675L374.251 581.831C374.251 581.831 382.473 597.388 391.569 601.014C402.565 605.398 411.423 605.251 415.805 601.041C417.853 599.073 415.925 592.816 410.029 588.966C407.826 587.528 402.772 594.607 397.354 591.974C385.083 586.01 369.357 569.355 369.357 569.355Z" fill="#705B5D"/>
<path d="M379.064 571.841C379.064 571.841 394.017 589.824 397.836 587.642C398.467 587.281 400.634 586.716 399.921 584.514C397.604 577.355 391.618 564.182 391.618 564.182C391.618 564.182 397.274 574.649 402.809 580.905C411.088 590.262 417.41 593.112 416.494 596.528C415.385 600.669 404.527 602.045 397.036 600.301C395.375 599.913 389.134 598.482 384.198 593.417C382.274 591.443 383.043 591.48 378.342 585.397C374.906 580.95 373.703 579.834 372.005 576.734C369.993 573.063 368.71 570.865 369.357 569.355C370.003 567.85 373.024 558.381 373.56 558.529C373.672 558.56 373.643 558.89 373.638 559.02C373.575 560.524 373.309 565.193 379.064 571.841Z" fill="#CCB4BA"/>
<path d="M372.126 143.813C372.126 143.813 348.661 198.674 329.89 194.345C311.118 190.014 290.18 161.136 303.534 156.444C306.402 155.435 308.372 153.33 309.696 150.644C314.366 141.177 311.02 124.494 310.769 123.307C321.601 116.324 336.616 111.76 346.48 110.209C346.784 111.176 347.03 112.269 347.216 113.494C348.221 120.181 350.323 125.423 352.895 129.527C360.467 141.602 372.126 143.813 372.126 143.813Z" fill="#FEA695"/>
<path d="M352.895 129.528C348.794 139.22 341.393 149.431 329.89 152.116C321.555 154.062 314.821 152.86 309.696 150.644C314.366 141.177 311.02 124.494 310.77 123.307C321.601 116.324 336.616 111.76 346.48 110.209C346.784 111.176 347.03 112.269 347.216 113.494C348.221 120.182 350.323 125.424 352.895 129.528Z" fill="#E57E73"/>
<path d="M332.416 137.314C315.086 144.172 308.227 140.205 301.732 135.148C299.005 133.028 295.829 124.414 293.064 115.136C289.247 102.315 286.208 88.2268 286.208 88.2268C285.305 84.4754 286.186 80.6557 288.223 77.0028C295.484 63.9886 317.462 53.1286 325.918 55.3817C325.918 55.3817 325.925 55.3854 325.941 55.3894C326.642 55.579 327.352 55.8711 328.065 56.2579C328.069 56.2579 328.073 56.2617 328.077 56.2617C338.335 61.8414 349.333 86.7967 353.715 102.303C354.068 103.555 354.345 104.776 354.55 105.971C357.053 120.62 348.437 130.972 332.416 137.314Z" fill="#FEA695"/>
<path d="M291.857 104.829C292.305 108.102 292.71 111.687 293.063 115.135C289.247 102.314 286.208 88.226 286.208 88.226C285.305 84.4746 286.185 80.6548 288.222 77.002L299.312 65.1369L304.259 72.708C302.813 73.4288 290.286 93.3163 291.857 104.829ZM354.549 105.97C352.822 104.959 350.282 103.155 348.419 100.138C345.156 94.8515 347.75 91.9624 345.05 87.1444C342.563 82.7043 339.628 83.8518 331.71 76.5012C328.582 73.5966 327.035 72.0754 325.858 69.6537C322.71 63.1756 324.481 56.4582 325.917 55.3809C325.917 55.3809 325.925 55.3846 325.94 55.3886C326.084 55.4416 326.858 55.7225 328.065 56.2571C328.069 56.2571 328.073 56.2608 328.076 56.2608C338.334 61.8406 349.333 86.7959 353.715 102.302C354.067 103.554 354.344 104.776 354.549 105.97Z" fill="#E57E73"/>
<path d="M342.523 59.3532C337.831 57.5477 323.744 48.1634 317.97 51.0499C317.97 51.0499 315.614 46.851 316.654 42.4697C317.101 40.5616 318.198 38.6195 320.417 36.9732C327.724 31.5604 335.304 26.1476 342.523 31.5604C345.6 33.8665 346.905 39.5791 347.026 45.2348C347.197 52.8631 345.217 60.3887 342.523 59.3532Z" fill="#F2F5FC"/>
<path d="M342.523 59.353C337.831 57.5475 323.744 48.1632 317.97 51.0497C317.97 51.0497 315.614 46.8508 316.654 42.4694C326.586 41.8664 340.827 41.7942 347.026 45.2346C347.197 52.8629 345.217 60.3885 342.523 59.353Z" fill="#E2E6ED"/>
<path d="M352.895 105.11C347.303 98.6124 349.743 82.8138 340.357 79.1496C330.971 75.4853 326.278 66.2112 325.918 60.0736C325.558 53.94 325.918 55.3815 320.417 60.0736C314.912 64.7656 308.227 81.008 297.4 83.1741C294.737 83.705 292.794 85.1351 291.379 86.9824C287.035 92.6532 287.654 102.303 287.654 102.303C287.654 102.303 285.059 97.9712 281.443 84.2588C280.07 79.0433 280.57 70.6566 284.307 63.2674C286.504 58.9318 289.812 54.9377 294.513 52.1345C300.871 48.3376 309.642 48.5498 316.68 47.4536C318.376 47.1919 319.973 46.8505 321.411 46.3574C328.763 43.8501 339.841 50.5944 346.006 54.9907C346.047 55.0247 346.093 55.0551 346.134 55.0854C352.269 59.4779 353.715 70.1821 354.978 77.761C355.065 78.2845 355.137 78.8268 355.198 79.3806C356.013 86.8647 354.511 96.8559 354.033 98.8547C353.521 100.998 358.487 111.608 352.895 105.11Z" fill="#F2F5FC"/>
<path d="M287.654 102.303C287.654 102.303 285.059 97.9715 281.444 84.259C280.07 79.0435 280.571 70.6569 284.308 63.2676C285.583 67.8193 288.83 79.252 290.981 85.7003C291.122 86.1175 291.254 86.5462 291.38 86.9823C287.036 92.6535 287.654 102.303 287.654 102.303ZM352.896 105.11C347.303 98.6126 349.743 82.8141 340.357 79.1498C340.357 79.1498 342.899 69.902 348.066 72.5079C350.392 73.68 353.063 76.2707 355.198 79.3812C356.014 86.8652 354.512 96.8564 354.034 98.8552C353.521 100.999 358.487 111.608 352.896 105.11Z" fill="#E2E6ED"/>
<path d="M335.973 86.6553C335.55 85.702 334.856 84.9311 334.019 84.4847C333.136 84.0136 332.199 83.9538 331.381 84.3163L311.892 92.9636C310.739 93.475 310.102 94.733 310.136 96.1359C308.588 96.663 307.072 97.2679 305.585 97.9477C304.77 97.1447 303.684 96.7853 302.683 97.1084L284.512 102.981C282.955 103.485 282.19 105.449 282.808 107.36C283.776 110.355 285.604 112.881 287.953 114.472C289.587 115.578 291.339 116.145 293.055 116.145C293.853 116.145 294.644 116.022 295.41 115.774L301.337 113.858C303.752 113.078 305.629 111.153 306.62 108.439C307.594 105.774 307.597 102.656 306.628 99.661C306.578 99.5055 306.518 99.3574 306.453 99.2125C307.753 98.6229 309.077 98.1012 310.427 97.6378C310.463 97.7381 310.501 97.838 310.545 97.9374C311.965 101.137 314.279 103.716 317.061 105.201C318.682 106.065 320.35 106.501 321.963 106.501C323.166 106.501 324.337 106.259 325.436 105.772L331.792 102.951C337.051 100.619 338.926 93.3083 335.973 86.6553ZM305.552 108.048C304.683 110.426 303.062 112.105 300.987 112.776L295.061 114.692C292.986 115.362 290.688 114.95 288.592 113.53C286.451 112.081 284.782 109.765 283.891 107.01C283.466 105.696 283.902 104.374 284.863 104.064L303.033 98.1911C303.171 98.1467 303.312 98.1252 303.454 98.1252C304.303 98.1252 305.182 98.8858 305.546 100.011C306.437 102.766 306.439 105.621 305.552 108.048ZM331.331 101.911L324.974 104.732C322.731 105.728 320.111 105.538 317.598 104.197C315.038 102.831 312.903 100.444 311.586 97.476C310.946 96.0334 311.289 94.4755 312.353 94.0036L331.842 85.3564C332.051 85.2636 332.273 85.2198 332.498 85.2198C333.422 85.2198 334.419 85.9574 334.933 87.1169C337.631 93.1964 336.015 99.8334 331.331 101.911Z" fill="#664039"/>
<path d="M342.374 78.5207C340.235 81.9069 339.25 81.3428 334.783 84.9215C334.018 85.5337 336.206 88.8741 336.81 88.1084C340.676 83.2047 341.546 82.6727 343.684 79.2867C344.207 78.4586 342.894 77.6963 342.374 78.5207Z" fill="#664039"/>
<path d="M342.082 84.0292C342.026 82.9276 342.287 81.8345 342.831 80.8749C344.666 77.6416 349.156 70.6979 352.036 74.4278C355.729 79.2086 357.689 85.1603 352.036 93.2486C344.331 104.274 342.614 94.3949 342.082 84.0292Z" fill="#FEA695"/>
<path d="M346.623 83.6318C346.623 83.6318 350.053 75.3748 351.192 79.253C352.332 83.1312 350.064 94.7661 348.445 93.6401C346.826 92.5141 347.436 91.6385 348.445 90.0122C349.454 88.386 350.297 79.8787 349.062 82.2558C347.827 84.6326 346.054 84.8926 346.623 83.6318Z" fill="#E57E73"/>
<path d="M299.311 155.203C296.261 157.944 291.808 162.546 288.103 169.275C282.817 178.876 281.849 187.731 281.141 194.869C280.211 204.233 280.953 211.618 281.468 215.795C284.535 240.686 290.854 243.475 293.35 261.573C296.507 284.47 291.372 316.093 293.35 325.225C293.36 325.274 294.872 332.238 294.872 332.238L309.695 276.997L299.311 155.203Z" fill="#C69DBB"/>
<path d="M436.741 457.468C435.299 461.799 430.967 458.188 409.669 464.686C409.301 464.8 408.921 464.914 408.531 465.027C386.424 471.574 331.506 482.484 306.216 477.211C289.239 473.672 282.236 476.236 280.07 468.293C277.907 460.354 285.127 430.756 285.855 401.883C285.958 397.774 286.033 392.836 286.083 387.389C286.265 368.127 286.155 342.497 286.033 324.597C286.01 321.581 285.992 318.789 285.973 316.282C285.908 308.301 285.855 303.226 285.855 303.226C407.153 300.582 404.976 277.72 409.668 291.437C410.086 292.658 410.655 294.938 411.345 298.086C411.755 299.979 412.214 302.186 412.711 304.663C416.224 322.267 421.585 353.546 426.361 383.246C432.359 420.571 437.432 455.4 436.741 457.468Z" fill="#AF9A9E"/>
<path d="M411.391 298.065C399.881 303.171 369.487 314.31 327.983 321.032C301.837 325.269 294.337 320.947 286.358 320.31C286.271 307.705 285.855 303.224 285.855 303.224C407.154 300.58 404.976 277.719 409.669 291.435C410.336 293.388 410.071 291.469 411.391 298.065Z" fill="#937D83"/>
<path d="M306.118 322.874C306.118 322.874 286.625 391.299 286.36 388.89C286.341 388.723 286.246 388.208 286.083 387.388C286.265 368.126 286.155 342.496 286.033 324.596C286.01 321.58 285.992 318.789 285.973 316.281L306.118 322.874ZM436.741 457.467C435.299 461.799 430.967 458.188 409.669 464.685C409.301 464.799 408.921 464.913 408.53 465.027C403.071 451.861 390.336 422.93 374.83 399.837C354.075 368.919 369.189 362.528 369.189 362.528C369.189 362.528 416.493 404.623 423.374 402.317C430.18 400.033 409.851 353.345 409.672 352.628L426.361 383.246C432.359 420.571 437.432 455.399 436.741 457.467Z" fill="#937D83"/>
<path d="M409.669 291.436C409.669 291.436 402.286 293.856 391.523 297.171C374.637 302.372 349.431 309.772 331.346 313.482C330.74 313.607 330.14 313.729 329.548 313.842C325.125 314.711 321.187 315.333 317.977 315.617C293.428 317.783 283.681 310.565 284.042 309.124C284.402 307.686 285.108 263.666 282.627 259.725C282.615 259.706 282.604 259.691 282.593 259.676C282.198 259.111 281.656 258.303 281.041 257.278C279.622 254.926 282.031 254.868 280.745 250.627C280.699 250.479 276.432 246.9 276.375 246.749C274.341 241.032 266.223 232.661 279.96 212.344C289.103 198.818 285.499 174.492 285.856 172.691C286.208 170.885 303.307 147.383 311.524 144.496C311.524 144.496 305.701 165.108 328.805 168.719C328.805 168.719 345.111 167.304 355.578 132.184C355.578 132.184 392.339 129.737 398.838 147.785C403.25 160.033 406.661 221.831 408.398 260.275C409.221 278.471 409.669 291.436 409.669 291.436Z" fill="#E2C3D8"/>
<path d="M307.992 241.529C296.595 249.961 288.207 257.028 282.627 259.725C282.615 259.706 282.604 259.691 282.593 259.675C282.198 259.11 281.656 258.302 281.041 257.278C279.622 254.926 277.813 251.44 276.526 247.2C276.481 247.051 276.432 246.9 276.375 246.748C288.583 252.707 307.525 241.798 307.992 241.529ZM409.669 291.435C409.669 291.435 402.286 293.855 391.523 297.17C385.48 282.954 385.891 254.53 382.112 253.453C377.055 252.008 341.081 245.234 339.996 237.295C339.996 237.295 351.5 248.484 368.424 234.474C380.358 224.594 362.618 187.483 362.383 186.77C362.679 187.301 381.557 221.493 387.285 231.518C390.681 237.459 400.184 248.508 408.398 260.274C409.221 278.47 409.669 291.435 409.669 291.435ZM327.617 202.395C325.883 221.178 325.458 240.08 326.35 258.92C326.809 268.547 327.606 278.159 328.558 287.752C329.028 292.49 329.541 297.22 330.068 301.95C330.345 304.438 330.629 306.926 330.914 309.415C331.073 310.811 331.1 312.37 331.346 313.841C330.739 313.966 330.14 314.088 329.548 314.201C329.381 313.113 329.313 311.994 329.188 310.909C328.857 308.049 328.531 305.185 328.213 302.321C327.602 296.848 327.01 291.366 326.479 285.881C324.578 266.339 323.584 246.751 324.195 227.118C324.798 207.81 326.794 188.56 330.106 169.534C330.314 168.331 332.143 168.843 331.934 170.038C330.068 180.762 328.619 191.553 327.617 202.395Z" fill="#D3A9C6"/>
<path d="M319.381 177.94C304.509 179.328 302.992 166.507 304.001 156.508C304.627 150.322 306.217 145.216 306.217 145.216C307.013 142.215 311.755 143.418 311.755 143.418C311.755 143.418 309.881 147.871 311.998 153.094C319.54 171.685 330.66 168.624 330.66 168.624C331.035 177.435 319.381 177.94 319.381 177.94ZM354.977 130.939C354.977 130.939 345.313 166.687 330.662 168.625C330.662 168.625 344.334 190.199 362.137 148.148C363.801 144.217 364.313 139.869 363.477 135.682C363.077 133.681 362.438 131.978 361.415 131.651C358.688 130.779 354.977 130.939 354.977 130.939Z" fill="#F2F5FC"/>
<path d="M311.998 153.094C310.917 151.941 307.507 154.137 304.001 156.508C304.627 150.322 306.217 145.216 306.217 145.216C307.013 142.215 311.755 143.418 311.755 143.418L311.998 153.094Z" fill="#E2E6ED"/>
<path d="M391.257 138.852C391.481 138.874 400.403 143.181 409.669 168.849C423.308 206.629 430.952 222.195 432.01 224.046C433.935 227.414 467.465 309.878 468.028 311.207C470.247 316.441 443.35 327.378 440.713 322.872C440.713 322.872 401.918 248.571 394.698 241.971C387.479 235.37 361.907 191.589 362.383 186.771C362.859 181.952 359.007 135.695 391.257 138.852Z" fill="#E2C3D8"/>
<path d="M401.19 164.47C398.784 163.268 396.072 155.23 395.829 157.574C395.59 159.918 394.865 168.119 391.978 167.876C391.303 167.819 390.798 167.383 390.426 166.742C390.4 168.809 389.759 170.562 387.646 170.478C382.592 170.285 382.835 150.67 373.211 143.877C373.286 144.135 376.439 154.429 374.83 156.568C373.207 158.734 371.552 161.674 368.905 155.021C366.355 148.618 366.617 144.343 363.817 141.218C363.95 139.374 363.844 137.512 363.476 135.684C363.077 133.681 362.436 131.978 361.416 131.651C361.279 131.609 361.142 131.568 361.006 131.53C361.806 131.173 362.755 130.779 363.87 130.339C373.207 126.656 396.887 131.951 400.882 146.153C406.41 165.786 403.599 165.672 401.19 164.47Z" fill="#D3A9C6"/>
<path d="M354.977 130.938C355.188 130.315 354.535 128.846 363.871 125.163C373.207 121.48 396.886 126.773 400.883 140.977C406.409 160.611 403.598 160.495 401.191 159.292C398.784 158.089 396.07 150.054 395.83 152.398C395.589 154.741 394.867 162.941 391.979 162.701C389.091 162.46 389.332 155.203 389.332 155.203C389.332 155.203 392.701 165.497 387.647 165.302C382.593 165.107 382.834 145.491 373.207 138.696C373.207 138.696 376.457 149.226 374.832 151.391C373.207 153.557 371.551 156.497 368.904 149.843C366.256 143.19 366.644 138.837 363.477 135.682C360.31 132.526 357.805 131.65 357.805 131.65L354.977 130.938Z" fill="#FEA695"/>
<path d="M101.373 474.657C101.37 474.736 101.349 474.846 101.318 474.987C101.301 475.073 101.277 475.176 101.249 475.286C101.215 475.413 101.177 475.554 101.133 475.709C101.098 475.833 101.057 475.967 101.012 476.111C100.978 476.218 100.944 476.331 100.906 476.451C100.861 476.596 100.813 476.747 100.758 476.908C100.569 477.485 100.339 478.159 100.071 478.918C95.2692 492.464 78.4835 533.254 70.4824 546.343C70.2556 546.714 70.0322 547.068 69.8191 547.394C69.3895 548.054 68.2244 550.215 65.2618 555.387C62.4676 560.263 60.9141 564.459 60.1752 568.029C59.426 571.644 59.5153 574.617 59.9965 576.998C61.086 582.403 64.2033 584.785 64.2033 584.785C64.2033 584.785 64.2101 584.785 64.2033 584.816C63.5881 587.482 57.7935 583.799 52.0195 578.527C45.6131 572.675 39.2343 564.868 39.9904 561.6C42.3825 558.545 44.0047 557.662 45.6163 554.019C47.1766 550.483 48.7232 544.349 50.9435 531.113C54.4597 510.161 65.1999 485.444 68.5162 482.798C69.4683 482.038 70.3447 479.853 71.1214 477.087C73.0632 470.166 74.3968 459.637 74.7301 458.812C74.7304 458.813 101.59 471.118 101.373 474.657Z" fill="#FEA695"/>
<path d="M101.373 474.657C101.37 474.736 101.349 474.846 101.318 474.987C101.301 475.077 101.277 475.176 101.249 475.286C101.215 475.413 101.177 475.554 101.133 475.709C101.095 475.833 101.053 475.967 101.012 476.111C100.978 476.218 100.944 476.331 100.906 476.451C100.858 476.596 100.809 476.747 100.758 476.908C100.569 477.485 100.339 478.159 100.071 478.918C95.2692 492.464 78.4835 533.254 70.4824 546.343C73.9399 536.821 75.7855 528.467 76.8338 522.072C78.621 511.158 80.061 501.742 76.8338 490.31C75.2116 484.574 72.9195 480.1 71.122 477.087C73.0638 470.166 74.3973 459.637 74.7307 458.812C74.7304 458.813 101.59 471.118 101.373 474.657Z" fill="#D17061"/>
<path d="M66.8456 467.05C65.8209 465.126 77.1537 414.393 79.4601 402.843C81.7666 391.293 84.1732 382.844 84.1732 382.844C84.1732 382.844 103.908 421.612 105.352 427.868C106.796 434.124 101.501 467.845 101.501 467.845C101.501 467.845 96.6878 479.771 93.7997 478.604C90.9118 477.436 73.103 478.802 66.8456 467.05Z" fill="#937D83"/>
<path d="M59.9965 576.998C59.804 577.194 59.6116 577.366 59.426 577.517C58.0272 578.644 54.958 578.747 52.0195 578.527C45.6131 572.675 39.2343 564.868 39.9904 561.6C42.3825 558.545 44.0047 557.662 45.6163 554.02C47.6028 557.16 55.0268 568.315 60.1752 568.029C59.426 571.644 59.5153 574.617 59.9965 576.998Z" fill="#F2F5FC"/>
<path d="M33.7366 563.637C33.7366 563.637 27.0642 569.404 27.7287 570.448C32.7388 578.316 49.2212 593.94 62.1751 599.767C62.1751 599.767 73.4558 605.431 74.6295 603.951C75.1405 603.306 75.9467 602.478 76.3975 601.916C77.3678 600.704 76.4281 598.554 75.9475 598.459C75.2851 598.327 31.3371 571.598 33.7366 563.637Z" fill="#5E4E53"/>
<path d="M69.9044 600.551C59.5625 596.532 35.8045 578.373 30.3997 567.766C29.9518 566.887 32.9605 564.301 33.7366 563.637C35.2357 562.336 37.9044 560.29 40.6327 559.512C41.2262 559.342 45.742 571.361 54.4588 575.915C55.796 576.617 57.2421 577.141 58.7815 577.414C58.9972 577.457 59.2071 577.487 59.4262 577.516C59.4262 577.516 62.4421 585.745 71.8743 590.85C74.9489 592.511 77.054 595.577 77.2791 599.166C77.4781 602.299 75.2118 602.617 69.9044 600.551Z" fill="#AF9A9E"/>
<path d="M68.1545 589.786C67.7163 590.269 58.2978 584.56 56.3347 580.003C56.3347 580.003 54.8019 577.373 54.4585 575.916C55.7957 576.618 57.2418 577.141 58.7812 577.415C62.9038 587.033 68.9312 588.93 68.1545 589.786Z" fill="#AF9A9E"/>
<path d="M57.164 578.956C57.164 578.956 54.8387 574.958 55.274 574.086C55.7094 573.215 60.7349 571.693 60.2057 572.769C57.1637 578.956 69.3535 588.898 68.4525 590.021C68.044 590.531 59.1296 583.511 57.164 578.956Z" fill="#99878B"/>
<path d="M60.5072 576.689C60.907 575.93 59.7314 575.454 59.3321 576.211C58.4631 577.86 56.9569 579.007 55.1715 579.385C54.3529 579.558 54.4609 580.854 55.2843 580.68C57.5478 580.201 59.4048 578.78 60.5072 576.689ZM62.1704 580.771C62.6272 580.054 61.6425 579.261 61.1809 579.987C60.3299 581.322 59.2247 582.408 57.8414 583.164C57.0996 583.569 57.5295 584.778 58.277 584.37C59.8657 583.502 61.1866 582.315 62.1704 580.771ZM65.0241 584.7C65.6454 584.118 64.9168 583.079 64.2907 583.665C63.8636 584.065 63.593 584.499 63.2908 584.991C62.8535 585.703 62.3104 585.97 61.5266 586.17C60.7183 586.376 60.8234 587.673 61.6394 587.465C62.3428 587.285 63.0543 587.094 63.6259 586.596C64.2348 586.065 64.4433 585.243 65.0241 584.7Z" fill="#664039"/>
<path d="M125.407 486.799C124.992 490.48 124.184 493.957 122.679 496.084C118.345 502.222 114.018 519.596 114.018 519.596C114.018 519.596 104.405 565.165 101.707 584.158C101.6 585.477 101.6 587.271 102.03 589.147C102.8 592.505 104.948 596.137 110.337 597.828C111.193 598.096 111.911 598.391 112.509 598.708C119.881 602.615 108.818 609.749 106.979 608.896C106.797 608.814 106.471 608.704 106.02 608.57C101.597 607.264 85.4714 603.773 82.6082 601.041C82.1992 600.653 81.9415 600.041 81.7971 599.275C80.8657 599.086 80.1574 598.831 79.7762 598.539C79.5666 598.385 79.4566 598.213 79.46 598.038C79.4772 597.319 79.7006 596.46 80.0306 595.474C80.6973 593.477 81.804 590.952 82.5326 587.973C83.3059 584.811 83.6565 581.138 82.6082 577.045C80.0821 567.193 76.4734 513.775 92.7195 487.061C92.7195 487.061 92.7367 486.735 92.7711 486.15C92.9154 483.707 93.3038 476.735 93.5066 470.109L95.6065 469.738C95.6065 469.738 115.162 470.58 124.906 471.137C125.336 471.401 125.569 471.546 125.569 471.546C125.569 472.25 126.184 479.882 125.407 486.799Z" fill="#FEA695"/>
<path d="M125.406 486.8H125.402C116.46 491.155 101.406 488.139 92.7715 486.151C92.9155 483.705 93.3025 476.733 93.5076 470.11L95.6055 469.738C95.6055 469.738 115.162 470.58 124.905 471.138C125.333 471.4 125.568 471.544 125.568 471.544C125.569 472.25 126.183 479.882 125.406 486.8Z" fill="#D17061"/>
<path d="M132.049 480.73C127.94 487.873 95.2453 484.175 84.1751 480.73C73.1049 477.286 85.1348 434.128 84.1751 418.849C83.8867 414.262 83.7274 409.294 83.6592 404.556C83.5 393.51 83.8377 383.705 84.1751 382.844L84.1828 382.847L84.2094 382.863C85.7649 383.792 135.729 413.515 139.283 418.849C139.78 419.592 140.08 421.159 140.217 423.328C141.093 436.991 135.596 474.567 132.049 480.73Z" fill="#AF9A9E"/>
<path d="M114.822 431.682C114.688 440.074 113.832 448.422 112.856 456.751C112.382 460.799 111.883 464.843 111.436 468.893C111.206 470.979 110.99 473.066 110.798 475.156C110.696 476.261 110.602 477.368 110.515 478.475C110.493 478.762 110.489 480.488 110.504 481.015C110.259 481.238 110.127 481.579 110.229 481.949C110.243 481.997 110.256 482.046 110.27 482.095C110.461 482.788 111.346 483.012 111.855 482.513C112.718 481.667 112.352 479.22 112.441 478.106C112.618 475.892 112.827 473.68 113.057 471.47C113.517 467.049 114.057 462.637 114.58 458.222C115.624 449.404 116.577 440.569 116.719 431.682C116.739 430.461 114.842 430.461 114.822 431.682ZM144.341 403.086C140.786 397.753 85.7646 383.792 84.2094 382.863L84.1828 382.847L84.1751 382.844C83.8374 383.705 83.4997 393.51 83.6592 404.556C87.1626 405.972 92.5642 408.123 98.7237 410.472C98.6526 414.426 98.5816 418.38 98.5106 422.334C96.079 421.407 93.5721 420.74 90.9849 420.372C89.7505 420.197 88.5081 420.082 87.262 420.04C85.9737 419.997 81.5418 420.532 82.2707 418.108C82.623 416.937 80.7929 416.436 80.4417 417.604C79.3983 421.073 83.3479 421.91 85.8683 421.919C90.484 421.937 94.9273 422.846 99.1822 424.632C99.7728 424.88 100.373 424.266 100.383 423.718C100.458 419.541 100.533 415.365 100.608 411.188C114.96 416.617 132.651 422.787 140.217 423.329C140.08 421.159 144.837 403.829 144.341 403.086Z" fill="#937D83"/>
<path d="M113.278 603.111L106.02 608.568L105.429 609.015C105.429 609.015 81.446 602.706 80.1399 601.86C79.7584 601.616 79.6863 600.29 79.7756 598.537C79.8238 597.603 79.9165 596.551 80.03 595.472C80.6967 593.476 81.8034 590.95 82.532 587.971C85.9345 589.084 94.9804 591.558 102.029 589.146C102.799 592.503 104.947 596.135 110.337 597.826C111.192 598.094 111.91 598.39 112.509 598.706C113.086 601.173 113.278 603.111 113.278 603.111Z" fill="#F2F5FC"/>
<path d="M76.5143 602.346C76.5143 602.346 74.756 611.6 76.0044 612.032C85.4198 615.296 109.585 617.441 124.295 613.725C124.295 613.725 137.496 610.984 137.496 608.966C137.496 608.087 137.622 606.859 137.625 606.089C137.634 604.431 135.421 603.255 134.955 603.494C134.313 603.822 79.7885 610.602 76.5143 602.346Z" fill="#5E4E53"/>
<path d="M131.285 609.254C119.961 612.75 88.0242 613.31 76.4611 608.016C75.503 607.577 76.3053 603.416 76.5144 602.346C76.9056 600.262 77.7823 596.78 79.5494 594.318C79.9338 593.783 91.689 600.848 102.008 598.878C103.593 598.578 105.151 598.057 106.621 597.265C106.83 597.158 107.026 597.044 107.228 596.923C107.228 596.923 115.213 601.811 126.497 599.827C130.172 599.178 133.969 600.348 136.539 603.203C138.785 605.693 137.099 607.462 131.285 609.254Z" fill="#AF9A9E"/>
<path d="M122.677 601.404C122.63 602.099 110.957 603.567 106.29 601.055C106.29 601.055 103.262 599.87 102.008 598.878C103.593 598.579 105.151 598.058 106.621 597.266C116.454 602.582 122.759 600.172 122.677 601.404Z" fill="#AF9A9E"/>
<path d="M106.29 599.629C106.29 599.629 101.691 597.825 101.477 596.807C101.263 595.788 104.46 591.181 104.732 592.433C106.29 599.629 123.092 599.866 123.083 601.403C123.078 602.101 110.958 602.138 106.29 599.629Z" fill="#99878B"/>
<path d="M107.585 595.514C107.416 594.614 106.116 594.995 106.284 595.893C106.651 597.85 106.152 599.81 104.907 601.311C104.337 601.998 105.287 603.012 105.861 602.32C107.439 600.418 108.05 597.996 107.585 595.514ZM111.686 597.828C111.593 596.925 110.243 596.915 110.337 597.828C110.511 599.511 110.307 601.153 109.65 602.704C109.298 603.535 110.46 604.262 110.815 603.424C111.569 601.643 111.887 599.773 111.686 597.828ZM116.682 599.224C116.816 598.326 115.517 597.939 115.382 598.845C115.289 599.462 115.351 600.005 115.425 600.618C115.531 601.504 115.253 602.088 114.73 602.775C114.19 603.484 115.139 604.5 115.684 603.784C116.153 603.167 116.622 602.535 116.77 601.739C116.928 600.891 116.557 600.064 116.682 599.224Z" fill="#664039"/>
<path d="M121.556 303.225C121.556 303.225 132.308 293.056 133.43 286.591C134.552 280.125 134.231 279.002 134.231 279.002L157.014 288.787C157.014 288.787 155.748 297.61 152.129 304.027C148.51 310.443 145.462 313.01 145.462 313.01L121.556 303.225Z" fill="#E57E73"/>
<path d="M168.405 238.496C169.013 238.884 191.066 278.932 173.459 294.08C163.11 302.983 139.284 291.834 135.193 286.541C131.102 281.247 124.604 284.215 123.642 274.831C122.679 265.446 133.268 216.118 168.405 238.496Z" fill="#FEA695"/>
<path d="M165.278 243.155C160.703 243.55 144.579 247.737 142.895 253.222C141.21 258.711 141.21 258.711 141.21 258.711C140.873 260.63 140.516 262.568 140.133 264.529C139.864 265.948 139.579 267.378 139.283 268.816C138.023 274.968 136.646 280.882 135.193 286.541C133.486 286.625 131.312 286.629 128.831 286.359C125.364 285.98 121.301 285.062 117.097 283.07C115.428 282.282 113.421 281.246 111.368 279.645C98.1321 269.298 98.371 251.25 106.797 246.436C112.366 243.258 116.039 243.838 117.89 244.433C118.357 244.577 118.706 244.729 118.945 244.82C118.948 244.824 118.948 244.824 118.952 244.824C119.191 244.915 119.309 244.945 119.309 244.847C119.309 244.847 119.309 244.847 119.309 244.843C119.275 244.24 108.629 234.12 123.581 224.045C124.146 223.666 124.7 223.309 125.242 222.979C125.671 222.718 126.092 222.471 126.506 222.24C126.931 222.001 127.348 221.777 127.757 221.568C140.163 215.211 147.25 220.809 147.466 221.894C147.477 221.959 147.512 221.993 147.561 222C148.198 222.156 151.829 217.976 155.429 216.853C156.67 216.462 157.906 216.44 159.018 217.081C163.59 219.728 164.071 224.045 164.071 224.045C164.071 224.045 179.956 213.713 181.883 222.858C183.807 231.999 169.849 242.761 165.278 243.155Z" fill="#664039"/>
<path d="M140.133 264.53C139.863 265.949 139.579 267.379 139.283 268.816C138.023 274.969 136.646 280.882 135.193 286.542C133.486 286.625 131.312 286.629 128.831 286.36C129.044 285.559 129.264 284.755 129.48 284.004C130.504 280.423 128.456 275.796 127.37 265.076C126.285 254.356 138.012 260.676 139.283 261.639L140.133 264.53ZM123.58 224.045C124.146 223.666 124.7 223.309 125.242 222.979C119.335 227.543 119.309 244.54 119.309 244.843C119.275 244.24 108.629 234.12 123.58 224.045ZM144.571 229.363C144.461 229.591 144.386 229.723 144.34 229.739C144.29 229.754 144.374 229.618 144.571 229.363ZM155.429 216.854C155.429 216.854 146.218 227.228 144.571 229.36C145.072 228.282 146.21 225.088 147.561 222.001C148.198 222.156 151.829 217.976 155.429 216.854Z" fill="#4F312D"/>
<path d="M141.47 264.566C141.47 264.566 138.081 257.668 133.108 260.876C128.134 264.085 127.191 279.384 137.289 280.317C147.387 281.249 141.47 264.566 141.47 264.566Z" fill="#FEA695"/>
<path d="M139.285 268.817C139.285 268.817 135.675 261.518 134.07 265.85C132.466 270.181 134.912 276.117 136.336 274.833C137.76 273.55 133.268 268.898 135.193 267.935C137.119 266.972 137.921 270.662 139.285 268.817Z" fill="#E57E73"/>
<path d="M275.703 286.001C274.095 283.627 270.971 285.379 270.971 285.379C261.528 290.961 260.516 289.076 260.516 289.076C260.516 289.076 263.654 288.564 270.013 283.465C272.796 281.232 272.149 278.808 268.365 279.85C267.297 280.145 260.52 284.398 258.99 285.3C261.706 283.116 268.383 278.723 267.784 277.28C266.49 274.163 259.711 280.17 249.833 284.138C248.01 281.042 254.578 276.591 255.938 274.691C257.774 272.125 253.404 272.192 249.833 275.127C247.364 277.157 246.218 280.768 243.17 282.212C240.122 283.656 233.624 290.233 233.624 290.233C233.624 290.233 234.346 304.189 240.807 302.495C247.267 300.802 249.056 301.422 261.607 299.978C267.642 299.284 270.802 297.669 273.162 295.691C274.707 294.395 274.556 292.045 272.553 292.275C269.687 292.606 263.7 294.356 261.679 294.601C266.951 293.36 277.214 288.233 275.703 286.001Z" fill="#FEA695"/>
<path d="M241.085 304.978C239.64 303.707 178.511 319.385 169.368 332.239C164.762 338.711 163.028 348.516 160.858 359.478C158.718 370.289 155.898 376.934 152.129 388.952C146.468 407.001 141.449 419.934 139.283 418.849C137.121 417.764 84.1747 406.214 79.3604 386.482C78.7232 383.88 87.7447 359.049 98.1926 340.645C101.011 335.68 103.932 331.185 106.797 327.718C119.191 312.716 118.258 302.911 126.968 296.026C127.727 295.427 128.558 294.85 129.48 294.293C129.48 294.293 130.205 294.46 131.456 294.729C137.473 296.045 155.623 299.857 163.59 299.857C173.218 299.857 197.301 293.34 208.292 291.197C217.759 289.348 231.32 287.634 234.897 287.194C235.419 287.13 235.913 287.438 236.086 287.935C237.371 291.633 242.343 306.087 241.085 304.978Z" fill="#81C39F"/>
<path d="M169.367 332.238C164.762 338.709 163.028 348.515 160.858 359.477C160.543 339.422 150.702 344.244 150.034 344.592L169.367 332.238ZM127.298 318.625C127.109 333.062 117.867 351.352 106.797 353.04C101.113 353.905 98.9396 347.316 98.1924 340.644C101.011 335.679 103.932 331.184 106.797 327.717C119.191 312.715 118.257 302.91 126.968 296.025C127.921 295.467 128.763 294.906 129.48 294.292C130.591 293.336 131.202 293.628 131.456 294.728C132.553 299.397 127.298 318.625 127.298 318.625Z" fill="#6BAA86"/>
<path d="M126.048 313.011C122.346 317.287 121.555 299.738 121.555 299.738C121.555 299.738 123.403 318.867 120.425 325.365C117.556 331.612 115.09 315.491 114.908 314.274C115.045 315.666 117.124 337.306 112.932 338.144C110.591 338.615 109.552 333.517 109.093 328.737C109.252 336.07 108.865 345.253 105.602 340.978C100.682 334.537 102.947 313.868 104.244 304.514C104.275 304.294 106.213 299.321 107.666 297.997C107.909 297.777 108.152 297.466 108.395 297.075C110.788 293.26 113.16 282.165 113.387 281.144C113.387 281.137 113.391 281.133 113.391 281.125C113.395 281.107 113.399 281.087 113.402 281.076C113.736 281.285 114.063 281.482 114.381 281.668C114.704 281.854 115.019 282.028 115.33 282.191C115.33 282.191 115.36 282.206 115.417 282.237C115.466 282.263 115.516 282.29 115.565 282.316C115.595 282.332 115.626 282.347 115.66 282.366C115.762 282.419 115.884 282.479 116.016 282.548C116.062 282.57 116.108 282.593 116.157 282.616C116.252 282.665 116.354 282.714 116.456 282.764C116.661 282.867 116.881 282.973 117.098 283.071C121.301 285.063 125.364 285.981 128.832 286.36L128.874 286.864L129.15 290.274L129.48 294.291C129.48 294.291 129.521 309.001 126.048 313.011Z" fill="#FEA695"/>
<path d="M129.15 290.274C124.874 293.188 115.166 296.484 108.394 297.076C110.788 293.26 113.159 282.165 113.387 281.144C113.387 281.137 113.39 281.133 113.39 281.125C113.394 281.107 113.398 281.087 113.402 281.076C113.736 281.285 114.062 281.482 114.381 281.668C114.703 281.854 115.018 282.028 115.329 282.191C115.329 282.191 115.359 282.206 115.416 282.237C115.454 282.26 115.504 282.286 115.565 282.316C115.595 282.332 115.625 282.347 115.659 282.366C115.762 282.419 115.883 282.479 116.016 282.548C116.061 282.57 116.107 282.593 116.156 282.616C116.251 282.665 116.354 282.714 116.456 282.764C116.661 282.867 116.881 282.973 117.097 283.071C121.301 285.063 125.364 285.981 128.831 286.36L128.873 286.864L129.15 290.274Z" fill="#D17061"/>
<path d="M492.32 377.527C486.975 376.245 479.66 371.282 473.772 366.599C470.089 363.672 466.964 360.854 465.226 359.117C460.711 354.602 448.551 350.398 442.302 350.591C436.049 350.784 440.1 341.328 440.1 341.328C440.1 341.328 443.736 339.696 448.854 338.218C457.747 335.656 471.118 333.568 477.729 341.328C488.151 353.562 494.404 365.369 499.266 367.453C504.129 369.537 501.004 379.607 492.32 377.527Z" fill="#9B6661"/>
<path d="M473.772 366.6C470.089 363.673 466.964 360.855 465.226 359.118C460.711 354.603 448.551 350.398 442.302 350.592C436.049 350.785 440.1 341.328 440.1 341.328C440.1 341.328 443.736 339.697 448.854 338.219C455.728 339.952 467.176 342.814 469.629 350.592C471.297 355.884 472.753 361.961 473.772 366.6Z" fill="#724842"/>
<path d="M425.627 393.154C425.627 393.154 390.388 382.735 385.603 370.927C380.819 359.119 378.388 348.314 372.483 350.591C366.577 352.868 367.967 371.274 372.483 378.568C376.998 385.861 387.766 415.728 427.017 427.536C466.267 439.345 425.627 393.154 425.627 393.154Z" fill="#9B6661"/>
<path d="M520.454 496.3C514.898 505.676 496.142 515.052 471.129 494.562C446.12 474.072 429.795 436.913 425.627 421.284C421.458 405.656 424.933 385.859 421.458 381.172C417.987 376.486 410.134 367.661 402.494 359.708C397.362 354.368 395.77 347.787 396.752 342.78C397.234 340.331 398.329 338.258 399.924 336.889C402.425 334.743 406.656 335.239 411.135 336.579C416.786 338.272 422.838 341.313 426.324 342.101C432.574 343.517 441.605 336.809 460.437 350.284C468.03 355.715 458.017 366.902 461.109 385.863C461.412 387.753 461.85 389.717 462.449 391.764C463.869 396.619 466.376 401.152 469.629 405.458C481.478 421.185 503.151 433.923 517.329 448.373C535.391 466.78 526.013 486.923 520.454 496.3Z" fill="#9B6661"/>
<path d="M469.629 405.459C464.945 405.254 458.583 404.882 455.498 404.265C450.289 403.225 440.564 394.542 438.808 386.556C437.056 378.567 432.573 366.062 432.573 366.062L461.105 385.859L461.109 385.863C461.412 387.754 461.85 389.717 462.449 391.765C463.869 396.619 466.376 401.152 469.629 405.459Z" fill="#724842"/>
<path d="M421.97 382.131C421.97 382.131 435.861 388.175 451.994 386.569C468.127 384.964 466.266 386.845 466.266 386.845L469.629 394.266C469.629 394.266 442.342 399.301 422.355 387.667C422.355 387.667 419.313 381.131 421.97 382.131Z" fill="#FB9177"/>
<path d="M432.574 366.064C432.574 366.064 442.881 375.8 444.108 387.596C445.968 405.459 484.33 402.183 482.94 398.015C481.551 393.848 457.931 365.914 448.9 363.732C439.869 361.549 428.599 362.329 432.574 366.064ZM577.42 576.714C575.682 579.998 560.747 588.334 559.359 583.472C557.969 578.611 562.057 581.22 563.526 573.747C564.165 570.498 561.375 562.796 538.862 550.131C531.159 545.797 521.939 544.89 514.357 540.981C507.217 537.302 501.059 531.948 497.182 522.349C494.78 516.396 496.003 507.757 498.89 498.585C505.607 477.255 521.315 453.042 521.315 453.042C521.68 453.542 529.933 460.875 532.489 474.769C535.044 488.661 536.953 501.99 540.429 514.494C543.9 526.999 550.324 540.059 562.484 548.742C574.64 557.425 579.158 573.429 577.42 576.714Z" fill="#9B6661"/>
<path d="M523.928 527.557C520.789 532.976 517.423 537.437 514.357 540.981C507.217 537.301 501.058 531.947 497.182 522.348C494.78 516.395 496.002 507.756 498.89 498.584C507.082 489.631 518.518 483.029 519.759 482.408C520.479 482.051 527.991 482.747 532.171 488.197C540.465 499.004 528.312 519.987 523.928 527.557Z" fill="#724842"/>
<path d="M445.774 460.875C446.879 460.599 456.291 478.122 468.005 494.91C470.678 498.742 463.542 507.253 462.825 511.233C459.321 530.682 462.447 559.161 476.688 579.304C490.93 599.446 495.446 604.892 489.888 606.51C484.33 608.129 481.551 612.296 489.54 612.644C497.529 612.991 505.866 613.922 508.297 606.51C510.729 599.099 497.53 581.734 495.098 568.537C492.666 555.34 490.583 538.669 520.455 517.484C550.327 496.299 516.286 445.941 507.255 446.636C498.224 447.33 445.774 460.875 445.774 460.875Z" fill="#9B6661"/>
<path d="M519.76 482.409C519.76 482.409 527.472 508.457 515.453 522.696C503.435 536.935 524.97 524.433 524.275 522.696C523.581 520.96 550.674 480.326 519.76 482.409Z" fill="#724842"/>
<path d="M523.199 467.474C525.68 468.152 543.38 475.462 557.621 467.474C571.862 459.486 579.852 442.469 581.241 451.151C582.631 459.834 565.009 489.122 548.59 488.659C532.171 488.196 525.665 485.881 519.76 482.408C513.855 478.935 508.701 467.821 511.799 465.043C514.897 462.265 520.417 466.713 523.199 467.474Z" fill="#9B6661"/>
<path d="M411.134 336.579C411.01 337.929 410.66 339.349 410.058 340.71C407.707 346.032 400.154 344.014 396.752 342.78C397.234 340.331 398.329 338.258 399.924 336.889C402.425 334.743 406.655 335.239 411.134 336.579Z" fill="#5F3934"/>
<path d="M486.049 360.752C485.195 366.521 476.553 365.303 479.823 359.522C481.466 356.621 479.637 351.45 477.854 347.62C479.485 353.647 478.92 362.728 476.553 365.303C473.567 368.554 471.135 364.662 471.135 364.662C471.135 364.662 471.135 364.662 472.106 359.739C473.078 354.815 468.339 343.508 468.339 343.508C468.339 343.508 468.339 343.508 468.051 353.267C467.766 363.027 464.117 363.494 462.474 364.264C461.662 364.647 461.761 361.187 462.072 357.584C462.133 356.863 462.167 356.143 462.167 355.422C462.167 351.022 461.006 346.679 458.809 342.836C457.371 340.318 455.14 337.177 452.853 334.157C451.146 331.904 449.404 329.719 447.929 327.91C446.665 326.355 445.596 325.073 444.913 324.269C444.401 323.666 444.108 323.324 444.108 323.324C444.26 323.313 444.412 323.302 444.563 323.287C445.042 323.249 445.508 323.207 445.967 323.154C458.32 321.834 466.275 314.877 466.275 314.877C466.404 314.96 466.556 315.089 466.726 315.26C469.412 317.953 476.894 330.888 481.886 336.085C487.194 341.607 486.902 354.982 486.049 360.752Z" fill="#FEA695"/>
<path d="M456.29 332.26C456.29 332.26 456.074 334.987 452.853 334.157C449.628 333.326 450.011 338.268 448.054 339.812C444.108 342.926 441.794 341.777 438.808 341.675C437.473 341.629 440.151 339.755 442.879 335.423C443.93 333.751 444.746 331.346 445.095 329.062C445.372 327.238 445.349 325.493 444.913 324.268C444.787 323.919 444.67 323.589 444.563 323.285C445.041 323.247 445.508 323.206 445.967 323.152L450.224 326.908L456.29 332.26Z" fill="#FEA695"/>
<path d="M466.727 315.262C463.791 319.992 456.427 324.107 450.224 326.911C449.435 327.267 448.669 327.601 447.929 327.912C446.916 328.341 445.964 328.728 445.095 329.065C445.372 327.241 445.349 325.496 444.913 324.271C444.401 323.668 444.108 323.326 444.108 323.326C444.26 323.315 444.412 323.304 444.563 323.288C445.042 323.251 445.508 323.209 445.967 323.156C458.32 321.836 466.275 314.879 466.275 314.879C466.404 314.962 466.556 315.091 466.727 315.262Z" fill="#E57E73"/>
</svg>
