<svg width="52" height="52" viewBox="0 0 52 52" fill="none" xmlns="http://www.w3.org/2000/svg">
<path d="M25.5594 0.440604C25.225 0.443895 24.8946 0.513319 24.587 0.645024C24.2794 0.77673 24.0006 0.968111 23.7667 1.20813C23.5328 1.44816 23.3484 1.73229 23.2239 2.044C23.0994 2.35571 23.0373 2.68891 23.0412 3.02475V23.4635C23.0414 24.1415 23.3097 24.7917 23.787 25.2711C24.2644 25.7504 24.9117 26.0195 25.5867 26.0195C26.2617 26.0195 26.909 25.7504 27.3864 25.2711C27.8637 24.7917 28.132 24.1415 28.1322 23.4635V3.02475C28.1361 2.68429 28.0723 2.34641 27.9444 2.03109C27.8165 1.71577 27.6271 1.42924 27.3874 1.18848C27.1477 0.947727 26.8625 0.757643 26.5486 0.629187C26.2347 0.500731 25.8983 0.436625 25.5594 0.440604ZM40.3952 5.56402C40.3124 5.56162 40.2295 5.56327 40.1468 5.569C39.6441 5.61187 39.1654 5.80405 38.7716 6.12097C38.3778 6.43788 38.0868 6.86516 37.9356 7.34866C37.7844 7.83216 37.7798 8.35006 37.9223 8.83621C38.0649 9.32235 38.3482 9.7549 38.7363 10.0789C43.1413 13.8361 45.9282 19.4284 45.9282 25.7084C45.9282 37.0476 36.863 46.187 25.5991 46.187C14.3351 46.187 5.25011 37.0476 5.25013 25.7084C5.25015 19.4648 8.00158 13.9104 12.3626 10.1536C12.6167 9.93582 12.8255 9.66977 12.9773 9.37087C13.129 9.07196 13.2206 8.746 13.2469 8.41153C13.2732 8.07706 13.2337 7.74081 13.1305 7.42169C13.0274 7.10257 12.8627 6.80698 12.6458 6.5518C12.4289 6.29662 12.1641 6.08683 11.8665 5.93444C11.5689 5.78204 11.2444 5.68984 10.9114 5.66344C10.5784 5.63704 10.2434 5.67685 9.92572 5.78046C9.60801 5.88407 9.31372 6.04947 9.05967 6.26732C3.61578 10.957 0.159204 17.9472 0.15918 25.7084C0.159157 39.8038 11.5819 51.2955 25.5991 51.2955C39.6163 51.2955 51.0142 39.8038 51.0142 25.7084C51.0142 17.9019 47.5234 10.883 42.0243 6.19253C41.572 5.79659 40.995 5.57397 40.3952 5.56402Z" fill="#271E4A"/>
</svg>
