<svg width="689" height="453" viewBox="0 0 689 453" fill="none" xmlns="http://www.w3.org/2000/svg">
<path d="M484.58 171.581C485.133 174.526 485.297 183.344 485.024 186.327L470.376 191.374C467.429 187.841 464.14 186.344 460.59 186.116C457.729 185.941 454.711 185.709 452.309 184.121C449.278 182.096 447.921 178.313 447.457 174.699C446.96 171.223 447.337 167.678 448.551 164.383C449.785 161.073 452.196 158.334 455.324 156.688C458.635 155.042 461.369 158.321 464.824 157.026C465.584 156.735 469.455 158.718 469.921 158.035C470.741 156.842 468.304 149.522 468.217 148.072C468.167 146.646 468.508 145.234 469.202 143.987C469.896 142.741 470.918 141.707 472.157 140.999C472.39 140.857 472.656 140.778 472.929 140.77C473.201 140.763 473.471 140.826 473.712 140.955C473.952 141.084 474.155 141.274 474.299 141.505C474.444 141.737 474.525 142.002 474.535 142.274C474.72 148.292 476.45 154.162 479.559 159.319C480.676 160.983 481.701 162.708 482.627 164.486C483.563 166.763 484.218 169.146 484.58 171.581Z" fill="#D1996A"/>
<path d="M599.878 270.144C589.049 305.76 532.529 295.503 532.529 295.503C531.546 282.393 528.299 274.397 524.016 265.096C523.652 264.302 523.289 263.508 522.912 262.7C525.148 261.57 527.379 260.331 529.606 258.985C539.776 268.354 554.135 267.223 559.024 265.433C565.759 262.97 577.653 249.509 570.245 220.569C562.836 191.629 535.964 200.379 535.964 200.379C523.477 204.592 517.726 210.945 517.389 222.454C515.303 225.115 513.03 227.625 510.587 229.965C509.549 223.749 510.507 217.365 513.321 211.726C519.127 200.096 530.966 194.55 530.966 194.55C537.065 191.862 543.762 190.818 550.39 191.522C558.782 192.478 568.493 196.745 576.535 208.899C594.948 236.722 599.878 270.144 599.878 270.144Z" fill="#7D6539"/>
<path d="M550.389 191.522C543.761 190.818 537.064 191.862 530.965 194.55C530.965 194.55 519.125 200.096 513.32 211.726L509.521 206.207C510.782 203.647 512.298 201.221 514.047 198.965C521.442 189.422 531.518 184.846 538.104 182.746C540.315 182.013 542.581 181.46 544.88 181.09C546.873 182.759 549.204 188.399 550.389 191.522Z" fill="#A19B55"/>
<path d="M559.024 265.433C554.134 267.223 539.776 268.354 529.606 258.985C538.86 253.373 547.669 246.118 553.973 238.741C557.367 234.77 565.867 224.742 561.354 213.611C559.374 208.738 555.643 204.686 550.7 202.909C543.776 200.419 533.297 201.536 518.614 220.906C518.21 221.444 517.793 221.943 517.389 222.454C517.725 210.945 523.477 204.592 535.964 200.379C535.964 200.379 562.836 191.63 570.244 220.57C577.653 249.509 565.759 262.97 559.024 265.433Z" fill="#A19B55"/>
<path d="M553.974 238.738C547.67 246.114 538.861 253.37 529.607 258.982C527.384 260.328 525.153 261.567 522.912 262.697C520.986 263.68 519.06 264.569 517.161 265.363C507.417 269.397 496.814 270.915 486.328 269.778C473.268 268.372 461.017 262.77 451.414 253.814C449.549 252.081 447.799 250.228 446.175 248.268C433.594 233.058 426.899 215.303 424.825 209.125C424.327 207.685 424.098 206.877 424.098 206.877L426.064 205.868L442.78 197.347L444.302 196.566C452.331 214.361 461.382 227.202 470.986 234.256C479.984 240.865 489.453 242.386 499.044 238.052C503.317 236.018 507.219 233.284 510.588 229.962C513.03 227.622 515.303 225.112 517.39 222.451C517.794 221.939 518.211 221.441 518.615 220.903C533.298 201.533 543.777 200.416 550.701 202.906C555.644 204.683 559.375 208.735 561.355 213.607C565.868 224.739 557.368 234.767 553.974 238.738Z" fill="#C6BE69"/>
<path d="M499.043 238.053C489.453 242.387 479.984 240.866 470.986 234.257C468.238 219.275 468.427 196.299 468.427 196.299L469.235 196.137L486.894 192.651L488.645 192.301C488.645 192.301 489.238 225.992 499.043 238.053Z" fill="#A19B55"/>
<path d="M442.779 197.35L426.063 205.87L424.662 202.559L425.969 201.563L437.997 192.302L439.304 191.293L442.779 197.35Z" fill="#CCCCCC"/>
<path d="M486.894 192.652L469.234 196.138L468.104 190.283L486.126 184.562L486.894 192.652Z" fill="#CCCCCC"/>
<path d="M446.101 134.555H461.348C461.992 134.555 462.629 134.681 463.224 134.927C463.819 135.174 464.359 135.534 464.814 135.989C465.269 136.444 465.63 136.984 465.876 137.578C466.123 138.172 466.25 138.809 466.25 139.452V142.948H434.371C434.201 142.948 434.034 142.914 433.877 142.85C433.72 142.785 433.578 142.69 433.458 142.57C433.338 142.45 433.243 142.308 433.178 142.151C433.113 141.995 433.08 141.827 433.08 141.658C433.08 137.735 442.175 134.555 446.101 134.555Z" fill="#333333"/>
<path d="M466.25 142.945H445.428V145.862H466.25V142.945Z" fill="#1A1A1A"/>
<path d="M387.122 147.046V187.078L367.874 189.285C367.099 189.378 366.384 189.751 365.867 190.335C365.343 190.914 365.055 191.668 365.059 192.448V141.676C365.059 142.456 365.346 143.209 365.865 143.792C366.384 144.375 367.098 144.747 367.874 144.839L387.122 147.046Z" fill="#B3B3B3"/>
<path d="M365.058 141.677V192.45C365.059 193.248 364.758 194.017 364.217 194.604C363.675 195.19 362.931 195.55 362.135 195.613L349.123 196.677L328.245 198.373L304.66 200.297C303.998 200.352 303.339 200.16 302.81 199.758C302.282 199.356 301.921 198.773 301.797 198.121C301.673 197.469 301.795 196.794 302.14 196.227C302.484 195.659 303.027 195.239 303.663 195.048L311.691 192.611C312.774 192.287 313.724 191.621 314.399 190.715C315.074 189.808 315.439 188.708 315.439 187.577C315.439 186.447 315.074 185.347 314.399 184.44C313.724 183.533 312.774 182.868 311.691 182.543L303.663 180.107C303.111 179.939 302.627 179.598 302.283 179.136C301.939 178.673 301.752 178.112 301.75 177.536V156.591C301.752 156.015 301.939 155.454 302.283 154.992C302.627 154.529 303.111 154.189 303.663 154.021L311.691 151.584C312.774 151.259 313.724 150.594 314.399 149.687C315.074 148.78 315.439 147.68 315.439 146.55C315.439 145.42 315.074 144.32 314.399 143.413C313.724 142.506 312.774 141.841 311.691 141.516L303.663 139.079C303.046 138.893 302.516 138.492 302.17 137.948C301.824 137.405 301.685 136.755 301.778 136.117C301.871 135.48 302.19 134.897 302.677 134.475C303.164 134.053 303.786 133.819 304.43 133.816C304.498 133.816 304.579 133.83 304.66 133.83L328.245 135.755L349.123 137.451L362.135 138.514C362.931 138.577 363.675 138.937 364.217 139.524C364.758 140.11 365.059 140.879 365.058 141.677Z" fill="#CCCCCC"/>
<path d="M403.785 150.292V183.836L400.324 184.226H400.31L394.989 184.832L387.123 185.734V148.395L403.785 150.292Z" fill="#808080"/>
<path d="M434.011 153.089V181.019L433.728 181.06L410.574 184.021L404.579 184.789L403.785 184.896V149.227L434.011 153.089Z" fill="#B3B3B3"/>
<path d="M434.007 179.344H442.51V154.779H434.007V179.344Z" fill="#1A1A1A"/>
<path d="M443.613 145.863H468.571C468.864 145.863 469.144 145.979 469.351 146.186C469.558 146.393 469.674 146.673 469.674 146.965V182.45C469.674 182.595 469.645 182.738 469.59 182.872C469.535 183.006 469.453 183.127 469.351 183.23C469.248 183.332 469.127 183.413 468.993 183.468C468.859 183.524 468.716 183.552 468.571 183.552H443.613C443.32 183.552 443.04 183.436 442.833 183.23C442.626 183.023 442.51 182.743 442.51 182.45V146.965C442.51 146.673 442.626 146.393 442.833 146.186C443.04 145.979 443.32 145.863 443.613 145.863Z" fill="#333333"/>
<path d="M349.125 137.45V196.675L328.246 198.372V135.754L349.125 137.45Z" fill="#808080"/>
<path d="M349.125 142.887V144.919L328.246 143.681V141.648L349.125 142.887Z" fill="#4D4D4D"/>
<path d="M349.125 152.164V154.183L328.246 153.429V151.41L349.125 152.164Z" fill="#4D4D4D"/>
<path d="M349.125 161.424V163.443L328.246 163.187V161.168L349.125 161.424Z" fill="#4D4D4D"/>
<path d="M349.125 170.684V172.703L328.246 172.958V170.939L349.125 170.684Z" fill="#4D4D4D"/>
<path d="M349.125 179.945V181.965L328.246 182.719V180.699L349.125 179.945Z" fill="#4D4D4D"/>
<path d="M349.125 189.207V191.239L328.246 192.478V190.445L349.125 189.207Z" fill="#4D4D4D"/>
<path d="M437.378 184.926C436.351 183.472 435.122 182.171 433.728 181.063C433.054 180.498 432.354 179.946 431.653 179.408C429.566 177.766 427.437 176.056 426.05 173.781C424.259 170.847 423.814 167.145 421.645 164.453C421.188 163.851 420.586 163.374 419.894 163.067C418.13 162.353 416.015 163.592 415.234 165.342C414.439 167.078 414.682 169.11 415.22 170.941C415.746 172.785 416.554 174.548 416.877 176.433C417.2 178.317 416.945 180.431 415.624 181.804C414.56 182.907 413.025 183.352 411.543 183.769C411.22 183.85 410.897 183.944 410.573 184.024L404.579 184.792C404.313 184.788 404.048 184.77 403.784 184.738V183.836L400.323 184.227H400.309C399.797 184.146 399.272 184.065 398.76 183.984C397.44 183.782 395.743 183.917 394.989 184.832C394.815 185.062 394.7 185.329 394.652 185.613C394.619 186.348 394.832 187.073 395.258 187.672C397.076 190.957 399.057 194.402 402.343 196.206C405.764 198.077 409.886 197.795 413.779 198.037C417.807 198.293 422.117 199.948 425.969 201.564L437.998 192.303C438.469 189.732 438.442 186.528 437.378 184.926ZM538.106 182.746C531.519 184.846 521.443 189.422 514.048 198.966C512.89 196.166 509.078 190.957 496.699 187.726C492.889 186.773 489.582 184.411 487.446 181.117C486.704 179.917 486.056 178.661 485.506 177.362C484.547 175.019 483.816 172.589 483.324 170.106C482.93 168.19 482.642 166.253 482.462 164.305C482.435 164.103 482.408 163.888 482.394 163.659C482.381 163.471 482.354 163.269 482.341 163.067C482.099 159.923 482.027 156.769 482.125 153.618V153.604C482.138 153.12 482.152 152.621 482.179 152.11C482.206 151.585 482.233 151.047 482.26 150.508C482.584 145.226 483.187 139.965 484.065 134.746C489.326 137.669 494.818 140.158 500.484 142.19C501.562 142.58 502.653 142.917 503.73 143.28C504.62 143.563 506.061 144.074 507.987 144.841C506.007 149 506.223 154.008 507.098 158.598C507.192 159.082 507.421 159.675 507.906 159.702C508.714 159.755 508.741 158.396 509.442 157.992C509.667 157.889 509.921 157.867 510.161 157.928C510.401 157.989 510.613 158.131 510.762 158.329C511.051 158.738 511.244 159.208 511.328 159.702C511.786 158.571 512.257 157.44 512.715 156.31C513.273 154.794 514.005 153.349 514.897 152.002C515.677 150.881 516.755 150 518.008 149.458C518.386 149.647 518.776 149.849 519.167 150.064C519.241 150.094 519.313 150.131 519.383 150.172C519.475 150.216 519.565 150.265 519.652 150.32C521.632 151.356 523.774 152.541 526.05 153.86C526.185 153.941 526.333 154.021 526.468 154.102C526.776 155.282 526.996 156.484 527.128 157.696C527.235 158.53 527.316 159.352 527.384 160.186C527.411 160.536 527.438 160.9 527.464 161.25C527.694 164.103 527.963 167.011 529.094 169.635C530.226 172.274 532.354 174.629 535.142 175.302C534.738 174.347 535.587 173.216 536.597 173.068C536.288 176.369 536.807 179.695 538.106 182.746Z" fill="#FCBA7E"/>
<path d="M518.411 151.132C519.009 149.99 520.015 149.115 521.229 148.681C521.895 148.464 522.601 148.396 523.297 148.481C523.993 148.565 524.662 148.801 525.257 149.171C526.435 149.927 527.346 151.034 527.863 152.335C528.368 153.593 528.583 154.948 528.494 156.301C528.453 157.667 528.069 159 527.378 160.179C526.687 161.358 525.71 162.345 524.537 163.048C523.918 163.386 523.238 163.597 522.537 163.668C521.844 163.723 521.146 163.634 520.489 163.406C519.887 163.174 519.34 162.819 518.882 162.364C518.423 161.909 518.065 161.364 517.828 160.764C518.614 161.585 519.652 162.119 520.776 162.283C521.778 162.386 522.781 162.1 523.579 161.486C524.364 160.828 525.002 160.013 525.454 159.094C525.905 158.175 526.159 157.171 526.2 156.148C526.37 154.098 525.738 151.903 524.248 150.623C523.474 149.978 522.476 149.667 521.473 149.757C520.339 149.902 519.273 150.38 518.411 151.132Z" fill="#D49C6A"/>
<path d="M548.249 124.77C547.87 122.975 547.043 121.306 545.844 119.917C544.645 118.529 543.114 117.466 541.393 116.828C532.583 113.517 526.683 109.815 523.707 107.137C522.322 105.858 520.623 104.968 518.782 104.559C516.941 104.15 515.024 104.236 513.227 104.808C505.493 107.443 498.501 111.887 492.834 117.77C497.717 121.91 503.17 125.328 509.025 127.92C516.123 131.069 523.774 132.981 530.55 136.763C534.577 139.011 538.227 141.878 541.851 144.745C543.901 146.284 545.804 148.01 547.535 149.9C549.596 140.344 549.488 130.841 548.249 124.77ZM514.992 118.269C514.675 118.269 514.365 118.175 514.101 117.999C513.838 117.823 513.632 117.572 513.511 117.28C513.389 116.987 513.358 116.665 513.42 116.354C513.481 116.043 513.634 115.758 513.858 115.534C514.082 115.31 514.368 115.157 514.679 115.096C514.99 115.034 515.312 115.066 515.605 115.187C515.898 115.308 516.148 115.513 516.325 115.777C516.501 116.04 516.595 116.35 516.595 116.667C516.594 117.091 516.424 117.498 516.124 117.798C515.824 118.098 515.417 118.268 514.992 118.269ZM536.287 131.89C535.843 131.887 535.419 131.708 535.106 131.393C534.793 131.078 534.618 130.652 534.618 130.208C534.618 129.764 534.793 129.338 535.106 129.023C535.419 128.708 535.843 128.529 536.287 128.525C536.51 128.524 536.73 128.566 536.936 128.649C537.142 128.733 537.329 128.857 537.487 129.013C537.645 129.17 537.77 129.356 537.856 129.561C537.941 129.766 537.985 129.986 537.985 130.208C537.985 130.43 537.941 130.65 537.856 130.855C537.77 131.06 537.645 131.246 537.487 131.403C537.329 131.559 537.142 131.683 536.936 131.766C536.73 131.85 536.51 131.892 536.287 131.89Z" fill="#A19B55"/>
<path d="M518.009 149.458C516.755 149.999 515.677 150.881 514.898 152.002C514.006 153.348 513.274 154.794 512.715 156.309C512.258 157.439 511.786 158.57 511.328 159.701C511.245 159.207 511.051 158.738 510.762 158.328C510.614 158.13 510.402 157.988 510.162 157.927C509.922 157.866 509.668 157.889 509.442 157.992C508.742 158.395 508.715 159.755 507.907 159.701C507.422 159.674 507.193 159.082 507.099 158.597C506.223 154.007 506.008 149 507.988 144.84C510.506 145.85 513.901 147.358 518.009 149.458ZM542.336 174.548C541.097 174.731 539.832 174.499 538.739 173.888C538.232 173.524 537.667 173.247 537.069 173.067C536.913 173.04 536.753 173.04 536.597 173.067C535.587 173.215 534.739 174.346 535.143 175.301C532.354 174.629 530.226 172.273 529.095 169.635C527.963 167.01 527.694 164.102 527.465 161.249C527.357 158.841 527.023 156.448 526.468 154.102C529.58 155.932 532.947 158.018 536.571 160.428C538.079 161.451 539.642 162.406 541.204 163.322C541.062 165.612 541.252 167.911 541.77 170.146C542.107 171.6 542.578 173.08 542.336 174.548ZM537.985 130.223C537.982 130.554 537.882 130.878 537.696 131.152C537.51 131.427 537.246 131.641 536.939 131.766C536.632 131.892 536.295 131.924 535.969 131.859C535.644 131.794 535.345 131.634 535.111 131.399C534.876 131.165 534.716 130.866 534.65 130.541C534.585 130.216 534.617 129.879 534.743 129.572C534.869 129.265 535.082 129.002 535.357 128.816C535.632 128.63 535.956 128.529 536.288 128.527C536.511 128.524 536.733 128.566 536.94 128.65C537.148 128.734 537.336 128.859 537.494 129.017C537.652 129.175 537.777 129.363 537.862 129.57C537.946 129.777 537.988 129.999 537.985 130.223ZM516.595 116.668C516.595 117.093 516.426 117.5 516.125 117.801C515.825 118.101 515.417 118.27 514.992 118.27C514.567 118.27 514.159 118.101 513.858 117.801C513.558 117.5 513.389 117.093 513.389 116.668C513.389 116.243 513.558 115.836 513.858 115.536C514.159 115.235 514.567 115.066 514.992 115.066C515.417 115.066 515.825 115.235 516.125 115.536C516.426 115.836 516.595 116.243 516.595 116.668Z" fill="#603813"/>
<path d="M524.015 265.095C512.498 273.979 500.604 272.337 493.762 270.143C501.795 270.063 509.738 268.441 517.159 265.364C519.058 264.57 520.984 263.682 522.91 262.699C523.288 263.507 523.651 264.301 524.015 265.095Z" fill="#A19B55"/>
<path d="M519.176 134.352L517.287 133.634C519.291 128.371 522.683 123.749 527.103 120.258C530.741 117.384 534.957 115.379 539.036 113.439C541.952 112.119 544.791 110.635 547.539 108.996C548.945 108.118 550.366 107.12 551.739 106.155C556.214 103.009 560.843 99.7562 566.418 99.5045L566.51 101.521C561.523 101.746 557.335 104.69 552.901 107.807C551.506 108.787 550.063 109.801 548.61 110.709C545.796 112.39 542.89 113.91 539.904 115.263C535.927 117.154 531.815 119.11 528.355 121.842C524.221 125.107 521.049 129.43 519.176 134.352ZM502.402 128.67C502.317 128.67 502.232 128.664 502.148 128.653L502.43 126.653C502.392 126.649 502.353 126.652 502.317 126.664C502.28 126.675 502.246 126.694 502.218 126.72C502.376 126.428 502.448 126.098 502.427 125.767L502.038 103.706C501.916 101.127 502.027 98.5423 502.368 95.9829C502.965 92.8568 503.984 89.8263 505.399 86.9747C507.733 81.9327 510.533 77.1195 513.762 72.5977L515.406 73.7713C512.25 78.1906 509.513 82.8947 507.232 87.8225C505.897 90.5087 504.932 93.3629 504.362 96.3076C504.043 98.7482 503.941 101.212 504.058 103.671L504.447 125.732C504.473 126.186 504.407 126.641 504.255 127.069C504.102 127.498 503.866 127.892 503.56 128.229C503.241 128.514 502.829 128.671 502.402 128.67ZM493.444 122.092L492.702 120.214C492.904 120.127 493.084 119.997 493.228 119.831C493.372 119.665 493.476 119.469 493.533 119.257C493.657 118.848 493.695 118.418 493.645 117.993C493.595 117.569 493.458 117.159 493.243 116.79C492.548 115.651 491.354 114.86 490.088 114.023C489.798 113.83 489.508 113.639 489.224 113.442C485.273 110.712 482.276 106.924 479.378 103.26C477.315 100.5 475.029 97.9134 472.545 95.5255C471.66 94.723 470.691 93.9376 469.753 93.177C466.923 90.8822 463.996 88.5094 462.484 85.0581L464.337 84.2486C465.649 87.2502 468.262 89.3678 471.027 91.6095C471.985 92.3866 472.976 93.1903 473.902 94.0298C476.471 96.4911 478.833 99.1594 480.963 102.008C483.898 105.718 486.669 109.223 490.374 111.782C490.646 111.97 490.925 112.154 491.205 112.34C492.598 113.262 494.04 114.216 494.968 115.74C495.339 116.36 495.574 117.052 495.656 117.769C495.739 118.486 495.668 119.213 495.449 119.901C495.297 120.391 495.039 120.842 494.692 121.221C494.346 121.6 493.919 121.898 493.444 122.092ZM599.949 162.864C593.031 160.828 586.371 158 580.102 154.436C578.985 153.802 577.867 153.139 576.744 152.473C570.81 148.958 564.675 145.324 558.004 145.478C555.67 145.55 553.373 146.084 551.247 147.05C549.121 148.016 547.208 149.394 545.618 151.104L544.127 149.742C545.901 147.833 548.038 146.294 550.412 145.215C552.786 144.137 555.351 143.54 557.957 143.459C565.196 143.28 571.597 147.077 577.774 150.737C578.887 151.396 579.994 152.053 581.102 152.682C587.235 156.168 593.751 158.936 600.52 160.928L599.949 162.864Z" fill="#603813"/>
<path d="M525.542 107.824C525.466 106.576 525.569 105.323 525.847 104.104C526.329 102.527 527.131 101.066 528.204 99.8124C530.372 97.0862 533.061 94.8183 536.115 93.1406C538.363 97.2438 540.658 101.497 541.077 106.156C541.215 107.232 541.124 108.325 540.809 109.364C539.682 112.606 534.599 115.288 535.556 119.15C536.412 122.603 540.241 124.409 543.748 125.025C547.284 125.644 550.909 125.547 554.407 124.74C557.642 123.991 560.88 122.517 562.817 119.822C561.101 117.23 558.295 115.602 555.575 114.095C553.638 113.021 551.643 111.945 549.455 111.6C545.193 110.929 541.656 113.109 538.035 114.954C535.545 116.222 532.756 119.053 529.758 118.12C526.021 116.957 525.63 111.016 525.542 107.824ZM560.792 104.838C561.369 105.746 562.098 106.549 562.946 107.212C564.163 108.404 565.608 109.339 567.195 109.959C568.356 110.275 569.556 110.432 570.76 110.426C572.764 110.505 574.832 110.575 576.709 109.866C576.355 109.792 576.137 109.447 575.943 109.142C574.612 107.056 572.553 105.555 570.496 104.178C569.024 103.117 567.42 102.253 565.724 101.607C564.495 101.186 562.167 100.594 560.944 101.322C559.821 101.991 560.263 103.9 560.792 104.838Z" fill="#5E8C22"/>
<path d="M560.49 98.2545C560.831 97.0759 561.308 95.9408 561.911 94.8716C562.571 93.5862 563.232 92.3007 563.893 91.0151C564.249 90.1607 564.807 89.4052 565.52 88.8131C566.33 88.3327 567.257 88.0842 568.199 88.0949C571.834 87.8824 575.471 88.4914 578.839 89.8766C579.966 90.301 581.013 90.9128 581.936 91.6863C582.986 92.7343 583.858 93.9458 584.519 95.2735C585.098 96.2942 585.677 97.3148 586.255 98.3355C584.908 98.1647 583.541 98.2551 582.228 98.6016C581.433 98.9144 580.668 99.2983 579.942 99.7485C575.068 102.439 569.301 103.026 563.735 102.864C562.658 102.747 561.646 102.288 560.85 101.554C559.997 100.819 560.241 99.2563 560.49 98.2545ZM503.71 71.757C502.252 69.723 501.122 67.2861 501.376 64.7968C501.712 61.4988 504.331 58.947 506.872 56.8165C506.918 56.7659 506.975 56.7255 507.037 56.6979C507.1 56.6703 507.168 56.6561 507.236 56.6563C507.371 56.6773 507.46 56.8021 507.534 56.9164C508.788 58.8617 510.043 60.8071 511.297 62.7525C512.719 64.9581 514.185 67.2892 514.363 69.907C514.515 72.1479 513.223 77.6631 510.56 78.2406C508.032 78.7888 504.955 73.4927 503.71 71.757ZM520.609 88.2819C521.547 87.6889 522.404 86.9751 523.156 86.1589C524.404 84.697 524.973 82.7907 525.51 80.9453C521.889 79.7217 518.043 79.3082 514.244 79.734C512.528 79.834 510.87 80.3889 509.439 81.3417C507.021 83.1638 504.367 88.5095 507.016 91.0014C510.775 94.5375 517.325 90.5328 520.609 88.2819ZM501.27 89.4765C499.84 87.0379 497.588 85.1879 494.917 84.2581C494.77 84.1532 494.598 84.0901 494.419 84.0755C494.239 84.0609 494.059 84.0954 493.898 84.1752C493.736 84.2551 493.6 84.3774 493.503 84.5289C493.406 84.6804 493.352 84.8555 493.347 85.0353C492.349 89.1333 493.89 95.0329 497.848 97.2042C503.395 100.248 503.027 92.4975 501.27 89.4765ZM451.591 82.8282C450.269 80.1466 450.406 77.0046 450.64 74.0247C450.765 72.4392 450.804 70.5874 449.583 69.5674C448.929 69.0215 447.987 68.8018 447.531 68.0825C449.853 67.5195 452.271 67.4877 454.607 67.9894C456.943 68.491 459.135 69.5133 461.019 70.9798C464.39 73.6444 469.772 82.1969 466.035 86.4142C462.408 90.5079 453.6 86.9026 451.591 82.8282ZM471.521 87.6569C471.673 85.5366 472.287 83.4754 473.322 81.6183C474.357 79.7612 475.787 78.1535 477.511 76.9085C480.11 82.7763 482.248 88.8371 483.907 95.0359C484.036 95.3415 484.096 95.6712 484.085 96.0024C484.074 96.3336 483.991 96.6585 483.843 96.9548C483.648 97.1933 483.404 97.3864 483.127 97.5203C479.976 99.2875 476.639 100.245 474.32 97.1C472.316 94.3739 471.326 91.0342 471.521 87.6569ZM477.505 103.498C476.42 103.175 475.293 103.018 474.162 103.033C472.78 103.22 471.44 103.64 470.198 104.275C468.458 105.099 466.592 105.629 464.678 105.842C463.721 105.944 462.752 105.856 461.828 105.583C460.905 105.31 460.044 104.858 459.295 104.252C460.698 104.374 461.664 105.646 462.593 106.703C465.28 109.74 468.967 111.713 472.986 112.265C473.801 112.393 474.631 112.403 475.449 112.296C477.676 111.951 481.838 109.83 482.351 107.376C482.987 104.337 479.683 104.031 477.505 103.498ZM597.023 173.225C597.178 173.801 597.395 174.358 597.67 174.887C598.455 176.255 599.975 176.998 601.407 177.662C600.546 176.247 600.537 174.478 600.735 172.833C600.932 171.188 601.31 169.54 601.129 167.893C600.848 165.346 599.227 163.086 597.172 161.554C595.155 160.048 588.891 157.013 591.821 161.801C594.013 165.384 595.76 169.22 597.023 173.225Z" fill="#5E8C22"/>
<path d="M607.802 160.106C610.485 160.476 612.849 162 615.113 163.486C616.13 164.094 617.067 164.828 617.9 165.671C619.32 167.236 620.33 169.619 622.434 169.832C619.643 169.629 616.965 170.799 614.311 171.684C611.658 172.57 608.637 173.16 606.148 171.884C605.419 171.483 604.74 170.996 604.126 170.434C602.143 168.724 598.902 165.416 599.485 162.446C600.004 159.798 605.568 159.799 607.802 160.106ZM576.193 140.618C578.646 139.407 581.344 138.775 584.08 138.77C588.647 138.905 592.75 141.436 596.605 143.888C594.646 144.291 592.812 145.156 591.256 146.412C589.338 147.964 587.809 150.128 585.488 150.967C583.657 151.629 581.629 151.345 579.724 150.939C577.513 150.467 571.068 149.593 570.151 147.2C569.044 144.314 574.261 141.502 576.193 140.618Z" fill="#5E8C22"/>
<path d="M564.634 151.263C563.796 153.359 563.69 155.676 564.333 157.84C565.338 160.762 568.053 162.756 570.832 164.113C573.61 165.469 576.622 166.397 579.161 168.161C579.096 165.713 579.031 163.264 578.966 160.815C578.978 159.233 578.827 157.654 578.514 156.104C578.077 154.425 577.277 152.862 576.169 151.526C575.061 150.191 573.673 149.115 572.102 148.376C568.362 146.557 566.134 147.079 564.634 151.263Z" fill="#5E8C22"/>
<path d="M484.333 162.863C483.842 163.495 483.197 163.99 482.461 164.304C482.434 164.102 482.407 163.886 482.394 163.657C482.38 163.469 482.353 163.267 482.34 163.065C483.008 163.048 483.675 162.98 484.333 162.863Z" fill="#D49C6A"/>
<path d="M486.366 158.495L484.103 147.273C483.105 152.564 480.506 153.901 479.075 154.235C478.751 154.255 478.101 154.349 478.101 154.349C475.669 154.8 473.817 156.328 473.593 158.334C473.298 160.98 475.942 163.446 479.5 163.842C483.057 164.238 486.18 162.414 486.475 159.769C486.514 159.341 486.477 158.91 486.366 158.495ZM527.315 156.65C526.881 160.465 524.143 163.286 521.198 162.952C518.254 162.617 516.218 159.254 516.652 155.44C517.085 151.626 519.824 148.805 522.768 149.139C525.713 149.473 527.748 152.836 527.315 156.65Z" fill="#FCBA7E"/>
<path d="M566.204 170.185C566.211 170.359 566.164 170.531 566.07 170.678C565.976 170.825 565.84 170.939 565.679 171.007C562.244 172.339 555.59 170.185 550.04 167.816C547 166.512 544.048 165.011 541.204 163.321C539.641 162.405 538.079 161.45 536.57 160.427C532.947 158.017 529.58 155.931 526.468 154.1C523.383 152.297 520.555 150.762 518.009 149.456C513.901 147.357 510.506 145.849 507.987 144.839C506.061 144.072 504.62 143.561 503.731 143.278C502.653 142.915 501.562 142.578 500.485 142.188C494.818 140.157 489.327 137.667 484.065 134.744C476.175 130.439 468.892 125.107 462.406 118.888C462.122 118.598 461.963 118.209 461.963 117.804C461.963 117.399 462.122 117.01 462.406 116.721C462.69 116.432 463.077 116.266 463.482 116.258C463.887 116.25 464.279 116.402 464.574 116.68C470.243 122.019 476.507 126.689 483.243 130.598C483.701 130.868 484.159 131.137 484.631 131.406C490.196 134.566 496.023 137.241 502.047 139.402C503.125 139.792 507.933 140.626 509.025 140.99C512.513 142.12 519.908 146.697 537.298 158.313C539.32 159.656 541.446 160.835 543.656 161.84C544.962 162.446 546.296 162.997 547.656 163.482C554.889 165.999 558.513 168.826 566.204 168.584C566.608 168.57 566.204 170.185 566.204 170.185Z" fill="#C6BE69"/>
<path d="M547.534 149.9C546.674 154.007 545.373 158.01 543.654 161.839C541.445 160.834 539.319 159.655 537.297 158.312C519.907 146.696 512.512 142.119 509.023 140.989C507.932 140.625 503.124 139.791 502.046 139.4C496.021 137.24 490.194 134.565 484.63 131.405C484.158 131.136 483.7 130.867 483.242 130.597C485.834 125.901 489.061 121.585 492.833 117.77C497.716 121.909 503.169 125.327 509.023 127.919C516.122 131.069 523.773 132.98 530.548 136.762C534.576 139.01 538.226 141.877 541.849 144.744C543.9 146.283 545.803 148.009 547.534 149.9Z" fill="#7D6539"/>
<path d="M493.937 148.923C494.207 151.706 493.109 154.09 491.484 154.248C489.859 154.405 488.323 152.277 488.053 149.493C487.782 146.71 488.881 144.326 490.505 144.168C492.13 144.011 493.666 146.139 493.937 148.923Z" fill="#333333"/>
<path d="M491.368 146.674C491.442 146.935 491.438 147.212 491.355 147.47C491.272 147.728 491.114 147.956 490.902 148.125C490.689 148.294 490.431 148.395 490.161 148.418C489.89 148.44 489.619 148.382 489.382 148.25C489.145 148.118 488.952 147.919 488.828 147.678C488.704 147.437 488.654 147.164 488.685 146.895C488.716 146.626 488.826 146.371 489.001 146.164C489.177 145.957 489.41 145.807 489.671 145.733C489.844 145.683 490.025 145.668 490.204 145.689C490.383 145.709 490.557 145.765 490.714 145.852C490.872 145.939 491.011 146.057 491.123 146.198C491.235 146.339 491.318 146.501 491.368 146.674Z" fill="#E6E6E6"/>
<path d="M498.996 148.059C499.301 149.674 498.954 151.344 498.031 152.705C497.108 154.065 495.685 155.006 494.07 155.322C492.456 155.637 490.783 155.302 489.415 154.389C488.047 153.476 487.096 152.059 486.77 150.448L498.996 148.059Z" fill="#FCBA7E"/>
<path d="M499.109 148.198C499.414 146.583 499.067 144.913 498.144 143.553C497.221 142.192 495.797 141.252 494.183 140.936C492.569 140.621 490.896 140.956 489.528 141.869C488.16 142.781 487.21 144.198 486.883 145.809L499.109 148.198Z" fill="#D49C6A"/>
<path d="M502.513 159.173C502.268 159.173 502.026 159.129 501.797 159.042L493.49 155.901C493.242 155.807 493.014 155.666 492.82 155.484C492.627 155.302 492.471 155.084 492.361 154.842C492.252 154.601 492.191 154.339 492.183 154.074C492.175 153.809 492.219 153.544 492.313 153.296C492.407 153.048 492.549 152.821 492.731 152.627C492.913 152.434 493.132 152.279 493.374 152.17C493.616 152.061 493.878 152.001 494.143 151.993C494.409 151.985 494.673 152.03 494.921 152.124L503.228 155.265C503.671 155.433 504.04 155.749 504.273 156.161C504.505 156.572 504.586 157.052 504.501 157.517C504.416 157.982 504.17 158.402 503.807 158.705C503.443 159.008 502.985 159.173 502.513 159.173ZM500.376 166.224C500.131 166.224 499.889 166.179 499.66 166.092L491.353 162.951C491.104 162.858 490.876 162.717 490.682 162.535C490.487 162.354 490.331 162.136 490.221 161.893C490.111 161.651 490.05 161.39 490.042 161.124C490.034 160.859 490.078 160.594 490.172 160.345C490.266 160.097 490.409 159.869 490.591 159.675C490.773 159.482 490.992 159.326 491.235 159.218C491.478 159.109 491.74 159.049 492.006 159.042C492.272 159.034 492.536 159.08 492.785 159.175L501.091 162.316C501.534 162.483 501.903 162.8 502.136 163.211C502.368 163.623 502.449 164.103 502.364 164.568C502.279 165.033 502.033 165.453 501.67 165.755C501.307 166.058 500.849 166.224 500.376 166.224Z" fill="#5E8C22"/>
<path d="M497.333 168.8C494.607 173.037 490.385 176.094 485.506 177.361C484.547 175.018 483.817 172.589 483.324 170.106C486.112 169.917 492.874 169.339 496.659 167.966C496.771 167.921 496.894 167.914 497.01 167.944C497.126 167.974 497.229 168.041 497.304 168.135C497.38 168.228 497.423 168.343 497.428 168.463C497.433 168.583 497.4 168.701 497.333 168.8Z" fill="white"/>
<path d="M466.635 394.314C464.372 394.973 462.163 395.243 460.102 394.179C457.651 392.914 456.546 390.316 456.008 387.516C455.793 386.269 455.169 385.129 454.236 384.273C453.302 383.418 452.111 382.897 450.849 382.792C449.255 382.684 447.656 382.711 446.067 382.873C444.817 383.021 443.636 383.523 442.663 384.319C441.689 385.116 440.963 386.174 440.571 387.368C439.655 389.926 436.826 391.958 434.133 391.151C432.476 390.666 431.156 389.387 429.539 388.782C424.381 386.83 418.656 392.066 413.335 389.455C412.513 389.078 411.832 388.45 411.392 387.661C410.951 386.872 410.773 385.963 410.884 385.067C411.503 381.204 417.214 382.119 417.551 378.35C417.563 377.528 417.305 376.724 416.816 376.063C416.327 375.401 415.634 374.919 414.844 374.689C409.941 373.329 405.388 375.725 401.132 377.946C397.441 379.871 393.413 381.796 389.278 381.082C387.833 380.88 386.477 380.262 385.377 379.304C384.277 378.345 383.48 377.088 383.082 375.685C382.314 372.629 384.2 370.893 385.655 368.981C387.931 366.02 389.332 362.049 388.106 358.523C386.894 355.009 382.341 352.654 379.189 354.646C377.384 355.79 376.293 358.052 373.774 357.877C372.996 357.797 372.252 357.518 371.613 357.068C370.973 356.618 370.461 356.011 370.124 355.306C368.831 352.816 369.37 349.989 369.908 347.337C365.046 349.222 359.846 351.147 354.728 350.15C349.61 349.154 344.949 343.945 346.552 338.978C347.427 336.286 349.879 333.702 351.199 331.252C351.462 330.766 351.58 330.215 351.537 329.664C351.493 329.114 351.291 328.587 350.955 328.149C350.619 327.71 350.163 327.378 349.642 327.193C349.121 327.008 348.558 326.978 348.02 327.106C345.232 327.806 342.389 328.089 339.615 326.85C338.615 326.439 337.743 325.77 337.087 324.912C336.432 324.053 336.016 323.036 335.884 321.964C335.102 313.928 351.239 312.663 344.76 303.537C344.433 303.13 343.977 302.845 343.467 302.729C342.268 302.554 341.083 303.052 339.884 303.241C335.075 304.008 330.536 299.122 330.886 294.276C331.237 289.431 335.574 285.446 340.369 284.612C342.928 284.154 345.595 284.45 348.141 283.858C350.674 283.266 353.233 281.341 353.26 278.743C349.596 280.022 345.097 277.505 344.289 273.709C343.481 269.927 346.565 265.781 350.431 265.471C349.515 262.873 347.885 259.764 345.137 259.925C343.696 260.006 342.511 261.016 341.177 261.527C337.904 262.752 334.092 260.679 332.328 257.651C331.538 256.27 331.013 254.755 330.779 253.182C330.673 252.537 330.717 251.876 330.907 251.25C331.097 250.625 331.427 250.051 331.873 249.573C332.319 249.095 332.869 248.725 333.48 248.492C334.091 248.259 334.747 248.169 335.399 248.228C337.379 248.461 339.385 248.268 341.285 247.663C343.844 246.775 346.053 244.419 346.484 241.862C346.511 241.72 346.524 241.575 346.525 241.431C346.505 240.816 346.3 240.221 345.937 239.725C345.575 239.228 345.071 238.851 344.491 238.645C343.739 238.364 343.126 237.804 342.779 237.081C342.432 236.358 342.38 235.529 342.632 234.768C343.076 233.476 343.575 232.197 344.14 230.945C344.744 229.601 345.804 228.513 347.133 227.875C348.462 227.237 349.974 227.09 351.401 227.459C354.687 228.269 358.119 228.278 361.409 227.486C357.799 225.426 357.031 219.867 359.698 216.664C362.379 213.474 367.632 213.083 370.986 215.56C371.993 216.337 372.835 217.305 373.464 218.41C374.093 219.514 374.496 220.733 374.65 221.994C374.884 223.575 375.682 225.019 376.898 226.058C378.113 227.097 379.664 227.661 381.263 227.647C382.77 227.641 384.274 227.519 385.762 227.284C389.951 226.624 392.659 222.6 392.147 218.387C391.936 216.837 391.981 215.264 392.282 213.729C393.036 210.028 396.269 206.541 400.027 206.878C401.36 206.999 402.694 207.578 404 207.255C407.287 206.434 408.149 200.579 411.49 201.13C412.918 201.373 413.78 202.773 414.695 203.89C417.174 206.905 420.905 208.305 424.825 209.126C426.899 215.304 433.594 233.058 446.175 248.269C447.799 250.229 449.549 252.082 451.414 253.814C449.241 253.782 447.096 254.301 445.178 255.322C444.486 255.798 443.693 256.107 442.861 256.224C440.005 256.331 439.736 252.091 438.12 249.736C436.288 247.044 432.422 246.909 429.162 247.044C426.751 247.152 424.151 247.34 422.333 248.915C418.683 252.105 420.811 258.028 423.168 262.267C420.932 264.192 417.686 261.083 414.749 261.271C410.803 261.514 409.927 266.952 410.547 270.842C411.18 274.745 411.53 279.887 407.907 281.448C405.348 282.552 402.222 280.991 399.677 282.122C397.212 283.212 396.404 286.241 395.905 288.892C395.232 292.432 394.828 296.766 397.683 298.974C399.636 300.468 402.33 300.306 404.782 300.495C407.233 300.67 410.089 301.666 410.682 304.049C411.247 306.337 409.335 308.531 407.26 309.648C405.186 310.765 402.775 311.317 400.983 312.852C397.899 315.476 397.629 320.578 399.986 323.862C402.344 327.16 406.762 328.614 410.776 327.995C414.507 327.402 419.127 325.531 421.498 328.479C424.394 332.127 419.289 337.43 420.541 341.913C421.511 345.345 425.916 346.664 429.378 345.843C432.853 345.009 435.749 342.72 438.928 341.105C442.12 339.503 446.161 338.642 449.111 340.647C450.323 341.468 451.226 342.707 452.519 343.42C454.836 344.699 457.678 343.972 460.331 344.08C462.971 344.187 466.11 346.193 465.383 348.737C465.059 349.908 463.995 350.702 463.012 351.402C460.089 353.489 457.166 355.561 454.243 357.648C452.411 358.94 450.512 360.326 449.528 362.345C448.847 363.875 448.738 365.597 449.22 367.2C449.702 368.803 450.743 370.181 452.155 371.081C454.229 372.293 456.775 372.333 458.998 373.221C461.22 374.123 463.214 376.681 462.056 378.781C461.678 379.481 461.018 379.979 460.668 380.679C459.9 382.159 460.722 383.99 461.881 385.174C463.039 386.372 464.521 387.22 465.558 388.526C466.174 389.341 466.593 390.288 466.78 391.293C466.967 392.297 466.918 393.332 466.635 394.314Z" fill="#71A829"/>
<path d="M616.177 284.584C615.36 284.592 614.543 284.525 613.739 284.382C610.654 283.816 607.273 282.767 604.525 284.301C603.446 284.935 602.608 285.91 602.144 287.073C601.681 288.236 601.618 289.519 601.966 290.722C602.203 291.434 602.581 292.091 603.079 292.654C603.577 293.216 604.183 293.671 604.862 293.993C605.703 294.385 606.412 295.011 606.904 295.797C607.397 296.583 607.651 297.494 607.637 298.421L607.624 298.946C607.576 299.899 607.242 300.816 606.665 301.577C606.089 302.338 605.296 302.908 604.391 303.213C600.686 304.613 598.195 309.755 600.606 313.187C603.946 317.952 612.082 316.821 615.059 322.34C615.502 323.1 615.709 323.973 615.653 324.85C615.598 325.728 615.283 326.569 614.749 327.267C612.136 330.443 607.772 326.971 604.983 329.622C604.261 330.379 603.839 331.372 603.794 332.417C603.75 333.462 604.086 334.487 604.741 335.302C606.182 337.241 608.445 337.927 610.762 337.9C611.313 337.871 611.864 337.957 612.379 338.154C612.895 338.35 613.363 338.651 613.755 339.039C614.147 339.427 614.454 339.893 614.655 340.406C614.856 340.919 614.948 341.469 614.924 342.019C614.722 345.29 612.675 348.507 609.523 349.584C605.186 351.065 600.255 348.763 595.905 351.011C595.166 351.373 594.529 351.912 594.047 352.578C593.566 353.245 593.255 354.019 593.144 354.834C592.685 359.316 598.841 359.356 597.642 364.525C597.322 365.799 596.672 366.966 595.757 367.909C594.841 368.852 593.694 369.537 592.43 369.896C588.321 371.094 584.025 369.775 579.795 369.707C575.754 369.654 571.013 371.498 570.245 375.455C573.289 375.616 574.312 380.152 572.4 382.522C570.474 384.891 567.133 385.456 564.102 385.604C562.431 385.635 560.762 385.761 559.105 385.981C557.743 386.164 556.432 386.622 555.253 387.327C552.667 388.956 551.427 393.034 553.717 395.026C538.81 393.77 523.829 393.644 508.903 394.649C508.27 391.284 507.637 387.906 507.004 384.541C506.654 382.697 506.384 380.583 507.61 379.17C508.418 378.369 509.48 377.874 510.614 377.77C513.227 377.353 515.88 377.81 518.507 377.918C521.147 378.039 523.976 377.73 526.023 376.074C528.057 374.405 528.825 370.999 526.98 369.115C525.484 367.581 523.046 367.621 521.093 366.759C517.403 365.131 516.002 360.743 514.991 356.839C514.702 355.945 514.583 355.004 514.641 354.066C515.045 350.984 518.898 349.732 521.996 349.88C525.107 350.028 528.475 350.809 531.128 349.207C534.28 347.309 534.86 343.069 535.102 339.394C535.331 335.976 535.56 332.548 535.789 329.111C535.843 328.195 535.883 327.186 535.331 326.459C534.671 325.584 533.445 325.436 532.435 325.019C529.458 323.767 528.434 319.339 530.59 316.916C534.536 312.487 544.14 316.297 546.511 310.858C547.723 308.072 545.783 304.949 543.629 302.809C541.473 300.682 538.847 298.623 538.281 295.648C537.863 293.374 538.752 291.085 539.224 288.824C539.709 286.549 539.588 283.816 537.742 282.417C535.088 280.411 531.398 282.646 528.812 284.732C528.529 284.961 528.219 285.19 527.909 285.405C527.916 282.542 527.372 279.704 526.306 277.046C525.609 275.436 525.423 273.65 525.775 271.931C526.127 270.212 526.999 268.643 528.273 267.435C533.647 262.522 540.139 270.248 545.972 268.297C546.215 268.216 546.444 268.122 546.673 268.027C547.653 267.564 548.725 267.328 549.809 267.338C550.893 267.347 551.961 267.602 552.933 268.082C553.904 268.563 554.755 269.256 555.42 270.112C556.086 270.967 556.549 271.962 556.775 273.021C557.208 274.953 557.854 276.831 558.701 278.621C560.304 279.805 562.486 277.827 562.863 275.875C563.254 273.923 562.863 271.729 563.941 270.06C566.797 265.672 574.393 270.599 578.744 267.678C583.028 264.81 580.293 257.407 577.464 254.082C576.555 253.036 575.88 251.808 575.483 250.481C575.085 249.153 574.976 247.756 575.161 246.383C576.198 239.613 583.715 239.828 589.318 240.918C590.072 236.342 592.403 231.536 597.292 230.46C597.561 230.392 597.837 230.351 598.114 230.338C600.969 230.083 603.771 231.738 604.404 234.592C605.617 240.057 597.642 243.705 599.69 249.291C599.92 249.868 600.292 250.379 600.773 250.774C601.253 251.169 601.826 251.437 602.438 251.552C604.471 251.727 605.751 249.816 607.475 248.927C610.452 247.393 614.264 249.385 615.907 252.292C616.799 253.977 617.327 255.829 617.456 257.73C617.556 258.798 617.234 259.863 616.56 260.698C615.886 261.532 614.912 262.071 613.847 262.199C613.779 262.213 613.712 262.213 613.658 262.226C613.128 262.287 612.626 262.498 612.212 262.834C611.797 263.17 611.487 263.617 611.317 264.122C611.148 264.628 611.126 265.171 611.254 265.689C611.382 266.206 611.655 266.677 612.042 267.045C615.264 270.12 617.978 273.687 620.083 277.611C621.727 280.68 619.652 284.53 616.177 284.584Z" fill="#7BB82B"/>
<path d="M546.51 310.858C544.139 316.296 534.535 312.487 530.589 316.915C528.433 319.338 529.457 323.767 532.434 325.019C533.444 325.436 534.67 325.584 535.33 326.459C535.882 327.186 535.842 328.195 535.788 329.111C535.559 332.543 535.33 335.971 535.101 339.394C534.859 343.069 534.279 347.309 531.127 349.207C528.474 350.809 525.106 350.028 521.995 349.88C518.897 349.732 515.044 350.984 514.64 354.066C514.582 355.004 514.701 355.945 514.99 356.839C516.001 360.743 517.402 365.131 521.092 366.759C523.046 367.621 525.483 367.58 526.979 369.115C528.824 370.999 528.056 374.405 526.022 376.074C523.975 377.73 521.146 378.039 518.506 377.918C515.879 377.81 513.226 377.353 510.613 377.77C509.479 377.874 508.417 378.369 507.609 379.17C506.383 380.583 506.653 382.697 507.003 384.54C507.636 387.906 508.269 391.284 508.902 394.649C504.174 394.959 499.446 395.403 494.732 395.941C491.364 396.332 487.835 396.762 484.67 395.538C482.178 394.555 480.104 392.603 477.49 392.051C473.907 391.298 470.19 393.276 466.634 394.313C466.916 393.331 466.966 392.296 466.779 391.292C466.592 390.287 466.173 389.34 465.556 388.525C464.519 387.219 463.037 386.371 461.879 385.173C460.721 383.989 459.899 382.158 460.667 380.677C461.017 379.977 461.677 379.479 462.054 378.779C463.212 376.679 461.219 374.122 458.996 373.22C456.774 372.332 454.228 372.291 452.154 371.08C450.742 370.179 449.7 368.802 449.218 367.199C448.736 365.596 448.846 363.873 449.527 362.344C450.51 360.325 452.409 358.939 454.242 357.647C457.164 355.56 460.087 353.487 463.01 351.401C463.994 350.701 465.058 349.907 465.381 348.736C466.109 346.192 462.97 344.186 460.33 344.079C457.676 343.971 454.834 344.698 452.517 343.419C451.224 342.706 450.322 341.467 449.11 340.646C446.16 338.64 442.119 339.502 438.926 341.104C435.747 342.719 432.851 345.007 429.376 345.842C425.915 346.663 421.51 345.344 420.54 341.911C419.287 337.429 424.392 332.126 421.497 328.478C419.126 325.53 414.506 327.401 410.774 327.994C406.761 328.612 402.342 327.159 399.985 323.861C397.628 320.577 397.897 315.475 400.982 312.85C402.773 311.316 405.184 310.764 407.259 309.647C409.333 308.53 411.246 306.336 410.68 304.047C410.087 301.665 407.232 300.669 404.78 300.494C402.329 300.305 399.635 300.467 397.682 298.973C394.826 296.765 395.23 292.431 395.904 288.891C396.402 286.239 397.21 283.211 399.675 282.12C402.221 280.99 405.346 282.551 407.905 281.447C411.529 279.886 411.179 274.744 410.545 270.84C409.926 266.95 410.801 261.512 414.748 261.27C417.684 261.082 420.931 264.191 423.167 262.266C420.809 258.026 418.681 252.104 422.332 248.913C424.15 247.339 426.75 247.15 429.161 247.042C432.42 246.908 436.286 247.042 438.118 249.735C439.735 252.09 440.004 256.33 442.86 256.223C443.691 256.106 444.484 255.797 445.176 255.321C447.094 254.3 449.24 253.781 451.413 253.813C461.015 262.77 473.267 268.372 486.327 269.777C486.26 270.546 486.035 271.293 485.667 271.971C484.427 274.192 482.245 275.727 480.817 277.826C480.169 278.708 479.718 279.718 479.495 280.788C479.272 281.859 479.282 282.965 479.524 284.032C480.09 286.145 482.07 287.908 484.252 287.855C486.61 287.787 488.468 285.795 489.64 283.736C490.826 281.69 491.688 279.374 493.452 277.8C495.217 276.225 498.355 275.807 499.756 277.705C502.167 280.963 496.887 285.566 498.476 289.295C499.366 291.381 501.992 292.068 504.268 292.054C505.388 292.116 506.504 291.879 507.501 291.368C510.087 289.887 510.141 286.145 509.279 283.291C508.417 280.438 506.976 277.517 507.69 274.623C508.033 273.25 508.846 272.04 509.989 271.204C511.132 270.368 512.532 269.958 513.945 270.046C515.359 270.134 516.697 270.714 517.727 271.686C518.757 272.657 519.414 273.958 519.584 275.363C520.055 279.199 517.092 283.843 519.88 286.508C522.022 288.554 525.362 287.209 527.908 285.418V285.405C528.218 285.189 528.528 284.96 528.811 284.731C531.397 282.645 535.087 280.411 537.741 282.416C539.587 283.816 539.708 286.549 539.223 288.824C538.751 291.085 537.862 293.373 538.28 295.648C538.846 298.623 541.472 300.682 543.628 302.809C545.782 304.949 547.722 308.072 546.51 310.858Z" fill="#8BC441"/>
<path d="M642.429 276.629C641.776 277.514 641.316 278.526 641.08 279.599C640.843 280.673 640.835 281.784 641.055 282.861C641.864 286.994 645.191 289.874 648.908 291.368C650.888 292.163 653.03 292.62 654.808 293.791C656.346 294.802 657.516 296.282 658.145 298.011C658.773 299.74 658.827 301.625 658.297 303.387C657.768 305.149 656.683 306.693 655.205 307.789C653.727 308.885 651.934 309.476 650.094 309.473C649.07 309.473 647.979 309.298 647.063 309.742C646.08 310.2 645.527 311.222 645.029 312.178C643.871 314.439 642.712 316.692 641.554 318.935C641.015 319.985 640.463 321.143 640.732 322.287C641.433 325.221 645.905 324.575 648.383 326.298C651.562 328.506 649.959 333.944 646.565 335.801C643.184 337.659 639.062 337.188 635.196 337.12C634.175 337.027 633.147 337.208 632.219 337.645C631.508 338.089 630.931 338.717 630.549 339.462C629.519 341.319 629.06 343.438 629.227 345.554C629.395 347.67 630.183 349.69 631.492 351.361C632.569 352.694 633.97 353.757 634.927 355.184C635.883 356.611 636.287 358.643 635.223 359.99C634.024 361.497 631.465 361.645 630.724 363.422C630.212 364.66 630.913 366.073 630.926 367.42C630.993 371.915 624.124 373.396 620.299 372.131C619.304 371.768 618.258 371.564 617.2 371.525C606.667 371.525 608.526 379.305 606.546 384.918C606.385 385.508 606.035 386.028 605.549 386.399C603.919 387.381 602.235 384.945 600.349 384.797C598.181 384.622 596.901 387.408 594.773 387.906C590.409 388.929 588.308 380.099 583.984 381.338C583.074 381.695 582.269 382.273 581.64 383.02C577.882 386.749 573.329 390.248 568.035 390.491C566.29 390.531 564.562 390.141 563.005 389.355C561.447 388.568 560.107 387.409 559.105 385.982C560.762 385.761 562.431 385.635 564.102 385.605C567.133 385.456 570.474 384.891 572.4 382.522C574.312 380.153 573.289 375.617 570.245 375.456C571.012 371.498 575.753 369.654 579.795 369.708C584.024 369.775 588.321 371.094 592.429 369.896C593.694 369.538 594.841 368.852 595.756 367.909C596.672 366.967 597.322 365.8 597.642 364.526C598.841 359.357 592.685 359.316 593.143 354.834C593.255 354.02 593.565 353.245 594.047 352.579C594.528 351.912 595.166 351.374 595.905 351.011C600.255 348.764 605.185 351.065 609.522 349.584C612.675 348.508 614.722 345.291 614.924 342.02C614.948 341.469 614.856 340.92 614.655 340.406C614.454 339.893 614.147 339.428 613.755 339.04C613.363 338.652 612.894 338.35 612.379 338.154C611.863 337.958 611.313 337.872 610.762 337.901C608.445 337.928 606.182 337.241 604.741 335.303C604.086 334.488 603.749 333.462 603.794 332.417C603.839 331.373 604.261 330.38 604.983 329.623C607.771 326.971 612.136 330.444 614.749 327.267C615.283 326.569 615.598 325.728 615.653 324.851C615.708 323.974 615.501 323.1 615.059 322.341C612.082 316.822 603.946 317.953 600.606 313.188C598.195 309.755 600.686 304.613 604.39 303.213C605.296 302.909 606.088 302.339 606.665 301.578C607.242 300.817 607.576 299.9 607.624 298.947L607.637 298.421C607.651 297.495 607.397 296.583 606.904 295.798C606.412 295.012 605.703 294.385 604.862 293.993C604.183 293.672 603.576 293.216 603.079 292.654C602.581 292.092 602.202 291.435 601.966 290.722C601.618 289.52 601.681 288.236 602.144 287.074C602.608 285.911 603.445 284.936 604.525 284.302C607.273 282.767 610.654 283.817 613.739 284.382C614.543 284.525 615.359 284.593 616.177 284.584C619.652 284.53 621.726 280.681 620.083 277.612C617.978 273.687 615.264 270.121 612.041 267.045C611.655 266.677 611.382 266.207 611.254 265.689C611.125 265.172 611.147 264.628 611.317 264.123C611.487 263.617 611.797 263.17 612.211 262.835C612.626 262.499 613.128 262.288 613.658 262.227C613.712 262.213 613.779 262.213 613.846 262.2C614.912 262.071 615.886 261.533 616.56 260.698C617.234 259.863 617.556 258.799 617.456 257.731C617.326 255.83 616.799 253.977 615.907 252.293C614.264 249.385 610.452 247.393 607.475 248.928C605.751 249.816 604.471 251.727 602.437 251.553C601.826 251.438 601.253 251.17 600.773 250.775C600.292 250.379 599.92 249.869 599.689 249.291C597.642 243.705 605.616 240.057 604.404 234.592C603.771 231.739 600.969 230.083 598.114 230.339C599.407 226.664 603.111 223.649 607.071 224.228C607.718 222.505 608.378 220.688 607.624 218.857C607.442 218.393 607.138 217.987 606.745 217.681C606.351 217.376 605.882 217.182 605.387 217.121C603.219 216.946 602.249 219.409 601.01 221.065C598.343 224.632 592.2 224.726 589.426 221.226C586.651 217.74 588.132 211.777 592.227 210C592.944 209.754 593.63 209.429 594.275 209.031C595.689 207.928 595.218 205.585 593.911 204.508C592.066 202.988 590.853 200.78 591.204 198.411C591.514 196.4 592.355 194.509 593.642 192.933C596.672 189.204 601.589 187.387 606.182 186.498C608.565 185.995 611.051 186.444 613.106 187.75C619.18 191.815 612.499 197.617 617.227 201.709C617.954 202.337 618.816 202.789 619.746 203.028C624.084 204.199 628.367 201.911 632.637 202.543C634.483 202.812 636.21 203.615 637.606 204.853C639.001 206.091 640.003 207.71 640.488 209.51C640.974 211.311 640.921 213.214 640.338 214.985C639.754 216.755 638.664 218.317 637.203 219.476C634.577 221.563 630.563 222.667 630.482 226.422C630.479 227.346 630.716 228.255 631.169 229.06C634.859 236.033 645.379 236.127 649.245 242.776C649.573 243.258 649.8 243.801 649.911 244.372C650.022 244.944 650.015 245.532 649.891 246.101C649.245 248.134 646.713 248.659 644.881 249.735C643.459 250.569 642.364 251.861 641.774 253.4C641.184 254.938 641.135 256.631 641.634 258.2C642.134 259.77 643.153 261.124 644.523 262.039C645.894 262.954 647.535 263.376 649.178 263.236C652.37 262.967 655.145 260.638 658.351 260.544C663.335 260.396 666.904 267.167 663.968 271.191C657.516 275.27 647.09 270.545 642.429 276.629ZM450.23 309.298C451.718 310.974 453.587 312.269 455.679 313.075C455.781 313.133 455.893 313.17 456.01 313.183C456.126 313.196 456.244 313.186 456.356 313.153C456.647 313.02 456.702 312.638 456.717 312.319C456.901 308.396 457.085 304.472 457.27 300.548C457.467 296.357 453.728 288.394 448.644 292.928C444.887 296.278 447.541 306.106 450.23 309.298Z" fill="#71A829"/>
<path d="M568.771 316.048C569.707 312.717 570.82 309.126 573.639 307.115C574.793 306.292 576.461 305.834 577.58 306.704C578.084 307.163 578.465 307.742 578.687 308.387C579.402 310.05 580.017 311.755 580.527 313.493C580.934 314.666 581.118 315.905 581.068 317.145C580.802 320.098 578.16 322.399 575.308 323.22C567.648 325.424 566.98 322.418 568.771 316.048Z" fill="#71A829"/>
<path d="M369.345 317.798C369.417 318.809 369.689 319.795 370.145 320.701C370.601 321.606 371.232 322.413 372.001 323.073C373.548 324.385 375.307 325.423 377.204 326.142C379.533 327.125 381.928 327.943 384.373 328.587C384.159 327.049 384.569 325.492 384.532 323.939C384.399 321.456 383.323 319.116 381.524 317.396C378.741 314.625 369.138 310.15 369.345 317.798ZM374.45 248.514C374.003 251.17 374.709 253.875 375.51 256.447C377.163 261.749 379.664 267.38 384.677 269.777C384.66 268.234 384.879 266.698 385.327 265.221C385.665 264.286 386.184 263.428 386.584 262.518C388.885 257.3 387.004 251.084 383.742 246.406C382.605 244.776 380.661 242.518 378.47 243.102C376.261 243.691 374.796 246.451 374.45 248.514Z" fill="#7BB82B"/>
<path d="M550.64 356.002C549.45 356.558 548.498 357.599 547.232 357.95C546.377 360.059 546.163 362.373 546.619 364.603C547.5 363.482 548.639 362.59 549.939 362.003C551.79 361.171 555.734 360.734 555.924 358.107C556.115 355.469 552.468 355.151 550.64 356.002ZM487.556 316.316C486.271 316.906 485.126 317.762 484.198 318.828C483.807 319.186 483.463 319.592 483.175 320.036C482.972 320.408 482.81 320.801 482.693 321.208C481.369 325.342 480.925 330.034 482.922 333.887C482.812 332.789 482.992 331.681 483.443 330.674C484.942 327.341 488.956 325.92 491.131 322.983C491.679 322.244 492.1 321.42 492.379 320.544C492.637 319.821 492.713 319.046 492.599 318.288C492.153 315.923 489.485 315.594 487.556 316.316ZM482.289 371.787C482.1 371.847 481.926 371.946 481.777 372.076C481.628 372.206 481.507 372.365 481.421 372.543C481.365 372.796 481.343 373.055 481.356 373.313C481.313 373.999 480.901 374.693 481.145 375.336C481.366 375.762 481.729 376.099 482.171 376.287C483.779 377.182 485.47 377.92 487.221 378.49C486.775 377.338 486.532 376.118 486.502 374.883C486.48 373.938 486.79 372.074 485.886 371.42C485.049 370.815 483.111 371.427 482.289 371.787Z" fill="#71A829"/>
<path d="M627.26 296.653C626.875 296.889 626.54 297.198 626.275 297.563C625.88 298.172 625.644 298.871 625.589 299.595C625.534 300.319 625.661 301.045 625.959 301.707C626.573 303.027 627.523 304.162 628.714 304.999C628.601 303.963 628.838 302.918 629.388 302.032C629.829 301.327 630.451 300.753 630.929 300.072C631.551 299.186 632.735 296.376 631.575 295.475C630.646 294.753 628.055 296.166 627.26 296.653Z" fill="#7BB82B"/>
<path d="M238.078 138.864C228.285 139.402 224.541 129.118 224.541 129.118C225.551 124.165 229.336 121.298 231.586 119.992C235.02 120.84 237.647 121.607 238.24 122.052C239.236 122.805 240.22 129.63 238.078 138.864Z" fill="#0F0D0C"/>
<path d="M209.036 196.219C201.035 231.136 168.896 256.899 151.305 268.69C144.368 273.347 139.68 275.838 139.68 275.838C135.801 275.132 132.001 274.041 128.339 272.58C88.8318 257.047 60.6662 202.25 60.6662 202.25C57.731 173.573 63.1869 144.662 76.3722 119.024C77.4893 116.879 78.7399 114.807 80.1167 112.819C99.0014 85.5614 134.683 87.1499 136.043 87.2172C132.366 87.4997 130.144 87.7286 130.144 87.7286C105.898 109.265 103.204 131.811 103.204 131.811C99.163 176.231 147.089 203.38 172.237 203.824C197.385 204.269 196.038 177.805 202.544 165.462C203.83 163.121 205.665 161.126 207.892 159.647C211.427 171.535 211.821 184.134 209.036 196.219Z" fill="#745131"/>
<path d="M117.403 106.77C116.87 107.303 123.33 101.18 123.569 100.925C124.489 100.021 125.145 98.8846 125.468 97.6365C126.003 94.7344 125.525 91.3131 125.556 88.3604C125.666 87.2422 125.474 86.1149 125 85.0961C124.554 84.4284 123.974 83.8608 123.297 83.4299C120.589 81.4793 117.629 79.904 114.498 78.7469C113.793 78.462 113.057 78.2645 112.304 78.1588C111.084 78.0947 109.863 78.2471 108.697 78.6088C106.748 79.0146 104.866 79.6903 103.104 80.6161C99.8721 82.4875 97.7344 85.8722 96.6389 89.4406C95.5436 93.0088 95.3796 96.7883 95.2991 100.52C95.2579 101.237 95.2967 101.956 95.4148 102.664C95.7708 104.059 96.5337 105.316 97.6065 106.276C100.925 109.52 105.631 110.816 110.121 111.994C111.473 112.348 113.049 112.663 114.158 111.812C114.694 111.328 115.109 110.725 115.371 110.052C115.898 108.953 116.876 107.869 117.403 106.77Z" fill="#754C24"/>
<path d="M117.243 105.75C113.614 106.657 109.778 106.2 106.465 104.467C105.934 104.223 105.47 103.855 105.112 103.393C104.856 102.934 104.699 102.427 104.652 101.904C104.22 99.1928 103.825 96.4756 103.469 93.7524C103.221 92.9779 103.248 92.1417 103.544 91.3842C103.839 90.6267 104.387 89.9939 105.095 89.592C106.351 88.582 107.608 87.5718 108.865 86.5616C109.455 85.99 110.195 85.5978 110.999 85.4306C112.128 85.31 113.142 86.0728 113.998 86.8178C115.378 88.0193 116.696 89.2866 117.954 90.6197C118.516 91.1607 118.984 91.7913 119.339 92.4857C119.642 93.2655 119.806 94.0923 119.823 94.9285C120.012 97.5386 119.629 100.842 119.537 103.457C119.537 103.457 118.4 105.35 117.243 105.75Z" fill="#42210B"/>
<path d="M238.078 138.865C237.24 142.453 236.054 145.952 234.536 149.31C234.536 149.31 233.957 149.324 232.96 149.31C232.65 149.31 232.313 149.31 231.936 149.297H231.519C231.6 149.714 231.68 150.131 231.734 150.575C231.759 150.682 231.777 150.79 231.788 150.898C231.839 151.253 231.814 151.615 231.716 151.96C231.618 152.305 231.449 152.625 231.219 152.9C230.989 153.176 230.704 153.4 230.382 153.558C230.06 153.716 229.709 153.805 229.35 153.819C224.824 153.994 214.776 154.909 207.893 159.648C205.666 161.126 203.831 163.121 202.545 165.463C196.039 177.806 197.386 204.269 172.238 203.825C147.09 203.38 99.1642 176.231 103.205 131.812C103.205 131.812 105.899 109.265 130.145 87.7288C130.145 87.7288 132.367 87.4999 136.045 87.2174H136.085C139.978 86.9212 145.473 86.5712 151.669 86.3693C160.486 86.0171 169.315 86.1879 178.111 86.8808C189.129 87.8904 198.517 90.1652 201.535 94.7954C210.29 108.256 208.943 115.659 217.025 117.005C221.538 117.759 227.222 118.93 231.586 119.993C229.337 121.299 225.552 124.166 224.541 129.12C224.541 129.12 228.286 139.403 238.078 138.865Z" fill="#A17348"/>
<path d="M178.111 86.8784C169.315 86.1855 160.486 86.0147 151.67 86.3669C151.729 84.1225 152.668 81.991 154.283 80.4307C170.663 70.1201 177.734 82.4498 178.192 83.1228C178.421 83.4728 178.286 85.2495 178.111 86.8784Z" fill="#613F1E"/>
<path d="M179.996 360.53C179.915 360.624 179.821 360.705 179.727 360.799C179.088 361.46 178.322 361.985 177.474 362.344C176.627 362.702 175.717 362.886 174.797 362.885H140.678C139.344 361.405 137.364 358.874 136.771 356.249C137.065 355.043 137.169 353.799 137.081 352.561C137.701 351.282 138.94 350.125 141.095 349.196C147.601 346.41 158.256 344.646 160.95 333.044C163.523 321.979 169.288 281.894 151.306 268.689C168.897 256.898 201.036 231.135 209.037 196.219C211.793 203.341 214.07 210.639 215.853 218.065C233.862 293.524 190.354 348.725 179.996 360.53Z" fill="#88633F"/>
<path d="M160.951 333.042C158.257 344.645 147.603 346.408 141.097 349.194C138.942 350.123 137.702 351.281 137.083 352.559C137.059 351.61 136.776 350.685 136.266 349.883C135.756 349.082 135.037 348.434 134.187 348.01C127.115 344.483 120.218 343.474 118.023 326.473C115.962 310.509 110.049 285.325 128.341 272.578C132.003 274.038 135.803 275.13 139.682 275.835C139.682 275.835 144.37 273.345 151.307 268.688C169.289 281.892 163.524 321.977 160.951 333.042Z" fill="#644029"/>
<path d="M136.771 356.247C136.196 358.553 135.346 360.781 134.239 362.883H101.157C98.7676 362.88 96.4163 362.283 94.3145 361.147C94.1026 361.05 93.8958 360.942 93.6948 360.824C68.5735 345.573 36.7849 294.101 35.074 221.092C34.9933 217.646 35.0202 214.267 35.1684 210.983C36.5882 173.612 52.7473 138.321 80.1173 112.816C78.7405 114.805 77.4899 116.877 76.3728 119.022C63.1876 144.66 57.7316 173.571 60.6668 202.247C60.6668 202.247 88.8324 257.044 128.339 272.578C110.047 285.325 115.96 310.509 118.021 326.473C120.217 343.474 127.114 344.483 134.185 348.01C135.036 348.434 135.754 349.082 136.265 349.883C136.775 350.685 137.057 351.61 137.081 352.559C137.169 353.797 137.065 355.041 136.771 356.247Z" fill="#88633F"/>
<path d="M219.719 339.437C219.719 339.437 205.131 358.847 179.727 360.798C179.821 360.704 179.916 360.623 179.996 360.529C190.355 348.724 233.862 293.523 215.853 218.065C224.999 238.861 245.312 295.287 219.719 339.437ZM94.3149 361.149C64.0346 362.521 45.9581 344.148 45.9581 344.148C9.76471 290.172 27.3697 231.081 35.1688 210.984C35.0206 214.269 34.9937 217.647 35.0744 221.093C36.7853 294.102 68.5739 345.575 93.6952 360.825C93.8962 360.944 94.103 361.051 94.3149 361.149Z" fill="#745131"/>
<path d="M128.272 360.112C127.863 361.097 127.333 362.028 126.696 362.884H124.635C125.901 360.408 126.79 357.675 126.184 355.374C125.837 354.089 125.143 352.925 124.177 352.008C123.733 351.456 123.086 351.053 122.561 350.501C121.912 350.059 121.292 349.578 120.702 349.061L120.958 348.441C121.783 348.581 122.598 348.779 123.396 349.034C123.773 349.209 124.164 349.384 124.554 349.599C124.955 349.774 125.33 350 125.672 350.272C127.206 351.338 128.298 352.927 128.743 354.741C129.156 356.536 128.991 358.416 128.272 360.112ZM117.173 360.69C116.938 361.476 116.573 362.218 116.095 362.884H113.038C113.456 361.963 113.728 360.982 113.846 359.977C113.997 358.706 113.757 357.42 113.159 356.289C112.454 354.936 111.56 353.69 110.505 352.587C109.414 351.376 108.202 350.218 106.949 349.02L107.097 348.697C108.85 349.079 110.522 349.762 112.041 350.716C113.657 351.701 115.037 353.029 116.082 354.606C116.647 355.485 117.057 356.455 117.294 357.473C117.504 358.541 117.462 359.642 117.173 360.69ZM154.282 349.061C153.69 349.575 153.069 350.056 152.423 350.501C151.885 351.053 151.251 351.456 150.807 352.008C149.842 352.928 149.144 354.09 148.787 355.374C148.194 357.675 149.083 360.408 150.349 362.884H148.288C147.651 362.028 147.122 361.097 146.712 360.112C145.993 358.416 145.828 356.536 146.241 354.741C146.681 352.925 147.774 351.334 149.312 350.272C149.654 350 150.03 349.774 150.43 349.599C150.807 349.384 151.198 349.209 151.588 349.034C152.386 348.779 153.201 348.581 154.026 348.441L154.282 349.061ZM168.035 349.02C166.782 350.218 165.557 351.376 164.479 352.587C163.424 353.693 162.527 354.938 161.812 356.289C161.224 357.423 160.989 358.708 161.139 359.977C161.256 360.982 161.528 361.963 161.947 362.884H158.876C158.402 362.217 158.042 361.476 157.811 360.69C157.515 359.643 157.474 358.54 157.69 357.473C157.927 356.455 158.337 355.486 158.902 354.606C159.948 353.029 161.327 351.701 162.943 350.716C164.462 349.762 166.135 349.079 167.887 348.697L168.035 349.02Z" fill="#64442C"/>
<path d="M178.316 113.516C178.063 116.559 179.297 119.147 181.074 119.294C182.851 119.442 184.497 117.095 184.75 114.051C185.004 111.007 183.769 108.42 181.992 108.272C180.216 108.125 178.57 110.472 178.316 113.516Z" fill="black"/>
<path d="M181.088 111.023C181.01 111.309 181.019 111.612 181.113 111.893C181.207 112.173 181.383 112.42 181.618 112.601C181.852 112.782 182.135 112.89 182.431 112.91C182.727 112.93 183.022 112.863 183.279 112.715C183.536 112.568 183.744 112.348 183.876 112.083C184.008 111.817 184.058 111.519 184.021 111.225C183.983 110.931 183.859 110.655 183.664 110.432C183.469 110.209 183.213 110.048 182.926 109.97C182.737 109.919 182.538 109.905 182.343 109.93C182.148 109.955 181.959 110.018 181.789 110.116C181.618 110.214 181.468 110.344 181.348 110.5C181.228 110.656 181.139 110.833 181.088 111.023Z" fill="#E6E6E6"/>
<path d="M175.341 107.402C174.948 103.694 176.741 100.463 179.348 100.187C181.954 99.9106 184.386 102.693 184.78 106.401L175.341 107.402Z" fill="#603813"/>
<path d="M184.977 91.2889L176.432 96.2189C176.179 96.3653 175.898 96.4603 175.608 96.4985C175.318 96.5367 175.022 96.5174 174.739 96.4416C174.456 96.3659 174.191 96.2352 173.959 96.0569C173.726 95.8787 173.531 95.6565 173.385 95.403C173.089 94.8909 173.009 94.2824 173.162 93.7113C173.315 93.1402 173.689 92.6533 174.201 92.3576L182.746 87.4276C183.259 87.132 183.868 87.0519 184.439 87.2049C185.011 87.3579 185.498 87.7315 185.794 88.2435C186.09 88.7556 186.17 89.3641 186.017 89.9352C185.864 90.5063 185.49 90.9932 184.977 91.2889Z" fill="#42210B"/>
<path d="M231.937 149.295H231.519C231.6 149.712 231.681 150.129 231.735 150.573C229.835 150.452 228.057 150.237 226.225 150.129C224.084 149.967 221.928 149.9 219.787 149.927C217.656 149.946 215.528 150.095 213.415 150.371C211.243 150.505 209.164 151.304 207.462 152.66C206.978 153.074 206.393 153.355 205.767 153.475C205.14 153.594 204.493 153.548 203.89 153.341C203.287 153.133 202.749 152.772 202.329 152.292C201.908 151.813 201.621 151.232 201.494 150.608C201.368 149.983 201.407 149.336 201.608 148.731C201.809 148.126 202.165 147.584 202.64 147.159C203.115 146.734 203.693 146.44 204.317 146.307C204.941 146.174 205.588 146.206 206.196 146.4L206.384 146.468C208.63 147.147 210.962 147.496 213.308 147.504C215.53 147.612 217.712 147.841 219.881 148.07L226.346 148.837C228.2 149.088 230.066 149.241 231.937 149.295Z" fill="#603813"/>
</svg>
