<svg width="53" height="54" viewBox="0 0 53 54" fill="none" xmlns="http://www.w3.org/2000/svg">
<path d="M36.9541 42.6405C36.6779 42.6405 36.4541 42.8643 36.4541 43.1405C36.4541 48.6859 31.9586 53.1813 26.4132 53.1813C20.8678 53.1813 16.3723 48.6859 16.3723 43.1405C16.3723 42.8643 16.1485 42.6405 15.8723 42.6405H3.76109C1.99375 42.6405 0.561035 41.2078 0.561035 39.4404C0.56104 38.5724 0.913626 37.7417 1.53794 37.1387L4.24947 34.5197C5.37958 33.4282 6.01575 31.923 6.01103 30.3519L5.98609 22.043C5.95202 10.6947 15.1421 1.47699 26.4905 1.47699C37.8148 1.47699 46.9949 10.6571 46.9949 21.9814L46.9949 30.4165C46.9949 31.9469 47.6029 33.4147 48.6851 34.4968L51.3203 37.132C51.9254 37.7372 52.2654 38.5579 52.2654 39.4137C52.2654 41.1958 50.8207 42.6405 49.0386 42.6405H36.9541ZM48.4929 39.6876C48.6951 39.6876 48.8774 39.5658 48.9548 39.379C49.0322 39.1921 48.9894 38.9771 48.8464 38.8341L46.5971 36.5848C44.9612 34.9489 44.0421 32.7301 44.0421 30.4165L44.0421 21.9814C44.0421 12.2879 36.184 4.42982 26.4905 4.42982C16.7764 4.42982 8.90974 12.3201 8.9389 22.0341L8.96384 30.343C8.97097 32.7182 8.00928 34.9936 6.30086 36.6437L4.0393 38.828C3.8927 38.9696 3.84671 39.186 3.92307 39.375C3.99943 39.5639 4.18284 39.6876 4.38666 39.6876H48.4929ZM33.5013 43.1405C33.5013 42.8643 33.2774 42.6405 33.0013 42.6405H19.8252C19.549 42.6405 19.3252 42.8643 19.3252 43.1405C19.3252 47.0551 22.4986 50.2285 26.4132 50.2285C30.3278 50.2285 33.5013 47.0551 33.5013 43.1405Z" fill="#271E4A" stroke="#271E4A" stroke-linecap="round" stroke-linejoin="round"/>
</svg>
