<svg width="45" height="40" viewBox="0 0 45 40" fill="none" xmlns="http://www.w3.org/2000/svg">
<path d="M9.66782 26.0686C9.99301 26.1521 10.0897 26.2595 10.0862 26.5828C10.0709 28.2819 10.0709 29.9813 10.0862 31.6805C10.0925 32.7201 10.8446 33.4847 11.8371 33.4964C12.4392 33.5033 12.8987 33.2273 13.3015 32.8074C15.258 30.763 17.2238 28.7268 19.1734 26.6752H19.1731C19.3643 26.4561 19.6477 26.3393 19.9378 26.3607C20.8035 26.3801 21.6702 26.366 22.5368 26.3676C25.7888 26.3729 28.6013 25.262 30.9357 23.0127C35.4197 18.686 36.3415 11.3995 33.0309 6.03413C30.5954 2.0879 27.0588 -0.0205809 22.3379 0.000472576C18.9463 0.0127141 15.5537 0.000472576 12.1615 0.000472576C10.8667 -0.011769 9.58069 0.213916 8.36714 0.665922C4.15372 2.27056 1.6241 5.3618 0.431603 9.63292C0.226629 10.3938 0.082237 11.1697 0 11.9532V14.4141C0.17578 15.3009 0.25739 16.2105 0.521064 17.0709C1.94426 21.709 4.87004 24.8378 9.66806 26.0684L9.66782 26.0686ZM8.98856 9.11179H25.763C26.4759 9.11179 26.8547 9.43165 26.8582 10.0196C26.8616 10.6075 26.4705 10.9521 25.7747 10.9537C22.9716 10.9597 20.1685 10.9597 17.3653 10.9537H9.30396H8.9524C8.30389 10.9274 7.90213 10.5617 7.91338 10.0079C7.925 9.45453 8.31956 9.11179 8.9847 9.11179H8.98856ZM8.08583 16.1876C8.25031 15.939 8.52528 15.8106 8.90948 15.8097C10.5816 15.8068 12.2543 15.8068 13.927 15.8097H18.8997C18.9801 15.8097 19.0601 15.8147 19.1399 15.8247H25.7614C26.4743 15.8247 26.8531 16.1446 26.8566 16.7325C26.86 17.3208 26.4661 17.666 25.7711 17.666C22.9681 17.672 20.165 17.672 17.3618 17.666H9.30366H8.9521C8.38175 17.6431 8.00292 17.3575 7.92723 16.9127C7.92723 16.8995 7.92723 16.8854 7.92189 16.8722C7.91656 16.859 7.91656 16.8292 7.91499 16.8063C7.9131 16.7834 7.91499 16.7868 7.91499 16.7764V16.7203C7.9131 16.5291 7.97306 16.3423 8.08543 16.1876L8.08583 16.1876Z" fill="#4CBC9A"/>
<path d="M41.6414 16.3889C40.3912 15.2642 38.8481 14.5162 37.1907 14.2311C37.1731 14.3551 37.16 14.4264 37.1537 14.4948C36.9726 16.6789 36.4349 18.7732 35.3748 20.6945C32.5941 25.734 28.3788 28.4859 22.5298 28.5616C21.9146 28.5694 21.2994 28.5553 20.6798 28.5616C20.1779 28.5694 19.9547 28.9473 20.2096 29.3632C21.6324 31.688 23.6222 33.2734 26.3417 33.7489C27.501 33.952 28.7078 33.8914 29.8934 33.9247V33.9244C30.1549 33.9175 30.4057 34.0274 30.578 34.2242C31.369 35.0698 32.1776 35.9003 32.98 36.7353C33.5952 37.3804 34.2104 38.0342 34.8423 38.6689C35.4927 39.3218 36.3794 39.372 37.0185 38.8217C37.4291 38.4702 37.5521 37.999 37.5512 37.4805C37.5512 36.4117 37.5669 35.3423 37.5424 34.2735C37.5336 33.8902 37.646 33.7559 38.0258 33.6143C38.9399 33.274 39.8916 32.9394 40.687 32.3961C46.0219 28.7496 46.4852 20.6881 41.6415 16.389L41.6414 16.3889Z" fill="#4CBC9A"/>
</svg>
