<svg width="45" height="45" viewBox="0 0 45 45" fill="none" xmlns="http://www.w3.org/2000/svg">
<path d="M32.8686 0.000473915C32.862 0.00124658 32.8555 0.00240553 32.8489 0.00356437C32.7662 0.00549598 32.6839 0.0136079 32.6024 0.0271287H1.74038C1.27797 0.0244246 0.833712 0.207147 0.506865 0.533578C0.180048 0.860396 -0.00267033 1.30426 2.94996e-05 1.7667V38.0779C2.94996e-05 41.8795 3.11986 44.9978 6.92384 44.9978H38.0727L38.0731 44.9974C38.1886 44.9967 38.3041 44.9843 38.4177 44.9603C38.4219 44.9592 38.4266 44.958 38.4308 44.9569C42.0687 44.7664 45 41.7544 45 38.074V24.2416C45.0015 23.7807 44.8192 23.338 44.4932 23.0119C44.1671 22.6863 43.724 22.5039 43.2628 22.5055H34.6157V1.76628C34.6257 1.29846 34.4453 0.846485 34.1162 0.513487C33.787 0.180874 33.337 -0.00455319 32.8688 8.49667e-05L32.8686 0.000473915ZM8.66413 10.4052H25.9549C26.5637 10.4187 27.1207 10.7513 27.4213 11.2806C27.7222 11.8102 27.7222 12.4584 27.4213 12.9881C27.1207 13.5173 26.5637 13.8499 25.9549 13.8635H8.66315C8.05433 13.8499 7.49728 13.5173 7.19674 12.9881C6.89618 12.4584 6.89618 11.8102 7.19674 11.2806C7.49729 10.7513 8.05434 10.4187 8.66315 10.4052H8.66413ZM8.66413 17.3251H25.9549C26.4204 17.3147 26.8704 17.4924 27.203 17.8177C27.536 18.143 27.7238 18.5888 27.7238 19.0543C27.7238 19.5194 27.536 19.9652 27.203 20.2904C26.8704 20.6161 26.4204 20.7934 25.9549 20.7834H8.66315C8.05433 20.7699 7.49728 20.4372 7.19674 19.9076C6.89618 19.3784 6.89618 18.7298 7.19674 18.2005C7.49729 17.6709 8.05434 17.3386 8.66315 17.3251L8.66413 17.3251ZM8.65757 24.2381C8.6595 24.2392 8.66182 24.2404 8.66375 24.2416H25.9555C26.5732 24.2427 27.1438 24.5726 27.4525 25.1077C27.7611 25.6427 27.7611 26.3017 27.4525 26.8367C27.1438 27.3718 26.5732 27.7017 25.9555 27.7028H8.66375C8.04527 27.7349 7.45654 27.4347 7.11931 26.9152C6.78246 26.3956 6.74807 25.7357 7.02969 25.1845C7.31131 24.6329 7.86604 24.2732 8.48492 24.2415C8.5421 24.2373 8.59926 24.2361 8.65683 24.238L8.65757 24.2381ZM34.6164 25.9637H41.5402V38.0773C41.5402 40.0232 40.0236 41.539 38.0767 41.539C36.1297 41.539 34.6165 40.0232 34.6165 38.0773L34.6164 25.9637ZM8.65757 31.1576H8.65718C8.6595 31.1588 8.66182 31.16 8.66375 31.1611H25.9555C26.421 31.1507 26.871 31.3284 27.2036 31.6537C27.5366 31.9793 27.7244 32.4251 27.7244 32.8902C27.7244 33.3557 27.5366 33.8015 27.2036 34.1268C26.871 34.4521 26.421 34.6298 25.9555 34.6194H8.66375C8.05415 34.6375 7.47968 34.3339 7.15135 33.8201C6.82338 33.3063 6.78977 32.6577 7.06289 32.1126C7.33639 31.5675 7.87645 31.2059 8.48489 31.1611C8.54207 31.1572 8.59924 31.1561 8.6568 31.1576L8.65757 31.1576Z" fill="white"/>
</svg>
