<svg width="43" height="38" viewBox="0 0 43 38" fill="none" xmlns="http://www.w3.org/2000/svg">
<path fill-rule="evenodd" clip-rule="evenodd" d="M18.1781 21.6044V16.3953L22.6968 19.0001L18.1781 21.6044ZM25.9934 17.8601L17.5191 12.9765C17.1113 12.7412 16.6088 12.7412 16.201 12.9762C15.7928 13.2111 15.5415 13.6454 15.5412 14.1156V23.8838C15.5415 24.354 15.7925 24.7883 16.2004 25.0236C16.6082 25.2588 17.1107 25.2591 17.5185 25.0245L25.9928 20.1402C26.2614 19.9855 26.4665 19.7412 26.5726 19.4504C26.6786 19.1597 26.6786 18.8406 26.5726 18.5499C26.4665 18.2592 26.2614 18.0149 25.9928 17.8602L25.9934 17.8601ZM32.8499 35.3676V30.1269H39.555V35.3676H32.8499ZM2.63876 30.1269H9.34419V35.3676H2.63876V30.1269ZM9.34419 2.63262V7.50996H2.63876V2.63262H9.34419ZM39.5554 7.50996H32.8502V2.63262H39.5554V7.50996ZM19.7768 7.50996H11.9808V2.63262H19.7768V7.50996ZM22.414 7.50996V2.63262H30.21V7.50996H22.414ZM2.63543 27.4943H39.556V10.1419H2.6393V27.4943H2.63543ZM22.414 30.1262H30.21V35.3673H22.4163V30.1266L22.414 30.1262ZM19.7768 30.1262V35.3673H11.9808V30.1266L19.7768 30.1262ZM40.8763 1.56097e-05H1.31846C0.968912 1.56097e-05 0.633559 0.138749 0.386105 0.38575C0.138975 0.63245 0 0.967213 0 1.31648V36.6835C0 37.0328 0.138975 37.3675 0.386105 37.6143C0.633536 37.8613 0.968889 38 1.31846 38H40.8763C41.2259 38 41.5615 37.8613 41.8087 37.6146C42.0561 37.3676 42.1951 37.0328 42.1948 36.6835V1.31647C42.1951 0.967236 42.0561 0.632465 41.8087 0.385433C41.5616 0.138733 41.2259 1.56097e-05 40.8763 1.56097e-05ZM9.34419 7.50965V2.63232H2.63876V7.50965H9.34419ZM22.4157 2.63232V7.50965H30.2117L30.2114 2.63232H22.4157ZM30.2117 30.1266H22.4157V35.3673H30.2117L30.2114 30.1266H30.2117ZM9.34419 35.3673V30.1266H2.63876V35.3673H9.34419ZM18.1781 21.6044L22.6969 19.0002L18.1781 16.3953L18.1781 21.6044Z" fill="white"/>
</svg>
