<svg width="53" height="52" viewBox="0 0 53 52" fill="none" xmlns="http://www.w3.org/2000/svg">
<path fill-rule="evenodd" clip-rule="evenodd" d="M5.00019 11H39.1892C41.5397 11 43.4628 12.845 43.4628 15.1V39.7C43.4628 41.955 41.5397 43.8 39.1892 43.8H9.27381L0.726562 52L0.747931 15.1C0.747931 12.845 2.64969 11 5.00019 11ZM32.7787 25.35H11.4106C10.2354 25.35 9.27381 26.2725 9.27381 27.4C9.27381 28.5275 10.2354 29.45 11.4106 29.45H32.7787C33.954 29.45 34.9155 28.5275 34.9155 27.4C34.9155 26.2725 33.954 25.35 32.7787 25.35ZM24.2315 35.6H11.4106C10.2354 35.6 9.27381 34.6775 9.27381 33.55C9.27381 32.4225 10.2354 31.5 11.4106 31.5H24.2315C25.4067 31.5 26.3683 32.4225 26.3683 33.55C26.3683 34.6775 25.4067 35.6 24.2315 35.6ZM11.4106 23.3H32.7787C33.954 23.3 34.9155 22.3775 34.9155 21.25C34.9155 20.1225 33.954 19.2 32.7787 19.2H11.4106C10.2354 19.2 9.27381 20.1225 9.27381 21.25C9.27381 22.3775 10.2354 23.3 11.4106 23.3Z" fill="white"/>
<path d="M51.3624 17C51.3624 25.79 44.782 32.75 36.8614 32.75C28.9408 32.75 22.3604 25.79 22.3604 17C22.3604 8.20998 28.9408 1.25 36.8614 1.25C44.782 1.25 51.3624 8.20998 51.3624 17Z" fill="#595BC4" stroke="white" stroke-width="2.5"/>
<path d="M41.8141 18.5452V14.8363C41.8141 14.6182 41.9152 14.4001 42.0501 14.2545L45.015 11.6726C45.453 11.2726 46.1268 11.6363 46.1268 12.2544V21.127C46.1268 21.7451 45.4866 22.0724 45.015 21.7089L42.0501 19.127C41.9152 18.9816 41.8141 18.7635 41.8141 18.5451V18.5452ZM41.1401 21.5271V11.8181C41.1401 10.8 40.3989 10 39.4556 10H29.2808C28.3374 10 27.5962 10.8 27.5962 11.8181V21.5271C27.5962 22.5452 28.3374 23.3452 29.2808 23.3452H39.4556C40.3987 23.3452 41.1399 22.5452 41.1399 21.5271H41.1401Z" fill="white"/>
</svg>
