<svg width="43" height="39" viewBox="0 0 43 39" fill="none" xmlns="http://www.w3.org/2000/svg">
<g opacity="0.6">
<path d="M13.4 32.65C13.2245 32.65 13.0546 32.7115 12.9199 32.8238L7.75256 37.1299C5.76601 38.7854 2.75 37.3727 2.75 34.7868V8.7C2.75 5.96619 4.96619 3.75 7.7 3.75H34.3C37.0338 3.75 39.25 5.96619 39.25 8.7V27.7C39.25 30.4338 37.0338 32.65 34.3 32.65H13.4ZM12.0556 31.7867C12.433 31.4722 12.9087 31.3 13.4 31.3H34.3C36.2882 31.3 37.9 29.6882 37.9 27.7V8.7C37.9 6.71177 36.2882 5.1 34.3 5.1H7.7C5.71178 5.1 4.1 6.71177 4.1 8.7V34.7868C4.1 36.2282 5.78106 37.0155 6.88831 36.0928L12.0556 31.7867Z" fill="black" stroke="black" stroke-width="1.5" stroke-linecap="round" stroke-linejoin="round"/>
<path fill-rule="evenodd" clip-rule="evenodd" d="M11.9751 14.4C11.9751 13.613 12.6131 12.975 13.4001 12.975H28.6001C29.3871 12.975 30.0251 13.613 30.0251 14.4C30.0251 15.187 29.3871 15.825 28.6001 15.825H13.4001C12.6131 15.825 11.9751 15.187 11.9751 14.4Z" fill="black"/>
<path fill-rule="evenodd" clip-rule="evenodd" d="M11.9751 22C11.9751 21.213 12.6131 20.575 13.4001 20.575H21.0001C21.7871 20.575 22.4251 21.213 22.4251 22C22.4251 22.787 21.7871 23.425 21.0001 23.425H13.4001C12.6131 23.425 11.9751 22.787 11.9751 22Z" fill="black"/>
</g>
</svg>
