<svg width="33" height="42" viewBox="0 0 33 42" fill="none" xmlns="http://www.w3.org/2000/svg">
<path d="M16.5522 29.6095C19.0578 29.6071 21.4601 28.6869 23.232 27.0508C25.0039 25.4147 26.0007 23.1963 26.0037 20.8824V9.24286C26.0037 6.9279 25.0079 4.70775 23.2354 3.07082C21.4629 1.4339 19.0589 0.514282 16.5522 0.514282C14.0454 0.514282 11.6414 1.4339 9.86889 3.07082C8.09637 4.70775 7.10059 6.9279 7.10059 9.24286V20.881C7.10332 23.1951 8.09999 25.4138 9.87191 27.0502C11.6438 28.6866 14.0463 29.607 16.5522 29.6095Z" fill="#4CBC9A"/>
<path d="M30.8159 20.8908C30.4014 20.8523 29.987 20.9656 29.662 21.2063C29.3369 21.447 29.1271 21.7959 29.0776 22.1779C28.7318 25.0223 27.2633 27.6494 24.9526 29.557C22.6419 31.4646 19.6511 32.5191 16.5517 32.5189C13.4523 32.5188 10.4617 31.4639 8.15128 29.556C5.84085 27.6481 4.37265 25.0209 4.02724 22.1765C3.97639 21.7951 3.76614 21.4472 3.44137 21.207C3.11659 20.9668 2.70302 20.8533 2.28891 20.8908C1.87348 20.9334 1.49335 21.1266 1.23203 21.4278C0.970704 21.7291 0.849548 22.1138 0.895172 22.4976C1.29617 25.7988 2.91449 28.8722 5.47857 31.202C8.04265 33.5318 11.3965 34.9763 14.9772 35.293V39.7927C14.9772 40.1786 15.1431 40.5486 15.4385 40.8214C15.734 41.0942 16.1346 41.2475 16.5524 41.2475C16.9702 41.2475 17.3709 41.0942 17.6663 40.8214C17.9617 40.5486 18.1277 40.1786 18.1277 39.7927V35.2931C21.709 34.9772 25.0634 33.5327 27.6277 31.2024C30.192 28.8722 31.8099 25.798 32.2097 22.4961C32.2552 22.1126 32.134 21.728 31.8727 21.427C31.6113 21.1259 31.2312 20.9331 30.8159 20.8908Z" fill="#4CBC9A"/>
</svg>
