<svg width="82" height="82" viewBox="0 0 82 82" fill="none" xmlns="http://www.w3.org/2000/svg">
<g clip-path="url(#clip0_3355_2782)">
<path d="M69.9913 12.0087C62.2476 4.2648 51.9515 0 41 0C30.0485 0 19.7524 4.2648 12.0087 12.0087C4.26464 19.7524 0 30.0485 0 41C0 51.9515 4.26464 62.2476 12.0087 69.9913C19.7524 77.7352 30.0485 82 41 82C51.9515 82 62.2476 77.7352 69.9913 69.9913C77.7354 62.2476 82 51.9515 82 41C82 30.0485 77.7354 19.7524 69.9913 12.0087ZM41 77.1191C21.0839 77.1191 4.88092 60.9161 4.88092 41C4.88092 21.0839 21.0839 4.88092 41 4.88092C60.9161 4.88092 77.1191 21.0839 77.1191 41C77.1191 60.9161 60.9161 77.1191 41 77.1191Z" fill="#AAC832"/>
<circle cx="41" cy="41" r="32" fill="black"/>
<circle cx="41" cy="41" r="36" fill="#CB177D"/>
<path d="M60.5 47H18.5L22 56.5L28.5 64L42 66.5L55 61.5L60.5 53V47Z" fill="white" stroke="white"/>
<path d="M32.1308 30.1728C28.1344 26.1761 21.6316 26.1764 17.6352 30.1728C16.6821 31.1257 16.6821 32.6711 17.6352 33.6242C18.5885 34.5771 20.1338 34.5771 21.0868 33.6242C23.1803 31.5308 26.5865 31.5309 28.6798 33.6242C29.1564 34.1008 29.7808 34.3391 30.4053 34.3391C31.0297 34.3391 31.6545 34.1008 32.1308 33.6242C33.0839 32.6711 33.0839 31.1259 32.1308 30.1728Z" fill="black"/>
<path d="M64.3642 30.1728C60.3678 26.1764 53.865 26.1761 49.8686 30.1728C48.9155 31.1257 48.9155 32.6711 49.8686 33.6242C50.8219 34.5771 52.3672 34.5771 53.3202 33.6242C55.4134 31.5308 58.8196 31.5306 60.9132 33.6242C61.3898 34.1008 62.0142 34.3391 62.6387 34.3391C63.2631 34.3391 63.8879 34.1008 64.3642 33.6242C65.3173 32.6711 65.3173 31.1259 64.3642 30.1728Z" fill="black"/>
<path d="M62.6391 42.7897H19.3614C18.0135 42.7897 16.9209 43.8825 16.9209 45.2302C16.9209 58.5075 27.723 69.3095 41.0002 69.3095C54.2775 69.3095 65.0796 58.5075 65.0796 45.2302C65.0796 43.8823 63.987 42.7897 62.6391 42.7897ZM41.0002 64.4286C31.2406 64.4286 23.1585 57.109 21.9562 47.6707H60.0444C58.842 57.109 50.7598 64.4286 41.0002 64.4286Z" fill="black"/>
</g>
<defs>
<clipPath id="clip0_3355_2782">
<rect width="82" height="82" fill="white"/>
</clipPath>
</defs>
</svg>
