<svg width="45" height="40" viewBox="0 0 45 40" fill="none" xmlns="http://www.w3.org/2000/svg">
<path d="M40.5 7.5H33.75V5C33.75 3.67392 33.2759 2.40215 32.432 1.46447C31.5881 0.526784 30.4435 0 29.25 0H15.75C14.5565 0 13.4119 0.526784 12.568 1.46447C11.7241 2.40215 11.25 3.67392 11.25 5V7.5H4.5C3.30653 7.5 2.16193 8.02678 1.31802 8.96447C0.474106 9.90215 0 11.1739 0 12.5V35C0 36.3261 0.474106 37.5979 1.31802 38.5355C2.16193 39.4732 3.30653 40 4.5 40H40.5C41.6935 40 42.8381 39.4732 43.682 38.5355C44.5259 37.5979 45 36.3261 45 35V12.5C45 11.1739 44.5259 9.90215 43.682 8.96447C42.8381 8.02678 41.6935 7.5 40.5 7.5ZM22.5 32.5C20.72 32.5 18.9799 31.9135 17.4999 30.8147C16.0198 29.7159 14.8663 28.1541 14.1851 26.3268C13.5039 24.4996 13.3257 22.4889 13.6729 20.5491C14.0202 18.6093 14.8774 16.8275 16.136 15.4289C17.3947 14.0304 18.9984 13.078 20.7442 12.6921C22.49 12.3063 24.2996 12.5043 25.9442 13.2612C27.5887 14.0181 28.9943 15.2998 29.9832 16.9443C30.9722 18.5888 31.5 20.5222 31.5 22.5C31.5 25.1522 30.5518 27.6957 28.864 29.5711C27.1761 31.4464 24.8869 32.5 22.5 32.5Z" fill="white"/>
</svg>
