<svg width="43" height="40" viewBox="0 0 43 40" fill="none" xmlns="http://www.w3.org/2000/svg">
<path d="M3.03524 34.1119H15.846L13.4614 38.2176H11.6342C11.142 38.2176 10.743 38.6166 10.743 39.1088C10.743 39.601 11.142 40 11.6342 40H31.1367C31.6289 40 32.0279 39.601 32.0279 39.1088C32.0279 38.6166 31.6289 38.2176 31.1367 38.2176H29.3099L26.9249 34.1119H39.7357C41.4087 34.1119 42.7701 32.7509 42.7701 31.0774V26.8798C42.7704 26.8693 42.7764 26.8607 42.7764 26.8499C42.7764 26.839 42.7707 26.8304 42.7704 26.8195V3.03386C42.7704 1.3611 41.4094 0 39.736 0H3.03439C1.36137 0 0 1.3611 0 3.03386V31.0773C0 32.7504 1.36137 34.1119 3.03439 34.1119L3.03524 34.1119ZM27.2491 38.2176H15.523L17.9076 34.1119H24.8639L27.2491 38.2176ZM39.7369 32.3295H25.4012C25.3923 32.3291 25.3837 32.3258 25.3748 32.3258H17.3965C17.3876 32.3258 17.3791 32.3291 17.3702 32.3295H3.03533C2.3451 32.3295 1.78335 31.7677 1.78335 31.0774V27.7411H40.9883V31.0774C40.9883 31.7677 40.4265 32.3295 39.7366 32.3295H39.7369ZM3.03524 1.78256H39.7369C40.4271 1.78256 40.9889 2.34399 40.9889 3.03393V25.9584H1.78309V3.03393C1.78309 2.344 2.34483 1.78256 3.03507 1.78256H3.03524Z" fill="white"/>
<path d="M19.0233 30.0769C19.0233 30.6165 18.6091 31.0539 18.0978 31.0539C17.5865 31.0539 17.1724 30.6165 17.1724 30.0769C17.1724 29.5376 17.5865 29.1002 18.0978 29.1002C18.6091 29.1002 19.0233 29.5376 19.0233 30.0769Z" fill="white"/>
<path d="M22.3138 30.0769C22.3138 30.6165 21.8994 31.0539 21.3885 31.0539C20.8773 31.0539 20.4629 30.6165 20.4629 30.0769C20.4629 29.5376 20.8773 29.1002 21.3885 29.1002C21.8994 29.1002 22.3138 29.5376 22.3138 30.0769Z" fill="white"/>
<path d="M25.6038 30.0769C25.6038 30.6165 25.1894 31.0539 24.6782 31.0539C24.1673 31.0539 23.7529 30.6165 23.7529 30.0769C23.7529 29.5376 24.1673 29.1002 24.6782 29.1002C25.1894 29.1002 25.6038 29.5376 25.6038 30.0769Z" fill="white"/>
<rect x="3.55566" y="3.55554" width="35.5556" height="20.4444" rx="2" fill="white"/>
<path fill-rule="evenodd" clip-rule="evenodd" d="M23.3088 14.8023C22.5824 15.1729 21.7601 15.3822 20.8898 15.3822C20.0195 15.3822 19.1973 15.173 18.4712 14.802C18.3544 14.7414 18.2236 14.7095 18.0908 14.7095H16.8744C16.5224 14.7095 16.1072 14.9897 15.735 15.5127C15.0284 16.5049 14.3709 18.3782 14.2253 19.8507C14.2253 19.8534 14.225 19.8558 14.2246 19.8582C14.2068 20.0919 14.2865 20.3223 14.4451 20.4945C14.6033 20.6665 14.8263 20.764 15.0591 20.764C17.1244 20.764 24.6556 20.764 26.7209 20.7623C26.9531 20.7623 27.1754 20.6648 27.3332 20.4931C27.4912 20.3216 27.5709 20.0915 27.553 19.8585C27.5528 19.8561 27.5528 19.8538 27.5525 19.8514C27.4085 18.3784 26.751 16.5049 26.0447 15.5125C25.6725 14.9895 25.2573 14.7093 24.9053 14.7093C24.9053 14.7093 24.0188 14.7093 23.6885 14.71C23.5565 14.71 23.4256 14.7415 23.3075 14.8024L23.3088 14.8023ZM20.8898 5.96399C18.6736 5.96399 16.8744 7.77271 16.8744 10.0004C16.8744 12.2282 18.6736 14.0368 20.8898 14.0368C23.106 14.0368 24.9052 12.2282 24.9052 10.0004C24.9052 7.77271 23.106 5.96399 20.8898 5.96399Z" fill="#4B4DB1"/>
</svg>
