<svg width="62" height="57" viewBox="0 0 62 57" fill="none" xmlns="http://www.w3.org/2000/svg">
<path d="M15.0156 41.8597H5.32812C5.19966 41.8597 5.07646 41.9066 4.98562 41.9902C4.89478 42.0737 4.84375 42.1869 4.84375 42.305C4.84375 42.4231 4.89478 42.5364 4.98562 42.6199C5.07646 42.7034 5.19966 42.7503 5.32812 42.7503H15.0156C15.1441 42.7503 15.2673 42.7034 15.3581 42.6199C15.449 42.5364 15.5 42.4231 15.5 42.305C15.5 42.1869 15.449 42.0737 15.3581 41.9902C15.2673 41.9066 15.1441 41.8597 15.0156 41.8597ZM14.5312 44.9769C14.5312 44.8588 14.4802 44.7455 14.3894 44.662C14.2985 44.5785 14.1753 44.5316 14.0469 44.5316H0.484375C0.355911 44.5316 0.232708 44.5785 0.14187 44.662C0.0510322 44.7455 0 44.8588 0 44.9769C0 45.095 0.0510322 45.2083 0.14187 45.2918C0.232708 45.3753 0.355911 45.4222 0.484375 45.4222H14.0469C14.1753 45.4222 14.2985 45.3753 14.3894 45.2918C14.4802 45.2083 14.5312 45.095 14.5312 44.9769ZM5.32812 47.2035C5.19966 47.2035 5.07646 47.2504 4.98562 47.3339C4.89478 47.4174 4.84375 47.5307 4.84375 47.6488C4.84375 47.7669 4.89478 47.8802 4.98562 47.9637C5.07646 48.0472 5.19966 48.0941 5.32812 48.0941H13.0781C13.2066 48.0941 13.3298 48.0472 13.4206 47.9637C13.5115 47.8802 13.5625 47.7669 13.5625 47.6488C13.5625 47.5307 13.5115 47.4174 13.4206 47.3339C13.3298 47.2504 13.2066 47.2035 13.0781 47.2035H5.32812ZM53.7656 42.305C53.7656 42.1869 53.7146 42.0737 53.6238 41.9902C53.5329 41.9066 53.4097 41.8597 53.2812 41.8597H39.7188C39.5903 41.8597 39.4671 41.9066 39.3762 41.9902C39.2854 42.0737 39.2344 42.1869 39.2344 42.305C39.2344 42.4231 39.2854 42.5364 39.3762 42.6199C39.4671 42.7034 39.5903 42.7503 39.7188 42.7503H53.2812C53.4097 42.7503 53.5329 42.7034 53.6238 42.6199C53.7146 42.5364 53.7656 42.4231 53.7656 42.305ZM61.5156 44.5316H40.6875C40.559 44.5316 40.4358 44.5785 40.345 44.662C40.2542 44.7455 40.2031 44.8588 40.2031 44.9769C40.2031 45.095 40.2542 45.2083 40.345 45.2918C40.4358 45.3753 40.559 45.4222 40.6875 45.4222H61.5156C61.6441 45.4222 61.7673 45.3753 61.8581 45.2918C61.949 45.2083 62 45.095 62 44.9769C62 44.8588 61.949 44.7455 61.8581 44.662C61.7673 44.5785 61.6441 44.5316 61.5156 44.5316ZM41.6562 48.0941H53.2812C53.4097 48.0941 53.5329 48.0472 53.6238 47.9637C53.7146 47.8802 53.7656 47.7669 53.7656 47.6488C53.7656 47.5307 53.7146 47.4174 53.6238 47.3339C53.5329 47.2504 53.4097 47.2035 53.2812 47.2035H41.6562C41.5278 47.2035 41.4046 47.2504 41.3137 47.3339C41.2229 47.4174 41.1719 47.5307 41.1719 47.6488C41.1719 47.7669 41.2229 47.8802 41.3137 47.9637C41.4046 48.0472 41.5278 48.0941 41.6562 48.0941ZM39.1792 10.7266C38.4621 10.3566 37.6532 10.1633 36.8309 10.1655C34.8789 10.1655 33.0029 11.1897 31.9334 12.8383C31.1269 14.0825 30.8813 15.5511 31.2601 16.8679C31.5943 18.0288 32.3814 18.9831 33.4785 19.5549C34.1952 19.9252 35.0038 20.1188 35.8258 20.1169C37.7783 20.1169 39.6543 19.0927 40.7214 17.4441C41.5289 16.2004 41.7749 14.7322 41.3971 13.4158C41.0634 12.2545 40.2763 11.2993 39.1792 10.7266ZM50.0689 24.5678C50.1234 24.598 50.1838 24.6181 50.2467 24.6268C50.3096 24.6355 50.3738 24.6328 50.4355 24.6188C50.4973 24.6047 50.5554 24.5796 50.6066 24.5449C50.6578 24.5101 50.7011 24.4665 50.7339 24.4164C50.9078 24.1519 51.0715 23.8887 51.2265 23.6264C51.2569 23.575 51.276 23.5186 51.2826 23.4604C51.2893 23.4022 51.2834 23.3434 51.2654 23.2873C51.2473 23.2312 51.2174 23.179 51.1774 23.1335C51.1374 23.088 51.088 23.0503 51.0321 23.0223C50.9761 22.9944 50.9148 22.9769 50.8515 22.9708C50.7882 22.9646 50.7243 22.97 50.6632 22.9866C50.6022 23.0032 50.5454 23.0307 50.4959 23.0675C50.4465 23.1043 50.4054 23.1497 50.375 23.2011C50.2243 23.456 50.0673 23.7076 49.9042 23.9559C49.8713 24.006 49.8495 24.0616 49.84 24.1194C49.8305 24.1772 49.8335 24.2362 49.8488 24.293C49.864 24.3498 49.8914 24.4032 49.9291 24.4503C49.9669 24.4974 50.0144 24.5376 50.0689 24.5678ZM50.7935 7.92246C50.7614 7.87199 50.7189 7.82782 50.6683 7.79247C50.6176 7.75713 50.5599 7.73129 50.4984 7.71645C50.437 7.7016 50.3729 7.69804 50.3099 7.70595C50.2469 7.71387 50.1863 7.73312 50.1314 7.76259C50.0765 7.79206 50.0284 7.83119 49.99 7.87773C49.9515 7.92427 49.9234 7.97732 49.9073 8.03385C49.8911 8.09038 49.8873 8.14928 49.8959 8.20718C49.9045 8.26509 49.9254 8.32086 49.9575 8.37133C50.1144 8.61893 50.268 8.87275 50.4171 9.13326C50.4458 9.18644 50.4858 9.23381 50.5347 9.27259C50.5835 9.31137 50.6404 9.34077 50.7018 9.35907C50.7632 9.37736 50.828 9.38419 50.8923 9.37913C50.9567 9.37408 51.0192 9.35726 51.0764 9.32965C51.1335 9.30204 51.1841 9.2642 51.2251 9.21836C51.2662 9.17252 51.2968 9.11961 51.3153 9.06273C51.3337 9.00585 51.3396 8.94615 51.3326 8.88714C51.3256 8.82813 51.3059 8.77101 51.2745 8.71912C51.1208 8.4501 50.9604 8.18477 50.7935 7.92246ZM52.4263 12.653C52.301 12.6786 52.1918 12.7488 52.1227 12.8484C52.0537 12.9479 52.0305 13.0686 52.0582 13.1838C52.125 13.4626 52.1841 13.7458 52.234 14.0326C52.2544 14.1492 52.3243 14.2536 52.4284 14.3229C52.5325 14.3921 52.6623 14.4205 52.7891 14.4018C52.916 14.383 53.0296 14.3188 53.1049 14.223C53.1802 14.1273 53.211 14.0081 53.1907 13.8914C53.138 13.59 53.0758 13.29 53.0042 12.9919C52.9905 12.9347 52.9648 12.8806 52.9283 12.8326C52.8918 12.7846 52.8455 12.7437 52.7918 12.7122C52.7381 12.6807 52.6782 12.6593 52.6155 12.6491C52.5528 12.639 52.4885 12.6403 52.4263 12.653ZM52.112 10.3739C52.0632 10.2652 51.9697 10.1786 51.8517 10.1331C51.7338 10.0876 51.6011 10.0868 51.4825 10.1309C51.364 10.175 51.2692 10.2604 51.2189 10.3685C51.1686 10.4766 51.1668 10.5986 51.2139 10.7079C51.3312 10.9737 51.4421 11.2445 51.5457 11.5206C51.5662 11.5762 51.5985 11.6276 51.6406 11.6717C51.6828 11.7158 51.734 11.7519 51.7914 11.7777C51.8488 11.8035 51.9111 11.8187 51.9749 11.8223C52.0387 11.8259 52.1026 11.8179 52.1629 11.7986C52.2233 11.7794 52.279 11.7494 52.3267 11.7104C52.3744 11.6713 52.4132 11.624 52.4409 11.5711C52.4687 11.5181 52.4847 11.4607 52.4882 11.4021C52.4917 11.3434 52.4825 11.2847 52.4612 11.2293C52.3529 10.9414 52.2365 10.6562 52.112 10.3739ZM52.9979 19.367C53.0725 19.0642 53.1355 18.764 53.1878 18.4657C53.2082 18.349 53.1774 18.2297 53.1021 18.134C53.0269 18.0382 52.9133 17.9739 52.7865 17.9551C52.6596 17.9363 52.5298 17.9647 52.4257 18.0339C52.3215 18.103 52.2515 18.2074 52.2311 18.3241C52.1813 18.6079 52.1218 18.8902 52.0529 19.1706C52.0388 19.2277 52.0371 19.2867 52.0479 19.3443C52.0586 19.402 52.0816 19.4571 52.1156 19.5066C52.1495 19.5561 52.1937 19.5989 52.2457 19.6327C52.2976 19.6665 52.3563 19.6905 52.4183 19.7034C52.4804 19.7163 52.5446 19.7179 52.6073 19.708C52.67 19.6981 52.73 19.677 52.7838 19.6458C52.8376 19.6146 52.8842 19.5739 52.921 19.5262C52.9577 19.4784 52.9838 19.424 52.9979 19.367ZM53.3796 16.639C53.3912 16.3323 53.3914 16.0253 53.3801 15.7185C53.3709 15.4727 53.1233 15.2759 52.8807 15.2879C52.8171 15.2898 52.7545 15.3031 52.6965 15.3272C52.6385 15.3513 52.5863 15.3857 52.5428 15.4284C52.4993 15.4711 52.4654 15.5212 52.443 15.576C52.4206 15.6307 52.4102 15.689 52.4123 15.7475C52.4217 16.0342 52.4217 16.3211 52.4123 16.6078C52.4077 16.7258 52.4543 16.8406 52.5417 16.9271C52.6292 17.0135 52.7504 17.0644 52.8787 17.0687H52.8962C53.0216 17.0686 53.142 17.0237 53.2322 16.9436C53.3224 16.8634 53.3752 16.7542 53.3796 16.639ZM45.4683 3.10195C45.5664 3.10186 45.6621 3.0744 45.7429 3.02318C45.8236 2.97197 45.8856 2.89942 45.9205 2.81514C45.9554 2.73085 45.9617 2.63881 45.9384 2.55119C45.9152 2.46357 45.8636 2.38449 45.7904 2.32443C45.5406 2.11631 45.283 1.91639 45.0178 1.72504C44.9156 1.65643 44.7882 1.62734 44.6629 1.64399C44.5377 1.66064 44.4244 1.7217 44.3475 1.81412C44.2706 1.90654 44.2361 2.02297 44.2514 2.13848C44.2667 2.254 44.3305 2.35942 44.4293 2.4322C44.4317 2.43398 44.7064 2.62814 45.1452 2.98884C45.2372 3.06454 45.3535 3.10195 45.4683 3.10195ZM46.4273 28.7194C46.4733 28.7601 46.5275 28.7919 46.5869 28.8132C46.6463 28.8344 46.7097 28.8447 46.7734 28.8433C46.8371 28.8419 46.8999 28.829 46.9581 28.8052C47.0164 28.7814 47.0689 28.7473 47.1127 28.7047C47.3423 28.483 47.5651 28.2621 47.7807 28.0412C47.8241 27.9978 47.8577 27.947 47.8796 27.8915C47.9014 27.8361 47.9111 27.7772 47.908 27.7183C47.9049 27.6595 47.8892 27.6017 47.8616 27.5485C47.8341 27.4952 47.7953 27.4475 47.7476 27.4082C47.6998 27.3688 47.644 27.3386 47.5835 27.3192C47.5229 27.2998 47.4587 27.2917 47.3947 27.2953C47.3307 27.2988 47.2681 27.3141 47.2106 27.3401C47.153 27.3661 47.1017 27.4023 47.0595 27.4467C46.8512 27.6605 46.6347 27.8751 46.4114 28.0898C46.3675 28.1321 46.3331 28.182 46.3101 28.2365C46.2872 28.2911 46.2762 28.3493 46.2777 28.4077C46.2792 28.4662 46.2933 28.5238 46.319 28.5773C46.3448 28.6308 46.3813 28.6791 46.4273 28.7194ZM52.1483 20.5582C52.0883 20.5387 52.0247 20.5303 51.9612 20.5334C51.8977 20.5365 51.8355 20.5511 51.7781 20.5763C51.7207 20.6016 51.6692 20.6369 51.6267 20.6804C51.5842 20.7239 51.5514 20.7747 51.5302 20.8298C51.4271 21.097 51.3147 21.366 51.1912 21.6372C51.1446 21.7456 51.1461 21.8665 51.1954 21.974C51.2447 22.0814 51.3379 22.1667 51.4549 22.2117C51.5719 22.2566 51.7034 22.2576 51.8212 22.2144C51.939 22.1712 52.0337 22.0872 52.0848 21.9805C52.2151 21.6942 52.3343 21.4096 52.4433 21.1269C52.4646 21.0717 52.4738 21.0133 52.4705 20.9548C52.4672 20.8964 52.4514 20.8391 52.424 20.7863C52.3966 20.7335 52.3581 20.6862 52.3108 20.647C52.2635 20.6079 52.2083 20.5777 52.1483 20.5582ZM48.3668 26.7316C48.4168 26.7678 48.4741 26.7945 48.5354 26.8103C48.5967 26.8261 48.6607 26.8306 48.7239 26.8236C48.7871 26.8165 48.8482 26.7981 48.9036 26.7693C48.959 26.7405 49.0077 26.702 49.0468 26.6559C49.2537 26.4132 49.4513 26.1714 49.6407 25.9309C49.716 25.8352 49.747 25.716 49.7267 25.5993C49.7064 25.4827 49.6365 25.3783 49.5324 25.309C49.4284 25.2397 49.2986 25.2113 49.1718 25.23C49.0449 25.2486 48.9313 25.3129 48.856 25.4085C48.6734 25.6401 48.483 25.873 48.2844 26.1063C48.2452 26.1524 48.2162 26.205 48.1991 26.2614C48.182 26.3177 48.1771 26.3766 48.1848 26.4346C48.1924 26.4927 48.2124 26.5488 48.2436 26.5997C48.2749 26.6507 48.3167 26.6955 48.3668 26.7316ZM48.9306 6.90447C49.0053 6.99902 49.1175 7.06275 49.2429 7.08193C49.3684 7.1011 49.4969 7.07417 49.601 7.00696C49.705 6.93974 49.7761 6.83763 49.7989 6.72265C49.8217 6.60766 49.7945 6.48904 49.723 6.39236C49.5334 6.14438 49.3385 5.89985 49.1384 5.65893C49.0585 5.57016 48.9444 5.51327 48.8198 5.50019C48.6953 5.48711 48.5702 5.51886 48.4706 5.58878C48.371 5.65869 48.3047 5.76134 48.2856 5.87521C48.2665 5.98908 48.2961 6.10531 48.3682 6.19954C48.5562 6.42532 48.7446 6.66044 48.9306 6.90447ZM47.1568 4.84936C47.199 4.89321 47.2501 4.92898 47.3074 4.95461C47.3646 4.98023 47.4268 4.99521 47.4903 4.99869C47.5539 5.00217 47.6175 4.99407 47.6777 4.97486C47.7378 4.95565 47.7932 4.92571 47.8407 4.88676C47.8883 4.84794 47.9271 4.80087 47.9549 4.74826C47.9827 4.69565 47.999 4.63851 48.0028 4.58012C48.0066 4.52173 47.9978 4.46323 47.977 4.40795C47.9562 4.35268 47.9237 4.30172 47.8814 4.25798C47.6628 4.03152 47.4397 3.80882 47.212 3.59001C47.1232 3.50462 47.0011 3.45517 46.8726 3.45254C46.7441 3.44991 46.6198 3.49432 46.5269 3.57598C46.434 3.65765 46.3802 3.7699 46.3774 3.88803C46.3745 4.00616 46.4228 4.12049 46.5116 4.20588C46.7199 4.40493 46.9355 4.61957 47.1568 4.84936Z" fill="#5155C3"/>
<path d="M36.4968 40.4967L44.0511 32.205C44.1242 32.1266 45.8457 30.275 45.6873 28.4724C45.6234 27.743 45.2688 27.1262 44.6347 26.6381C42.658 25.1192 39.433 22.9144 36.5699 21.0041C36.5389 21.0045 36.5074 21.0072 36.4764 21.0072C35.4786 21.0072 34.5016 20.7725 33.6511 20.3294C32.4237 19.689 31.5232 18.6532 31.0776 17.3961L30.8577 17.2536C30.7526 17.1859 30.6261 16.9887 30.6111 16.8698L29.6894 9.56576C29.6845 9.52835 29.7286 9.46467 29.7596 9.45532L41.7261 5.7383C43.4529 5.20214 44.5413 3.53756 44.1523 2.02884C43.8399 0.814922 42.6716 0 41.2446 0C40.8954 0 40.5437 0.0503203 40.2047 0.147844L24.5206 4.47895C23.5271 4.70873 22.9338 5.3393 22.9338 6.16179L22.7972 19.05C22.8766 20.459 22.0629 24.7024 21.409 28.1121C21.0113 30.1873 20.6679 31.9783 20.5671 32.8845C20.0004 37.9869 19.0317 42.4619 18.0057 47.2005C17.5698 49.2119 17.1193 51.292 16.6907 53.4669C16.526 54.3027 16.728 55.1239 17.2598 55.779C17.78 56.4202 18.5531 56.8219 19.4376 56.9114L20.1317 56.9817C20.2552 56.9942 20.3758 57 20.493 57C22.0449 57 23.2123 55.954 23.5334 54.2956L27.8967 37.5773L34.2115 54.4426C34.7031 55.7598 36.0628 56.6794 37.5198 56.6794C37.8089 56.6794 38.0957 56.6429 38.3718 56.5707C39.1681 56.3637 39.8297 55.8751 40.2337 55.1947C40.6634 54.4711 40.7549 53.5871 40.4856 52.7722L36.4963 40.4967H36.4968ZM26.3099 23.2591C25.0457 28.1442 24.8708 31.1639 24.8693 31.1937C24.8632 31.3078 24.8097 31.4154 24.7197 31.4943C24.6297 31.5731 24.5102 31.6171 24.3859 31.6172L24.3617 31.6167C24.2982 31.6139 24.2358 31.5996 24.1783 31.5746C24.1208 31.5496 24.0692 31.5144 24.0265 31.471C23.9837 31.4277 23.9507 31.377 23.9293 31.322C23.9078 31.2669 23.8984 31.2085 23.9016 31.1501C23.9083 31.0249 24.0798 28.0266 25.3673 23.0534C25.3806 22.9952 25.4065 22.9401 25.4434 22.8913C25.4803 22.8425 25.5275 22.801 25.5821 22.7692C25.6367 22.7374 25.6977 22.716 25.7614 22.7062C25.8252 22.6964 25.8905 22.6984 25.9534 22.7122C26.0163 22.726 26.0755 22.7512 26.1276 22.7863C26.1798 22.8215 26.2237 22.8659 26.2569 22.9169C26.2901 22.9679 26.3118 23.0245 26.3208 23.0833C26.3299 23.1422 26.326 23.2021 26.3094 23.2596L26.3099 23.2591ZM26.3229 21.375C26.1945 21.375 26.0713 21.3281 25.9804 21.2446C25.8896 21.1611 25.8386 21.0478 25.8386 20.9297C25.8386 20.8116 25.8896 20.6983 25.9804 20.6148C26.0713 20.5313 26.1945 20.4844 26.3229 20.4844C26.4514 20.4844 26.5746 20.5313 26.6655 20.6148C26.7563 20.6983 26.8073 20.8116 26.8073 20.9297C26.8073 21.0478 26.7563 21.1611 26.6655 21.2446C26.5746 21.3281 26.4514 21.375 26.3229 21.375ZM35.4747 40.4081L33.4675 35.0016C33.0238 34.4837 30.7666 31.4391 33.3444 25.6589C33.3726 25.5961 33.416 25.54 33.4713 25.495C33.5266 25.4499 33.5924 25.4171 33.6637 25.3991C33.7349 25.381 33.8097 25.3782 33.8823 25.3908C33.955 25.4034 34.0235 25.4312 34.0826 25.4719L39.6907 29.3269C39.7422 29.3623 39.7855 29.4067 39.8181 29.4576C39.8507 29.5085 39.872 29.5648 39.8807 29.6233C39.8894 29.6819 39.8853 29.7414 39.8688 29.7984C39.8522 29.8555 39.8235 29.909 39.7842 29.9557L37.3512 32.8601C37.3124 32.9064 37.2641 32.9452 37.2089 32.9743C37.1538 33.0035 37.093 33.0224 37.0299 33.0299C36.9668 33.0374 36.9028 33.0334 36.8414 33.0182C36.78 33.003 36.7225 32.9768 36.6721 32.9411C36.6217 32.9054 36.5795 32.861 36.5478 32.8103C36.5161 32.7596 36.4956 32.7037 36.4874 32.6457C36.4792 32.5877 36.4835 32.5289 36.5001 32.4724C36.5166 32.416 36.5451 32.3631 36.5839 32.3168L38.7171 29.7696L34.0119 26.5348C31.8443 31.8982 34.2342 34.4596 34.2589 34.4854C34.3021 34.5295 34.3351 34.5812 34.3558 34.6373L36.1548 39.4845C36.1548 39.4845 35.4704 40.3003 35.4742 40.4081H35.4747ZM36.0104 34.2891C35.882 34.2891 35.7588 34.2421 35.6679 34.1586C35.5771 34.0751 35.5261 33.9619 35.5261 33.8438C35.5261 33.7256 35.5771 33.6124 35.6679 33.5289C35.7588 33.4454 35.882 33.3984 36.0104 33.3984C36.1389 33.3984 36.2621 33.4454 36.353 33.5289C36.4438 33.6124 36.4948 33.7256 36.4948 33.8438C36.4948 33.9619 36.4438 34.0751 36.353 34.1586C36.2621 34.2421 36.1389 34.2891 36.0104 34.2891Z" fill="#5155C3"/>
</svg>
