<svg width="25" height="25" viewBox="0 0 25 25" fill="none" xmlns="http://www.w3.org/2000/svg">
<circle cx="12.6594" cy="12.1188" r="11.9269" fill="white" fill-opacity="0.3"/>
<mask id="path-2-inside-1_515_1187" fill="white">
<path fill-rule="evenodd" clip-rule="evenodd" d="M12.0454 11.5037H7.74164C7.40238 11.5037 7.12695 11.7795 7.12695 12.1184C7.12695 12.4576 7.40238 12.7331 7.74164 12.7331H12.0454L12.045 17.0367C12.045 17.376 12.3204 17.6514 12.6597 17.6518C12.999 17.6518 13.2744 17.376 13.2744 17.0371L13.2748 12.7332H17.5785C17.9178 12.7332 18.1932 12.4578 18.1932 12.1185C18.1932 11.7796 17.9178 11.5038 17.5785 11.5038H13.2748L13.2751 7.20062C13.2751 6.86137 12.9997 6.58557 12.6604 6.58557C12.3212 6.58557 12.0457 6.86099 12.0457 7.20025L12.0454 11.5037Z"/>
</mask>
<path fill-rule="evenodd" clip-rule="evenodd" d="M12.0454 11.5037H7.74164C7.40238 11.5037 7.12695 11.7795 7.12695 12.1184C7.12695 12.4576 7.40238 12.7331 7.74164 12.7331H12.0454L12.045 17.0367C12.045 17.376 12.3204 17.6514 12.6597 17.6518C12.999 17.6518 13.2744 17.376 13.2744 17.0371L13.2748 12.7332H17.5785C17.9178 12.7332 18.1932 12.4578 18.1932 12.1185C18.1932 11.7796 17.9178 11.5038 17.5785 11.5038H13.2748L13.2751 7.20062C13.2751 6.86137 12.9997 6.58557 12.6604 6.58557C12.3212 6.58557 12.0457 6.86099 12.0457 7.20025L12.0454 11.5037Z" fill="white"/>
<path d="M12.0454 11.5037V17.5037H18.0449L18.0454 11.5042L12.0454 11.5037ZM12.0454 12.7331L18.0454 12.7336L18.0459 6.73306H12.0454V12.7331ZM12.045 17.0367L6.04501 17.0362V17.0367H12.045ZM12.6597 17.6518L12.6531 23.6518H12.6597V17.6518ZM13.2744 17.0371L7.27439 17.0366V17.0371H13.2744ZM13.2748 12.7332V6.7332H7.27526L7.27475 12.7327L13.2748 12.7332ZM13.2748 11.5038L7.27475 11.5033L7.27424 17.5038H13.2748V11.5038ZM13.2751 7.20062L19.2751 7.20113V7.20062H13.2751ZM12.0457 7.20025L18.0457 7.20076V7.20025H12.0457ZM12.0454 5.5037H7.74164V17.5037H12.0454V5.5037ZM7.74164 5.5037C4.08652 5.5037 1.12695 8.46792 1.12695 12.1184H13.127C13.127 15.091 10.7182 17.5037 7.74164 17.5037V5.5037ZM1.12695 12.1184C1.12695 15.7714 4.08874 18.7331 7.74164 18.7331V6.73306C10.716 6.73306 13.127 9.14386 13.127 12.1184H1.12695ZM7.74164 18.7331H12.0454V6.73306H7.74164V18.7331ZM6.04538 12.7325L6.04501 17.0362L18.045 17.0373L18.0454 12.7336L6.04538 12.7325ZM6.04501 17.0367C6.04501 20.6911 9.00664 23.6478 12.6531 23.6518L12.6663 11.6518C15.6342 11.6551 18.045 14.0609 18.045 17.0367H6.04501ZM12.6597 23.6518C16.3148 23.6518 19.2744 20.6876 19.2744 17.0371H7.27439C7.27439 14.0645 9.68308 11.6518 12.6597 11.6518V23.6518ZM19.2744 17.0376L19.2748 12.7337L7.27475 12.7327L7.27439 17.0366L19.2744 17.0376ZM13.2748 18.7332H17.5785V6.7332H13.2748V18.7332ZM17.5785 18.7332C21.2314 18.7332 24.1932 15.7716 24.1932 12.1185H12.1932C12.1932 9.14399 14.6041 6.7332 17.5785 6.7332V18.7332ZM24.1932 12.1185C24.1932 8.46806 21.2336 5.50384 17.5785 5.50384V17.5038C14.6019 17.5038 12.1932 15.0912 12.1932 12.1185H24.1932ZM17.5785 5.50384H13.2748V17.5038H17.5785V5.50384ZM19.2748 11.5044L19.2751 7.20113L7.27512 7.20011L7.27475 11.5033L19.2748 11.5044ZM19.2751 7.20062C19.2751 3.55235 16.3181 0.585571 12.6604 0.585571V12.5856C9.68129 12.5856 7.27512 10.1704 7.27512 7.20062H19.2751ZM12.6604 0.585571C9.00754 0.585571 6.04575 3.54721 6.04575 7.20025H18.0457C18.0457 10.1748 15.6348 12.5856 12.6604 12.5856V0.585571ZM6.04575 7.19974L6.04538 11.5032L18.0454 11.5042L18.0457 7.20076L6.04575 7.19974Z" fill="white" mask="url(#path-2-inside-1_515_1187)"/>
</svg>
