<svg width="48" height="62" viewBox="0 0 48 62" fill="none" xmlns="http://www.w3.org/2000/svg">
<path d="M9.32061 22.6864L6.86473 25.1325C6.38603 25.6102 6.38603 26.3824 6.86596 26.8602C7.10522 27.0983 7.41946 27.2181 7.73369 27.2181C8.04784 27.2181 8.36208 27.0983 8.60266 26.8602L11.0573 24.414C11.5372 23.9364 11.5372 23.1641 11.0573 22.6864C10.5775 22.2087 9.80054 22.2087 9.32061 22.6864Z" fill="#5155C3"/>
<path d="M32.5472 54.1754H17.598C16.8125 51.5974 13.511 49.7158 9.44839 49.7158C4.75997 49.7158 1.09021 52.2205 1.09021 55.3972C1.09021 58.5862 4.75997 61.0909 9.44839 61.0909C13.511 61.0909 16.8125 59.2093 17.598 56.619H32.5472C38.242 56.619 42.8814 52.0128 42.8814 46.3314V33.6976H44.0479C46.2203 33.6976 48 31.9261 48 29.7634V3.92203C48 1.75941 46.2203 0 44.0479 0H23.4652C21.2928 0 19.5132 1.75941 19.5132 3.92203V29.7634C19.5132 31.9261 21.2928 33.6976 23.4652 33.6976H27.4827V35.0054C27.4827 40.0881 23.3281 44.224 18.2223 44.224C13.1153 44.224 8.96082 40.0881 8.96082 35.0054V33.5712C12.6396 32.9808 15.4658 29.8223 15.4658 25.996C15.4658 21.7503 11.9974 18.2974 7.73358 18.2974C3.46971 18.2974 0 21.7503 0 25.996C0 29.8222 2.82708 32.9807 6.50608 33.5712V35.0054C6.50608 41.4358 11.7616 46.6676 18.2223 46.6676C24.6819 46.6676 29.9374 41.4358 29.9374 35.0054V33.6976H40.4268V46.3314C40.4268 50.6565 36.892 54.1754 32.5472 54.1754ZM7.7334 31.2507L7.73226 31.251C4.82159 31.2503 2.45474 28.8925 2.45474 25.996C2.45474 23.0991 4.82229 20.741 7.73358 20.741C10.6435 20.741 13.0112 23.0991 13.0112 25.996C13.0112 28.8926 10.6441 31.2505 7.73463 31.251L7.7334 31.2507Z" fill="#5155C3"/>
<line x1="27.96" y1="7.09021" x2="27.96" y2="25.0414" stroke="white" stroke-width="5" stroke-linecap="round"/>
</svg>
