<svg width="63" height="41" viewBox="0 0 63 41" fill="none" xmlns="http://www.w3.org/2000/svg">
<path d="M0.917537 18.9024C0.674604 18.9038 0.442001 19.0005 0.270219 19.1717C0.0984371 19.3429 0.0013385 19.5747 0 19.8168V25.0439C0 25.2864 0.0966688 25.519 0.26874 25.6905C0.440812 25.862 0.674191 25.9583 0.917537 25.9583H21.3786V18.9024H0.917537Z" fill="#5155C3"/>
<path d="M28.9938 4.31497H44.2861C46.7136 4.23376 49.1327 4.64009 51.3993 5.50979C53.666 6.37949 55.7339 7.69477 57.4799 9.37734C59.226 11.0599 60.6145 13.0754 61.5627 15.3037C62.511 17.5321 62.9997 19.9278 62.9997 22.3483C62.9997 24.7687 62.511 27.1645 61.5627 29.3928C60.6145 31.6212 59.226 33.6367 57.4799 35.3192C55.7339 37.0018 53.666 38.3171 51.3993 39.1868C49.1327 40.0565 46.7136 40.4628 44.2861 40.3816H28.9938C25.6318 40.3802 22.3749 39.213 19.7819 37.0804C17.1889 34.9477 15.4213 31.9824 14.7822 28.693C16.3141 28.4722 17.715 27.7089 18.7281 26.5427C19.7413 25.3766 20.2989 23.8857 20.2989 22.3432C20.2989 20.8007 19.7413 19.3098 18.7281 18.1437C17.715 16.9775 16.3141 16.2142 14.7822 15.9934C15.4225 12.7055 17.1907 9.74196 19.7837 7.61113C22.3767 5.48031 25.6329 4.31496 28.9938 4.31497Z" fill="#5155C3"/>
<path d="M23.5771 12.2493V32.3043C23.5771 33.1768 24.2869 33.8842 25.1624 33.8842H43.0442C43.9198 33.8842 44.6295 33.1768 44.6295 32.3043V12.2493C44.6295 11.3767 43.9198 10.6694 43.0442 10.6694H25.1624C24.2869 10.6694 23.5771 11.3767 23.5771 12.2493Z" fill="white"/>
<path d="M52.7313 23.6326H49.6677C49.1328 23.6326 48.6992 24.0647 48.6992 24.5978V28.6566C48.6992 29.1896 49.1328 29.6217 49.6677 29.6217H52.7313C53.2662 29.6217 53.6998 29.1896 53.6998 28.6566V24.5978C53.6998 24.0647 53.2662 23.6326 52.7313 23.6326Z" fill="white"/>
<path d="M52.7313 13.9085H49.6677C49.1328 13.9085 48.6992 14.3407 48.6992 14.8737V18.9325C48.6992 19.4655 49.1328 19.8976 49.6677 19.8976H52.7313C53.2662 19.8976 53.6998 19.4655 53.6998 18.9325V14.8737C53.6998 14.3407 53.2662 13.9085 52.7313 13.9085Z" fill="white"/>
<path d="M5.36571 0.0792542C5.36571 0.0792542 0 7.58039 0 10.5265C0 11.9535 0.565314 13.322 1.57158 14.331C2.57785 15.34 3.94264 15.9069 5.36571 15.9069C6.78879 15.9069 8.15358 15.34 9.15984 14.331C10.1661 13.322 10.7314 11.9535 10.7314 10.5265C10.7314 7.58039 5.36571 0.0792542 5.36571 0.0792542Z" fill="#5155C3"/>
</svg>
