<svg width="29" height="29" viewBox="0 0 29 29" fill="none" xmlns="http://www.w3.org/2000/svg">
<path d="M19.0014 17.5371C18.8264 17.5371 18.6479 17.4975 18.4811 17.4146L13.8145 15.0812C13.419 14.883 13.1694 14.4793 13.1694 14.0371V5.8706C13.1694 5.22665 13.692 4.704 14.336 4.704C14.9799 4.704 15.5026 5.22665 15.5026 5.8706V13.3161L19.5241 15.3274C20.1004 15.6155 20.3336 16.3167 20.0456 16.893C19.8415 17.3014 19.4296 17.537 19.0014 17.537L19.0014 17.5371ZM14.3359 28.0371C6.61594 28.0371 0.335938 21.7571 0.335938 14.0371C0.335938 6.31711 6.61594 0.0371094 14.3359 0.0371094C22.0559 0.0371094 28.3359 6.31711 28.3359 14.0371C28.3359 21.7571 22.0559 28.0371 14.3359 28.0371ZM14.3359 2.37061C7.90294 2.37061 2.66944 7.60411 2.66944 14.0371C2.66944 20.4701 7.90294 25.7036 14.3359 25.7036C20.7689 25.7036 26.0024 20.4701 26.0024 14.0371C26.0024 7.60411 20.7689 2.37061 14.3359 2.37061Z" fill="#5155C3"/>
</svg>
