<svg width="95" height="95" viewBox="0 0 95 95" fill="none" xmlns="http://www.w3.org/2000/svg">
<circle cx="47.5" cy="47.5" r="46.5" stroke="#AC2734" stroke-width="2"/>
<path d="M61.4682 31.8676L60.0968 69.3127C60.0735 69.9551 59.5138 70.4994 58.8761 70.4994H35.1885C34.5513 70.4994 33.9911 69.953 33.9679 69.3127L32.5964 31.8676C32.5588 30.8345 31.7001 30.028 30.6787 30.0661C29.6574 30.1048 28.8601 30.9729 28.8978 32.006L30.2687 69.4511C30.3663 72.1039 32.5602 74.2434 35.1885 74.2434H58.8761C61.5033 74.2434 63.6982 72.1076 63.7959 69.4511L65.1668 32.006C65.2045 30.9729 64.4072 30.1048 63.3858 30.0661C62.3645 30.028 61.5059 30.8344 61.4682 31.8676Z" fill="#AC2734"/>
<path d="M45.5762 39.4302V64.8891C45.5762 65.7165 46.2386 66.3866 47.0565 66.3866C47.8744 66.3866 48.5368 65.7165 48.5368 64.8891V39.4302C48.5368 38.6028 47.8744 37.9327 47.0565 37.9327C46.2386 37.9327 45.5762 38.6029 45.5762 39.4302Z" fill="#AC2734"/>
<path d="M37.4245 39.4742L38.1649 64.9331C38.1892 65.76 38.8708 66.4108 39.6881 66.3862C40.5055 66.3622 41.1489 65.6722 41.1245 64.8454L40.3841 39.3865C40.3603 38.5596 39.6782 37.9088 38.8609 37.9334C38.0435 37.9574 37.4007 38.6474 37.4245 39.4742Z" fill="#AC2734"/>
<path d="M53.6825 39.3865L52.9421 64.8454C52.9178 65.6722 53.5612 66.3623 54.3785 66.3862C55.1959 66.4107 55.8775 65.7599 55.9017 64.9331L56.6421 39.4742C56.6659 38.6474 56.023 37.9573 55.2057 37.9334C54.3883 37.9089 53.7062 38.5597 53.6825 39.3865Z" fill="#AC2734"/>
<path d="M28.542 32.6862H65.554C66.5759 32.6862 67.4046 31.8484 67.4046 30.8142C67.4046 29.7806 66.5759 28.9423 65.554 28.9423H28.542C27.5201 28.9423 26.6914 29.7806 26.6914 30.8142C26.6914 31.8484 27.5201 32.6862 28.542 32.6862Z" fill="#AC2734"/>
<path d="M41.4337 30.2081L42.2041 27.4795C42.3693 26.8955 43.118 26.3241 43.7196 26.3241H50.3939C50.9955 26.3241 51.7442 26.895 51.9094 27.4795L52.6798 30.2081L56.2385 29.1791L55.4681 26.4511C54.8485 24.2588 52.6478 22.5802 50.3939 22.5802H43.7196C41.4657 22.5802 39.2645 24.2595 38.6454 26.4511L37.875 29.1791L41.4337 30.2081Z" fill="#AC2734"/>
</svg>
