<svg width="42" height="53" viewBox="0 0 42 53" fill="none" xmlns="http://www.w3.org/2000/svg">
<path d="M35.4682 9.86763L34.0968 47.3127C34.0735 47.9551 33.5138 48.4994 32.8761 48.4994H9.18852C8.55135 48.4994 7.99111 47.953 7.96787 47.3127L6.59644 9.86763C6.55875 8.83449 5.70007 8.02801 4.6787 8.06612C3.65736 8.10477 2.86009 8.97285 2.89777 10.006L4.26866 47.4511C4.36625 50.1039 6.56023 52.2434 9.18847 52.2434H32.8761C35.5033 52.2434 37.6982 50.1076 37.7959 47.4511L39.1668 10.006C39.2045 8.97288 38.4072 8.10476 37.3858 8.06612C36.3645 8.02799 35.5059 8.83445 35.4682 9.86763Z" fill="#AC2734"/>
<path d="M19.5762 17.4302V42.8891C19.5762 43.7165 20.2386 44.3866 21.0565 44.3866C21.8744 44.3866 22.5368 43.7165 22.5368 42.8891V17.4302C22.5368 16.6028 21.8744 15.9327 21.0565 15.9327C20.2386 15.9327 19.5762 16.6029 19.5762 17.4302Z" fill="#AC2734"/>
<path d="M11.4245 17.4742L12.1649 42.9331C12.1892 43.76 12.8708 44.4108 13.6881 44.3862C14.5055 44.3622 15.1489 43.6722 15.1245 42.8454L14.3841 17.3865C14.3603 16.5596 13.6782 15.9088 12.8609 15.9334C12.0435 15.9574 11.4007 16.6474 11.4245 17.4742Z" fill="#AC2734"/>
<path d="M27.6825 17.3865L26.9421 42.8454C26.9178 43.6722 27.5612 44.3623 28.3785 44.3862C29.1959 44.4107 29.8775 43.7599 29.9017 42.9331L30.6421 17.4742C30.6659 16.6474 30.023 15.9573 29.2057 15.9334C28.3883 15.9089 27.7062 16.5597 27.6825 17.3865Z" fill="#AC2734"/>
<path d="M2.54201 10.6862H39.554C40.5759 10.6862 41.4046 9.84844 41.4046 8.81424C41.4046 7.78058 40.5759 6.94226 39.554 6.94226H2.54201C1.52014 6.94226 0.691406 7.78058 0.691406 8.81424C0.691406 9.84844 1.52014 10.6862 2.54201 10.6862Z" fill="#AC2734"/>
<path d="M15.4337 8.20806L16.2041 5.4795C16.3693 4.89555 17.118 4.32414 17.7196 4.32414H24.3939C24.9955 4.32414 25.7442 4.89503 25.9094 5.4795L26.6798 8.20806L30.2385 7.17909L29.4681 4.45107C28.8485 2.25884 26.6478 0.5802 24.3939 0.5802H17.7196C15.4657 0.5802 13.2645 2.25951 12.6454 4.45107L11.875 7.17909L15.4337 8.20806Z" fill="#AC2734"/>
</svg>
