<svg width="65" height="62" viewBox="0 0 65 62" fill="none" xmlns="http://www.w3.org/2000/svg">
<path d="M11.3828 44.2763C11.3828 44.714 11.4921 45.0423 11.82 45.2611C12.0387 45.3706 12.2573 45.48 12.3666 45.5894C12.4759 45.5894 12.5852 45.6988 12.6945 45.6988L19.5814 48.1061C19.5814 48.2156 19.4721 48.325 19.4721 48.4344L19.0348 49.5286C17.723 52.8113 16.3019 56.094 14.8808 59.3767C14.6622 59.8144 14.3343 60.6898 15.2088 61.1275C16.0833 61.6746 16.6299 60.9087 16.9578 60.6898C19.2534 57.8448 21.549 55.1092 23.954 52.2642C24.0633 52.0454 24.2819 51.936 24.3912 51.7171C24.3912 51.7171 24.3912 51.7171 24.5005 51.6077L25.1564 52.9208C25.8123 54.3433 26.5775 55.7658 27.2334 57.1883C27.5614 57.9542 27.9986 58.1731 28.6545 58.0637C29.529 57.8448 29.6383 56.9694 29.6383 56.7506C29.6383 55.6563 29.6383 54.6715 29.6383 53.5773V50.5135C29.6383 49.2004 29.6383 47.8873 29.7476 46.5742C29.7476 45.5894 29.3104 45.0423 28.6545 45.0423C28.3266 45.0423 28.1079 45.1517 27.8893 45.3706C27.6707 45.5894 27.452 46.0271 27.452 46.5742C27.452 47.0119 27.452 47.4496 27.452 47.8873C27.452 48.325 27.452 48.6533 27.452 49.091C27.452 49.8569 27.452 50.7323 27.452 51.4983V52.0454C27.452 52.0454 27.452 51.936 27.3427 51.936C27.1241 51.6077 27.0148 51.2794 26.7961 50.8417C26.5775 50.2946 26.3589 49.8569 26.0309 49.3098C25.9216 48.9815 25.703 48.7627 25.4844 48.5438C25.1564 48.325 24.6099 48.1061 23.7353 48.9815C23.626 49.091 23.4074 49.3098 23.2981 49.5286C23.1888 49.6381 23.0794 49.7475 23.0794 49.8569L20.1279 53.4679L21.0025 51.4983C21.4397 50.404 21.9863 49.2004 22.4236 48.1061C22.7515 47.2308 22.5329 46.6836 21.6584 46.3554C21.549 46.2459 21.3304 46.2459 21.2211 46.2459C21.1118 46.2459 21.0025 46.1365 21.0025 46.1365L17.2858 44.8234C17.2858 44.8234 17.3951 44.8234 17.5044 44.8234L20.2373 44.3858C21.4397 44.1669 22.5329 43.9481 23.7353 43.7292C24.6099 43.6198 25.0471 43.0727 24.9378 42.3067C24.9378 41.9784 24.7192 41.7596 24.5005 41.5407C24.1726 41.3219 23.8447 41.3219 23.2981 41.3219C22.6422 41.4313 22.0956 41.5407 21.4397 41.6502L18.5975 42.1973C16.6299 42.5256 14.6622 42.9633 12.6945 43.2915C12.3666 43.1821 11.4921 43.2915 11.3828 44.2763ZM53.141 14.4038C52.7038 15.1697 52.4851 15.9357 52.3758 16.9205C52.2665 17.9053 52.4851 18.8901 53.141 19.7655L53.2503 19.8749C53.7969 20.6409 54.6714 21.188 55.6553 21.4069C56.6391 21.6257 57.5136 21.6257 58.2788 21.5163C60.0278 21.188 61.5583 20.6409 62.87 19.6561L62.9793 19.5467C63.0887 19.4372 63.3073 19.3278 63.4166 19.2184C64.8377 18.0147 65.275 16.3734 64.8377 14.5132C64.6191 13.7472 64.2911 12.9813 63.7445 12.2153C63.198 11.4493 62.6514 10.9022 61.9955 10.4645C60.3558 9.3703 58.7161 9.26088 57.0763 10.2457C56.967 10.3551 56.7484 10.4645 56.6391 10.574L56.5298 10.6834C54.9994 11.6682 54.0155 12.8718 53.141 14.4038ZM52.7038 23.3765C51.5013 21.5163 49.4243 20.3126 47.0194 20.5315C45.8169 20.6409 44.9424 20.9692 44.0679 21.7351C43.412 22.1728 39.6953 25.1273 39.0394 24.6896C38.7115 24.4707 39.586 17.2488 39.586 15.9357C39.586 15.1697 39.6953 14.4038 39.8046 13.6378V13.5284C39.8046 13.2001 39.6953 12.7624 39.586 12.4342C39.4767 12.3247 39.4767 12.1059 39.3674 11.9965L39.258 11.887L28.5452 0.725863C28.4359 0.61644 28.3266 0.507017 28.1079 0.397593C27.3427 -0.149523 26.2496 -0.149523 25.4844 0.507016C24.6099 1.16356 24.3912 2.47664 25.0471 3.35202C25.0471 3.46144 25.1564 3.46144 25.2657 3.57087L33.0271 13.9661C34.1202 15.498 33.2457 16.7017 32.5898 18.343C31.8246 20.4221 31.0594 22.5011 30.2942 24.4707C30.1849 24.9084 29.857 25.2367 29.6383 25.5649C29.0918 26.2215 28.3266 26.7686 27.452 26.5498C25.703 26.0026 19.1441 24.1424 17.8323 23.8142C17.6137 23.8142 17.3951 23.7048 17.2858 23.7048C16.7392 23.5953 16.1926 23.5953 15.7554 23.8142H15.646L5.15182 30.1607L1.3258 32.0209C0.123342 32.6775 -0.313917 33.9905 0.232657 35.0848C0.77923 36.0696 1.87238 36.5073 2.85621 36.179C2.96553 36.179 3.07484 36.0696 3.18416 36.0696L16.7392 31.0361C16.9578 31.0361 26.4682 35.9602 28.4359 37.0544C33.2457 39.79 39.0394 38.6957 43.8493 36.6167C45.161 36.0696 46.3635 35.1942 47.6753 34.8659C49.6429 34.3188 50.1895 36.945 50.5175 38.3675C50.9547 40.5559 51.1734 42.7444 51.5013 45.0423C51.7199 46.3554 53.0317 47.1213 54.2342 46.6836C55.1087 46.3554 55.7646 45.48 55.6553 44.4952C55.3273 39.4617 54.7807 34.4282 54.1248 29.5042C54.0155 28.8476 54.0155 28.0817 53.9062 27.3157C53.6876 26.0026 53.469 24.5801 52.7038 23.3765Z" fill="#5155C3"/>
</svg>
