<svg width="53" height="51" viewBox="0 0 53 51" fill="none" xmlns="http://www.w3.org/2000/svg">
<path d="M46.25 26.3945L46.2633 22.4052L52.4338 22.4261C56.9903 3.18589 32.7436 -8.48473 26.2905 9.69019C18.7349 -8.47331 -3.58705 2.79967 0.49408 21.7103L12.54 21.6484L17.5018 15.1035C18.8182 13.9245 19.9626 14.0727 20.9353 15.5481L26.6303 29.3571L31.5378 19.0444C32.4208 17.7478 33.4934 17.5653 34.7554 18.4972L38.5948 22.37L42.2866 22.4055L42.2482 26.3946L37.7364 26.3513C37.2111 26.3462 36.7091 26.1341 36.3391 25.761L33.9205 23.3214L28.3012 35.13C27.5635 36.68 25.3204 36.6442 24.6562 35.0335L18.5759 20.2904L15.1243 24.8432C14.7495 25.3376 14.1657 25.6295 13.5451 25.6328L1.71649 25.6937C4.74943 33.3275 12.1019 41.8697 26.115 50.0815H26.1521C40.3776 42.1109 47.9154 33.8481 51.1063 26.411L46.25 26.3945Z" fill="#5155C3"/>
</svg>
