<svg width="26" height="27" viewBox="0 0 26 27" fill="none" xmlns="http://www.w3.org/2000/svg">
<path d="M21.9944 15.3489V4.01565C21.9944 3.15473 21.6525 2.32902 21.0436 1.72011C20.4347 1.11121 19.609 0.769287 18.7481 0.769287H3.40066C2.53974 0.769287 1.71403 1.1112 1.10512 1.72011C0.496216 2.32902 0.154297 3.15473 0.154297 4.01565V21.7238C0.154297 22.5849 0.496206 23.4107 1.10512 24.0196C1.71403 24.6283 2.53974 24.9704 3.40066 24.9704H16.5285C17.4983 25.7323 18.6952 26.1479 19.9284 26.1509C21.6813 26.1554 23.3348 25.3386 24.3962 23.9437C25.4577 22.5488 25.8041 20.7372 25.3324 19.049C24.8606 17.361 23.6252 15.9914 21.9943 15.3489H21.9944ZM19.9286 24.38C18.7224 24.4188 17.5682 23.8875 16.813 22.9462C16.0579 22.0049 15.7895 20.7629 16.0889 19.5937C16.3881 18.4247 17.2202 17.4643 18.3349 17.0017C18.5908 16.9331 18.8027 16.7535 18.912 16.5122C19.0214 16.2709 19.0171 15.9932 18.8999 15.7554C18.7829 15.5177 18.5655 15.3447 18.3074 15.2845C18.0495 15.224 17.7779 15.2823 17.5674 15.4433C16.149 16.0782 15.0616 17.279 14.5703 18.7534C14.0788 20.2277 14.2282 21.8407 14.9822 23.1996H3.40103C3.00971 23.1996 2.63442 23.044 2.35772 22.7673C2.08083 22.4907 1.92548 22.1153 1.92548 21.7238V4.01566C1.92548 3.62434 2.08083 3.24905 2.35772 2.97235C2.63441 2.69546 3.00973 2.54011 3.40103 2.54011H18.7484C19.1398 2.54011 19.5151 2.69546 19.7918 2.97235C20.0687 3.24904 20.224 3.62436 20.224 4.01566V15.9747V16.0455V16.1991C20.2384 16.2597 20.2582 16.319 20.2831 16.3761L20.3538 16.4825C20.3951 16.5388 20.4426 16.5904 20.4955 16.6358L20.6019 16.7066V16.7068C20.6586 16.7564 20.7282 16.7892 20.8025 16.8013C22.0229 17.1112 23.0136 18.0001 23.4534 19.1798C23.8931 20.3597 23.7259 21.6803 23.0061 22.7134C22.2863 23.7464 21.1055 24.3607 19.8463 24.3567L19.9286 24.38Z" fill="white"/>
<path d="M20.8138 20.2602V18.1825C20.8138 17.8662 20.645 17.574 20.3711 17.4158C20.0972 17.2575 19.7596 17.2575 19.4857 17.4158C19.2117 17.574 19.043 17.8663 19.043 18.1825V20.5436C19.0436 20.7296 19.1013 20.9108 19.2082 21.063L20.3887 22.704H20.3889C20.5584 22.9319 20.8248 23.0673 21.1088 23.07C21.2954 23.0734 21.478 23.0153 21.6284 22.9048C21.8014 22.7673 21.9174 22.5706 21.9545 22.3528C21.9915 22.135 21.9468 21.9111 21.829 21.7241L20.8138 20.2602Z" fill="white"/>
<path d="M11.0734 16.1163H5.1705C4.85428 16.1163 4.56199 16.2851 4.40389 16.559C4.24558 16.833 4.24558 17.1705 4.40389 17.4444C4.56199 17.7184 4.8543 17.8871 5.1705 17.8871H11.0734C11.3898 17.8871 11.6821 17.7184 11.8402 17.4444C11.9983 17.1705 11.9983 16.833 11.8402 16.559C11.6821 16.2851 11.3898 16.1163 11.0734 16.1163Z" fill="white"/>
<path d="M16.9763 10.804H5.1705C4.85428 10.804 4.56199 10.9727 4.40389 11.2467C4.24558 11.5206 4.24558 11.8581 4.40389 12.1321C4.56199 12.406 4.8543 12.5748 5.1705 12.5748H16.9763C17.2925 12.5748 17.5848 12.406 17.7429 12.1321C17.9012 11.8581 17.9012 11.5206 17.7429 11.2467C17.5848 10.9727 17.2925 10.804 16.9763 10.804Z" fill="white"/>
<path d="M16.9763 5.49146H5.1705C4.85428 5.49146 4.56199 5.66023 4.40389 5.93416C4.24558 6.20808 4.24558 6.54565 4.40389 6.81957C4.56199 7.09349 4.8543 7.26227 5.1705 7.26227H16.9763C17.2925 7.26227 17.5848 7.09349 17.7429 6.81957C17.9012 6.54564 17.9012 6.20808 17.7429 5.93416C17.5848 5.66023 17.2925 5.49146 16.9763 5.49146Z" fill="white"/>
</svg>
