<svg width="105" height="105" viewBox="0 0 105 105" fill="none" xmlns="http://www.w3.org/2000/svg">
<path d="M105.001 73.7005C105.001 76.0209 103.102 77.9195 100.782 77.9195H93.6228V93.622H80.4649V89.0075C80.4649 85.2763 77.4193 82.2426 73.7013 82.2426C69.9701 82.2426 66.9377 85.2763 66.9377 89.0075V93.622H53.793V80.464H58.3798C58.393 80.464 58.393 80.464 58.393 80.464H58.4207C62.1373 80.464 65.1842 77.4185 65.1842 73.7005C65.1842 69.9693 62.1373 66.9369 58.4207 66.9369H53.793V53.7658H69.4691V46.6199C69.4691 44.2862 71.3664 42.3877 73.7013 42.3877C74.8615 42.3877 75.9163 42.8623 76.681 43.627C77.4456 44.3917 77.9203 45.4465 77.9203 46.6199V53.7658H93.6228V69.4683H100.782C103.102 69.4683 105.001 71.3669 105.001 73.7005Z" fill="#333333"/>
<path d="M62.6133 73.7005C62.6133 76.0209 60.728 77.9195 58.3944 77.9195H51.2353V93.622H35.5591V100.781C35.5591 103.115 33.6606 105 31.3401 105C29.0065 105 27.108 103.102 27.108 100.781V93.622H11.4054V77.9195H4.24633C1.92589 77.9195 0.0273438 76.0209 0.0273438 73.7005C0.0273438 71.3655 1.92589 69.4683 4.24633 69.4683H11.4054V53.7658H27.108V46.6199C27.108 44.2862 28.9933 42.3877 31.3269 42.3877C33.6474 42.3877 35.5327 44.2862 35.5327 46.6199V53.7658H51.2353V69.4683H58.3944C60.728 69.4683 62.6133 71.3668 62.6133 73.7005Z" fill="#333333"/>
<path d="M39.8562 31.2996C39.8562 35.0308 42.8886 38.0632 46.6198 38.0632H51.2343V51.2343H38.1027V46.6198C38.1027 42.8886 35.0571 39.8562 31.3392 39.8562C31.326 39.8562 31.326 39.8562 31.326 39.8562C31.3128 39.8562 31.3128 39.8562 31.3128 39.8562C27.5816 39.8562 24.5492 42.8886 24.5492 46.6198V51.2343H11.3781V35.5318H4.21899C1.89854 35.5318 0 33.6332 0 31.3128C0 28.9792 1.89854 27.0806 4.21899 27.0806H11.3781V11.3781H27.0806V4.21899C27.0806 1.89854 28.9792 0 31.3128 0C33.6332 0 35.5318 1.89854 35.5318 4.21899V11.3781H51.2343V24.5492H46.6198C42.8886 24.5492 39.8562 27.5816 39.8562 31.2996Z" fill="#333333"/>
<path d="M82.2324 31.2996C82.2324 35.0308 85.2792 38.0632 88.9959 38.0632H93.6249V51.2343H80.467V46.6198C80.467 44.7476 79.7023 43.06 78.4761 41.8339C77.2487 40.6077 75.5624 39.8562 73.7034 39.8562C69.9722 39.8562 66.9398 42.8886 66.9398 46.6198V51.2343H53.7687V35.5318H46.6096C44.2892 35.5318 42.3906 33.6332 42.3906 31.2996C42.3906 28.9792 44.2892 27.0806 46.6096 27.0806H53.7687V11.3781H69.4712V4.21899C69.4712 1.89854 71.3685 0 73.7034 0C76.0238 0 77.9224 1.89854 77.9224 4.21899V11.3781H93.6249V24.5492H88.9959C85.2779 24.5492 82.2324 27.5816 82.2324 31.2996Z" fill="#333333"/>
</svg>
