<svg width="95" height="95" viewBox="0 0 95 95" fill="none" xmlns="http://www.w3.org/2000/svg">
<circle cx="47.5" cy="47.5" r="46.5" stroke="#5155C3" stroke-width="2"/>
<path fill-rule="evenodd" clip-rule="evenodd" d="M61.0022 56.3061L69.7666 48.6374C70.4594 48.0314 70.5298 46.9783 69.9234 46.2858C69.8749 46.23 69.8224 46.1775 69.7666 46.1287L60.9487 38.4136C60.2865 37.8343 59.2879 37.8695 58.6682 38.4939L58.6595 38.5026C58.0764 39.0902 58.0797 40.0398 58.6676 40.6232C58.6855 40.6411 58.7039 40.6584 58.7226 40.6751L64.3427 45.7165H42.0067C41.0861 45.7165 40.3398 46.4628 40.3398 47.3833C40.3398 48.3038 41.0861 49.0499 42.0067 49.0499H64.3427L58.798 53.8536C58.1238 54.4376 58.0507 55.4574 58.6347 56.1315C58.6428 56.141 58.6512 56.1505 58.6596 56.1597L58.6707 56.172C59.2815 56.8447 60.3183 56.9041 61.0023 56.3059L61.0022 56.3061ZM55.3459 35.7236C54.4251 35.7236 53.6787 34.977 53.6787 34.0562V30.7236H35.337C34.4165 30.7236 33.6701 31.4697 33.6701 32.3902V62.3906C33.6701 63.3111 34.4165 64.0572 35.337 64.0572H53.6787V60.7246C53.6787 59.8038 54.4251 59.0571 55.3459 59.0571C56.2669 59.0571 57.0133 59.8038 57.0133 60.7246V64.0572C57.0027 65.7241 55.3361 67.3907 53.6787 67.3907H33.6706C32.0034 67.3907 30.3359 65.7241 30.3359 64.0572V30.7239C30.3359 29.057 32.0034 27.3904 33.6706 27.3904H53.6694C55.336 27.3904 57.0026 29.0915 57.0026 30.7239L57.0098 34.0565C57.0115 34.9753 56.2682 35.7219 55.3494 35.7239H55.3458L55.3459 35.7236Z" fill="#5155C3"/>
</svg>
