<svg width="25" height="26" viewBox="0 0 25 26" fill="none" xmlns="http://www.w3.org/2000/svg">
<path d="M8.01971 26H3.26715C2.40072 26 1.56972 25.6498 0.956917 25.026C0.344109 24.4023 0 23.5565 0 22.6746V3.32543C0 2.44354 0.344099 1.59773 0.956917 0.973987C1.56972 0.350248 2.40072 0 3.26715 0H17.5244C18.391 0 19.222 0.350237 19.8349 0.973987C20.4475 1.59773 20.7918 2.44354 20.7918 3.32543V8.92483C20.7918 9.24875 20.6219 9.54816 20.3462 9.71033C20.0705 9.87228 19.7308 9.87228 19.4551 9.71033C19.1795 9.54816 19.0096 9.24874 19.0096 8.92483V3.32543C19.0096 2.92458 18.8531 2.54015 18.5746 2.25671C18.2961 1.97307 17.9184 1.81395 17.5244 1.81395H3.26715C2.87333 1.81395 2.49563 1.97307 2.21716 2.25671C1.93849 2.54014 1.78216 2.9246 1.78216 3.32543V22.6746C1.78216 23.0754 1.93849 23.4598 2.21716 23.7433C2.49562 24.0269 2.87335 24.186 3.26715 24.186H8.01971C8.33795 24.186 8.63211 24.3589 8.79123 24.6395C8.95055 24.9201 8.95055 25.2659 8.79123 25.5465C8.63211 25.8271 8.33793 26 8.01971 26ZM12.7721 26C12.5358 25.9998 12.3092 25.9042 12.1423 25.734C11.9745 25.5597 11.8806 25.325 11.881 25.0811V21.6224C11.879 21.385 11.9737 21.1574 12.1423 20.9936L19.4258 13.5683V13.5681C20.0487 12.9643 20.8761 12.6274 21.7366 12.6274C22.597 12.6274 23.4245 12.9643 24.0475 13.5681C24.6577 14.1935 25 15.0389 25 15.9204C25 16.8017 24.6577 17.6471 24.0475 18.2725L16.7523 25.6858V25.6856C16.5912 25.8575 16.3677 25.9539 16.1345 25.9517H12.7365L12.7721 26ZM13.6987 22.0577V24.2223H15.8254L22.8588 17.0634H22.859C23.1383 16.78 23.2952 16.395 23.2952 15.9933C23.2952 15.5917 23.1383 15.2066 22.859 14.9232C22.5746 14.6501 22.1984 14.4981 21.8074 14.4981C21.4166 14.4981 21.0405 14.6501 20.7561 14.9232L13.6987 22.0577ZM9.20774 19.9536H5.64343C5.32499 19.9536 5.03083 19.7808 4.8717 19.5002C4.71258 19.2196 4.71258 18.8738 4.8717 18.5932C5.03083 18.3126 5.325 18.1397 5.64343 18.1397H9.20774C9.52619 18.1397 9.82035 18.3126 9.97947 18.5932C10.1386 18.8738 10.1386 19.2196 9.97947 19.5002C9.82035 19.7808 9.52618 19.9536 9.20774 19.9536ZM15.1484 13.907H5.64343C5.32499 13.907 5.03083 13.7341 4.8717 13.4535C4.71258 13.1729 4.71258 12.8271 4.8717 12.5465C5.03083 12.2659 5.325 12.093 5.64343 12.093H15.1484C15.4667 12.093 15.7608 12.2659 15.92 12.5465C16.0793 12.8271 16.0793 13.1729 15.92 13.4535C15.7608 13.7341 15.4667 13.907 15.1484 13.907ZM15.1484 7.86031H5.64343C5.32499 7.86031 5.03083 7.68742 4.8717 7.40682C4.71258 7.12622 4.71258 6.78044 4.8717 6.49984C5.03083 6.21925 5.325 6.04636 5.64343 6.04636H15.1484C15.4667 6.04636 15.7608 6.21925 15.92 6.49984C16.0793 6.78044 16.0793 7.12623 15.92 7.40682C15.7608 7.68742 15.4667 7.86031 15.1484 7.86031Z" fill="#5155C3"/>
</svg>
