<svg width="90" height="102" viewBox="0 0 90 102" fill="none" xmlns="http://www.w3.org/2000/svg">
<path d="M44.8242 0.000585104C43.8951 0.045786 42.986 0.316991 42.1875 0.794112L2.8125 23.2941C1.07478 24.2936 0 26.1367 0 28.1256V73.1256C0 75.1144 1.07478 76.9576 2.8125 77.9571L42.1875 100.457C43.0915 100.989 44.1261 101.266 45.1758 101.246C46.1049 101.2 47.014 100.929 47.8125 100.457L87.1875 77.9571C88.9252 76.9576 90 75.1144 90 73.1256V28.1256C90 26.1367 88.9252 24.2936 87.1875 23.2941L47.8125 0.794112C46.9135 0.261746 45.8739 -0.0144819 44.8242 0.000585104ZM45 12.1295L73.0346 28.1256L45 44.1217L16.9654 28.1256L45 12.1295ZM11.25 37.7936L39.375 53.875V85.9576L11.25 69.8762V37.7986V37.7936ZM78.75 37.7936V69.8762L50.625 85.9576V53.875L78.75 37.7936Z" fill="#A9AEB0"/>
</svg>
