<svg width="163" height="141" viewBox="0 0 163 141" fill="none" xmlns="http://www.w3.org/2000/svg">
<path d="M43.9899 0.0190101C42.5492 0.189837 41.2624 1.28854 40.8644 2.68623L31.0825 37.1214H3.35662C1.53485 37.2909 -0.00921991 38.9979 4.14478e-05 40.8289V137.29C4.14478e-05 139.232 1.76496 141 3.70425 141H122.246C124.186 141 125.95 139.232 125.95 137.29V131.609L132.318 133.406C134.196 133.97 136.417 132.746 136.948 130.856L162.879 36.2499C163.404 34.3683 162.158 32.1786 160.275 31.6701C160.275 31.6701 84.5301 7.00523 45.4372 0.134433C44.9605 0.0503132 44.4734 -0.0389825 43.9901 0.0179611L43.9899 0.0190101ZM47.0572 8.25111L154.717 37.8155L130.754 125.235L125.95 123.902V40.8325C125.95 38.89 124.185 37.1223 122.246 37.1223H38.7812L47.0572 8.25111ZM7.40866 44.5415H118.542V118.219L95.3895 92.1332C94.5704 91.1989 93.2589 90.7239 92.0329 90.9154C91.6518 90.9724 91.2784 91.0914 90.9334 91.2636L54.0633 109.755L39.7668 93.9875C38.9476 93.0531 37.6362 92.5769 36.4102 92.7697C36.0484 92.8331 35.6957 92.9509 35.3688 93.1178L7.41177 107.146L7.40866 44.5415ZM59.2722 59.3814C51.1325 59.3814 44.4551 66.0696 44.4551 74.2212C44.4551 82.3728 51.1335 89.0611 59.2722 89.0611C67.412 89.0611 74.0894 82.3728 74.0894 74.2212C74.0894 66.0696 67.411 59.3814 59.2722 59.3814ZM59.2722 66.8018C63.4081 66.8018 66.6806 70.0798 66.6806 74.2222C66.6806 78.3648 63.4079 81.6427 59.2722 81.6427C55.1365 81.6427 51.8638 78.3646 51.8638 74.2222C51.8638 70.0797 55.1365 66.8018 59.2722 66.8018ZM91.7439 99.2068L118.543 129.351V133.583H75.769L59.2722 115.437L91.7439 99.2068ZM36.1757 101.061L65.695 133.583H7.408V115.496L36.1757 101.061Z" fill="#A9AEB0"/>
</svg>
