<svg width="60" height="77" viewBox="0 0 60 77" fill="none" xmlns="http://www.w3.org/2000/svg">
<g filter="url(#filter0_d_476_1631)">
<path d="M35.6674 12H23.1402C21.4561 12 20.0908 13.2233 20.0908 14.7323V29.1371C20.0908 30.6461 21.4561 31.8694 23.1402 31.8694H35.6674C37.3516 31.8694 38.7169 30.6461 38.7169 29.1371V14.7323C38.7169 13.2233 37.3516 12 35.6674 12Z" stroke="#5155C3" stroke-width="3" stroke-miterlimit="10"/>
<path d="M32.2242 20.347H26.578C25.7491 20.347 25.0771 20.9491 25.0771 21.6918V25.3099C25.0771 26.0526 25.7491 26.6547 26.578 26.6547H32.2242C33.0531 26.6547 33.7251 26.0526 33.7251 25.3099V21.6918C33.7251 20.9491 33.0531 20.347 32.2242 20.347Z" stroke="#5155C3" stroke-width="3" stroke-miterlimit="10"/>
<path d="M26.8408 16.7958H31.9629" stroke="#5155C3" stroke-width="3" stroke-miterlimit="10" stroke-linecap="round"/>
</g>
<path d="M59.6494 44.6483C59.8384 44.3213 59.9537 43.9641 59.9887 43.5972C60.0236 43.2302 59.9776 42.8607 59.8531 42.5097C59.7287 42.1587 59.5283 41.8331 59.2634 41.5514C58.9985 41.2698 58.6744 41.0377 58.3094 40.8684C57.9444 40.699 57.5457 40.5957 57.1362 40.5644C56.7266 40.5331 56.3142 40.5744 55.9224 40.6858C55.5307 40.7973 55.1673 40.9769 54.853 41.2142C54.5387 41.4515 54.2796 41.742 54.0906 42.0691C52.6969 44.506 50.12 49.0562 48.9963 51.0236C48.9264 51.1473 48.8297 51.2573 48.7117 51.3471C48.5938 51.4369 48.457 51.5047 48.3094 51.5466C48.0114 51.629 47.6893 51.6035 47.4121 51.4754H47.3843C47.2465 51.412 47.1242 51.3247 47.0245 51.2185C46.9248 51.1124 46.8497 50.9895 46.8035 50.857C46.7573 50.7246 46.741 50.5853 46.7555 50.4471C46.77 50.309 46.815 50.1748 46.8879 50.0524C48.361 47.5407 52.4706 40.5891 54.5631 37.0528C54.756 36.7264 54.8751 36.3691 54.9134 36.0014C54.9517 35.6337 54.9086 35.2628 54.7865 34.9101C54.6643 34.5573 54.4656 34.2297 54.2018 33.946C53.9379 33.6622 53.614 33.428 53.2488 33.2568L53.1694 33.2177C52.8035 33.0466 52.4035 32.9418 51.9924 32.9095C51.5812 32.8772 51.167 32.9179 50.7734 33.0292C50.3798 33.1406 50.0146 33.3205 49.6988 33.5586C49.3829 33.7966 49.1226 34.0882 48.9328 34.4166C47.1977 37.4264 43.9537 43.0438 42.6712 45.2602C42.5267 45.5071 42.2802 45.6935 41.9843 45.7797C41.8379 45.8207 41.6839 45.8353 41.5312 45.8224C41.3785 45.8096 41.2302 45.7697 41.0949 45.705C40.9578 45.6421 40.8363 45.5552 40.7374 45.4495C40.6385 45.3438 40.5643 45.2214 40.5191 45.0895C40.4282 44.8236 40.4567 44.5364 40.5985 44.289C42.5481 40.984 45.931 35.2242 48.2856 31.2147C48.4776 30.8895 48.596 30.5336 48.6342 30.1673C48.6723 29.801 48.6294 29.4316 48.508 29.0802C48.2563 28.3711 47.7047 27.7785 46.9713 27.4294L46.88 27.3903C46.5165 27.2163 46.1183 27.1084 45.7081 27.0728C45.298 27.0371 44.884 27.0744 44.4899 27.1825C44.0959 27.2906 43.7296 27.4674 43.412 27.7027C43.0945 27.938 42.8319 28.2271 42.6394 28.5536C40.2571 32.6591 36.8265 38.5755 34.8491 41.9837C34.7553 42.1482 34.6144 42.2875 34.4407 42.3871C34.2671 42.4868 34.067 42.5433 33.861 42.5509C33.6549 42.5585 33.4503 42.5169 33.2681 42.4304C33.086 42.3438 32.9327 42.2155 32.8241 42.0584C32.6018 41.7418 32.566 40.2013 32.5859 39.8242C32.7368 36.9425 33.0584 35.6689 33.245 32.0401C33.2847 31.2965 32.8479 32.1611 32.2881 31.6096C31.7282 31.0582 30.9182 31.5349 30.0844 31.5029L29.7271 31.7164C28.8972 31.6843 28.5359 31.3215 27.9244 31.8266C27.3129 32.3318 26.5585 31.4033 26.5268 32.1468C26.2806 37.2912 24.605 42.8517 21.2737 48.5582L18.5657 41.5995C18.1951 40.654 17.4373 39.8701 16.4457 39.4067C15.4541 38.9433 14.3029 38.8349 13.2255 39.1036C12.1481 39.3723 11.225 39.998 10.6432 40.8538C10.0615 41.7097 9.86459 42.7316 10.0925 43.7127L14.7023 63.2547C14.7666 63.7364 14.8755 64.2124 15.0279 64.6778L15.0676 64.8628C15.4622 66.0017 16.1042 67.0595 16.9566 67.9753C17.8091 68.8912 18.8552 69.647 20.0348 70.1992L30.4497 75.0945C31.6271 75.6473 32.9144 75.9868 34.2382 76.0938C35.5621 76.2007 36.8965 76.073 38.1652 75.7179C39.4339 75.3627 40.6121 74.7871 41.6326 74.024C42.653 73.2608 43.4957 72.3251 44.1125 71.2701C48.1863 64.2865 56.2784 50.4402 59.6574 44.6483H59.6494Z" fill="#5155C3"/>
<defs>
<filter id="filter0_d_476_1631" x="0.59082" y="0.5" width="57.626" height="58.8694" filterUnits="userSpaceOnUse" color-interpolation-filters="sRGB">
<feFlood flood-opacity="0" result="BackgroundImageFix"/>
<feColorMatrix in="SourceAlpha" type="matrix" values="0 0 0 0 0 0 0 0 0 0 0 0 0 0 0 0 0 0 127 0" result="hardAlpha"/>
<feOffset dy="8"/>
<feGaussianBlur stdDeviation="9"/>
<feColorMatrix type="matrix" values="0 0 0 0 0 0 0 0 0 0 0 0 0 0 0 0 0 0 0.25 0"/>
<feBlend mode="normal" in2="BackgroundImageFix" result="effect1_dropShadow_476_1631"/>
<feBlend mode="normal" in="SourceGraphic" in2="effect1_dropShadow_476_1631" result="shape"/>
</filter>
</defs>
</svg>
