<svg width="95" height="95" viewBox="0 0 95 95" fill="none" xmlns="http://www.w3.org/2000/svg">
<circle cx="47.5" cy="47.5" r="46.5" stroke="#5155C3" stroke-width="2"/>
<path d="M68.9997 41.191C68.9997 40.9011 68.8507 40.636 68.5994 40.486L52.2084 30.1347C51.9363 29.9648 51.5975 29.9547 51.3154 30.1096C51.0382 30.2547 50.8585 30.5446 50.8585 30.8595L50.8739 34.3502C50.8227 34.3652 50.7765 34.3753 50.7249 34.3952C50.4119 34.4953 50.1037 34.6003 49.7445 34.7101C47.7425 35.4102 45.7972 36.3353 43.9438 37.4756C40.417 39.6508 37.25 42.6563 34.8218 46.1517C32.4603 49.5321 30.7304 53.4379 29.822 57.4282C28.929 61.2837 28.7646 65.3791 29.3239 69.2699C29.3855 69.6951 29.75 70 30.1915 70C30.628 70 30.9976 69.6951 31.0591 69.2699C31.5726 65.7396 32.7377 62.334 34.4215 59.4231C36.0232 56.6577 38.1533 54.2323 40.5968 52.4171C42.9018 50.7069 45.525 49.5215 48.1633 48.9966C49.0617 48.8166 49.9909 48.7165 50.9351 48.6816L50.9455 51.7122C50.9455 52.017 51.1199 52.3072 51.4074 52.4524C51.6845 52.6072 52.0287 52.5873 52.3004 52.4175L68.6043 41.9063C68.851 41.7458 69 41.4807 69 41.1909L68.9997 41.191Z" fill="#334DAB"/>
</svg>
