<svg width="26" height="26" viewBox="0 0 26 26" fill="none" xmlns="http://www.w3.org/2000/svg">
<path d="M25.9998 7.27415C25.9998 7.08574 25.903 6.91342 25.7396 6.81593L15.0855 0.0875514C14.9086 -0.0228644 14.6884 -0.0294407 14.505 0.0712267C14.3248 0.165547 14.208 0.353962 14.208 0.558698L14.218 2.82761C14.1847 2.83736 14.1547 2.84393 14.1212 2.85686C13.9178 2.92193 13.7174 2.99018 13.4839 3.06159C12.1826 3.51664 10.9182 4.11792 9.71344 4.85914C7.42108 6.27301 5.36247 8.22658 3.78416 10.4986C2.24917 12.6959 1.12477 15.2346 0.5343 17.8283C-0.0461748 20.3344 -0.152997 22.9964 0.210546 25.5254C0.250579 25.8018 0.487514 26 0.774492 26C1.05821 26 1.29841 25.8018 1.33844 25.5254C1.6722 23.2307 2.42953 21.0171 3.52396 19.125C4.56506 17.3275 5.94967 15.751 7.53793 14.5711C9.03615 13.4595 10.7413 12.689 12.4561 12.3478C13.0401 12.2308 13.6441 12.1657 14.2578 12.143L14.2646 14.1129C14.2646 14.3111 14.3779 14.4997 14.5648 14.594C14.745 14.6947 14.9686 14.6818 15.1453 14.5714L25.7428 7.73908C25.9032 7.63478 26 7.46247 26 7.27406L25.9998 7.27415Z" fill="white"/>
</svg>
