<svg width="60" height="60" viewBox="0 0 60 60" fill="none" xmlns="http://www.w3.org/2000/svg">
<path fill-rule="evenodd" clip-rule="evenodd" d="M58.1319 22.8243C59.096 25.6492 59.6192 28.6748 59.6192 31.8211C59.6192 47.1883 47.1431 59.6644 31.7759 59.6644C17.8635 59.6644 6.32133 49.439 4.25977 36.102C8.31676 40.0767 13.8715 42.5304 19.9959 42.5304C20.359 42.5304 20.7187 42.5211 21.0771 42.5048C24.872 45.0745 29.4486 46.5758 34.3723 46.5758C47.483 46.5758 58.1273 35.9338 58.1319 22.8243Z" fill="#5155C3"/>
<path fill-rule="evenodd" clip-rule="evenodd" d="M6.40367 39.9603C10.3232 49.0158 19.3455 55.3587 29.836 55.3587C36.86 55.3587 43.2255 52.5144 47.8421 47.917C48.7502 47.0132 50.2205 47.0164 51.1233 47.9235C52.0272 48.8305 52.024 50.3008 51.1169 51.2047C45.6607 56.6395 38.1376 60 29.836 60C14.7642 60 2.26032 48.9205 0.0274951 34.4708C-0.125643 33.4835 0.371255 32.5089 1.2601 32.0527C2.14895 31.5955 3.23058 31.7593 3.94487 32.4597C7.58164 36.0247 12.5645 38.2243 18.0561 38.2243C29.187 38.2243 38.2244 29.187 38.2244 18.0561C38.2244 12.5645 36.0247 7.58161 32.4597 3.94484C31.7593 3.23055 31.5955 2.14895 32.0528 1.2601C32.509 0.371255 33.4835 -0.125643 34.4708 0.0274951C48.9205 2.26032 60 14.7641 60 29.836C60 34.5062 58.9356 38.93 57.0369 42.8785C56.4821 44.0329 55.0953 44.5191 53.9408 43.9643C52.7864 43.4096 52.3002 42.0217 52.855 40.8684C54.4602 37.5282 55.3587 33.7865 55.3587 29.836C55.3587 19.3454 49.0158 10.3231 39.9603 6.40363C41.814 9.8787 42.8656 13.8453 42.8656 18.0561C42.8656 31.7486 31.7486 42.8656 18.0561 42.8656C13.8453 42.8656 9.87874 41.814 6.40367 39.9603Z" fill="#5155C3"/>
</svg>
