<svg width="105" height="105" viewBox="0 0 105 105" fill="none" xmlns="http://www.w3.org/2000/svg">
<path d="M55.7812 6.5625H22.9688C13.7812 6.5625 6.5625 13.7812 6.5625 22.9688V82.0312C6.5625 91.2188 13.7812 98.4375 22.9688 98.4375H55.7812C64.9688 98.4375 72.1875 91.2188 72.1875 82.0312V22.9688C72.1875 13.7812 64.9688 6.5625 55.7812 6.5625ZM26.25 29.5312C26.25 31.5 24.9375 32.8125 22.9688 32.8125C21 32.8125 19.6875 31.5 19.6875 29.5312V22.9688C19.6875 21 21 19.6875 22.9688 19.6875C24.9375 19.6875 26.25 21 26.25 22.9688V29.5312ZM50.2031 56.7656C48.8906 58.0781 46.9219 59.0625 44.9531 59.0625C44.2969 59.0625 43.3125 59.0625 42.6562 58.7344V62.3438C44.625 62.3438 45.9375 63.6562 45.9375 65.625C45.9375 67.5938 44.625 68.9062 42.6562 68.9062H36.0938C34.125 68.9062 32.8125 67.5938 32.8125 65.625C32.8125 63.6562 34.125 62.3438 36.0938 62.3438V58.7344C35.4375 59.0625 34.4531 59.0625 33.7969 59.0625C31.8281 59.0625 29.8594 58.4062 28.5469 56.7656C25.5938 53.8125 25.5938 48.8906 28.5469 45.9375L37.0781 37.0781C38.3906 35.7656 40.6875 35.7656 41.6719 37.0781L50.2031 45.9375C53.1562 48.8906 53.1562 53.8125 50.2031 56.7656ZM59.0625 82.0312C59.0625 84 57.75 85.3125 55.7812 85.3125C53.8125 85.3125 52.5 84 52.5 82.0312V75.4688C52.5 73.5 53.8125 72.1875 55.7812 72.1875C57.75 72.1875 59.0625 73.5 59.0625 75.4688V82.0312Z" fill="#5155C3"/>
<path d="M93.5156 28.2188L78.75 19.3594V84.6562L99.0938 50.8594C103.688 42.9844 101.391 32.8125 93.5156 28.2188Z" fill="#5155C3"/>
</svg>
