<svg width="105" height="101" viewBox="0 0 105 101" fill="none" xmlns="http://www.w3.org/2000/svg">
<path fill-rule="evenodd" clip-rule="evenodd" d="M0.171875 1.56943C0.171875 0.706839 0.871145 0.00756836 1.73374 0.00756836L89.5886 0.00756836C90.4512 0.00756836 91.1505 0.706839 91.1505 1.56943C91.1505 2.43203 90.4512 3.1313 89.5886 3.1313L1.73374 3.1313C0.871145 3.1313 0.171875 2.43203 0.171875 1.56943Z" fill="#4CBC9A"/>
<path fill-rule="evenodd" clip-rule="evenodd" d="M0.171875 89.4242C0.171875 88.5616 0.871145 87.8623 1.73374 87.8623L89.5886 87.8623C90.4512 87.8623 91.1505 88.5616 91.1505 89.4242C91.1505 90.2868 90.4512 90.986 89.5886 90.986L1.73374 90.986C0.871145 90.986 0.171875 90.2868 0.171875 89.4242Z" fill="#4CBC9A"/>
<path fill-rule="evenodd" clip-rule="evenodd" d="M89.5814 49.2062C88.7188 49.2021 88.0229 48.4995 88.027 47.6369L88.2484 1.56189C88.2526 0.699304 88.9552 0.00339961 89.8178 0.00754446C90.6804 0.0116893 91.3763 0.714313 91.3721 1.5769L91.1507 47.6519C91.1466 48.5145 90.444 49.2104 89.5814 49.2062Z" fill="#4CBC9A"/>
<path fill-rule="evenodd" clip-rule="evenodd" d="M1.73764 90.986C0.87505 90.9877 0.174436 90.2897 0.172776 89.4272L0.00370721 1.5723C0.00204724 0.709703 0.699971 0.0090938 1.56256 0.00743382C2.42516 0.00577385 3.12577 0.703691 3.12743 1.56628L3.2965 89.4211C3.29816 90.2837 2.60023 90.9843 1.73764 90.986Z" fill="#4CBC9A"/>
<path fill-rule="evenodd" clip-rule="evenodd" d="M89.5576 90.9857C88.6952 90.9683 88.0103 90.255 88.0277 89.3926L88.2491 78.4595C88.2666 77.5971 88.9799 76.9121 89.8423 76.9296C90.7047 76.947 91.3897 77.6603 91.3722 78.5227L91.1508 89.4558C91.1333 90.3182 90.4201 91.0032 89.5576 90.9857Z" fill="#4CBC9A"/>
<path fill-rule="evenodd" clip-rule="evenodd" d="M31.3978 1.56943C32.2603 1.56355 32.9644 2.25803 32.9702 3.12061L33.5559 89.0231C33.5618 89.8857 32.8673 90.5897 32.0048 90.5956C31.1422 90.6015 30.4382 89.907 30.4323 89.0444L29.8466 3.14191C29.8407 2.27933 30.5352 1.57531 31.3978 1.56943Z" fill="#4CBC9A"/>
<path fill-rule="evenodd" clip-rule="evenodd" d="M62.2454 1.95981C63.108 1.95393 63.812 2.64842 63.8179 3.51099L64.4036 89.4135C64.4095 90.2761 63.715 90.9801 62.8524 90.986C61.9898 90.9919 61.2858 90.2974 61.2799 89.4348L60.6942 3.53229C60.6884 2.66971 61.3828 1.96569 62.2454 1.95981Z" fill="#4CBC9A"/>
<path fill-rule="evenodd" clip-rule="evenodd" d="M0.171875 63.2631C0.171875 62.4005 0.871145 61.7012 1.73374 61.7012L74.3604 61.7012C75.223 61.7012 75.9223 62.4005 75.9223 63.2631C75.9223 64.1257 75.223 64.825 74.3604 64.825H1.73374C0.871145 64.825 0.171875 64.1257 0.171875 63.2631Z" fill="#4CBC9A"/>
<path fill-rule="evenodd" clip-rule="evenodd" d="M0.171875 32.4162C0.171875 31.5536 0.871145 30.8543 1.73374 30.8543L89.5886 30.8543C90.4512 30.8543 91.1505 31.5536 91.1505 32.4162C91.1505 33.2788 90.4512 33.978 89.5886 33.978L1.73374 33.978C0.871145 33.978 0.171875 33.2788 0.171875 32.4162Z" fill="#4CBC9A"/>
<path d="M21.611 21.2906V23.4355H12.1163V21.6052L16.6063 16.7911C17.0575 16.289 17.4134 15.8473 17.674 15.466C17.9345 15.0784 18.122 14.732 18.2364 14.427C18.3571 14.1155 18.4175 13.82 18.4175 13.5404C18.4175 13.1209 18.3476 12.7619 18.2078 12.4632C18.068 12.1581 17.8614 11.923 17.5882 11.7577C17.3212 11.5925 16.9908 11.5099 16.5967 11.5099C16.1773 11.5099 15.815 11.6116 15.51 11.8149C15.2113 12.0183 14.9825 12.3011 14.8236 12.6634C14.6711 13.0256 14.5948 13.4355 14.5948 13.8931H11.8398C11.8398 13.0669 12.0369 12.3107 12.4309 11.6243C12.8249 10.9316 13.381 10.3818 14.0991 9.9751C14.8173 9.56201 15.6689 9.35547 16.6539 9.35547C17.6263 9.35547 18.4461 9.51435 19.1134 9.83211C19.7871 10.1435 20.2955 10.5947 20.6387 11.1858C20.9882 11.7705 21.163 12.4695 21.163 13.283C21.163 13.7406 21.0899 14.1886 20.9437 14.6271C20.7976 15.0593 20.5878 15.4915 20.3146 15.9236C20.0476 16.3494 19.7235 16.7816 19.3422 17.2201C18.9609 17.6586 18.5383 18.113 18.0743 18.5833L15.6625 21.2906H21.611Z" fill="#4CBC9A"/>
<path d="M49.2626 9.5271V23.4355H46.5171V12.692L43.2188 13.7406V11.5767L48.9671 9.5271H49.2626Z" fill="#4CBC9A"/>
<path d="M14.9266 46.5413H16.3947C16.865 46.5413 17.2526 46.4618 17.5577 46.303C17.8628 46.1377 18.0884 45.9089 18.2345 45.6166C18.3871 45.3179 18.4633 44.9715 18.4633 44.5775C18.4633 44.2216 18.3934 43.907 18.2536 43.6338C18.1201 43.3541 17.9136 43.138 17.634 42.9855C17.3543 42.8266 17.0016 42.7472 16.5758 42.7472C16.239 42.7472 15.9276 42.8139 15.6416 42.9474C15.3556 43.0809 15.1268 43.2683 14.9552 43.5098C14.7836 43.7513 14.6978 44.0437 14.6978 44.3869H11.9428C11.9428 43.6242 12.1462 42.9601 12.5529 42.3945C12.966 41.8289 13.5189 41.3872 14.2117 41.0694C14.9044 40.7517 15.667 40.5928 16.4996 40.5928C17.4401 40.5928 18.2631 40.7453 18.9686 41.0504C19.674 41.349 20.2237 41.7907 20.6177 42.3754C21.0118 42.9601 21.2088 43.6846 21.2088 44.5489C21.2088 44.9874 21.1071 45.4132 20.9037 45.8263C20.7004 46.233 20.408 46.6017 20.0267 46.9321C19.6518 47.2562 19.1942 47.5168 18.654 47.7138C18.1138 47.9045 17.5069 47.9998 16.8332 47.9998H14.9266V46.5413ZM14.9266 48.629V47.2086H16.8332C17.5895 47.2086 18.2536 47.2944 18.8256 47.466C19.3975 47.6376 19.8774 47.8854 20.265 48.2095C20.6527 48.5273 20.945 48.9054 21.1421 49.3439C21.3391 49.7761 21.4376 50.2559 21.4376 50.7834C21.4376 51.4316 21.3136 52.01 21.0658 52.5184C20.8179 53.0204 20.4684 53.4462 20.0172 53.7958C19.5723 54.1453 19.0512 54.4122 18.4538 54.5965C17.8564 54.7745 17.205 54.8635 16.4996 54.8635C15.9149 54.8635 15.3397 54.784 14.7741 54.6251C14.2148 54.4599 13.7064 54.2152 13.2488 53.8911C12.7976 53.5606 12.4354 53.1476 12.1621 52.6518C11.8952 52.1498 11.7617 51.5556 11.7617 50.8692H14.5167C14.5167 51.2251 14.6057 51.5429 14.7836 51.8225C14.9616 52.1021 15.2063 52.3214 15.5177 52.4803C15.8354 52.6391 16.1881 52.7186 16.5758 52.7186C17.0143 52.7186 17.3893 52.6391 17.7007 52.4803C18.0185 52.315 18.26 52.0862 18.4252 51.7939C18.5968 51.4952 18.6826 51.1488 18.6826 50.7548C18.6826 50.2464 18.5904 49.8396 18.4061 49.5346C18.2218 49.2232 17.9581 48.9944 17.6149 48.8482C17.2717 48.7021 16.865 48.629 16.3947 48.629H14.9266Z" fill="#4CBC9A"/>
<path d="M77.8873 94.8375H78.6118C82.6791 94.8375 85.9838 94.2655 88.5259 93.1215C91.068 91.9776 93.0254 90.4396 94.3982 88.5076C95.7709 86.5756 96.7115 84.4022 97.2199 81.9872C97.7283 79.5467 97.9825 77.0428 97.9825 74.4753V65.972C97.9825 63.4553 97.6902 61.2182 97.1055 59.2608C96.5462 57.3034 95.7582 55.6638 94.7414 54.3419C93.7499 53.02 92.6187 52.0158 91.3477 51.3295C90.0766 50.6431 88.7293 50.2999 87.3057 50.2999C85.6788 50.2999 84.2171 50.6304 82.9206 51.2913C81.6496 51.9269 80.5692 52.8293 79.6794 53.9987C78.8151 55.168 78.1542 56.5408 77.6966 58.1169C77.239 59.693 77.0102 61.4089 77.0102 63.2646C77.0102 64.917 77.2136 66.5185 77.6203 68.0692C78.0271 69.6199 78.6499 71.018 79.4888 72.2636C80.3277 73.5093 81.3699 74.5007 82.6156 75.2379C83.8866 75.9497 85.3737 76.3056 87.0769 76.3056C88.653 76.3056 90.1275 76.0005 91.5002 75.3904C92.8983 74.7549 94.1313 73.9033 95.1989 72.8356C96.292 71.7425 97.1564 70.5096 97.7919 69.1369C98.4528 67.7641 98.8341 66.3278 98.9358 64.828H102.291C102.291 66.938 101.872 69.0225 101.033 71.0816C100.22 73.1152 99.0756 74.971 97.6012 76.6488C96.1268 78.3265 94.3982 79.6739 92.4153 80.6907C90.4325 81.6821 88.2717 82.1778 85.933 82.1778C83.1875 82.1778 80.8107 81.644 78.8024 80.5763C76.7942 79.5086 75.1418 78.085 73.8453 76.3056C72.5743 74.5261 71.621 72.5433 70.9855 70.3571C70.3754 68.1454 70.0703 65.9084 70.0703 63.6459C70.0703 61.0022 70.4389 58.5236 71.1761 56.2103C71.9133 53.897 73.0064 51.8633 74.4554 50.1093C75.9044 48.3298 77.6966 46.9444 79.832 45.9529C81.9927 44.9615 84.484 44.4658 87.3057 44.4658C90.4833 44.4658 93.1907 45.1013 95.4277 46.3724C97.6648 47.6434 99.4824 49.3466 100.881 51.482C102.304 53.6174 103.346 56.0196 104.007 58.6888C104.668 61.3581 104.999 64.1035 104.999 66.9252V69.48C104.999 72.3526 104.808 75.276 104.427 78.2503C104.071 81.1991 103.372 84.0208 102.33 86.7155C101.313 89.4101 99.8256 91.8251 97.8681 93.9604C95.9107 96.0704 93.3559 97.7482 90.2037 98.9938C87.0769 100.214 83.213 100.824 78.6118 100.824H77.8873V94.8375Z" fill="#4CBC9A"/>
</svg>
