<svg width="34" height="66" viewBox="0 0 34 66" fill="none" xmlns="http://www.w3.org/2000/svg">
<path d="M27.9213 53.5876C26.9992 59.7739 21.8395 64.6323 15.6795 65.2277C15.1744 65.328 14.7706 65.3271 14.2658 65.3261L14.2794 59.0363C18.4191 58.9438 21.7583 55.5018 21.7673 51.3424C21.7746 47.9946 19.6603 45.2509 16.7348 44.1287C16.4321 44.0266 16.2308 43.7218 16.2315 43.4174L16.2833 19.4757C16.2848 18.7656 15.6804 18.1556 14.9736 18.1541L14.3678 18.1527L14.4062 0.399353C16.0214 0.504296 17.5346 1.11626 18.6427 2.23459C19.7509 3.35292 20.4542 4.97762 20.4504 6.70223L20.3835 37.6439C20.3819 38.354 20.6835 38.9633 21.2886 39.269C25.927 42.0181 28.8431 47.5027 27.9213 53.5876Z" fill="#5155C3"/>
<path d="M14.4063 0.399355L14.2658 65.3261C6.49147 65.4107 0.144403 59.1072 0.161304 51.2957C0.172278 46.2233 2.90794 41.7654 6.95173 39.3394C7.55838 38.935 7.96333 38.4286 7.96487 37.7185L8.03203 6.67537C8.03949 3.22614 10.8726 0.39171 14.3053 0.399137L14.4063 0.399355Z" fill="#5155C3"/>
<path d="M21.7667 51.3427C21.7575 55.6035 18.4184 58.944 14.2787 59.0365L14.3672 18.153L14.973 18.1543C15.6797 18.1559 16.2842 18.7659 16.2826 19.476L16.2311 43.3163C16.2304 43.6206 16.4317 43.9254 16.7343 44.0275C19.7608 45.15 21.7739 47.9949 21.7667 51.3427Z" fill="#BCC0FF"/>
<path d="M14.3684 18.153L14.2799 59.0366C13.6742 59.0353 12.9674 59.0337 12.3621 58.8295C9.43546 58.2145 7.01783 55.6731 6.51938 52.73C5.8212 48.772 8.04985 45.3275 11.3843 44.1174C11.6874 44.0166 11.89 43.7127 11.8906 43.4083L11.9422 19.5681C11.944 18.7565 12.551 18.1491 13.2578 18.1506L14.3684 18.153Z" fill="#BCC0FF"/>
<path d="M32.6634 8.85921L23.2739 8.83889C22.769 8.8378 22.3661 8.43114 22.3672 7.9239C22.3683 7.41666 22.773 7.01174 23.2778 7.01283L32.6674 7.03314C33.1722 7.03424 33.5752 7.4409 33.5741 7.94814C33.5727 8.55683 33.1682 8.8603 32.6634 8.85921Z" fill="#5155C3"/>
<path d="M28.4113 13.7189L23.2621 13.7078C22.7573 13.7067 22.3543 13.3 22.3554 12.7928C22.3565 12.2856 22.7613 11.8806 23.2661 11.8817L28.4152 11.8929C28.92 11.894 29.323 12.3006 29.3219 12.8079C29.3208 13.3151 28.9161 13.72 28.4113 13.7189Z" fill="#5155C3"/>
<path d="M28.4015 18.4872L23.2524 18.4761C22.7476 18.475 22.3446 18.0683 22.3457 17.5611C22.3468 17.0539 22.7515 16.6489 23.2563 16.65L28.4054 16.6612C28.9103 16.6623 29.3132 17.0689 29.3121 17.5762C29.311 18.0834 28.9063 18.4883 28.4015 18.4872Z" fill="#5155C3"/>
<path d="M28.3917 23.2556L23.2426 23.2445C22.7378 23.2434 22.3348 22.8367 22.3359 22.3295C22.337 21.8222 22.7417 21.4173 23.2466 21.4184L28.3957 21.4295C28.9005 21.4306 29.3035 21.8373 29.3024 22.3445C29.3013 22.8518 28.8965 23.2567 28.3917 23.2556Z" fill="#5155C3"/>
<path d="M28.38 28.0239L23.2309 28.0128C22.7261 28.0117 22.3231 27.605 22.3242 27.0978C22.3253 26.5905 22.73 26.1856 23.2348 26.1867L28.384 26.1979C28.8888 26.199 29.2917 26.6056 29.2906 27.1129C29.2895 27.6201 28.8848 28.025 28.38 28.0239ZM32.6101 32.8012L23.2206 32.7808C22.7158 32.7797 22.3128 32.3731 22.3139 31.8658C22.315 31.3586 22.7197 30.9537 23.2245 30.9548L32.6141 30.9751C33.1189 30.9762 33.5219 31.3828 33.5208 31.8901C33.5197 32.3973 33.1149 32.8022 32.6101 32.8012Z" fill="#5155C3"/>
</svg>
