<svg width="101" height="128" viewBox="0 0 101 128" fill="none" xmlns="http://www.w3.org/2000/svg">
<path d="M75.1609 27.3791C71.0858 25.6001 69.3879 14.9663 68.3691 5.45184C67.8298 2.03382 64.8733 1.01441 60.3388 0.674608C55.7843 0.314817 52.3085 0.134922 48.1934 0.0149913C47.5142 -0.0049971 46.7951 -0.0049971 46.1159 0.0149913C42.0009 0.134922 38.5251 0.314817 33.9706 0.674608C29.4161 1.01441 26.4596 2.03382 25.9403 5.45184C24.9415 14.9663 23.2435 25.6001 19.1484 27.3791H75.1609ZM75.1609 100.537C71.0858 102.316 69.3879 112.949 68.3691 122.464C67.8298 125.882 64.8733 126.901 60.3388 127.241C55.7843 127.601 52.3085 127.781 48.1934 127.901C47.5142 127.921 46.7951 127.921 46.1159 127.901C42.0009 127.781 38.5251 127.601 33.9706 127.241C29.4161 126.901 26.4596 125.882 25.9403 122.464C24.9415 112.949 23.2435 102.316 19.1484 100.537H75.1609Z" fill="#5155C3"/>
<ellipse cx="47.3345" cy="64.461" rx="47.313" ry="47.3426" fill="#F1F7FF"/>
<ellipse cx="47.3363" cy="64.4609" rx="37.2464" ry="37.2697" fill="#DED5C6"/>
<path d="M42.2221 52.9637C42.2221 56.7415 39.1658 59.7997 35.3904 59.7997C31.6149 59.7997 28.5586 56.7415 28.5586 52.9637C28.5586 49.1859 31.6149 46.1277 35.3904 46.1277C39.1658 46.1277 42.2221 49.1859 42.2221 52.9637Z" fill="#296167"/>
<path d="M65.7729 52.9637C65.7729 56.7415 62.7166 59.7997 58.9411 59.7997C55.1657 59.7997 52.1094 56.7415 52.1094 52.9637C52.1094 49.1859 55.1657 46.1277 58.9411 46.1277C62.7166 46.1277 65.7729 49.1859 65.7729 52.9637Z" fill="#F37970"/>
<path d="M42.2221 74.951C42.2221 78.7288 39.1658 81.787 35.3904 81.787C31.6149 81.787 28.5586 78.7288 28.5586 74.951C28.5586 71.1732 31.6149 68.115 35.3904 68.115C39.1658 68.115 42.2221 71.1732 42.2221 74.951Z" fill="#5BCAEE"/>
<path d="M65.7729 74.951C65.7729 78.7288 62.7166 81.787 58.9411 81.787C55.1657 81.787 52.1094 78.7288 52.1094 74.951C52.1094 71.1732 55.1657 68.115 58.9411 68.115C62.7166 68.115 65.7729 71.1732 65.7729 74.951Z" fill="#5FC3AB"/>
<path d="M98.1442 69.9937H94.6484V57.9008H98.1442C99.183 57.9008 100.022 58.7403 100.022 59.7797V68.1148C100.022 69.1542 99.183 69.9937 98.1442 69.9937Z" fill="#0D98C6"/>
</svg>
