<svg width="60" height="60" viewBox="0 0 60 60" fill="none" xmlns="http://www.w3.org/2000/svg">

<path d="M36.3831 26.8789C36.0102 26.0407 35.4872 25.252 34.7995 24.5643C34.1114 23.8769 33.323 23.3536 32.4849 22.9807L31.4465 24.0191L30.7252 24.74L29.9764 25.4888C29.8373 25.6276 29.7189 25.7784 29.6156 25.9364C30.6095 26.0012 31.5397 26.402 32.2504 27.1131C32.9815 27.8434 33.3615 28.7844 33.4245 29.7418C33.4603 30.2738 33.3947 30.8069 33.2239 31.3178C33.0346 31.886 32.7292 32.4218 32.2862 32.8787C32.2722 32.8919 32.2643 32.9085 32.2515 32.9221L31.4013 33.7716L30.2219 34.951L29.1217 36.0519L26.2535 38.9201C25.4776 39.696 24.4467 40.1225 23.3484 40.1225C22.2524 40.1225 21.2196 39.6949 20.4433 38.9189C19.6684 38.1441 19.2413 37.1121 19.2413 36.015C19.2413 34.9178 19.6677 33.8855 20.4437 33.1098L23.316 30.2371C23.1516 29.7277 23.0343 29.2063 22.9623 28.6803C22.9088 28.2882 22.8726 27.8934 22.8707 27.4983C22.8654 26.7714 22.9551 26.0451 23.1233 25.3341L17.8945 30.5621C14.8841 33.5735 14.8841 38.4566 17.8945 41.4682C19.4004 42.973 21.3738 43.7266 23.3468 43.7266C25.321 43.7266 27.2944 42.9737 28.7996 41.4682L34.0201 36.2477L34.7976 35.471C35.2425 35.0257 35.6139 34.5355 35.9268 34.0205C36.4196 33.2125 36.7548 32.3371 36.9221 31.4336C37.0085 30.9691 37.0545 30.4986 37.0545 30.0273C37.0556 29.4519 36.9847 28.8777 36.8577 28.3136C36.7487 27.8235 36.5903 27.3435 36.383 26.879L36.3831 26.8789Z" fill="white"/>
<path d="M43.3796 15.986C41.8736 14.4804 39.8998 13.7275 37.9272 13.7275C35.953 13.7279 33.9796 14.4805 32.4744 15.9864L26.4768 21.984C26.0315 22.4293 25.6605 22.9194 25.3472 23.4338C24.8548 24.2418 24.5192 25.1172 24.3511 26.0207C24.2648 26.4852 24.2188 26.9561 24.2188 27.427C24.2184 28.0023 24.2885 28.5766 24.4156 29.141C24.5264 29.6301 24.6848 30.1104 24.8925 30.5753C25.2654 31.4127 25.788 32.2011 26.4761 32.8888C27.1642 33.5765 27.9522 34.0995 28.7907 34.4727L29.8283 33.4351L30.5496 32.7142L31.2976 31.9662C31.4368 31.827 31.5555 31.6762 31.6588 31.5179C30.6646 31.453 29.7344 31.053 29.0229 30.3412C28.2907 29.6097 27.9107 28.6667 27.8477 27.7072C27.8133 27.1767 27.8805 26.6466 28.0501 26.1365C28.2386 25.5683 28.5437 25.0317 28.9878 24.5755C29.001 24.5623 29.0097 24.5461 29.0233 24.5321L29.8731 23.6823L31.0533 22.5029L32.1542 21.4019L35.0216 18.5349C35.7976 17.759 36.8288 17.3314 37.9272 17.3314C39.0243 17.3314 40.056 17.7589 40.8311 18.5345C42.4336 20.1362 42.4336 22.7427 40.8323 24.344L37.9588 27.2167C38.1236 27.7269 38.2404 28.2476 38.3125 28.7739C38.3664 29.1661 38.4022 29.5608 38.4041 29.9556C38.4094 30.6829 38.32 31.4087 38.1503 32.1198L43.3795 26.8917C46.3899 23.8803 46.3899 18.9976 43.3795 15.9866L43.3796 15.986Z" fill="white"/>
</svg>
