<svg width="45" height="58" viewBox="0 0 45 58" fill="none" xmlns="http://www.w3.org/2000/svg">
<path d="M44.9991 14.674V56.3108C44.9991 57.246 44.2381 58 43.3105 58H1.68864C0.75373 58 0 57.246 0 56.3108V14.674C0 13.7387 0.75373 12.9847 1.68864 12.9847H43.3105C44.2454 12.9847 44.9991 13.7387 44.9991 14.674Z" fill="#5155C3"/>
<path d="M22.5035 25.9695C29.6722 25.9695 35.4836 20.156 35.4836 12.9848C35.4836 5.81347 29.6722 0 22.5035 0C15.3348 0 9.52344 5.81347 9.52344 12.9848C9.52344 20.156 15.3348 25.9695 22.5035 25.9695Z" fill="#5155C3"/>
<path d="M22.504 23.4826C28.2998 23.4826 32.9982 18.7825 32.9982 12.9846C32.9982 7.18675 28.2998 2.48663 22.504 2.48663C16.7082 2.48663 12.0098 7.18675 12.0098 12.9846C12.0098 18.7825 16.7082 23.4826 22.504 23.4826Z" fill="#F7F7F7"/>
<path opacity="0.1" d="M23.7274 4.90849L23.3215 13.0285L21.6836 12.9487L22.0894 4.82874C22.1112 4.37924 22.4953 4.02399 22.9519 4.05299C23.4085 4.08199 23.7491 4.45899 23.7274 4.90849Z" fill="black"/>
<path d="M23.3229 4.85709V12.9843H21.6777V4.85709C21.6777 4.40759 22.0401 4.03784 22.4967 4.03784C22.9533 4.03784 23.3229 4.40759 23.3229 4.85709Z" fill="#5155C3"/>
<path d="M22.5028 15.2535C23.7556 15.2535 24.7713 14.2375 24.7713 12.9843C24.7713 11.731 23.7556 10.715 22.5028 10.715C21.25 10.715 20.2344 11.731 20.2344 12.9843C20.2344 14.2375 21.25 15.2535 22.5028 15.2535Z" fill="#5155C3"/>
<path d="M22.5033 14.1957C23.1717 14.1957 23.7136 13.6536 23.7136 12.9849C23.7136 12.3162 23.1717 11.7742 22.5033 11.7742C21.8348 11.7742 21.293 12.3162 21.293 12.9849C21.293 13.6536 21.8348 14.1957 22.5033 14.1957Z" fill="#F7F7F7"/>
<path d="M38.4185 34.4878V46.8273C38.4185 50.2348 35.6572 53.0043 32.2437 53.0043C28.4098 53.0043 25.4746 49.5316 26.1631 45.7543C26.7791 42.3976 26.9313 38.9901 26.3733 35.5028C25.779 31.7981 28.5982 28.4196 32.3524 28.4196C34.0265 28.4196 35.5485 29.1011 36.6429 30.1958C37.7372 31.2978 38.4185 32.8131 38.4185 34.4878ZM6.58789 34.4878V46.8273C6.58789 50.2348 9.34915 53.0043 12.7627 53.0043C16.5966 53.0043 19.5317 49.5316 18.8432 45.7543C18.2272 42.3976 18.075 38.9901 18.6331 35.5028C19.2274 31.7981 16.4081 28.4196 12.654 28.4196C10.9798 28.4196 9.45786 29.1011 8.3635 30.1958C7.26915 31.2978 6.58789 32.8131 6.58789 34.4878Z" fill="white"/>
</svg>
