<svg width="105" height="106" viewBox="0 0 105 106" fill="none" xmlns="http://www.w3.org/2000/svg">
<path d="M13.175 43.3667C13.2828 43.1606 13.3626 42.9411 13.4123 42.7139L21.6388 5.15589C22.1055 3.02497 23.9928 1.50635 26.1742 1.50635H27.6326C29.3914 1.50635 30.8172 2.93212 30.8172 4.69089C30.8172 4.9312 30.79 5.17074 30.7361 5.40494L21.8457 44.0449C21.421 45.8907 19.778 47.1986 17.884 47.1986H15.4958C13.5284 47.1986 12.2636 45.1103 13.175 43.3667ZM6.52066 1.50635C9.06985 1.50635 11.2553 3.327 11.7158 5.83425L18.5595 43.0972C18.5928 43.2785 18.6454 43.4558 18.7165 43.6259C19.4266 45.3245 18.1788 47.1986 16.3377 47.1986H13.3805C11.233 47.1986 9.37819 45.6961 8.93235 43.5954L1.3537 7.88495C0.656467 4.5996 3.16214 1.50635 6.52066 1.50635ZM35.6879 43.4287C35.767 43.2437 35.8252 43.0504 35.8614 42.8525L42.6422 5.8236C43.1001 3.32282 45.2794 1.50635 47.8218 1.50635C51.1699 1.50635 53.6679 4.59005 52.9728 7.86526L45.3882 43.6034C44.9434 45.6995 43.0928 47.1986 40.95 47.1986H38.1762C36.2345 47.1986 34.9247 45.2142 35.6879 43.4287ZM28.0352 1.50635C30.2294 1.50635 32.1296 3.0295 32.6072 5.17113L41.0146 42.8773C41.0779 43.1612 41.1957 43.4302 41.3615 43.6692C42.3955 45.1601 41.3285 47.1986 39.5142 47.1986H36.3337C34.5174 47.1986 32.9399 45.9488 32.5245 44.1807L23.389 5.29674C23.341 5.09261 23.314 4.88413 23.3083 4.67453C23.2614 2.93881 24.6557 1.50635 26.392 1.50635H28.0352Z" fill="#AC2734"/>
<path d="M9.76172 73.7515C9.76172 66.0195 16.0297 59.7515 23.7617 59.7515H27.7436C31.2584 59.7515 34.3129 60.2745 36.9072 61.3206C39.5014 62.3666 41.4994 63.9148 42.9012 65.9651C44.3238 68.0154 45.0351 70.5469 45.0351 73.5596C45.0351 76.1747 44.6272 78.361 43.8112 80.1184C42.9953 81.8758 41.8551 83.3298 40.3906 84.4805C39.1657 85.4391 37.7676 86.2546 36.1963 86.927C35.6298 87.1694 35.0688 87.4257 34.5324 87.7289L34.482 87.7574C32.6775 88.7773 30.6398 89.3133 28.567 89.3133H20.8554C18.5192 89.3133 16.6205 87.4286 16.6032 85.0925C16.5858 82.7318 18.4947 80.8088 20.8554 80.8088H27.7436C29.1454 80.8088 30.3065 80.5578 31.227 80.0556C32.1476 79.5535 32.838 78.8422 33.2983 77.9217C33.7794 76.9802 34.02 75.8609 34.02 74.5638C34.02 73.2457 33.7794 72.116 33.2983 71.1745C32.8171 70.2331 32.1057 69.5113 31.1643 69.0092C30.2437 68.5071 29.1035 68.256 27.7436 68.256C23.896 68.256 20.7768 71.3751 20.7768 75.2228V99.9362C20.7768 102.978 18.311 105.444 15.2693 105.444C12.2275 105.444 9.76172 102.978 9.76172 99.9362V73.7515ZM38.2189 105.444C36.123 105.444 34.2232 104.211 33.3693 102.297L28.0322 90.3346C25.8923 85.5383 31.487 81.0064 35.7345 84.0955C36.4218 84.5954 36.9742 85.2582 37.342 86.0244L42.807 97.4099L43.0271 97.8795C44.6778 101.401 42.1079 105.444 38.2189 105.444Z" fill="#AC2734"/>
<path d="M80.9961 105.444H72.3099C68.2159 105.444 66.5029 100.213 69.8038 97.7913C70.5306 97.2581 71.4085 96.9706 72.3099 96.9706H80.9961C83.0882 96.9706 84.8561 96.4685 86.2996 95.4642C87.7641 94.46 88.873 92.9641 89.6261 90.9766C90.4002 88.9681 90.7873 86.4994 90.7873 83.5704V81.5934C90.7873 79.3966 90.5676 77.4719 90.1282 75.8191C89.7098 74.1454 89.0822 72.7541 88.2453 71.6453C87.4085 70.5155 86.3624 69.6682 85.1071 69.1033C83.8728 68.5384 82.4501 68.256 80.8392 68.256H71.8758C71.0883 68.256 70.3163 68.0373 69.6458 67.6244C65.9958 65.3763 67.589 59.7515 71.8758 59.7515H80.8392C83.9355 59.7515 86.7704 60.285 89.3437 61.3519C91.9379 62.398 94.1765 63.9044 96.0594 65.871C97.9633 67.8166 99.4278 70.1285 100.453 72.8064C101.499 75.4634 102.022 78.4133 102.022 81.6561V83.5704C102.022 86.7923 101.499 89.7422 100.453 92.4202C99.4278 95.0981 97.9738 97.4099 96.0908 99.3556C94.2079 101.301 91.9798 102.808 89.4065 103.875C86.854 104.921 84.0506 105.444 80.9961 105.444ZM71.6599 59.7515C74.7016 59.7515 77.1675 62.2173 77.1675 65.259V99.9362C77.1675 102.978 74.7016 105.444 71.6599 105.444C68.6182 105.444 66.1524 102.978 66.1524 99.9362V65.259C66.1524 62.2173 68.6182 59.7515 71.6599 59.7515Z" fill="#AC2734"/>
<path fill-rule="evenodd" clip-rule="evenodd" d="M72.6907 34.4844C74.3932 35.9067 74.6203 38.4399 73.198 40.1424L58.4395 57.8079C57.0172 59.5104 54.484 59.7375 52.7814 58.3151C51.0789 56.8928 50.8518 54.3596 52.2742 52.6571L67.0326 34.9917C68.455 33.2891 70.9882 33.062 72.6907 34.4844Z" fill="#AC2734"/>
<path fill-rule="evenodd" clip-rule="evenodd" d="M83.5332 34.8999C90.9521 34.8999 96.9663 28.8857 96.9663 21.4668C96.9663 14.048 90.9521 8.0338 83.5332 8.0338C76.1144 8.0338 70.1002 14.048 70.1002 21.4668C70.1002 28.8857 76.1144 34.8999 83.5332 34.8999ZM83.5332 42.9337C95.3891 42.9337 105 33.3226 105 21.4668C105 9.61103 95.3891 0 83.5332 0C71.6774 0 62.0664 9.61103 62.0664 21.4668C62.0664 33.3226 71.6774 42.9337 83.5332 42.9337Z" fill="#AC2734"/>
</svg>
