<svg width="118" height="34" viewBox="0 0 118 34" fill="none" xmlns="http://www.w3.org/2000/svg">
<g clip-path="url(#clip0_483_1642)">
<path d="M114.128 8.45319L97.8662 15.6203" stroke="#5155C3" stroke-width="2" stroke-miterlimit="10"/>
<path d="M67.0481 3.32697L54.6992 13.8874" stroke="#5155C3" stroke-width="2" stroke-miterlimit="10"/>
<path d="M41.7358 9.61853L21.751 24.2486" stroke="#5155C3" stroke-width="2" stroke-miterlimit="10"/>
<path d="M18.4216 25.1L3.96094 22.9746" stroke="#5155C3" stroke-width="2" stroke-miterlimit="10"/>
<path d="M51.7276 14.1712L44.8135 9.58838" stroke="#5155C3" stroke-width="2" stroke-miterlimit="10"/>
<path d="M94.5907 15.5237L70.1436 2.94653" stroke="#5155C3" stroke-width="2" stroke-miterlimit="10"/>
<path d="M23.4043 24.9276C23.4043 26.3214 22.2895 27.4579 20.9043 27.4579C19.5191 27.4579 18.4043 26.3297 18.4043 24.9276C18.4043 23.5256 19.5191 22.3973 20.9043 22.3973C22.2895 22.3973 23.4043 23.5256 23.4043 24.9276Z" fill="white" stroke="#5155C3" stroke-width="2" stroke-miterlimit="10"/>
<path d="M45.4434 9.3291C45.4434 10.7229 44.3286 11.8594 42.9434 11.8594C41.5581 11.8594 40.4434 10.7312 40.4434 9.3291C40.4434 7.92705 41.5581 6.79877 42.9434 6.79877C44.3286 6.79877 45.4434 7.92705 45.4434 9.3291Z" fill="white" stroke="#5155C3" stroke-width="2" stroke-miterlimit="10"/>
<path d="M56.4834 14.7656C56.4834 16.1594 55.3686 17.296 53.9834 17.296C52.5981 17.296 51.4834 16.1677 51.4834 14.7656C51.4834 13.3636 52.5981 12.2353 53.9834 12.2353C55.3686 12.2353 56.4834 13.3636 56.4834 14.7656Z" fill="white" stroke="#5155C3" stroke-width="2" stroke-miterlimit="10"/>
<path d="M71.6602 3.8866C71.6602 5.28035 70.5454 6.41693 69.1602 6.41693C67.7749 6.41693 66.6602 5.28865 66.6602 3.8866C66.6602 2.48454 67.7749 1.35626 69.1602 1.35626C70.5454 1.35626 71.6602 2.48454 71.6602 3.8866Z" fill="white" stroke="#5155C3" stroke-width="2" stroke-miterlimit="10"/>
<path d="M99.376 16.0518C99.376 17.4455 98.2612 18.5821 96.876 18.5821C95.4907 18.5821 94.376 17.4538 94.376 16.0518C94.376 14.6497 95.4907 13.5214 96.876 13.5214C98.2612 13.5214 99.376 14.6497 99.376 16.0518Z" fill="white" stroke="#5155C3" stroke-width="2" stroke-miterlimit="10"/>
<path d="M117.009 8.50189C117.009 9.89564 115.894 11.0322 114.509 11.0322C113.124 11.0322 112.009 9.90394 112.009 8.50189C112.009 7.09984 113.124 5.97156 114.509 5.97156C115.894 5.97156 117.009 7.09984 117.009 8.50189Z" fill="white" stroke="#5155C3" stroke-width="2" stroke-miterlimit="10"/>
<path d="M6.35156 23.3554C6.35156 24.7492 5.23681 25.8857 3.85156 25.8857C2.46632 25.8857 1.35156 24.7575 1.35156 23.3554C1.35156 21.9534 2.46632 20.8251 3.85156 20.8251C5.23681 20.8251 6.35156 21.9534 6.35156 23.3554Z" fill="white" stroke="#5155C3" stroke-width="2" stroke-miterlimit="10"/>
</g>
<defs>
<clipPath id="clip0_483_1642">
<rect width="118" height="34" fill="white"/>
</clipPath>
</defs>
</svg>
