<svg width="147" height="18" viewBox="0 0 147 18" fill="none" xmlns="http://www.w3.org/2000/svg">
<path d="M2 16.53L9.11 10.29C10.56 9.01999 12.54 8.54999 14.41 9.02999L25.82 11.97C27.03 12.28 28.31 12.2 29.47 11.73L43.48 6.03999L51.02 2.54999C52.79 1.72999 54.85 1.84999 56.52 2.86999L70.94 11.7C72.74 12.8 75 12.85 76.85 11.81L86.56 6.34999C88.55 5.22999 91 5.36999 92.85 6.70999L99.13 11.27C100.99 12.62 103.47 12.75 105.46 11.61L119.67 3.45999C121.95 2.14999 124.83 2.52999 126.7 4.38999L135.16 12.85C136.03 13.72 137.16 14.3 138.38 14.49L145.28 15.57" stroke="#5155C3" stroke-width="2.5" stroke-linecap="round" stroke-linejoin="round"/>
</svg>
