<svg width="148" height="18" viewBox="0 0 148 18" fill="none" xmlns="http://www.w3.org/2000/svg">
<path d="M2 6.52999L7.06 12.5C9.36 15.21 13.53 15.25 15.88 12.58L23.24 4.21999C25.58 1.55999 29.74 1.58999 32.05 4.27999L39.17 12.6C41.45 15.27 45.56 15.33 47.92 12.72L50.7 9.65999C52.54 7.62999 55.54 7.14999 57.92 8.50999L66.96 13.68C70.38 15.63 74.71 13.71 75.55 9.86999L76.27 6.58999C76.86 3.91999 79.22 2.00999 81.96 2.00999L100.25 1.98999C101.49 1.98999 102.7 2.37999 103.7 3.11999L120 15.06C122.09 16.59 124.93 16.56 126.98 14.99L134.05 9.59999C135.07 8.82999 136.31 8.40999 137.59 8.40999H145.8" stroke="#5155C3" stroke-width="2.5" stroke-linecap="round" stroke-linejoin="round"/>
</svg>
