<svg width="60" height="64" viewBox="0 0 60 64" fill="none" xmlns="http://www.w3.org/2000/svg">
<g clip-path="url(#clip0_395_571)">
<path d="M6.06045 64H53.938C57.3145 64 59.9985 61.4367 59.9985 58.2119V11.9897C59.9985 8.76486 57.3145 6.20155 53.938 6.20155H45.6265V2.48062C45.6265 1.07494 44.501 0 43.0292 0C41.5574 0 40.4319 1.07494 40.4319 2.48062V6.20155H19.5666V2.48062C19.5666 1.07494 18.4411 0 16.9693 0C15.4974 0 14.3719 1.07494 14.3719 2.48062V6.20155H6.06045C2.68391 6.20155 0 8.76486 0 11.9897V58.1292C0 61.4367 2.77204 64 6.06045 64ZM54.0246 59.0388H6.06045C5.54098 59.0388 5.19467 58.708 5.19467 58.2119V29.4367H54.8038V58.1292C54.8904 58.6253 54.4575 59.0388 54.0246 59.0388ZM45.7147 11.2219V11.1628H54.0261C54.5456 11.1628 54.8919 11.4935 54.8919 11.9897V24.4755H5.19467V11.9897C5.19467 11.5762 5.62756 11.1628 6.06045 11.1628H14.3719V11.2219M19.5666 11.2219V11.1628H40.5184V11.2219" fill="#573E21"/>
<path d="M45.1163 37.9062H31.8204C30.3262 37.9062 29.1149 39.0631 29.1149 40.4902V51.5644C29.1149 52.9915 30.3262 54.1484 31.8204 54.1484H45.1163C46.6105 54.1484 47.8219 52.9915 47.8219 51.5644V40.4902C47.8219 39.0631 46.6105 37.9062 45.1163 37.9062Z" fill="#573E21"/>
</g>
<defs>
<clipPath id="clip0_395_571">
<rect width="60" height="64" fill="white"/>
</clipPath>
</defs>
</svg>
