<svg width="135" height="135" viewBox="0 0 135 135" fill="none" xmlns="http://www.w3.org/2000/svg">
    <path
        d="M67.4977 8.44287C34.9296 8.44287 8.4375 34.9349 8.4375 67.503C8.4375 100.071 34.9296 126.563 67.4977 126.563C100.066 126.563 126.558 100.071 126.558 67.503C126.558 34.9349 100.066 8.44287 67.4977 8.44287ZM67.4977 16.8797C95.5059 16.8797 118.121 39.4948 118.121 67.503C118.121 80.3627 113.316 92.0525 105.448 100.971C105.296 89.4885 95.8899 80.1584 84.372 80.1584H50.6233C39.1054 80.1584 29.6996 89.4885 29.5469 100.971C21.6791 92.0525 16.8747 80.3627 16.8747 67.503C16.8747 39.4948 39.4894 16.8797 67.4977 16.8797ZM67.4977 29.5356C55.8983 29.5356 46.4048 39.0291 46.4048 50.6284C46.4048 62.2277 55.8983 71.7216 67.4977 71.7216C79.097 71.7216 88.5906 62.2277 88.5906 50.6284C88.5906 39.0291 79.097 29.5356 67.4977 29.5356ZM67.4977 37.9729C74.5372 37.9729 80.1534 43.5888 80.1534 50.6284C80.1534 57.6679 74.5372 63.2843 67.4977 63.2843C60.4581 63.2843 54.8419 57.6679 54.8419 50.6284C54.8419 43.5888 60.4581 37.9729 67.4977 37.9729ZM50.6233 88.5957H84.372C91.4563 88.5957 97.0278 94.1675 97.0278 101.252V108.593C88.717 114.569 78.5412 118.126 67.4977 118.126C56.4542 118.126 46.2784 114.569 37.9676 108.593V101.252C37.9676 94.1675 43.5391 88.5957 50.6233 88.5957Z"
        fill="#573E21" />
</svg>
