<svg width="25" height="25" viewBox="0 0 25 25" fill="none" xmlns="http://www.w3.org/2000/svg">
<path d="M17.6174 18.7757C17.3412 18.7757 17.1174 18.9995 17.1174 19.2757C17.1174 21.6505 15.1922 23.5757 12.8174 23.5757C10.4426 23.5757 8.51738 21.6505 8.51738 19.2757C8.51738 18.9995 8.29353 18.7757 8.01738 18.7757H2.50228C1.84788 18.7757 1.31738 18.2452 1.31738 17.5908C1.31738 17.2694 1.44794 16.9618 1.67911 16.7385L2.91385 15.5459C3.48181 14.9974 3.80152 14.2409 3.79915 13.4513L3.78779 9.6677C3.77273 4.65074 7.83558 0.575684 12.8526 0.575684C17.8589 0.575684 21.9174 4.63413 21.9174 9.64049L21.9174 13.4816C21.9174 14.2507 22.2229 14.9883 22.7668 15.5322L23.9668 16.7322C24.1913 16.9567 24.3174 17.2612 24.3174 17.5786C24.3174 18.2397 23.7814 18.7757 23.1203 18.7757H17.6174ZM22.8718 17.9757C23.074 17.9757 23.2563 17.8539 23.3337 17.667C23.4111 17.4802 23.3684 17.2651 23.2254 17.1221L22.2011 16.0979C21.5072 15.404 21.1174 14.4629 21.1174 13.4816L21.1174 9.64049C21.1174 5.07596 17.4171 1.37568 12.8526 1.37568C8.27834 1.37568 4.57406 5.0911 4.58779 9.6653L4.59914 13.4489C4.60217 14.4564 4.19426 15.4215 3.46963 16.1214L2.43978 17.116C2.29318 17.2576 2.2472 17.474 2.32356 17.663C2.39992 17.852 2.58333 17.9757 2.78714 17.9757H22.8718ZM16.3174 19.2757C16.3174 18.9995 16.0935 18.7757 15.8174 18.7757H9.81738C9.54124 18.7757 9.31738 18.9995 9.31738 19.2757C9.31738 21.2087 10.8844 22.7757 12.8174 22.7757C14.7504 22.7757 16.3174 21.2087 16.3174 19.2757Z" fill="#5155C3" stroke="#5155C3" stroke-linecap="round" stroke-linejoin="round"/>
</svg>
