<svg width="94" height="62" viewBox="0 0 94 62" fill="none" xmlns="http://www.w3.org/2000/svg">
<path d="M47 25.1114C52.5678 25.1114 57.0977 20.9809 57.0977 15.9039V9.20751C57.0977 4.13049 52.5678 0 47 0C41.4322 0 36.9023 4.13049 36.9023 9.20751V15.9039C36.9023 20.9809 41.4322 25.1114 47 25.1114Z" fill="black"/>
<path d="M58.0303 25.9603C55.2046 28.5374 51.3029 30.1336 47 30.1336C42.6971 30.1336 38.7954 28.5374 35.9697 25.9603C28.6092 29.5614 23.5918 36.647 23.5918 44.7819V59.4302C23.5918 60.817 24.8248 61.9414 26.3457 61.9414H67.6543C69.1752 61.9414 70.4082 60.817 70.4082 59.4302V44.7819C70.4082 36.647 65.3909 29.5614 58.0303 25.9603ZM52.5078 45.7027H49.7539V48.2138C49.7539 49.6006 48.5209 50.7249 47 50.7249C45.4791 50.7249 44.2461 49.6006 44.2461 48.2138V45.7027H41.4922C39.9713 45.7027 38.7383 44.5783 38.7383 43.1915C38.7383 41.8047 39.9713 40.6804 41.4922 40.6804H44.2461V38.1693C44.2461 36.7824 45.4791 35.6581 47 35.6581C48.5209 35.6581 49.7539 36.7824 49.7539 38.1693V40.6804H52.5078C54.0287 40.6804 55.2617 41.8047 55.2617 43.1915C55.2617 44.5783 54.0287 45.7027 52.5078 45.7027Z" fill="black"/>
<path d="M74.7227 26.7855C79.2782 26.7855 82.9844 23.406 82.9844 19.2521V14.5646C82.9844 10.4107 79.2782 7.03119 74.7227 7.03119C70.1671 7.03119 66.4609 10.4107 66.4609 14.5646V19.2521C66.4609 23.406 70.1671 26.7855 74.7227 26.7855Z" fill="black"/>
<path d="M19.2773 26.7855C23.8329 26.7855 27.5391 23.406 27.5391 19.2521V14.5646C27.5391 10.4107 23.8329 7.03119 19.2773 7.03119C14.7218 7.03119 11.0156 10.4107 11.0156 14.5646V19.2521C11.0156 23.406 14.7218 26.7855 19.2773 26.7855Z" fill="black"/>
<path d="M84.8559 27.7424C82.3375 30.2394 78.7275 31.8077 74.7226 31.8077C73.7945 31.8077 72.8892 31.72 72.0122 31.5596C74.5245 35.5058 75.916 40.0458 75.916 44.7819V56.0821H91.246C92.7669 56.0821 93.9999 54.9578 93.9999 53.5709V42.6893C93.9999 36.3842 90.3398 30.8448 84.8559 27.7424Z" fill="black"/>
<path d="M9.14407 27.7424C3.66012 30.8448 0 36.3842 0 42.6893V53.5709C0 54.9578 1.23302 56.0821 2.75391 56.0821H18.084V44.7819C18.084 40.0458 19.4754 35.5058 21.9877 31.5596C21.1107 31.72 20.2054 31.8077 19.2773 31.8077C15.2724 31.8077 11.6624 30.2394 9.14407 27.7424Z" fill="black"/>
</svg>
