<svg width="41" height="39" viewBox="0 0 41 39" fill="none" xmlns="http://www.w3.org/2000/svg">
<path d="M29.947 0.000410746C29.941 0.00108042 29.935 0.00208489 29.929 0.00308927C29.8537 0.00476342 29.7787 0.0117941 29.7044 0.0235127H1.58568C1.16437 0.021169 0.759604 0.179536 0.46181 0.462457C0.164043 0.745713 -0.00243296 1.13042 2.68774e-05 1.53121V33.0024C2.68774e-05 36.2973 2.84254 39 6.30839 39H34.6885L34.6888 38.9997C34.7941 38.999 34.8993 38.9883 35.0028 38.9675C35.0066 38.9665 35.0109 38.9655 35.0147 38.9645C38.3292 38.7994 41 36.1889 41 32.9991V21.0104C41.0014 20.611 40.8353 20.2273 40.5382 19.9447C40.2411 19.6624 39.8374 19.5044 39.4172 19.5057H31.5387V1.53085C31.5479 1.12539 31.3835 0.733656 31.0836 0.445043C30.7837 0.156765 30.3737 -0.00394629 29.9471 7.36414e-05L29.947 0.000410746ZM7.89399 9.01826H23.6478C24.2025 9.02998 24.71 9.31826 24.9838 9.77696C25.258 10.236 25.258 10.7978 24.9838 11.2569C24.71 11.7156 24.2025 12.0038 23.6478 12.0156H7.89309C7.33839 12.0039 6.83085 11.7156 6.55703 11.2569C6.28319 10.7978 6.28319 10.236 6.55703 9.77696C6.83086 9.31826 7.3384 9.02999 7.89309 9.01826H7.89399ZM7.89399 15.0159H23.6478C24.0719 15.0068 24.4819 15.1608 24.785 15.4427C25.0884 15.7247 25.2594 16.111 25.2594 16.5145C25.2594 16.9176 25.0884 17.304 24.785 17.5859C24.4819 17.8682 24.0719 18.0218 23.6478 18.0131H7.89309C7.33839 18.0014 6.83085 17.7131 6.55703 17.2541C6.28319 16.7954 6.28319 16.2333 6.55703 15.7745C6.83086 15.3155 7.3384 15.0276 7.89309 15.0158L7.89399 15.0159ZM7.88801 21.0074C7.88977 21.0084 7.89188 21.0094 7.89364 21.0104H23.6483C24.2111 21.0114 24.731 21.2973 25.0122 21.761C25.2935 22.2247 25.2935 22.7959 25.0122 23.2596C24.731 23.7234 24.2112 24.0093 23.6483 24.0103H7.89364C7.33014 24.0381 6.79374 23.7779 6.48648 23.3276C6.17957 22.8773 6.14824 22.3054 6.40483 21.8276C6.66142 21.3495 7.16684 21.0378 7.73071 21.0103C7.7828 21.0067 7.83489 21.0056 7.88733 21.0073L7.88801 21.0074ZM31.5394 22.503H37.8478V33.0019C37.8478 34.6884 36.4659 36.0022 34.6921 36.0022C32.9182 36.0022 31.5395 34.6884 31.5395 33.0019L31.5394 22.503ZM7.88801 27.0046H7.88765C7.88977 27.0056 7.89188 27.0066 7.89364 27.0076H23.6483C24.0725 26.9986 24.4825 27.1526 24.7855 27.4345C25.0889 27.7168 25.26 28.1031 25.26 28.5063C25.26 28.9097 25.0889 29.2961 24.7855 29.578C24.4825 29.8599 24.0724 30.0139 23.6483 30.0049H7.89364C7.33823 30.0206 6.81482 29.7575 6.51568 29.3122C6.21686 28.8669 6.18624 28.3047 6.43508 27.8323C6.68427 27.3598 7.17632 27.0464 7.73068 27.0076C7.78277 27.0043 7.83486 27.0033 7.88731 27.0046L7.88801 27.0046Z" fill="white"/>
</svg>
