<svg width="43" height="53" viewBox="0 0 43 53" fill="none" xmlns="http://www.w3.org/2000/svg">
<path d="M39.2343 52.6266C40.091 52.6266 40.9128 52.2863 41.5187 51.6801C42.1245 51.0742 42.4648 50.2524 42.4648 49.3956V15.7254C42.4641 14.869 42.1234 14.0476 41.5172 13.4425L29.9566 1.88191C29.3511 1.27606 28.5301 0.935015 27.6733 0.934265H3.69541C2.83866 0.934265 2.01685 1.27456 1.41098 1.88079C0.805133 2.48663 0.464844 3.30848 0.464844 4.16521V49.3961C0.464844 50.2528 0.805142 51.0746 1.41098 51.6805C2.01683 52.2867 2.83868 52.627 3.69541 52.627L39.2343 52.6266ZM6.92654 7.39575H23.8881V16.2806C23.8881 17.1373 24.2284 17.9591 24.8346 18.565C25.4405 19.1708 26.2623 19.5111 27.119 19.5111H36.0035V46.165H6.92652L6.92654 7.39575ZM31.965 38.0881C31.965 38.7308 31.71 39.3468 31.2555 39.8012C30.801 40.2557 30.1847 40.5111 29.5421 40.5111H13.3882C12.5224 40.5111 11.7224 40.0491 11.2897 39.2993C10.857 38.5496 10.857 37.6261 11.2897 36.8764C11.7224 36.1266 12.5224 35.6646 13.3882 35.6646H29.5421C30.1847 35.6646 30.8011 35.92 31.2555 36.3745C31.71 36.829 31.965 37.4454 31.965 38.088V38.0881ZM10.965 17.0881V17.0877C10.965 16.445 11.22 15.8287 11.6745 15.3746C12.129 14.9201 12.7454 14.6647 13.388 14.6647H17.4264C18.2922 14.6647 19.0922 15.1267 19.5249 15.8765C19.9576 16.6262 19.9576 17.5497 19.5249 18.2994C19.0922 19.0492 18.2922 19.5108 17.4264 19.5108H13.388C12.7453 19.5108 12.1289 19.2558 11.6745 18.8013C11.22 18.3468 10.965 17.7304 10.965 17.0878V17.0881ZM31.965 27.5881V27.5877C31.965 28.2304 31.71 28.8468 31.2555 29.3012C30.801 29.7557 30.1847 30.0111 29.5421 30.0111H13.3882C12.5224 30.0111 11.7224 29.5491 11.2897 28.7993C10.857 28.0496 10.857 27.1261 11.2897 26.3763C11.7224 25.6266 12.5224 25.1646 13.3882 25.1646H29.5421C30.1847 25.1646 30.8011 25.42 31.2555 25.8745C31.71 26.329 31.965 26.945 31.965 27.5876V27.5881Z" fill="white"/>
</svg>
