<svg width="8" height="10" viewBox="0 0 8 10" fill="none" xmlns="http://www.w3.org/2000/svg">
<path d="M4.38169 9.074L7.78315 6.27269C8.04261 6.04086 8.06732 5.66932 7.86759 5.42535C7.66787 5.18138 7.26422 5.14119 7.02025 5.34105L4.60036 7.33579L4.60036 0.600328C4.60036 0.26885 4.33155 2.76566e-05 4.00006 2.76566e-05C3.66857 2.76566e-05 3.39976 0.26884 3.39976 0.600328L3.39976 7.33579L0.979875 5.34105C0.735906 5.14133 0.337984 5.18627 0.132535 5.42535C-0.0793333 5.67197 -0.0269918 6.07296 0.216977 6.27269L3.61844 9.074C3.87483 9.25642 4.13365 9.24079 4.38169 9.074Z" fill="#95999B"/>
</svg>
