<svg width="370" height="313" viewBox="0 0 370 313" fill="none" xmlns="http://www.w3.org/2000/svg">
<g opacity="0.7" clip-path="url(#clip0_219_1048)">
<path d="M306.796 113.26C313.144 57.4018 272.981 6.97679 217.088 0.632335C161.195 -5.71212 110.739 34.4265 104.39 90.2844C98.0419 146.142 138.206 196.567 194.098 202.912C249.991 209.256 300.448 169.118 306.796 113.26Z" fill="#D1DDE8"/>
<path d="M328.797 219.636C351.547 219.636 369.989 201.205 369.989 178.47C369.989 155.735 351.547 137.304 328.797 137.304C306.048 137.304 287.605 155.735 287.605 178.47C287.605 201.205 306.048 219.636 328.797 219.636Z" fill="#E7EDF4"/>
<path d="M129.077 210.33L98.8229 157.893L49.0986 188.973L79.9127 242.54C80.5936 243.879 81.4282 245.141 82.4275 246.315C90.9382 256.313 107.905 255.852 120.325 245.284C131.855 235.483 135.413 220.426 129.066 210.319L129.077 210.33Z" fill="#235196"/>
<path d="M110.452 225.507C113.286 223.104 115.658 220.404 117.568 217.54C117.426 217.287 117.305 217.024 117.151 216.772L105.401 196.403C103.633 198.839 101.524 201.133 99.0865 203.218C85.6121 214.675 67.2181 215.18 57.9717 204.381L72.4892 229.623C82.3397 237.228 98.3727 235.78 110.452 225.507Z" fill="#4DD0E1"/>
<path style="mix-blend-mode:multiply" d="M100.239 252.176C99.0972 250.837 98.1418 249.388 97.3621 247.852L62.1005 186.547L101.25 162.074L98.8336 157.882L49.1094 188.962L79.9235 242.529C80.6043 243.868 81.4389 245.13 82.4383 246.304C86.9956 251.649 93.9688 253.976 101.381 253.394C100.997 252.999 100.613 252.593 100.25 252.165L100.239 252.176Z" fill="url(#paint0_linear_219_1048)"/>
<path d="M89.9488 192.616C102.375 182.051 105.551 165.384 97.0423 155.389C88.5339 145.395 71.5631 145.857 59.1371 156.422C46.711 166.987 43.5351 183.654 52.0436 193.649C60.552 203.644 77.5227 203.181 89.9488 192.616Z" fill="#235196"/>
<path style="mix-blend-mode:multiply" d="M88.5042 190.919C99.7616 181.348 102.637 166.246 94.9261 157.189C87.2155 148.131 71.8389 148.548 60.5815 158.119C49.3241 167.691 46.4489 182.792 54.1596 191.85C61.8702 200.907 77.2468 200.491 88.5042 190.919Z" fill="url(#paint1_linear_219_1048)"/>
<mask id="mask0_219_1048" style="mask-type:luminance" maskUnits="userSpaceOnUse" x="49" y="150" width="51" height="49">
<path d="M88.5042 190.919C99.7616 181.348 102.637 166.246 94.9261 157.189C87.2155 148.131 71.8389 148.548 60.5815 158.119C49.3241 167.691 46.4489 182.792 54.1596 191.85C61.8702 200.907 77.2468 200.491 88.5042 190.919Z" fill="white"/>
</mask>
<g mask="url(#mask0_219_1048)">
<path d="M106.465 186.185L106.41 181.302H105.268C103.423 177.647 99.6129 175.145 95.2202 175.189C90.8386 175.233 87.083 177.823 85.3149 181.521H84.1729L84.2278 186.416C84.2936 192.551 89.3232 197.478 95.4618 197.412C101.601 197.347 106.531 192.32 106.465 186.185Z" fill="#D1DDE8"/>
<path d="M103.153 189.271C107.497 184.93 107.497 177.891 103.153 173.549C98.8085 169.208 91.765 169.208 87.4207 173.549C83.0764 177.891 83.0764 184.93 87.4207 189.271C91.765 193.613 98.8085 193.613 103.153 189.271Z" fill="#E7EDF4"/>
<path d="M84.4363 179.03C84.2606 179.842 84.1617 180.676 84.1727 181.532C84.1727 182.399 84.2935 183.233 84.4912 184.034L106.147 183.804C106.322 182.992 106.421 182.158 106.41 181.302C106.399 180.446 106.289 179.6 106.092 178.799L84.4363 179.03Z" fill="white"/>
<path d="M88.2144 163.61L83.7339 161.668L83.2837 162.721C79.1766 162.919 75.344 165.377 73.598 169.405C71.8519 173.433 72.6865 177.91 75.355 181.027L74.9048 182.081L79.3852 184.023C85.0187 186.46 91.5637 183.87 94.0016 178.24C96.4395 172.61 93.8479 166.069 88.2144 163.632V163.61Z" fill="#D1DDE8"/>
<path d="M89.5099 176.286C87.072 181.916 80.527 184.506 74.8935 182.07C69.26 179.633 66.6684 173.092 69.1063 167.462C71.5442 161.832 78.0891 159.242 83.7227 161.679C89.3562 164.115 91.9478 170.656 89.5099 176.286Z" fill="#E7EDF4"/>
<path d="M72.708 180.808C73.3779 181.302 74.1027 181.73 74.8933 182.07C75.684 182.41 76.4966 182.64 77.3093 182.794L85.9078 162.93C85.2379 162.436 84.5131 162.008 83.7225 161.668C82.9318 161.328 82.1192 161.097 81.3065 160.944L72.708 180.808Z" fill="white"/>
<path d="M79.0996 195.053L77.9685 190.301L76.8594 190.564C74.2458 187.392 69.974 185.79 65.7132 186.811C61.4523 187.831 58.3556 191.168 57.4441 195.174L56.335 195.437L57.4661 200.189C58.8827 206.159 64.8786 209.847 70.8525 208.431C76.8265 207.015 80.5162 201.023 79.0996 195.053Z" fill="#D1DDE8"/>
<path d="M69.7107 203.679C63.7368 205.095 57.7408 201.407 56.3242 195.437C54.9076 189.467 58.5974 183.475 64.5713 182.059C70.5453 180.643 76.5412 184.331 77.9578 190.301C79.3744 196.271 75.6846 202.263 69.7107 203.679Z" fill="#E7EDF4"/>
<path d="M56.0391 192.935C56.0391 193.758 56.1379 194.603 56.3356 195.437C56.5332 196.271 56.8297 197.061 57.2031 197.807L78.2656 192.803C78.2656 191.98 78.1668 191.135 77.9691 190.301C77.7715 189.467 77.475 188.677 77.1016 187.93L56.0391 192.935Z" fill="white"/>
</g>
<path d="M98.8887 140.344L97.7576 135.592L96.6485 135.855C94.0349 132.684 89.7631 131.081 85.5022 132.102C81.2414 133.123 78.1446 136.459 77.2332 140.465L76.124 140.728L77.2551 145.48C78.6717 151.45 84.6676 155.138 90.6416 153.722C96.6155 152.306 100.305 146.314 98.8887 140.344Z" fill="#D1DDE8"/>
<path d="M89.5105 148.97C83.5366 150.386 77.5407 146.698 76.124 140.728C74.7074 134.758 78.3972 128.766 84.3712 127.35C90.3451 125.934 96.341 129.622 97.7576 135.592C99.1742 141.562 95.4844 147.554 89.5105 148.97Z" fill="#E7EDF4"/>
<path d="M75.8271 138.226C75.8271 139.049 75.926 139.894 76.1236 140.728C76.3213 141.562 76.6178 142.352 76.9912 143.099L98.0537 138.094C98.0537 137.271 97.9549 136.426 97.7572 135.592C97.5595 134.758 97.2631 133.968 96.8897 133.222L75.8271 138.226Z" fill="white"/>
<path d="M71.9951 101.911L70.864 97.1588L69.7549 97.4222C67.1413 94.2505 62.8695 92.6482 58.6087 93.6688C54.3478 94.6895 51.2511 98.0258 50.3396 102.032L49.2305 102.295L50.3616 107.047C51.7782 113.017 57.7741 116.705 63.748 115.289C69.722 113.873 73.4117 107.881 71.9951 101.911Z" fill="#D1DDE8"/>
<path d="M62.6169 110.548C56.643 111.964 50.6471 108.276 49.2305 102.306C47.8139 96.3357 51.5037 90.3435 57.4776 88.9278C63.4515 87.512 69.4474 91.1995 70.8641 97.1698C72.2807 103.14 68.5909 109.132 62.6169 110.548Z" fill="#E7EDF4"/>
<path d="M48.9336 99.7927C48.9336 100.616 49.0324 101.461 49.2301 102.295C49.4278 103.129 49.7243 103.919 50.0976 104.665L71.1602 99.661C71.1602 98.8379 71.0613 97.9928 70.8637 97.1588C70.666 96.3247 70.3695 95.5345 69.9961 94.7882L48.9336 99.7927Z" fill="white"/>
<path d="M53.7878 128.535L49.1866 123.728L47.9347 125.144C36.6237 120.908 22.0403 126.395 13.1672 139.005C6.12807 149.025 4.54674 160.9 8.11573 169.976L6.84187 171.413L13.6724 178.218C14.3532 178.843 15.078 179.447 15.8577 179.985C27.4981 188.161 45.1783 183.068 55.3472 168.604C65.1537 154.644 64.5826 139.686 53.7988 128.535H53.7878Z" fill="#D1DDE8"/>
<path d="M26.268 183.771C25.3565 183.694 24.456 183.551 23.5775 183.365L6.69893 164.862L3.26172 161.086L4.52459 159.934L6.3585 161.942L26.279 183.771H26.268Z" fill="#E7EDF4"/>
<path d="M33.0982 183.496C32.4173 183.617 31.7255 183.716 31.0446 183.782L10.3555 161.097L11.6183 159.945L33.0982 183.507V183.496Z" fill="#E7EDF4"/>
<path d="M38.7758 181.905C38.1938 182.136 37.6118 182.344 37.0188 182.52L17.4717 161.086L18.7346 159.934L38.7758 181.905Z" fill="#E7EDF4"/>
<path d="M43.6842 179.502C43.1681 179.798 42.663 180.094 42.1468 180.358L24.5654 161.086L25.8393 159.934L43.6842 179.502Z" fill="#E7EDF4"/>
<path d="M48.0224 176.473C47.5721 176.835 47.1219 177.175 46.6607 177.515L31.6709 161.086L32.9448 159.934L48.0224 176.473Z" fill="#E7EDF4"/>
<path d="M51.8661 172.884C51.4817 173.312 51.0864 173.707 50.6691 174.102L38.7871 161.086L40.061 159.934L51.8661 172.884Z" fill="#E7EDF4"/>
<path d="M55.2922 168.67C54.9628 169.142 54.6114 169.614 54.249 170.064L39.6875 154.095L40.9504 152.943L55.2922 168.67Z" fill="#E7EDF4"/>
<path d="M58.246 163.885C57.9715 164.412 57.686 164.938 57.3785 165.454L39.6982 146.062L40.9611 144.91L58.257 163.885H58.246Z" fill="#E7EDF4"/>
<path d="M60.6183 158.43C60.4096 159.034 60.19 159.638 59.9374 160.23L39.6875 138.028L40.9504 136.876L60.6183 158.43Z" fill="#E7EDF4"/>
<path d="M62.101 152.021C62.0131 152.734 61.8924 153.459 61.7496 154.172L39.6768 129.984L40.9396 128.832L62.101 152.021Z" fill="#E7EDF4"/>
<path d="M62.2325 146.655L41.3567 123.772L39.6875 121.94L40.9504 120.787L43.9264 124.058L61.8701 143.713C62.0678 144.69 62.1776 145.667 62.2435 146.655H62.2325Z" fill="#E7EDF4"/>
<path d="M49.067 162.334C59.2276 147.875 58.0253 129.529 46.3816 121.357C34.7378 113.184 17.0619 118.281 6.90131 132.74C-3.25929 147.198 -2.05698 165.544 9.58675 173.717C21.2305 181.889 38.9064 176.792 49.067 162.334Z" fill="#E7EDF4"/>
<path d="M33.1532 121.226C37.2054 121.226 41.005 122.39 44.1348 124.584C48.9886 127.998 51.9097 133.573 52.3489 140.289C52.7992 147.094 50.6468 154.249 46.3091 160.417C40.4779 168.725 31.4731 173.883 22.8196 173.883C18.7675 173.883 14.9679 172.719 11.8381 170.524C1.73515 163.435 0.757797 147.357 9.6638 134.692C15.495 126.384 24.4998 121.226 33.1532 121.226ZM33.1532 120.129C24.4339 120.129 15.0338 125.144 8.76332 134.056C-0.505077 147.236 0.593073 163.962 11.2122 171.413C14.6494 173.828 18.6577 174.969 22.8196 174.969C31.539 174.969 40.9391 169.954 47.2096 161.042C56.478 147.862 55.3798 131.136 44.7607 123.685C41.3235 121.27 37.3152 120.129 33.1532 120.129Z" fill="white"/>
<path d="M287.024 286.186L133.656 260.034C129.648 259.353 126.848 255.71 127.21 251.671L146.68 33.1216C147.043 29.0829 150.447 25.988 154.51 26.021L310.085 27.3489C314.632 27.3928 318.179 31.2998 317.783 35.8213L296.106 279.185C295.7 283.717 291.516 286.933 287.035 286.164L287.024 286.186Z" fill="#5155C3"/>
<path d="M286.266 278.427L135.633 252.747L154.148 44.9193L306.955 46.2253L286.266 278.427Z" fill="#E7EDF4"/>
<path style="mix-blend-mode:multiply" d="M286.266 278.427L135.633 252.747L154.148 44.9193L306.955 46.2253L286.266 278.427Z" fill="url(#paint2_linear_219_1048)"/>
<path d="M306.955 46.2253L154.147 44.9193C154.147 44.9193 133.875 216.003 120.906 226.978L273.527 260.275L306.955 46.2253Z" fill="white"/>
<path d="M120.907 226.978C120.907 226.978 104.138 218.879 105.631 195.865L241.769 227.812C241.769 227.812 269.915 283.388 275.713 246.25L273.528 260.275L120.907 226.978Z" fill="#E7EDF4"/>
<path d="M205.417 40.7743C207.49 40.3471 208.824 38.3214 208.396 36.2496C207.969 34.1779 205.942 32.8446 203.869 33.2718C201.796 33.6989 200.462 35.7247 200.889 37.7965C201.317 39.8682 203.344 41.2015 205.417 40.7743Z" fill="#235196"/>
<path d="M260.194 40.6625C262.259 40.2003 263.559 38.1523 263.097 36.088C262.634 34.0238 260.585 32.7251 258.519 33.1872C256.454 33.6494 255.154 35.6974 255.617 37.7617C256.079 39.8259 258.128 41.1246 260.194 40.6625Z" fill="#235196"/>
<path d="M204.64 37.0175L203.432 50.6371C203.235 52.8101 204.959 54.6868 207.144 54.6868L225.352 54.6538L225.406 54.0063C225.582 51.998 227.251 50.4505 229.272 50.4286H231.007C233.302 50.3957 235.114 52.3492 234.927 54.6319L254.398 54.599C256.319 54.599 257.923 53.1284 258.098 51.2078L259.372 36.9297" stroke="#235196" stroke-width="3" stroke-linejoin="round"/>
<path d="M174.452 79.1383L271.243 81.6845" stroke="#E7EDF4" stroke-width="3" stroke-miterlimit="10" stroke-linecap="round"/>
<path d="M173.156 93.6578L269.947 96.204" stroke="#E7EDF4" stroke-width="3" stroke-miterlimit="10" stroke-linecap="round"/>
<path d="M170.773 108.079L267.564 110.625" stroke="#E7EDF4" stroke-width="3" stroke-miterlimit="10" stroke-linecap="round"/>
<path d="M168.38 122.499L265.171 125.045" stroke="#E7EDF4" stroke-width="3" stroke-miterlimit="10" stroke-linecap="round"/>
<path d="M165.997 136.92L262.788 139.466" stroke="#E7EDF4" stroke-width="3" stroke-miterlimit="10" stroke-linecap="round"/>
<path d="M212.832 173.081C212.086 181.488 204.651 187.7 196.239 186.953C187.827 186.207 181.612 178.777 182.359 170.371C183.105 161.964 190.54 155.752 198.952 156.499C207.364 157.245 213.579 164.675 212.832 173.081Z" fill="#E7EDF4"/>
<path d="M169.335 181.334C165.064 176.132 163.131 169.076 164.141 162.425C164.383 160.812 165.031 158.957 166.612 158.507C168.929 157.849 170.598 160.669 171.334 162.963C172.289 165.915 173.256 168.878 174.211 171.83C174.398 172.39 174.607 172.994 175.101 173.301C177.451 174.761 178.549 168.044 181.119 169.043C182.524 169.592 182.085 171.754 182.92 173.016C183.853 174.431 186.038 174.19 187.521 173.367C189.003 172.544 190.343 171.293 192.034 171.128C193.659 170.963 195.252 171.852 196.877 171.677C199.699 171.369 201.907 167.978 204.641 168.747" stroke="#D1DDE8" stroke-width="3" stroke-miterlimit="10" stroke-linecap="round"/>
<path d="M196.492 264.468L172.739 255.337C168.423 253.679 163.58 255.831 161.911 260.144C160.253 264.457 162.405 269.296 166.721 270.965L190.474 280.096C194.79 281.753 199.633 279.602 201.302 275.289C202.96 270.976 200.808 266.136 196.492 264.468Z" fill="white"/>
<path d="M196.492 264.468L184.61 259.902L178.592 275.53L190.474 280.095C194.79 281.753 199.632 279.602 201.302 275.289C202.96 270.976 200.807 266.136 196.492 264.468Z" fill="#235196"/>
<path style="mix-blend-mode:multiply" d="M196.261 275.42L165.546 263.612C163.954 262.997 162.658 261.954 161.735 260.659C160.429 264.841 162.57 269.362 166.71 270.954L190.463 280.085C194.603 281.676 199.237 279.755 201.06 275.782C199.512 276.123 197.843 276.035 196.25 275.42H196.261Z" fill="url(#paint3_linear_219_1048)"/>
<path d="M231.952 235.198L207.463 242.123C203.016 243.385 200.424 248.006 201.687 252.45C202.95 256.895 207.573 259.485 212.021 258.223L236.509 251.298C240.957 250.036 243.548 245.416 242.286 240.971C241.023 236.526 236.399 233.936 231.952 235.198Z" fill="white"/>
<path d="M231.952 235.198L219.708 238.655L224.265 254.766L236.51 251.309C240.957 250.047 243.549 245.427 242.286 240.982C241.023 236.537 236.4 233.947 231.952 235.209V235.198Z" fill="#235196"/>
<path style="mix-blend-mode:multiply" d="M238.343 244.11L206.683 253.054C205.036 253.515 203.367 253.46 201.862 252.966C203.323 257.093 207.748 259.43 212.02 258.223L236.509 251.298C240.781 250.091 243.328 245.778 242.417 241.498C241.385 242.705 239.99 243.627 238.354 244.099L238.343 244.11Z" fill="url(#paint4_linear_219_1048)"/>
<path d="M105.609 45.3584H97.175V36.9298H87.7749V45.3584H79.3301V54.7636H87.7749V63.1922H97.175V54.7636H105.609V45.3584Z" fill="#F86C79"/>
<path d="M129.56 79.2371H123.827V73.5084H117.447V79.2371H111.715V85.6134H117.447V91.3422H123.827V85.6134H129.56V79.2371Z" fill="#235196"/>
<path d="M354.285 64.3116H348.553V58.5828H342.173V64.3116H336.451V70.6879H342.173V76.4166H348.553V70.6879H354.285V64.3116Z" fill="#F86C79"/>
<path d="M321.451 234.649L361.556 118.011C362.379 115.607 360.853 112.907 358.151 111.986L290.725 88.829C288.013 87.8961 285.157 89.0924 284.323 91.4958L244.218 208.135C243.395 210.538 244.921 213.238 247.634 214.16L315.06 237.316C317.772 238.249 320.628 237.053 321.462 234.649H321.451Z" fill="#235196"/>
<g style="mix-blend-mode:multiply" opacity="0.6">
<path d="M310.338 110.263L294.953 105.039C292.153 104.084 289.122 105.587 288.166 108.375C287.211 111.173 288.716 114.202 291.505 115.157L306.89 120.381C309.69 121.336 312.721 119.832 313.677 117.045C314.632 114.246 313.127 111.217 310.338 110.263Z" fill="#235196"/>
</g>
<g style="mix-blend-mode:multiply" opacity="0.6">
<path d="M344.831 122.115L329.446 116.891C326.646 115.936 323.615 117.44 322.66 120.228C321.704 123.026 323.209 126.055 325.998 127.01L341.383 132.234C344.183 133.189 347.214 131.685 348.17 128.897C349.125 126.099 347.621 123.07 344.831 122.115Z" fill="#235196"/>
</g>
<g style="mix-blend-mode:multiply" opacity="0.6">
<path d="M304.078 128.448L288.693 123.224C285.893 122.269 282.862 123.772 281.907 126.56C280.951 129.358 282.456 132.387 285.245 133.342L300.63 138.566C303.43 139.521 306.461 138.017 307.417 135.23C308.372 132.431 306.868 129.402 304.078 128.448Z" fill="#235196"/>
</g>
<g style="mix-blend-mode:multiply" opacity="0.6">
<path d="M338.582 140.289L323.197 135.065C320.397 134.11 317.366 135.614 316.411 138.402C315.455 141.2 316.96 144.229 319.749 145.184L335.134 150.408C337.934 151.363 340.965 149.859 341.921 147.072C342.876 144.273 341.372 141.244 338.582 140.289Z" fill="#235196"/>
</g>
<g style="mix-blend-mode:multiply" opacity="0.6">
<path d="M297.83 146.633L282.445 141.409C279.645 140.454 276.614 141.957 275.659 144.745C274.703 147.543 276.208 150.572 278.997 151.527L294.382 156.751C297.182 157.706 300.213 156.202 301.169 153.415C302.124 150.616 300.62 147.587 297.83 146.633Z" fill="#235196"/>
</g>
<g style="mix-blend-mode:multiply" opacity="0.6">
<path d="M332.323 158.474L316.937 153.25C314.137 152.295 311.106 153.799 310.151 156.587C309.195 159.385 310.7 162.414 313.489 163.369L328.874 168.593C331.675 169.548 334.706 168.044 335.661 165.257C336.616 162.458 335.112 159.429 332.323 158.474Z" fill="#235196"/>
</g>
<g style="mix-blend-mode:multiply" opacity="0.6">
<path d="M291.384 165.388L275.999 160.164C273.199 159.21 270.168 160.713 269.212 163.501C268.257 166.299 269.761 169.328 272.551 170.283L287.936 175.507C290.736 176.462 293.767 174.958 294.722 172.171C295.678 169.372 294.173 166.343 291.384 165.388Z" fill="#235196"/>
</g>
<g style="mix-blend-mode:multiply" opacity="0.6">
<path d="M325.877 177.23L310.492 172.006C307.692 171.051 304.661 172.555 303.706 175.342C302.75 178.141 304.255 181.17 307.044 182.125L322.429 187.349C325.229 188.303 328.26 186.8 329.216 184.012C330.171 181.214 328.667 178.185 325.877 177.23Z" fill="#235196"/>
</g>
<g style="mix-blend-mode:multiply" opacity="0.6">
<path d="M284.992 183.979L269.607 178.755C266.807 177.801 263.776 179.304 262.821 182.092C261.865 184.89 263.37 187.919 266.159 188.874L281.544 194.098C284.345 195.053 287.375 193.549 288.331 190.762C289.286 187.963 287.782 184.934 284.992 183.979Z" fill="#235196"/>
</g>
<g style="mix-blend-mode:multiply" opacity="0.6">
<path d="M319.486 195.832L304.101 190.608C301.3 189.653 298.269 191.157 297.314 193.944C296.359 196.743 297.863 199.772 300.652 200.727L316.037 205.951C318.838 206.905 321.869 205.402 322.824 202.614C323.779 199.816 322.275 196.787 319.486 195.832Z" fill="#235196"/>
</g>
<g style="mix-blend-mode:multiply" opacity="0.6">
<path d="M278.734 202.164L263.349 196.94C260.548 195.986 257.517 197.489 256.562 200.277C255.607 203.075 257.111 206.104 259.9 207.059L275.285 212.283C278.086 213.238 281.117 211.734 282.072 208.947C283.027 206.148 281.523 203.119 278.734 202.164Z" fill="#235196"/>
</g>
<g style="mix-blend-mode:multiply" opacity="0.6">
<path d="M313.226 214.006L297.841 208.782C295.04 207.827 292.01 209.331 291.054 212.118C290.099 214.917 291.603 217.946 294.393 218.901L309.778 224.125C312.578 225.079 315.609 223.576 316.564 220.788C317.52 217.99 316.015 214.961 313.226 214.006Z" fill="#235196"/>
</g>
<path d="M311.36 107.299L295.975 102.075C293.174 101.121 290.143 102.624 289.188 105.412C288.233 108.21 289.737 111.239 292.526 112.194L307.911 117.418C310.712 118.373 313.743 116.869 314.698 114.082C315.653 111.283 314.149 108.254 311.36 107.299Z" fill="white"/>
<path style="mix-blend-mode:multiply" d="M311.492 114.29L291.604 107.541C290.572 107.19 289.715 106.553 289.1 105.752C288.375 108.452 289.858 111.283 292.537 112.194L307.923 117.418C310.602 118.329 313.512 116.979 314.577 114.4C313.6 114.663 312.535 114.641 311.502 114.29H311.492Z" fill="url(#paint5_linear_219_1048)"/>
<path d="M345.853 119.141L330.468 113.917C327.667 112.962 324.637 114.466 323.681 117.253C322.726 120.052 324.23 123.081 327.02 124.036L342.405 129.26C345.205 130.214 348.236 128.711 349.191 125.923C350.147 123.125 348.642 120.096 345.853 119.141Z" fill="white"/>
<path style="mix-blend-mode:multiply" d="M345.985 126.143L326.097 119.382C325.065 119.031 324.208 118.395 323.593 117.594C322.869 120.293 324.351 123.125 327.031 124.036L342.416 129.26C345.095 130.171 348.005 128.821 349.07 126.242C348.093 126.505 347.028 126.483 345.996 126.132L345.985 126.143Z" fill="url(#paint6_linear_219_1048)"/>
<path d="M305.001 125.77L289.616 120.546C286.816 119.591 283.785 121.095 282.83 123.882C281.874 126.681 283.379 129.71 286.168 130.664L301.553 135.888C304.353 136.843 307.384 135.34 308.34 132.552C309.295 129.754 307.791 126.725 305.001 125.77Z" fill="white"/>
<path style="mix-blend-mode:multiply" d="M305.144 132.761L285.256 126.011C284.224 125.66 283.368 125.023 282.753 124.222C282.028 126.922 283.51 129.754 286.19 130.664L301.575 135.888C304.254 136.799 307.164 135.449 308.23 132.87C307.252 133.134 306.187 133.112 305.155 132.761H305.144Z" fill="url(#paint7_linear_219_1048)"/>
<path d="M339.505 137.611L324.12 132.387C321.32 131.433 318.289 132.936 317.333 135.724C316.378 138.522 317.883 141.551 320.672 142.506L336.057 147.73C338.857 148.685 341.888 147.181 342.844 144.394C343.799 141.595 342.294 138.566 339.505 137.611Z" fill="white"/>
<path style="mix-blend-mode:multiply" d="M339.637 144.602L319.75 137.842C318.717 137.491 317.861 136.854 317.246 136.053C316.521 138.753 318.003 141.584 320.683 142.495L336.068 147.719C338.748 148.63 341.658 147.28 342.723 144.701C341.745 144.964 340.68 144.942 339.648 144.591L339.637 144.602Z" fill="url(#paint8_linear_219_1048)"/>
<path d="M298.654 144.229L283.268 139.005C280.468 138.05 277.437 139.554 276.482 142.341C275.527 145.14 277.031 148.169 279.82 149.124L295.205 154.348C298.006 155.303 301.037 153.799 301.992 151.011C302.947 148.213 301.443 145.184 298.654 144.229Z" fill="white"/>
<path style="mix-blend-mode:multiply" d="M298.785 151.231L278.898 144.471C277.866 144.119 277.009 143.483 276.394 142.682C275.669 145.381 277.152 148.213 279.831 149.124L295.216 154.348C297.896 155.259 300.806 153.909 301.871 151.33C300.894 151.593 299.829 151.571 298.796 151.22L298.785 151.231Z" fill="url(#paint9_linear_219_1048)"/>
<path d="M333.147 156.082L317.762 150.858C314.961 149.903 311.93 151.407 310.975 154.194C310.02 156.993 311.524 160.022 314.313 160.976L329.699 166.2C332.499 167.155 335.53 165.652 336.485 162.864C337.441 160.066 335.936 157.037 333.147 156.082Z" fill="white"/>
<path style="mix-blend-mode:multiply" d="M333.279 163.073L313.391 156.312C312.359 155.961 311.502 155.324 310.887 154.523C310.163 157.223 311.645 160.055 314.325 160.965L329.71 166.189C332.389 167.1 335.299 165.75 336.364 163.171C335.387 163.435 334.322 163.413 333.29 163.062L333.279 163.073Z" fill="url(#paint10_linear_219_1048)"/>
<path d="M292.307 162.699L276.922 157.476C274.122 156.521 271.091 158.024 270.135 160.812C269.18 163.61 270.684 166.639 273.474 167.594L288.859 172.818C291.659 173.773 294.69 172.269 295.645 169.482C296.601 166.683 295.096 163.654 292.307 162.699Z" fill="white"/>
<path style="mix-blend-mode:multiply" d="M292.439 169.701L272.551 162.941C271.519 162.59 270.662 161.953 270.047 161.152C269.323 163.852 270.805 166.683 273.485 167.594L288.87 172.818C291.549 173.729 294.459 172.379 295.525 169.8C294.547 170.063 293.482 170.042 292.45 169.69L292.439 169.701Z" fill="url(#paint11_linear_219_1048)"/>
<path d="M326.8 174.541L311.415 169.317C308.615 168.362 305.584 169.866 304.628 172.654C303.673 175.452 305.177 178.481 307.967 179.436L323.352 184.66C326.152 185.615 329.183 184.111 330.138 181.323C331.094 178.525 329.589 175.496 326.8 174.541Z" fill="white"/>
<path style="mix-blend-mode:multiply" d="M326.932 181.543L307.044 174.794C306.012 174.442 305.156 173.806 304.541 173.005C303.816 175.704 305.298 178.536 307.978 179.447L323.363 184.671C326.042 185.582 328.953 184.232 330.018 181.653C329.04 181.916 327.975 181.894 326.943 181.543H326.932Z" fill="url(#paint12_linear_219_1048)"/>
<path d="M285.959 181.17L270.574 175.946C267.774 174.991 264.743 176.495 263.788 179.282C262.832 182.081 264.337 185.11 267.126 186.065L282.511 191.288C285.311 192.243 288.342 190.74 289.298 187.952C290.253 185.154 288.749 182.125 285.959 181.17Z" fill="white"/>
<path style="mix-blend-mode:multiply" d="M286.091 188.161L266.204 181.4C265.171 181.049 264.315 180.413 263.7 179.611C262.975 182.311 264.458 185.143 267.137 186.054L282.522 191.278C285.202 192.188 288.112 190.839 289.177 188.259C288.2 188.523 287.134 188.501 286.102 188.15L286.091 188.161Z" fill="url(#paint13_linear_219_1048)"/>
<path d="M320.452 193.012L305.067 187.788C302.267 186.833 299.236 188.336 298.281 191.124C297.325 193.922 298.83 196.951 301.619 197.906L317.004 203.13C319.805 204.085 322.835 202.581 323.791 199.794C324.746 196.995 323.242 193.966 320.452 193.012Z" fill="white"/>
<path style="mix-blend-mode:multiply" d="M320.584 200.013L300.697 193.264C299.665 192.913 298.808 192.276 298.193 191.475C297.468 194.175 298.951 197.006 301.63 197.917L317.015 203.141C319.695 204.052 322.605 202.702 323.67 200.123C322.693 200.387 321.628 200.365 320.595 200.013H320.584Z" fill="url(#paint14_linear_219_1048)"/>
<path d="M279.601 199.64L264.216 194.416C261.415 193.461 258.385 194.965 257.429 197.753C256.474 200.551 257.978 203.58 260.768 204.535L276.153 209.759C278.953 210.714 281.984 209.21 282.939 206.423C283.895 203.624 282.39 200.595 279.601 199.64Z" fill="white"/>
<path style="mix-blend-mode:multiply" d="M279.743 206.631L259.856 199.882C258.824 199.53 257.967 198.894 257.352 198.093C256.627 200.793 258.11 203.624 260.789 204.535L276.174 209.759C278.854 210.67 281.764 209.32 282.829 206.741C281.852 207.004 280.787 206.982 279.754 206.631H279.743Z" fill="url(#paint15_linear_219_1048)"/>
<path d="M314.105 211.482L298.72 206.258C295.919 205.303 292.888 206.807 291.933 209.594C290.978 212.393 292.482 215.422 295.271 216.377L310.657 221.601C313.457 222.555 316.488 221.052 317.443 218.264C318.399 215.466 316.894 212.437 314.105 211.482Z" fill="white"/>
<path style="mix-blend-mode:multiply" d="M314.237 218.484L294.349 211.723C293.317 211.372 292.46 210.736 291.845 209.934C291.121 212.634 292.603 215.466 295.283 216.377L310.668 221.601C313.347 222.511 316.257 221.162 317.322 218.582C316.345 218.846 315.28 218.824 314.248 218.473L314.237 218.484Z" fill="url(#paint16_linear_219_1048)"/>
<path d="M328.797 257.51C328.797 261.493 325.558 264.731 321.572 264.731C317.585 264.731 314.346 261.493 314.346 257.51C314.346 253.526 317.585 250.288 321.572 250.288C325.558 250.288 328.797 253.526 328.797 257.51Z" fill="#4DD0E1"/>
<path d="M49.4497 233.442C49.4497 237.426 46.2102 240.663 42.2239 240.663C38.2376 240.663 34.998 237.426 34.998 233.442C34.998 229.458 38.2376 226.221 42.2239 226.221C46.2102 226.221 49.4497 229.458 49.4497 233.442Z" fill="#235196"/>
<path d="M339.494 272.699C339.494 274.806 337.781 276.518 335.672 276.518C333.564 276.518 331.851 274.806 331.851 272.699C331.851 270.591 333.564 268.879 335.672 268.879C337.781 268.879 339.494 270.591 339.494 272.699Z" fill="#4DD0E1"/>
<path d="M30.5064 220.865C30.5064 222.972 28.7933 224.684 26.6848 224.684C24.5764 224.684 22.8633 222.972 22.8633 220.865C22.8633 218.758 24.5764 217.046 26.6848 217.046C28.7933 217.046 30.5064 218.758 30.5064 220.865Z" fill="#235196"/>
<path opacity="0.7" d="M193.472 312.493C282.287 312.493 354.286 309.726 354.286 306.314C354.286 302.902 282.287 300.135 193.472 300.135C104.658 300.135 32.6592 302.902 32.6592 306.314C32.6592 309.726 104.658 312.493 193.472 312.493Z" fill="#E7EDF4"/>
<g clip-path="url(#clip1_219_1048)">
<path d="M146.698 223.217C149.304 222.06 153.272 222.511 155.561 224.22C156.706 225.077 157.213 226.085 157.11 227.025L152.86 265.634H152.844C152.665 266.492 151.969 267.277 150.764 267.81C148.158 268.967 144.19 268.516 141.901 266.807C140.842 266.016 140.335 265.093 140.346 264.217H140.33L144.58 225.607C144.683 224.667 145.398 223.797 146.701 223.22L146.698 223.217Z" fill="#27DEBF"/>
<path opacity="0.7" d="M146.698 223.217C149.304 222.06 153.272 222.511 155.561 224.22C156.706 225.077 157.213 226.085 157.11 227.025L152.86 265.634H152.844C152.665 266.492 151.969 267.277 150.764 267.81C148.158 268.967 144.19 268.516 141.901 266.807C140.842 266.016 140.335 265.093 140.346 264.217H140.33L144.58 225.607C144.683 224.667 145.398 223.797 146.701 223.22L146.698 223.217Z" fill="white"/>
<path d="M154.989 229.409C157.594 228.253 157.849 225.928 155.56 224.22C153.272 222.511 149.303 222.06 146.698 223.217C144.092 224.373 143.837 226.698 146.126 228.406C148.415 230.118 152.383 230.566 154.989 229.409Z" fill="#27DEBF"/>
<path opacity="0.8" d="M154.989 229.409C157.594 228.253 157.849 225.928 155.56 224.22C153.272 222.511 149.303 222.06 146.698 223.217C144.092 224.373 143.837 226.698 146.126 228.406C148.415 230.118 152.383 230.566 154.989 229.409Z" fill="white"/>
<path d="M147.838 294.395C150.444 293.239 150.699 290.915 148.41 289.206C146.121 287.494 142.153 287.046 139.547 288.203C136.942 289.36 136.687 291.684 138.976 293.393C141.265 295.104 145.233 295.552 147.838 294.395Z" fill="#27DEBF"/>
<path opacity="0.7" d="M147.838 294.395C150.444 293.239 150.699 290.915 148.41 289.206C146.121 287.494 142.153 287.046 139.547 288.203C136.942 289.36 136.687 291.684 138.976 293.393C141.265 295.104 145.233 295.552 147.838 294.395Z" fill="white"/>
<path d="M144.201 287.645C145.769 287.838 147.289 288.371 148.41 289.206C150.699 290.917 150.444 293.239 147.838 294.395C146.565 294.961 144.965 295.14 143.394 294.978L144.201 287.645Z" fill="#27DEBF"/>
<path d="M147.919 293.645C150.525 292.489 150.78 290.165 148.491 288.456C146.202 286.747 142.234 286.296 139.628 287.453C137.023 288.61 136.768 290.934 139.057 292.643C141.346 294.354 145.314 294.802 147.919 293.645Z" fill="#27DEBF"/>
<path opacity="0.8" d="M147.919 293.645C150.525 292.489 150.78 290.165 148.491 288.456C146.202 286.747 142.234 286.296 139.628 287.453C137.023 288.61 136.768 290.934 139.057 292.643C141.346 294.354 145.314 294.802 147.919 293.645Z" fill="white"/>
<path d="M144.509 264.761C144.509 264.42 144.744 264.099 145.213 263.89C146.082 263.505 147.404 263.654 148.168 264.225C148.55 264.511 148.718 264.846 148.686 265.159L145.866 290.785C145.831 291.099 145.592 291.387 145.159 291.582C144.289 291.967 142.968 291.818 142.204 291.247C141.792 290.939 141.635 290.574 141.708 290.239L144.511 264.761H144.509Z" fill="#27DEBF"/>
<path opacity="0.7" d="M144.509 264.761C144.509 264.42 144.744 264.099 145.213 263.89C146.082 263.505 147.404 263.654 148.168 264.225C148.55 264.511 148.718 264.846 148.686 265.159L145.866 290.785C145.831 291.099 145.592 291.387 145.159 291.582C144.289 291.967 142.968 291.818 142.204 291.247C141.792 290.939 141.635 290.574 141.708 290.239L144.511 264.761H144.509Z" fill="white"/>
<g opacity="0.3">
<path d="M145.009 263.997C145.072 263.959 145.137 263.923 145.212 263.89C145.286 263.857 145.367 263.835 145.445 263.81L142.412 291.376C142.341 291.335 142.268 291.294 142.203 291.244C142.138 291.195 142.081 291.145 142.03 291.093L145.012 263.994L145.009 263.997Z" fill="white"/>
<path d="M145.844 263.717C146.05 263.687 146.264 263.676 146.48 263.687L143.395 291.73C143.295 291.711 143.195 291.689 143.097 291.662C143.084 291.659 143.073 291.654 143.059 291.651C142.965 291.623 142.873 291.593 142.78 291.557L145.844 263.717Z" fill="white"/>
</g>
<path d="M144.739 290.961C145.034 290.555 145.121 288.939 145.308 287.219C145.405 286.332 147.583 266.546 147.859 264.035C147.967 264.093 148.07 264.156 148.165 264.228C148.547 264.513 148.715 264.849 148.683 265.162L145.863 290.788C145.828 291.101 145.589 291.39 145.156 291.585C144.286 291.969 142.965 291.821 142.201 291.25C142.171 291.228 142.144 291.203 142.117 291.181C141.941 290.997 141.835 290.871 141.835 290.871C142.417 291.39 144.303 291.563 144.736 290.967L144.739 290.961Z" fill="#27DEBF"/>
<path d="M145.213 263.89C146.082 263.505 147.404 263.654 148.168 264.225C148.55 264.511 148.718 264.846 148.686 265.159L148.328 268.406C146.952 268.533 145.478 268.365 144.162 267.937L144.511 264.761C144.511 264.42 144.747 264.099 145.216 263.89H145.213Z" fill="#27DEBF"/>
<g opacity="0.3">
<path d="M145.009 263.997C145.072 263.959 145.137 263.923 145.212 263.89C145.286 263.857 145.367 263.835 145.445 263.81L144.966 268.159C144.83 268.126 144.698 268.093 144.562 268.057L145.009 264V263.997Z" fill="white"/>
<path d="M145.966 268.343C145.757 268.316 145.551 268.28 145.346 268.239L145.844 263.714C146.05 263.684 146.264 263.673 146.48 263.684L145.969 268.343H145.966Z" fill="white"/>
</g>
<path opacity="0.05" d="M147.859 264.033C147.967 264.09 148.07 264.154 148.165 264.225C148.547 264.511 148.715 264.846 148.683 265.159L148.325 268.406C148.011 268.434 147.694 268.448 147.374 268.445C147.512 267.198 147.691 265.563 147.859 264.033Z" fill="black"/>
<path d="M145.08 259.571C145.08 259.231 145.316 258.909 145.784 258.7C146.654 258.316 147.976 258.464 148.739 259.035C149.121 259.321 149.289 259.656 149.257 259.97L148.685 265.159C148.65 265.472 148.412 265.761 147.978 265.956C147.109 266.34 145.787 266.192 145.023 265.621C144.611 265.313 144.454 264.948 144.528 264.612L145.083 259.571H145.08Z" fill="#27DEBF"/>
<path opacity="0.5" d="M145.08 259.571C145.08 259.231 145.316 258.909 145.784 258.7C146.654 258.316 147.976 258.464 148.739 259.035C149.121 259.321 149.289 259.656 149.257 259.97L148.685 265.159C148.65 265.472 148.412 265.761 147.978 265.956C147.109 266.34 145.787 266.192 145.023 265.621C144.611 265.313 144.454 264.948 144.528 264.612L145.083 259.571H145.08Z" fill="white"/>
<path opacity="0.05" d="M145.08 259.571C145.08 259.231 145.316 258.909 145.784 258.7C146.654 258.316 147.976 258.464 148.739 259.035C149.121 259.321 149.289 259.656 149.257 259.97L148.685 265.159C148.65 265.472 148.412 265.761 147.978 265.956C147.109 266.34 145.787 266.192 145.023 265.621C144.611 265.313 144.454 264.948 144.528 264.612L145.083 259.571H145.08Z" fill="black"/>
<g opacity="0.3">
<path d="M145.233 265.752C145.163 265.711 145.089 265.67 145.024 265.621C144.959 265.571 144.902 265.522 144.851 265.47L145.393 260.541L145.802 260.588L145.233 265.75V265.752Z" fill="white"/>
<path d="M145.601 265.931L146.154 260.901L146.779 260.972L146.213 266.107C145.999 266.068 145.793 266.011 145.601 265.934V265.931Z" fill="white"/>
</g>
<path opacity="0.1" d="M147.976 265.956C147.867 266.002 147.754 266.044 147.634 266.074C147.873 263.909 148.19 261.03 148.303 260.005C148.412 260.063 148.515 260.126 148.61 260.198C148.991 260.483 149.159 260.818 149.127 261.132L148.683 265.162C148.647 265.475 148.409 265.766 147.976 265.959V265.956Z" fill="black"/>
<path d="M151.096 257.989C153.003 259.415 152.792 261.351 150.622 262.313C148.452 263.274 145.145 262.901 143.235 261.478C141.326 260.052 141.54 258.115 143.709 257.154C145.879 256.189 149.186 256.566 151.096 257.989Z" fill="#263238"/>
<path d="M151.148 257.524C153.055 258.95 152.843 260.887 150.674 261.849C148.504 262.813 145.197 262.437 143.287 261.013C141.378 259.588 141.592 257.651 143.761 256.689C145.931 255.725 149.238 256.101 151.148 257.524Z" fill="#37474F"/>
<path d="M145.623 225.722C145.701 225.003 146.289 224.341 147.37 223.909C149.531 223.044 152.836 223.417 154.756 224.744C155.715 225.409 156.146 226.187 156.067 226.904L152.484 259.459C152.397 260.242 151.804 260.967 150.718 261.448C148.548 262.412 145.241 262.035 143.331 260.612C142.378 259.901 141.952 259.06 142.039 258.277L145.623 225.722Z" fill="#5155C3"/>
<path d="M154.989 229.409C152.383 230.566 148.415 230.115 146.126 228.406C145.844 228.198 145.603 227.978 145.398 227.753L145.62 225.722C145.698 225.003 146.286 224.341 147.367 223.909C149.528 223.044 152.833 223.417 154.753 224.744C155.712 225.409 156.143 226.187 156.064 226.904L155.842 228.931C155.593 229.104 155.308 229.266 154.989 229.409Z" fill="#27DEBF"/>
<path opacity="0.2" d="M154.989 229.409C152.383 230.566 148.415 230.115 146.126 228.406C145.844 228.198 145.603 227.978 145.398 227.753L145.62 225.722C145.698 225.003 146.286 224.341 147.367 223.909C149.528 223.044 152.833 223.417 154.753 224.744C155.712 225.409 156.143 226.187 156.064 226.904L155.842 228.931C155.593 229.104 155.308 229.266 154.989 229.409Z" fill="white"/>
<path d="M151.188 257.154C152.142 257.865 152.567 258.706 152.48 259.489C152.394 260.272 151.8 260.997 150.714 261.478C148.545 262.442 145.237 262.066 143.328 260.643C142.374 259.931 141.949 259.09 142.036 258.307C142.122 257.524 142.718 256.799 143.802 256.318C144.888 255.838 146.397 254.423 147.732 254.574C149.067 254.725 150.232 256.442 151.188 257.154Z" fill="#455A64"/>
<path opacity="0.2" d="M150.958 259.725C150.893 258.654 149.634 257.978 149.013 256.535C148.412 255.14 147.854 254.645 147.171 254.599C147.361 254.566 147.551 254.555 147.735 254.577C149.07 254.728 150.235 256.445 151.191 257.156C152.145 257.868 152.57 258.709 152.483 259.492C152.396 260.274 151.803 261 150.717 261.481C148.547 262.445 145.246 262.085 143.314 260.632C148.222 262.953 151.029 260.851 150.961 259.725H150.958Z" fill="black"/>
<path d="M151.188 257.154C152.142 257.865 152.567 258.706 152.48 259.489C152.394 260.272 151.8 260.997 150.714 261.478C148.545 262.442 145.237 262.066 143.328 260.643C142.374 259.931 141.949 259.09 142.036 258.307C142.122 257.524 142.718 256.799 143.802 256.318C144.888 255.838 146.397 254.423 147.732 254.574C149.067 254.725 150.232 256.442 151.188 257.154Z" fill="#27DEBF"/>
<path opacity="0.3" d="M144.029 261.052C143.783 260.917 143.547 260.774 143.333 260.612C143.062 260.409 142.84 260.198 142.653 259.978L146.432 225.645L147.908 225.813L144.029 261.052Z" fill="white"/>
<path opacity="0.3" d="M145.455 261.632C145.189 261.555 144.935 261.461 144.685 261.36L148.524 226.489L149.314 226.58L145.457 261.634L145.455 261.632Z" fill="white"/>
<path opacity="0.1" d="M144.073 261.079C147.646 262.371 150.149 260.195 150.333 258.508C150.522 256.785 153.209 232.371 153.724 227.692L155.685 225.637C155.983 226.058 156.11 226.492 156.067 226.904L152.483 259.459C152.397 260.242 151.804 260.967 150.717 261.448C148.808 262.294 146.012 262.123 144.073 261.077V261.079Z" fill="black"/>
<path d="M154.755 224.744C156.673 226.074 156.478 227.851 154.319 228.72C152.161 229.585 148.853 229.211 146.933 227.884C145.012 226.558 145.207 224.777 147.369 223.909C149.53 223.044 152.835 223.417 154.755 224.744Z" fill="#27DEBF"/>
<path opacity="0.3" d="M154.755 224.744C156.673 226.074 156.478 227.851 154.319 228.72C152.161 229.585 148.853 229.211 146.933 227.884C145.012 226.558 145.207 224.777 147.369 223.909C149.53 223.044 152.835 223.417 154.755 224.744Z" fill="white"/>
<path d="M148.09 222.5C148.141 222.03 148.499 221.596 149.152 221.308C150.455 220.731 152.437 220.953 153.583 221.81C154.155 222.239 154.409 222.742 154.358 223.211L153.976 226.67C153.924 227.14 153.567 227.574 152.914 227.862C151.611 228.439 149.628 228.217 148.483 227.36C147.911 226.931 147.657 226.428 147.708 225.959L148.09 222.5Z" fill="#27DEBF"/>
<path opacity="0.7" d="M148.09 222.5C148.141 222.03 148.499 221.596 149.152 221.308C150.455 220.731 152.437 220.953 153.583 221.81C154.155 222.239 154.409 222.742 154.358 223.211L153.976 226.67C153.924 227.14 153.567 227.574 152.914 227.862C151.611 228.439 149.628 228.217 148.483 227.36C147.911 226.931 147.657 226.428 147.708 225.959L148.09 222.5Z" fill="white"/>
<path opacity="0.4" d="M148.651 227.464C148.597 227.428 148.537 227.398 148.485 227.36C148.326 227.242 148.196 227.115 148.085 226.989L148.629 222.041L149.241 222.11L148.651 227.464Z" fill="white"/>
<path opacity="0.4" d="M149.425 227.86C149.276 227.805 149.133 227.742 148.997 227.673L149.571 222.456L150.016 222.505L149.425 227.86Z" fill="white"/>
<path d="M152.839 226.64C152.893 226.148 152.933 225.769 153.134 223.945L153.938 222.126C154.258 222.475 154.396 222.851 154.358 223.209L153.976 226.667C153.925 227.137 153.567 227.571 152.914 227.86C151.612 228.437 149.629 228.214 148.483 227.357C148.323 227.239 148.193 227.112 148.082 226.986C149.943 228.357 152.719 227.695 152.836 226.637L152.839 226.64Z" fill="#27DEBF"/>
<path d="M153.583 221.808C154.728 222.662 154.598 223.824 153.298 224.404C151.995 224.981 150.013 224.758 148.867 223.901C147.721 223.047 147.851 221.884 149.151 221.305C150.451 220.725 152.437 220.95 153.583 221.808Z" fill="#27DEBF"/>
<path opacity="0.8" d="M153.583 221.808C154.728 222.662 154.598 223.824 153.298 224.404C151.995 224.981 150.013 224.758 148.867 223.901C147.721 223.047 147.851 221.884 149.151 221.305C150.451 220.725 152.437 220.95 153.583 221.808Z" fill="white"/>
<path d="M150.628 218.665C151.243 218.393 152.177 218.497 152.716 218.901C152.987 219.102 153.106 219.341 153.082 219.563L152.703 223.022C152.678 223.244 152.51 223.448 152.202 223.585C151.587 223.857 150.652 223.753 150.113 223.349C149.842 223.148 149.723 222.909 149.748 222.689L150.129 219.231C150.154 219.008 150.322 218.802 150.631 218.667L150.628 218.665Z" fill="#27DEBF"/>
<path opacity="0.7" d="M150.628 218.665C151.243 218.393 152.177 218.497 152.716 218.901C152.987 219.102 153.106 219.341 153.082 219.563L152.703 223.022C152.678 223.244 152.51 223.448 152.202 223.585C151.587 223.857 150.652 223.753 150.113 223.349C149.842 223.148 149.723 222.909 149.748 222.689L150.129 219.231C150.154 219.008 150.322 218.802 150.631 218.667L150.628 218.665Z" fill="white"/>
<path opacity="0.4" d="M150.503 223.558C150.359 223.5 150.227 223.431 150.113 223.346C150.089 223.327 150.07 223.308 150.048 223.288L150.468 219.486L150.947 219.541L150.506 223.56L150.503 223.558Z" fill="white"/>
<path opacity="0.4" d="M151.129 223.72C151.013 223.706 150.896 223.681 150.783 223.654L151.205 219.813L151.555 219.852L151.129 223.72Z" fill="white"/>
<path d="M149.867 223.091C150.24 223.492 151.058 223.612 151.589 223.338C152.126 223.06 152.12 222.681 152.185 222.085C152.25 221.489 152.353 220.563 152.48 219.39L152.87 219.038C153.028 219.206 153.098 219.387 153.079 219.558L152.7 223.016C152.675 223.239 152.507 223.442 152.199 223.58C151.584 223.852 150.649 223.747 150.11 223.343C150.002 223.264 149.926 223.176 149.867 223.088V223.091Z" fill="#27DEBF"/>
<path d="M152.716 218.901C153.255 219.305 153.195 219.852 152.58 220.123C151.966 220.395 151.031 220.291 150.492 219.887C149.953 219.483 150.013 218.937 150.628 218.665C151.242 218.393 152.177 218.497 152.716 218.901Z" fill="#27DEBF"/>
<path opacity="0.8" d="M152.716 218.901C153.255 219.305 153.195 219.852 152.58 220.123C151.966 220.395 151.031 220.291 150.492 219.887C149.953 219.483 150.013 218.937 150.628 218.665C151.242 218.393 152.177 218.497 152.716 218.901Z" fill="white"/>
<path d="M151.819 219.242C151.865 219.132 151.86 218.961 151.89 218.75C151.936 218.324 152.001 217.717 152.079 216.986C152.155 216.255 152.255 215.404 152.342 214.492C152.431 213.577 152.526 212.604 152.621 211.629C152.805 209.678 152.989 207.731 153.127 206.266C153.195 205.536 153.255 204.926 153.295 204.5C153.314 204.286 153.331 204.118 153.341 204.005C153.352 203.89 153.341 203.83 153.32 203.827C153.301 203.827 153.274 203.885 153.26 203.997C153.247 204.11 153.225 204.277 153.198 204.492C153.144 204.917 153.068 205.525 152.976 206.253C152.792 207.709 152.548 209.654 152.304 211.596C152.185 212.569 152.066 213.538 151.955 214.45C151.841 215.36 151.751 216.214 151.668 216.942C151.586 217.673 151.516 218.28 151.47 218.706C151.454 218.92 151.41 219.085 151.432 219.203C151.502 219.324 151.714 219.346 151.822 219.247L151.819 219.242Z" fill="#455A64"/>
<path opacity="0.5" d="M147.158 224.003C145.324 225.041 145.75 226.591 147.372 227.777C148.957 228.937 152.128 229.25 153.236 229.03C151.164 229.442 148.553 229.005 146.933 227.882C145.081 226.599 145.202 224.898 147.158 224.003Z" fill="white"/>
<path d="M142.616 267.266C144.953 268.585 148.409 268.857 150.763 267.81C151.969 267.274 152.665 266.486 152.843 265.629H152.862L157.112 227.022C157.009 227.961 156.294 228.835 154.991 229.409L151.08 264.939C150.863 266.898 147.938 268.744 142.618 267.263L142.616 267.266Z" fill="#27DEBF"/>
<path opacity="0.3" d="M152.183 230.036C150.027 230.151 147.686 229.571 146.126 228.406C143.837 226.695 144.092 224.373 146.698 223.217C146.925 223.115 147.166 223.033 147.41 222.956C146.034 223.461 144.579 224.75 145.043 226.437C145.514 228.148 148.204 229.961 152.183 230.038V230.036Z" fill="white"/>
<path opacity="0.4" d="M144.577 225.602L140.327 264.211H140.346C140.335 265.09 140.839 266.013 141.9 266.805C141.949 266.84 142.001 266.871 142.052 266.906C140.356 265.393 140.806 264.055 141.036 261.953L144.88 227.025C144.625 226.552 144.525 226.066 144.577 225.602Z" fill="white"/>
<path opacity="0.3" d="M149.151 221.305C149.189 221.288 149.235 221.277 149.273 221.261C148.626 221.596 148.008 222.351 148.577 223.211C149.165 224.099 151.473 225.154 153.889 224.033C153.729 224.173 153.531 224.297 153.295 224.404C151.993 224.981 150.01 224.758 148.864 223.901C147.718 223.047 147.848 221.884 149.149 221.305H149.151Z" fill="white"/>
<path opacity="0.3" d="M150.628 218.665C150.753 218.61 150.896 218.574 151.042 218.549C150.631 218.689 150.2 219.058 150.352 219.475C150.482 219.832 151.335 220.497 152.687 220.069C152.651 220.088 152.622 220.11 152.584 220.126C151.969 220.398 151.034 220.294 150.495 219.89C149.956 219.486 150.016 218.939 150.631 218.667L150.628 218.665Z" fill="white"/>
<path opacity="0.4" d="M139.628 287.45C139.82 287.365 140.023 287.291 140.232 287.222C136.293 288.582 137.753 292.123 141.164 293.351C144.641 294.604 148.157 293.593 149.103 292.909C148.786 293.184 148.393 293.434 147.922 293.643C145.316 294.799 141.348 294.349 139.059 292.64C136.77 290.928 137.025 288.607 139.63 287.45H139.628Z" fill="white"/>
</g>
</g>
<defs>
<linearGradient id="paint0_linear_219_1048" x1="137.368" y1="222.928" x2="24.1258" y2="175.149" gradientUnits="userSpaceOnUse">
<stop stop-color="white" stop-opacity="0"/>
<stop offset="1" stop-color="#235196"/>
</linearGradient>
<linearGradient id="paint1_linear_219_1048" x1="29.527" y1="133.593" x2="99.736" y2="197.52" gradientUnits="userSpaceOnUse">
<stop stop-color="white" stop-opacity="0"/>
<stop offset="1" stop-color="#235196"/>
</linearGradient>
<linearGradient id="paint2_linear_219_1048" x1="273.178" y1="160.24" x2="-5.74385" y2="135.381" gradientUnits="userSpaceOnUse">
<stop stop-color="white" stop-opacity="0"/>
<stop offset="1" stop-color="#235196"/>
</linearGradient>
<linearGradient id="paint3_linear_219_1048" x1="176.764" y1="244.566" x2="185.563" y2="294.554" gradientUnits="userSpaceOnUse">
<stop stop-color="white" stop-opacity="0"/>
<stop offset="1" stop-color="#235196"/>
</linearGradient>
<linearGradient id="paint4_linear_219_1048" x1="204.246" y1="231.083" x2="241.259" y2="265.838" gradientUnits="userSpaceOnUse">
<stop stop-color="white" stop-opacity="0"/>
<stop offset="1" stop-color="#235196"/>
</linearGradient>
<linearGradient id="paint5_linear_219_1048" x1="298.289" y1="95.1342" x2="305.166" y2="126.8" gradientUnits="userSpaceOnUse">
<stop stop-color="white" stop-opacity="0"/>
<stop offset="1" stop-color="#235196"/>
</linearGradient>
<linearGradient id="paint6_linear_219_1048" x1="332.781" y1="106.976" x2="339.664" y2="138.656" gradientUnits="userSpaceOnUse">
<stop stop-color="white" stop-opacity="0"/>
<stop offset="1" stop-color="#235196"/>
</linearGradient>
<linearGradient id="paint7_linear_219_1048" x1="291.94" y1="113.599" x2="298.814" y2="145.275" gradientUnits="userSpaceOnUse">
<stop stop-color="white" stop-opacity="0"/>
<stop offset="1" stop-color="#235196"/>
</linearGradient>
<linearGradient id="paint8_linear_219_1048" x1="326.428" y1="125.451" x2="333.316" y2="157.12" gradientUnits="userSpaceOnUse">
<stop stop-color="white" stop-opacity="0"/>
<stop offset="1" stop-color="#235196"/>
</linearGradient>
<linearGradient id="paint9_linear_219_1048" x1="285.588" y1="132.073" x2="292.465" y2="163.739" gradientUnits="userSpaceOnUse">
<stop stop-color="white" stop-opacity="0"/>
<stop offset="1" stop-color="#235196"/>
</linearGradient>
<linearGradient id="paint10_linear_219_1048" x1="320.08" y1="143.915" x2="326.957" y2="175.581" gradientUnits="userSpaceOnUse">
<stop stop-color="white" stop-opacity="0"/>
<stop offset="1" stop-color="#235196"/>
</linearGradient>
<linearGradient id="paint11_linear_219_1048" x1="279.24" y1="150.538" x2="286.117" y2="182.204" gradientUnits="userSpaceOnUse">
<stop stop-color="white" stop-opacity="0"/>
<stop offset="1" stop-color="#235196"/>
</linearGradient>
<linearGradient id="paint12_linear_219_1048" x1="313.732" y1="162.38" x2="320.605" y2="194.056" gradientUnits="userSpaceOnUse">
<stop stop-color="white" stop-opacity="0"/>
<stop offset="1" stop-color="#235196"/>
</linearGradient>
<linearGradient id="paint13_linear_219_1048" x1="272.881" y1="168.999" x2="279.765" y2="200.678" gradientUnits="userSpaceOnUse">
<stop stop-color="white" stop-opacity="0"/>
<stop offset="1" stop-color="#235196"/>
</linearGradient>
<linearGradient id="paint14_linear_219_1048" x1="307.379" y1="180.855" x2="314.256" y2="212.52" gradientUnits="userSpaceOnUse">
<stop stop-color="white" stop-opacity="0"/>
<stop offset="1" stop-color="#235196"/>
</linearGradient>
<linearGradient id="paint15_linear_219_1048" x1="266.529" y1="187.474" x2="273.406" y2="219.139" gradientUnits="userSpaceOnUse">
<stop stop-color="white" stop-opacity="0"/>
<stop offset="1" stop-color="#235196"/>
</linearGradient>
<linearGradient id="paint16_linear_219_1048" x1="301.03" y1="199.319" x2="307.904" y2="230.995" gradientUnits="userSpaceOnUse">
<stop stop-color="white" stop-opacity="0"/>
<stop offset="1" stop-color="#235196"/>
</linearGradient>
<clipPath id="clip0_219_1048">
<rect width="370" height="312.493" fill="white"/>
</clipPath>
<clipPath id="clip1_219_1048">
<rect width="19.7108" height="91.2141" fill="white" transform="matrix(-1 0 0 1 157.123 203.824)"/>
</clipPath>
</defs>
</svg>
