<svg width="84" height="90" viewBox="0 0 84 90" fill="none" xmlns="http://www.w3.org/2000/svg">
<path d="M39.4872 73.3748C39.4872 70.1776 36.9084 67.46 33.5238 67.46H32.8791L30.7839 47.9574C34.0073 47.7975 36.5861 45.2398 36.5861 42.0426C36.5861 39.0053 34.1685 36.4476 31.2674 36.2877C31.4286 35.8082 31.7509 35.3286 31.7509 34.849L33.3626 25.5773C33.3626 25.2575 33.5238 24.9378 33.5238 24.6181C33.5238 23.4991 33.0403 22.2202 32.3956 21.421C31.4286 20.302 29.978 19.6625 28.5275 19.6625H25.7875V14.3872H32.2344V13.5879V6.87389H25.7875V0H17.2454V6.87389H11.7656V14.3872H17.0842V19.6625H14.8278C13.3773 19.6625 11.9267 20.302 10.9597 21.421C10.1538 22.3801 9.67033 23.4991 9.67033 24.778C9.67033 25.0977 9.67033 25.2575 9.67033 25.5773L11.2821 34.849C11.4432 35.4885 11.6044 35.968 11.7656 36.4476C9.02564 36.9272 6.9304 39.325 6.9304 42.2025C6.9304 45.3996 9.50916 48.1172 12.8938 48.1172L10.6374 67.6199H9.99267C6.76923 67.6199 4.0293 70.1776 4.0293 73.5346C4.0293 74.8135 4.35165 75.9325 5.15751 76.8916H0V90H44V89.2007V76.7318H38.359C39.1648 75.7726 39.4872 74.6536 39.4872 73.3748ZM14.989 11.1901V10.071H19.5018V9.27176H20.3077V3.19716H22.5641V9.27176H23.37V10.071H29.011V11.1901H23.37V11.9893H22.5641V19.5027H20.4689V11.9893H19.663V11.1901H14.989ZM9.99267 70.817H10.315H33.2015H33.5238C34.9744 70.817 36.2637 71.9361 36.2637 73.5346C36.2637 74.9734 35.1355 76.2522 33.5238 76.2522H9.99267C8.54212 76.2522 7.25275 75.1332 7.25275 73.5346C7.25275 71.9361 8.38095 70.817 9.99267 70.817ZM30.1392 25.0977L28.5275 34.3694C28.3663 35.3286 27.5604 35.968 26.5934 35.968H16.4396C15.4725 35.968 14.6667 35.3286 14.5055 34.3694L12.8938 25.0977V24.778C12.8938 24.2984 13.0549 23.9787 13.3773 23.4991C13.6996 23.0195 14.1832 22.8597 14.8278 22.8597H28.2051C28.8498 22.8597 29.3333 23.1794 29.6557 23.4991C29.978 23.8188 30.1392 24.2984 30.1392 24.778V25.0977ZM30.6227 39.6448C32.0733 39.6448 33.3626 40.7638 33.3626 42.3623C33.3626 43.8011 32.2344 45.0799 30.6227 45.0799H30.4615H13.3773H12.8938C11.4432 45.0799 10.1538 43.9609 10.1538 42.3623C10.1538 40.9236 11.2821 39.6448 12.8938 39.6448H30.6227ZM27.5604 48.1172L29.6557 67.6199H13.8608L16.1172 48.1172H27.5604ZM40.7766 79.929V86.643H3.22344V79.929H40.7766Z" fill="white"/>
<path d="M79.0504 78.3333C79.5294 77.5342 79.8487 76.5753 79.8487 75.6164C79.8487 72.7397 77.4538 70.3425 74.5798 70.3425H74.2605L72.5042 54.0411C75.2185 53.8813 77.4538 51.6438 77.4538 48.7671C77.4538 46.21 75.5378 43.9726 73.1429 43.653C76.0168 41.2557 77.9328 37.5799 77.9328 33.4247C77.9328 26.0731 71.8655 20 64.521 20C57.1765 20 51.1092 26.0731 51.1092 33.4247C51.1092 37.5799 53.0252 41.2557 55.8992 43.653C53.6639 44.2922 51.9076 46.21 51.9076 48.7671C51.9076 51.6438 54.1429 53.8813 57.0168 54.0411L55.1008 70.3425H54.6219C51.7479 70.3425 49.3529 72.7397 49.3529 75.6164C49.3529 76.5753 49.6723 77.5342 50.1513 78.3333H46V90H84V89.2009V78.3333H79.0504ZM80.4874 81.5297V86.8036H48.8739V81.5297H80.4874ZM54.3025 73.5388H74.4202C75.5378 73.5388 76.4958 74.4977 76.4958 75.6164C76.4958 76.7352 75.5378 77.6941 74.4202 77.6941H54.3025C53.1849 77.6941 52.2269 76.7352 52.2269 75.6164C52.2269 74.4977 53.1849 73.5388 54.3025 73.5388ZM57.0168 26.0731C58.9328 24.1553 61.4874 23.0365 64.2017 23.0365C67.0756 23.0365 69.6303 24.1553 71.3866 26.0731C73.3025 27.9909 74.4202 30.5479 74.4202 33.2648C74.4202 36.1416 73.3025 38.6986 71.3866 40.4566C69.9496 41.895 67.8739 43.0137 65.6387 43.3333H62.4454C60.2101 43.0137 58.2941 41.895 56.6975 40.4566C54.7815 38.5388 53.6639 35.9817 53.6639 33.2648C53.9832 30.5479 55.1008 27.9909 57.0168 26.0731ZM64.2017 46.8493C64.8403 46.8493 65.479 46.8493 65.958 46.6895H71.8655C72.9832 46.6895 73.9412 47.6484 73.9412 48.7671C73.9412 49.8858 72.9832 50.8447 71.8655 50.8447H56.8571H56.6975C55.5798 50.8447 54.6219 49.8858 54.6219 48.7671C54.6219 47.6484 55.5798 46.6895 56.6975 46.6895H62.2857C63.084 46.6895 63.563 46.8493 64.2017 46.8493ZM69.1513 54.0411L70.9076 70.3425H57.9748L59.8908 54.0411H69.1513Z" fill="white"/>
</svg>
