<svg width="44" height="44" viewBox="0 0 44 44" fill="none" xmlns="http://www.w3.org/2000/svg">
<path d="M22 1.375C10.6274 1.375 1.375 10.6274 1.375 22C1.375 33.3726 10.6274 42.625 22 42.625C33.3726 42.625 42.625 33.3726 42.625 22C42.625 10.6274 33.3726 1.375 22 1.375ZM38.4962 15.125H31.1104C30.4618 10.9467 29.2287 7.4525 27.5938 5.03422C32.5208 6.66291 36.5076 10.3716 38.4962 15.125ZM28.875 22C28.875 23.4407 28.8018 24.8146 28.6767 26.125H15.3233C15.1982 24.8146 15.125 23.4407 15.125 22C15.125 20.5593 15.1982 19.1854 15.3233 17.875H28.6763C28.8018 19.1854 28.875 20.5593 28.875 22ZM22 39.875C19.5174 39.875 16.8235 35.5874 15.6857 28.875H28.3143C27.1765 35.5874 24.4826 39.875 22 39.875ZM15.6857 15.125C16.8235 8.41259 19.5174 4.125 22 4.125C24.4826 4.125 27.1765 8.41259 28.3143 15.125H15.6857ZM16.4062 5.03422C14.7713 7.45284 13.5379 10.9467 12.8896 15.125H5.50378C7.49237 10.3716 11.4792 6.66291 16.4062 5.03422ZM4.62447 17.875H12.5586C12.4424 19.2022 12.375 20.5765 12.375 22C12.375 23.4235 12.4424 24.7978 12.5589 26.125H4.62447C4.30959 24.7981 4.125 23.4217 4.125 22C4.125 20.5783 4.30959 19.2019 4.62447 17.875ZM5.50378 28.875H12.8892C13.5379 33.0533 14.7709 36.5475 16.4058 38.9658C11.4788 37.3371 7.49237 33.6284 5.50378 28.875ZM27.5938 38.9658C29.2287 36.5472 30.4621 33.0533 31.1104 28.875H38.4959C36.5076 33.6284 32.5212 37.3371 27.5938 38.9658ZM39.3755 26.125H31.4411C31.5576 24.7978 31.625 23.4235 31.625 22C31.625 20.5765 31.5576 19.2022 31.4411 17.875H39.3752C39.6904 19.2019 39.8747 20.5783 39.8747 22C39.8747 23.4217 39.6904 24.7981 39.3755 26.125Z" fill="black"/>
</svg>
