<svg width="27" height="26" viewBox="0 0 27 26" fill="none" xmlns="http://www.w3.org/2000/svg">
<path d="M22.763 14.9642V3.63101C22.763 2.77009 22.4211 1.94438 21.8122 1.33547C21.2033 0.726563 20.3776 0.384644 19.5166 0.384644H4.16921C3.30829 0.384644 2.48259 0.726553 1.87368 1.33547C1.26477 1.94438 0.922852 2.77009 0.922852 3.63101V21.3392C0.922852 22.2003 1.26476 23.026 1.87368 23.6349C2.48259 24.2436 3.30829 24.5857 4.16921 24.5857H17.297C18.2668 25.3476 19.4637 25.7632 20.697 25.7662C22.4498 25.7708 24.1034 24.9539 25.1647 23.559C26.2262 22.1641 26.5727 20.3526 26.1009 18.6644C25.6292 16.9764 24.3938 15.6067 22.7628 14.9642H22.763ZM20.6971 23.9954C19.4909 24.0341 18.3368 23.5029 17.5816 22.5615C16.8264 21.6202 16.5581 20.3783 16.8575 19.209C17.1567 18.04 17.9887 17.0797 19.1034 16.6171C19.3594 16.5485 19.5712 16.3688 19.6805 16.1275C19.79 15.8862 19.7856 15.6085 19.6685 15.3708C19.5515 15.133 19.3341 14.9601 19.0759 14.8998C18.818 14.8393 18.5465 14.8976 18.336 15.0587C16.9176 15.6935 15.8302 16.8943 15.3389 18.3687C14.8473 19.8431 14.9967 21.456 15.7507 22.8149H4.16958C3.77826 22.8149 3.40297 22.6594 3.12627 22.3827C2.84938 22.106 2.69404 21.7307 2.69404 21.3392V3.63102C2.69404 3.2397 2.84938 2.8644 3.12627 2.5877C3.40296 2.31081 3.77828 2.15547 4.16958 2.15547H19.517C19.9083 2.15547 20.2836 2.31081 20.5603 2.5877C20.8372 2.86439 20.9925 3.23972 20.9925 3.63102V15.5901V15.6609V15.8144C21.007 15.8751 21.0267 15.9344 21.0516 15.9915L21.1224 16.0978C21.1637 16.1542 21.2111 16.2057 21.2641 16.2512L21.3704 16.3219V16.3221C21.4272 16.3718 21.4967 16.4046 21.571 16.4166C22.7914 16.7265 23.7822 17.6155 24.2219 18.7952C24.6617 19.975 24.4945 21.2957 23.7747 22.3287C23.0549 23.3618 21.8741 23.976 20.6149 23.972L20.6971 23.9954Z" fill="#5155C3"/>
<path d="M21.5823 19.8755V17.7978C21.5823 17.4815 21.4136 17.1893 21.1396 17.0311C20.8657 16.8728 20.5281 16.8728 20.2542 17.0311C19.9803 17.1893 19.8115 17.4816 19.8115 17.7978V20.1589C19.8121 20.3449 19.8698 20.5261 19.9767 20.6783L21.1572 22.3193H21.1574C21.327 22.5472 21.5934 22.6826 21.8774 22.6853C22.064 22.6887 22.2466 22.6306 22.397 22.5201C22.5699 22.3826 22.6859 22.1859 22.7231 21.9681C22.76 21.7503 22.7154 21.5264 22.5976 21.3394L21.5823 19.8755Z" fill="#5155C3"/>
<path d="M11.8429 15.7318H5.94003C5.62381 15.7318 5.33153 15.9005 5.17342 16.1745C5.01511 16.4484 5.01511 16.786 5.17342 17.0599C5.33153 17.3338 5.62383 17.5026 5.94003 17.5026H11.8429C12.1593 17.5026 12.4516 17.3338 12.6097 17.0599C12.7678 16.786 12.7678 16.4484 12.6097 16.1745C12.4516 15.9005 12.1593 15.7318 11.8429 15.7318Z" fill="#5155C3"/>
<path d="M17.7458 10.4193H5.94003C5.62381 10.4193 5.33153 10.5881 5.17342 10.862C5.01511 11.1359 5.01511 11.4735 5.17342 11.7474C5.33153 12.0213 5.62383 12.1901 5.94003 12.1901H17.7458C18.062 12.1901 18.3543 12.0213 18.5124 11.7474C18.6707 11.4735 18.6707 11.1359 18.5124 10.862C18.3543 10.5881 18.062 10.4193 17.7458 10.4193Z" fill="#5155C3"/>
<path d="M17.7458 5.10686H5.94003C5.62381 5.10686 5.33153 5.27564 5.17342 5.54956C5.01511 5.82349 5.01511 6.16105 5.17342 6.43497C5.33153 6.7089 5.62383 6.87767 5.94003 6.87767H17.7458C18.062 6.87767 18.3543 6.7089 18.5124 6.43497C18.6707 6.16104 18.6707 5.82348 18.5124 5.54956C18.3543 5.27564 18.062 5.10686 17.7458 5.10686Z" fill="#5155C3"/>
</svg>
