<svg width="45" height="45" viewBox="0 0 45 45" fill="none" xmlns="http://www.w3.org/2000/svg">
<path fill-rule="evenodd" clip-rule="evenodd" d="M3.80152 8.96021H33.3113C35.3401 8.96021 37 10.5388 37 12.4682V33.5159C37 35.4453 35.3401 37.0239 33.3113 37.0239H7.49024L0.112793 44.0398L0.131237 12.4682C0.131237 10.5388 1.77272 8.96021 3.80152 8.96021ZM27.7782 21.2381H9.3346C8.3202 21.2381 7.49024 22.0273 7.49024 22.992C7.49024 23.9567 8.3202 24.746 9.3346 24.746H27.7782C28.7926 24.746 29.6226 23.9567 29.6226 22.992C29.6226 22.0273 28.7926 21.2381 27.7782 21.2381ZM20.4008 30.0079H9.3346C8.3202 30.0079 7.49024 29.2187 7.49024 28.254C7.49024 27.2893 8.3202 26.5 9.3346 26.5H20.4008C21.4152 26.5 22.2451 27.2893 22.2451 28.254C22.2451 29.2187 21.4152 30.0079 20.4008 30.0079ZM9.3346 19.4841H27.7782C28.7926 19.4841 29.6226 18.6948 29.6226 17.7301C29.6226 16.7654 28.7926 15.9761 27.7782 15.9761H9.3346C8.3202 15.9761 7.49024 16.7654 7.49024 17.7301C7.49024 18.6948 8.3202 19.4841 9.3346 19.4841Z" fill="white"/>
<circle cx="31.5" cy="13.5" r="12.25" fill="#4CBC9A" stroke="white" stroke-width="2.5"/>
<path d="M35.5767 15.4158V12.2426C35.5767 12.0559 35.664 11.8693 35.7804 11.7447L38.3395 9.53567C38.7176 9.19342 39.2992 9.50463 39.2992 10.0335V17.6249C39.2992 18.1537 38.7466 18.4337 38.3395 18.1227L35.7804 15.9136C35.664 15.7893 35.5767 15.6027 35.5767 15.4158ZM34.995 17.9672V9.66022C34.995 8.78908 34.3552 8.10461 33.541 8.10461H24.7587C23.9445 8.10461 23.3047 8.78908 23.3047 9.66022V17.9672C23.3047 18.8383 23.9445 19.5228 24.7587 19.5228H33.541C34.355 19.5228 34.995 18.8383 34.995 17.9672Z" fill="white"/>
</svg>
