<svg width="48" height="57" viewBox="0 0 48 57" fill="none" xmlns="http://www.w3.org/2000/svg">
    <path
        d="M14 13.3333C14 7.81049 18.4771 6.66667 24 6.66667C29.5228 6.66667 34 11.1438 34 16.6667V23.3333H0.666626V56.6667H47.3333V23.3333H40.6666V16.6667C40.6666 7.46192 33.2047 0 24 0C14.7952 0 7.33329 4.12859 7.33329 13.3333H14ZM24 33.3333C25.8409 33.3333 27.3333 34.8257 27.3333 36.6667V43.3333C27.3333 45.1743 25.8409 46.6667 24 46.6667C22.159 46.6667 20.6666 45.1743 20.6666 43.3333V36.6667C20.6666 34.8257 22.159 33.3333 24 33.3333Z"
        fill="white" />
</svg>
