<svg width="35" height="35" viewBox="0 0 35 35" fill="none" xmlns="http://www.w3.org/2000/svg">
<path fill-rule="evenodd" clip-rule="evenodd" d="M26.4023 24.9687L33.852 18.4503C34.4409 17.9352 34.5007 17.0401 33.9853 16.4515C33.944 16.404 33.8995 16.3595 33.852 16.318L26.3567 9.76011C25.7939 9.26775 24.9451 9.29763 24.4184 9.82841L24.411 9.83577C23.9153 10.3352 23.9182 11.1424 24.4179 11.6383C24.4331 11.6535 24.4487 11.6682 24.4646 11.6824L29.2417 15.9675H10.256C9.47361 15.9675 8.8392 16.602 8.8392 17.3844C8.8392 18.1668 9.47361 18.801 10.256 18.801H29.2417L24.5287 22.8841C23.9557 23.3805 23.8935 24.2473 24.3899 24.8204C24.3968 24.8284 24.4039 24.8365 24.411 24.8443L24.4205 24.8547C24.9397 25.4266 25.821 25.4771 26.4023 24.9686L26.4023 24.9687ZM21.5944 7.47365C20.8117 7.47365 20.1773 6.839 20.1773 6.05632V3.22359H4.58685C3.80441 3.22359 3.17 3.85776 3.17 4.6402V30.1406C3.17 30.923 3.80441 31.5572 4.58685 31.5572H20.1773V28.7244C20.1773 27.9418 20.8117 27.3071 21.5944 27.3071C22.3773 27.3071 23.0117 27.9418 23.0117 28.7244V31.5572C23.0027 32.974 21.5861 34.3906 20.1773 34.3906H3.17036C1.75327 34.3906 0.335938 32.974 0.335938 31.5572V3.22383C0.335938 1.80699 1.75327 0.390381 3.17036 0.390381H20.1694C21.586 0.390381 23.0026 1.83637 23.0026 3.22383L23.0088 6.05656C23.0102 6.83754 22.3784 7.47219 21.5974 7.47389H21.5943L21.5944 7.47365Z" fill="#666666"/>
</svg>
