<svg width="19" height="18" viewBox="0 0 19 18" fill="none" xmlns="http://www.w3.org/2000/svg">
<path d="M18.6017 5.92752L16.1101 4.19656L16.1704 2.47836C16.1704 2.29732 16.0228 2.15044 15.8417 2.15044H12.6823C12.6799 2.14884 12.6791 2.14565 12.6767 2.14406L9.6786 0.0557914C9.67621 0.0541963 9.67381 0.0541963 9.67222 0.0526011C9.65401 0.0406379 9.63327 0.0351877 9.61346 0.0264147C9.59366 0.018439 9.57372 0.0074064 9.55312 0.00341853C9.54115 0.00102587 9.52932 0.00341855 9.51656 0.00262097C9.48639 0.000228318 9.45701 -0.00216422 9.42764 0.00341853C9.41487 0.00581118 9.40384 0.0137869 9.39108 0.0177747C9.3633 0.0265478 9.33552 0.0351881 9.31093 0.0519365C9.30853 0.0535316 9.30614 0.0535316 9.30375 0.0551267L6.29377 2.14645C6.29218 2.14805 6.29138 2.14964 6.28978 2.15044H3.17959C2.99855 2.15044 2.85166 2.29732 2.85166 2.47837V4.22277L0.398098 5.92756C0.398098 5.92756 -0.592863 6.608 0.552158 7.42191L3.50194 9.51896L3.50752 9.38164V2.80722H15.5137V9.55791C15.5137 9.55791 16.1481 9.05374 18.4475 7.42204C19.5933 6.60973 18.6015 5.92769 18.6015 5.92769L18.6017 5.92752Z" fill="#5155C3"/>
<path d="M2.84381 9.56236L0.309326 7.78223V17.4485C0.309326 17.682 0.499944 17.871 0.733363 17.871H18.2383C18.4725 17.871 18.6623 17.6819 18.6623 17.4485L18.6622 7.78801L16.1714 9.56338L15.5148 10.0318L11.8648 12.633L16.2566 16.029C16.4003 16.1394 16.4257 16.3458 16.3153 16.4896C16.2034 16.6325 15.9986 16.6579 15.8548 16.5484L9.39059 11.5485L8.38619 12.3417C8.37502 12.3552 8.33063 12.3909 8.28065 12.421L7.86141 12.7521C7.8408 12.7727 7.81847 12.7903 7.79388 12.8053L3.05295 16.5458C2.91005 16.6577 2.70442 16.6323 2.59236 16.491C2.48044 16.3481 2.50423 16.1417 2.64713 16.0296L7.07704 12.5359L3.48254 10.0109L2.84381 9.56236Z" fill="#5155C3"/>
</svg>
