<svg width="42" height="43" viewBox="0 0 42 43" fill="none" xmlns="http://www.w3.org/2000/svg">
<path d="M29.4 33.7786C29.1239 33.7786 28.9 34.0024 28.9 34.2786C28.9 38.6416 25.3631 42.1786 21 42.1786C16.637 42.1786 13.1 38.6416 13.1 34.2786C13.1 34.0024 12.8761 33.7786 12.6 33.7786H2.94857C1.59626 33.7786 0.5 32.6823 0.5 31.33C0.500004 30.6659 0.76979 30.0302 1.24749 29.5688L3.4083 27.4818L3.06094 27.1222L3.4083 27.4818C4.32878 26.5927 4.84693 25.3668 4.84309 24.0871L4.82321 17.4657C4.79624 8.47852 12.0743 1.17859 21.0616 1.17859C30.0298 1.17859 37.3 8.44877 37.3 17.417L37.3 24.1389C37.3 25.3854 37.7952 26.5809 38.6766 27.4623L40.7766 29.5623C41.2398 30.0255 41.5 30.6537 41.5 31.3087C41.5 32.6728 40.3942 33.7786 39.0302 33.7786H29.4ZM38.5952 31.6286C38.7975 31.6286 38.9798 31.5068 39.0572 31.3199C39.1346 31.1331 39.0918 30.918 38.9488 30.775L37.1563 28.9826C35.8717 27.6979 35.15 25.9556 35.15 24.1389L35.15 17.417C35.15 9.63618 28.8424 3.32859 21.0616 3.32859C13.2642 3.32859 6.9498 9.66199 6.97321 17.4593L6.99308 24.0806C6.99868 25.9457 6.2435 27.7325 4.90196 29.0282L3.09972 30.7689C2.95312 30.9105 2.90714 31.1269 2.9835 31.3159C3.05985 31.5049 3.24327 31.6286 3.44708 31.6286H38.5952ZM26.75 34.2786C26.75 34.0024 26.5261 33.7786 26.25 33.7786H15.75C15.4739 33.7786 15.25 34.0024 15.25 34.2786C15.25 37.4542 17.8244 40.0286 21 40.0286C24.1756 40.0286 26.75 37.4542 26.75 34.2786Z" fill="white" stroke="white" stroke-linecap="round" stroke-linejoin="round"/>
</svg>
