<svg width="65" height="69" viewBox="0 0 65 69" fill="none" xmlns="http://www.w3.org/2000/svg">
<g clip-path="url(#clip0_395_574)">
<path d="M64.8437 60.3425C63.3245 46.8516 51.2339 38.7963 32.5036 38.7963C13.7732 38.7963 2.77526 45.9651 0.442407 58.4732C0.115488 60.2564 0 65.4115 0 66.5699C0 67.9004 1.11401 68.9796 2.48743 68.9796H62.5126C63.1789 68.9796 63.8167 68.7214 64.2822 68.2618C64.7495 67.804 65.0071 67.1826 65 66.5372C64.9289 61.0878 64.8632 60.5267 64.8437 60.3425ZM5.0246 64.1602C5.08679 62.2634 5.20405 60.074 5.33908 59.3253C7.88869 45.6588 23.4529 43.6191 32.5036 43.6191C40.1542 43.6191 58.1436 45.3008 59.8954 60.8589C59.9168 61.0981 59.9523 62.1945 59.9878 64.1636H5.0246V64.1602Z" fill="#573E21"/>
<path d="M32.5 33.0638C23.2094 33.0638 15.6769 25.7442 15.6769 16.7819C15.6769 7.8196 23.2094 0.5 32.5 0.5C41.7907 0.5 49.3232 7.8196 49.3232 16.7819C49.3232 25.7442 41.7907 33.0638 32.5 33.0638ZM32.5 3.80305C25.1356 3.80305 19.1187 9.60947 19.1187 16.7819C19.1187 23.9543 25.1356 29.7607 32.5 29.7607C39.8645 29.7607 45.8813 23.9543 45.8813 16.7819C45.8813 9.60943 39.8626 3.80305 32.5 3.80305Z" fill="#573E21" stroke="#573E21"/>
</g>
<defs>
<clipPath id="clip0_395_574">
<rect width="65" height="68.9796" fill="white"/>
</clipPath>
</defs>
</svg>
