<svg width="17" height="17" viewBox="0 0 17 17" fill="none" xmlns="http://www.w3.org/2000/svg">
<path d="M16.5712 15.0155L16.0029 15.5833L11.3859 10.9554L11.9471 10.3947C12.2241 10.1179 12.5934 9.96527 12.9877 9.96527C13.3783 9.96527 13.7477 10.1179 14.0283 10.3947L16.5712 12.9393C16.8459 13.215 17.0001 13.5883 17.0001 13.9774C17.0001 14.3665 16.8459 14.7397 16.5712 15.0155ZM6.59845 2.9738C6.73523 3.10992 6.84377 3.27169 6.91783 3.44983C6.99188 3.62797 7.03001 3.81897 7.03001 4.01187C7.03001 4.20477 6.99188 4.39577 6.91783 4.57392C6.84377 4.75206 6.73523 4.91383 6.59845 5.04994L6.04441 5.60358L1.41675 0.993473L1.97789 0.432736C2.11387 0.295624 2.27568 0.186789 2.45398 0.112515C2.63228 0.0382412 2.82354 0 3.01672 0C3.20989 0 3.40115 0.0382412 3.57945 0.112515C3.75776 0.186789 3.91957 0.295624 4.05554 0.432736L6.59845 2.9738Z" fill="#5155C3"/>
<path d="M10.8598 11.316C10.2351 11.3694 8.93224 10.7986 7.56669 9.43409C6.81162 8.67961 6.22394 7.86462 5.90695 7.13149C5.73314 6.7272 5.6587 6.3763 5.68434 6.12896L0.955142 1.41699L0.635659 1.73622C-1.08107 3.44805 0.792373 7.99986 4.89543 12.1033C7.87656 15.0785 11.2495 17.0003 13.4898 17.0003C14.2448 17.0003 14.8432 16.7867 15.2706 16.3597L15.5833 16.0472L10.8598 11.316Z" fill="#5155C3"/>
</svg>
