<svg width="60" height="77" viewBox="0 0 60 77" fill="none" xmlns="http://www.w3.org/2000/svg">
<g filter="url(#filter0_d_2194_1430)">
<rect x="10.0137" y="14.4065" width="40.1338" height="52.245" rx="3" fill="url(#paint0_linear_2194_1430)"/>
<rect x="6.43018" y="1.4989" width="48.0172" height="14.1369" rx="3" fill="url(#paint1_linear_2194_1430)"/>
<path d="M10.1929 14.9794V64.4586C10.1929 65.0291 10.4571 65.5763 10.9276 65.9797C11.398 66.3832 12.036 66.6098 12.7012 66.6098H47.8183C48.4835 66.6098 49.1215 66.3832 49.5919 65.9797C50.0624 65.5763 50.3266 65.0291 50.3266 64.4586V14.9794" stroke="url(#paint2_linear_2194_1430)" stroke-width="3" stroke-linecap="round" stroke-linejoin="round"/>
<path d="M8.93854 2.07184H51.5806C52.2459 2.07184 52.8839 2.29849 53.3543 2.70193C53.8247 3.10537 54.089 3.65255 54.089 4.2231V14.9794H6.43018V4.2231C6.43018 3.65255 6.69445 3.10537 7.16486 2.70193C7.63527 2.29849 8.27328 2.07184 8.93854 2.07184V2.07184Z" stroke="url(#paint3_linear_2194_1430)" stroke-width="3" stroke-linecap="round" stroke-linejoin="round"/>
<path d="M11.4468 14.6721V7.45001" stroke="url(#paint4_linear_2194_1430)" stroke-width="3" stroke-linecap="round" stroke-linejoin="round"/>
<path d="M17.7178 14.6721V7.45001" stroke="url(#paint5_linear_2194_1430)" stroke-width="3" stroke-linecap="round" stroke-linejoin="round"/>
<path d="M23.9888 14.6721V7.45001" stroke="url(#paint6_linear_2194_1430)" stroke-width="3" stroke-linecap="round" stroke-linejoin="round"/>
<path d="M30.2598 14.6721V7.45001" stroke="url(#paint7_linear_2194_1430)" stroke-width="3" stroke-linecap="round" stroke-linejoin="round"/>
<path d="M36.5303 14.6721V7.45001" stroke="url(#paint8_linear_2194_1430)" stroke-width="3" stroke-linecap="round" stroke-linejoin="round"/>
<path d="M42.8013 14.6721V7.45001" stroke="url(#paint9_linear_2194_1430)" stroke-width="3" stroke-linecap="round" stroke-linejoin="round"/>
<path d="M49.0723 14.6721V7.45001" stroke="url(#paint10_linear_2194_1430)" stroke-width="3" stroke-linecap="round" stroke-linejoin="round"/>
<path d="M45.3097 21.4332H17.7178V60.156H45.3097" stroke="white" stroke-width="3" stroke-linecap="round" stroke-linejoin="round"/>
<path d="M32.768 30.0383C32.768 30.8941 32.3716 31.7149 31.666 32.3201C30.9604 32.9252 30.0034 33.2652 29.0055 33.2652H23.9888V26.8114H29.0055C30.0034 26.8114 30.9604 27.1514 31.666 27.7565C32.3716 28.3617 32.768 29.1825 32.768 30.0383V30.0383Z" stroke="white" stroke-width="3" stroke-linecap="round" stroke-linejoin="round"/>
<path d="M23.9888 33.2652V37.5677" stroke="white" stroke-width="3" stroke-linecap="round" stroke-linejoin="round"/>
<path d="M29.0054 33.2652L37.7846 41.8703" stroke="white" stroke-width="3" stroke-linecap="round" stroke-linejoin="round"/>
<path d="M37.7848 35.4164L30.2598 41.8702" stroke="white" stroke-width="3" stroke-linecap="round" stroke-linejoin="round"/>
<path d="M23.9888 48.3241H27.7513" stroke="white" stroke-width="3" stroke-linecap="round" stroke-linejoin="round"/>
<path d="M34.022 48.3241H44.0554" stroke="white" stroke-width="3" stroke-linecap="round" stroke-linejoin="round"/>
<path d="M23.9888 53.7022H27.7513" stroke="white" stroke-width="3" stroke-linecap="round" stroke-linejoin="round"/>
<path d="M34.022 53.7022H44.0554" stroke="white" stroke-width="3" stroke-linecap="round" stroke-linejoin="round"/>
</g>
<defs>
<filter id="filter0_d_2194_1430" x="0.930176" y="0.571838" width="58.6587" height="75.538" filterUnits="userSpaceOnUse" color-interpolation-filters="sRGB">
<feFlood flood-opacity="0" result="BackgroundImageFix"/>
<feColorMatrix in="SourceAlpha" type="matrix" values="0 0 0 0 0 0 0 0 0 0 0 0 0 0 0 0 0 0 127 0" result="hardAlpha"/>
<feOffset dy="4"/>
<feGaussianBlur stdDeviation="2"/>
<feComposite in2="hardAlpha" operator="out"/>
<feColorMatrix type="matrix" values="0 0 0 0 0 0 0 0 0 0 0 0 0 0 0 0 0 0 0.25 0"/>
<feBlend mode="normal" in2="BackgroundImageFix" result="effect1_dropShadow_2194_1430"/>
<feBlend mode="normal" in="SourceGraphic" in2="effect1_dropShadow_2194_1430" result="shape"/>
</filter>
<linearGradient id="paint0_linear_2194_1430" x1="7.4244" y1="30.0419" x2="51.1818" y2="32.8206" gradientUnits="userSpaceOnUse">
<stop stop-color="#D29D35"/>
<stop offset="0.432353" stop-color="#EBBE67"/>
<stop offset="1" stop-color="#BC8A26"/>
</linearGradient>
<linearGradient id="paint1_linear_2194_1430" x1="30.4388" y1="1.4989" x2="30.4388" y2="15.6358" gradientUnits="userSpaceOnUse">
<stop stop-color="#F8F8F8"/>
<stop offset="1" stop-color="#D7D7D7"/>
</linearGradient>
<linearGradient id="paint2_linear_2194_1430" x1="7.6036" y1="30.4309" x2="51.3568" y2="33.2424" gradientUnits="userSpaceOnUse">
<stop stop-color="#D29D35"/>
<stop offset="0.432353" stop-color="#EBBE67"/>
<stop offset="1" stop-color="#BC8A26"/>
</linearGradient>
<linearGradient id="paint3_linear_2194_1430" x1="30.2596" y1="2.07184" x2="30.2596" y2="14.9794" gradientUnits="userSpaceOnUse">
<stop stop-color="#F8F8F8"/>
<stop offset="1" stop-color="#D7D7D7"/>
</linearGradient>
<linearGradient id="paint4_linear_2194_1430" x1="11.9468" y1="7.45001" x2="11.9468" y2="14.6721" gradientUnits="userSpaceOnUse">
<stop stop-color="#F8F8F8"/>
<stop offset="1" stop-color="#D7D7D7"/>
</linearGradient>
<linearGradient id="paint5_linear_2194_1430" x1="18.2178" y1="7.45001" x2="18.2178" y2="14.6721" gradientUnits="userSpaceOnUse">
<stop stop-color="#F8F8F8"/>
<stop offset="1" stop-color="#D7D7D7"/>
</linearGradient>
<linearGradient id="paint6_linear_2194_1430" x1="24.4888" y1="7.45001" x2="24.4888" y2="14.6721" gradientUnits="userSpaceOnUse">
<stop stop-color="#F8F8F8"/>
<stop offset="1" stop-color="#D7D7D7"/>
</linearGradient>
<linearGradient id="paint7_linear_2194_1430" x1="30.7598" y1="7.45001" x2="30.7598" y2="14.6721" gradientUnits="userSpaceOnUse">
<stop stop-color="#F8F8F8"/>
<stop offset="1" stop-color="#D7D7D7"/>
</linearGradient>
<linearGradient id="paint8_linear_2194_1430" x1="37.0303" y1="7.45001" x2="37.0303" y2="14.6721" gradientUnits="userSpaceOnUse">
<stop stop-color="#F8F8F8"/>
<stop offset="1" stop-color="#D7D7D7"/>
</linearGradient>
<linearGradient id="paint9_linear_2194_1430" x1="43.3013" y1="7.45001" x2="43.3013" y2="14.6721" gradientUnits="userSpaceOnUse">
<stop stop-color="#F8F8F8"/>
<stop offset="1" stop-color="#D7D7D7"/>
</linearGradient>
<linearGradient id="paint10_linear_2194_1430" x1="49.5723" y1="7.45001" x2="49.5723" y2="14.6721" gradientUnits="userSpaceOnUse">
<stop stop-color="#F8F8F8"/>
<stop offset="1" stop-color="#D7D7D7"/>
</linearGradient>
</defs>
</svg>
