<svg width="119" height="119" viewBox="0 0 119 119" fill="none" xmlns="http://www.w3.org/2000/svg">
<path d="M101.15 77.3505V43.4002C101.15 20.5941 83.5737 0.703498 60.7793 0.0192564C37.1934 -0.688785 17.85 18.2201 17.85 41.6509V77.3505C17.85 83.9192 12.5188 89.2504 5.95 89.2504C2.6656 89.2504 0 91.91 0 95.2003V101.15H41.65C41.65 111.009 49.6409 119 59.5 119C69.3592 119 77.35 111.009 77.35 101.15H119V95.2003C119 91.91 116.334 89.2504 113.05 89.2504C106.481 89.2504 101.15 83.9192 101.15 77.3505Z" fill="url(#paint0_linear_4845_12929)"/>
<defs>
<linearGradient id="paint0_linear_4845_12929" x1="-7.67742" y1="35.6131" x2="121.706" y2="46.3088" gradientUnits="userSpaceOnUse">
<stop stop-color="#AA875A"/>
<stop offset="0.432353" stop-color="#BA9765"/>
<stop offset="1" stop-color="#7E5A2F"/>
</linearGradient>
</defs>
</svg>
