<svg width="22" height="18" viewBox="0 0 22 18" fill="none" xmlns="http://www.w3.org/2000/svg">
<path d="M20.8631 5.47284L15.9736 0.605279C15.5702 0.20365 15.161 0 14.7574 0C14.2033 0 13.5562 0.419563 13.5562 1.60207V3.25919C10.0039 3.41333 6.68647 4.86365 4.15623 7.38241C1.47631 10.0501 0.000253125 13.5971 0 17.37C0 17.641 0.17415 17.8818 0.432422 17.9676C0.498361 17.9895 0.565861 18 0.632728 18C0.82793 18 1.01689 17.9098 1.13873 17.7484C4.1264 13.7894 8.62443 11.4497 13.5562 11.265V12.8966C13.5562 14.079 14.2033 14.4987 14.7574 14.4987H14.7575C15.161 14.4987 15.5702 14.295 15.9736 13.8935L20.8631 9.02581C21.3383 8.55287 21.6 7.92197 21.6 7.24932C21.6 6.5768 21.3383 5.94586 20.8631 5.47284Z" fill="#949494"/>
</svg>
