<svg width="72" height="52" viewBox="0 0 72 52" fill="none" xmlns="http://www.w3.org/2000/svg">
<mask id="path-1-inside-1_395_579" fill="white">
<path d="M53.8182 7.34273C53.8182 3.281 50.7628 0 46.9827 0H6.83553C3.05538 0 0 3.281 0 7.34273V44.2128C0 48.2745 3.05538 51.5556 6.83553 51.5556H46.981C50.7628 51.5556 53.8165 48.2745 53.8165 44.2128V7.34273H53.8182ZM50.9091 44.2128C50.9091 46.5566 49.1636 48.431 46.9827 48.431H6.83553C4.65455 48.431 2.90909 46.5566 2.90909 44.2128V7.34273C2.90909 4.99892 4.65455 3.12453 6.83553 3.12453H46.981C49.162 3.12453 50.9074 4.99892 50.9074 7.34273V44.2128H50.9091Z"/>
</mask>
<path d="M53.8182 7.34273C53.8182 3.281 50.7628 0 46.9827 0H6.83553C3.05538 0 0 3.281 0 7.34273V44.2128C0 48.2745 3.05538 51.5556 6.83553 51.5556H46.981C50.7628 51.5556 53.8165 48.2745 53.8165 44.2128V7.34273H53.8182ZM50.9091 44.2128C50.9091 46.5566 49.1636 48.431 46.9827 48.431H6.83553C4.65455 48.431 2.90909 46.5566 2.90909 44.2128V7.34273C2.90909 4.99892 4.65455 3.12453 6.83553 3.12453H46.981C49.162 3.12453 50.9074 4.99892 50.9074 7.34273V44.2128H50.9091Z" fill="#573E21"/>
<path d="M53.8182 7.34273V14.3427H60.8182V7.34273H53.8182ZM53.8165 7.34273V0.342726H46.8165V7.34273H53.8165ZM50.9091 44.2128H57.9091V37.2128H50.9091V44.2128ZM50.9074 44.2128H43.9074V51.2128H50.9074V44.2128ZM60.8182 7.34273C60.8182 -0.105374 55.0916 -7 46.9827 -7V7C46.9024 7 46.8184 6.98025 46.7538 6.95095C46.6958 6.92464 46.6815 6.90399 46.6947 6.91811C46.7233 6.9488 46.8182 7.07949 46.8182 7.34273H60.8182ZM46.9827 -7H6.83553V7H46.9827V-7ZM6.83553 -7C-1.27341 -7 -7 -0.105375 -7 7.34273H7C7 7.07949 7.09493 6.9488 7.1235 6.91811C7.13665 6.90399 7.12237 6.92464 7.06436 6.95095C6.99978 6.98025 6.91577 7 6.83553 7V-7ZM-7 7.34273V44.2128H7V7.34273H-7ZM-7 44.2128C-7 51.6609 -1.27341 58.5556 6.83553 58.5556V44.5556C6.91577 44.5556 6.99978 44.5753 7.06437 44.6046C7.12237 44.6309 7.13665 44.6516 7.1235 44.6374C7.09493 44.6068 7 44.4761 7 44.2128H-7ZM6.83553 58.5556H46.981V44.5556H6.83553V58.5556ZM46.981 58.5556C55.0927 58.5556 60.8165 51.6598 60.8165 44.2128H46.8165C46.8165 44.4771 46.7213 44.6078 46.6932 44.6379C46.6804 44.6517 46.6949 44.6309 46.7531 44.6045C46.8178 44.5751 46.9016 44.5556 46.981 44.5556V58.5556ZM60.8165 44.2128V7.34273H46.8165V44.2128H60.8165ZM53.8165 14.3427H53.8182V0.342726H53.8165V14.3427ZM43.9091 44.2128C43.9091 43.1708 44.8344 41.431 46.9827 41.431V55.431C53.4929 55.431 57.9091 49.9425 57.9091 44.2128H43.9091ZM46.9827 41.431H6.83553V55.431H46.9827V41.431ZM6.83553 41.431C8.98381 41.431 9.90909 43.1708 9.90909 44.2128H-4.09091C-4.09091 49.9425 0.325282 55.431 6.83553 55.431V41.431ZM9.90909 44.2128V7.34273H-4.09091V44.2128H9.90909ZM9.90909 7.34273C9.90909 8.38478 8.9838 10.1245 6.83553 10.1245V-3.87547C0.325287 -3.87547 -4.09091 1.61305 -4.09091 7.34273H9.90909ZM6.83553 10.1245H46.981V-3.87547H6.83553V10.1245ZM46.981 10.1245C44.8327 10.1245 43.9074 8.38478 43.9074 7.34273H57.9074C57.9074 1.61305 53.4912 -3.87547 46.981 -3.87547V10.1245ZM43.9074 7.34273V44.2128H57.9074V7.34273H43.9074ZM50.9074 51.2128H50.9091V37.2128H50.9074V51.2128Z" fill="#573E21" mask="url(#path-1-inside-1_395_579)"/>
<path d="M51.5555 28.4062L71.1111 16V41.1733L51.5555 31.1147V28.4062Z" fill="#573E21"/>
<path d="M37.1566 35.2724C36.593 30.1549 32.1097 27.1012 25.1645 27.1012C18.2192 27.1012 14.1415 29.8205 13.2754 34.5642C13.1541 35.2411 13.1108 37.1962 13.1108 37.6343C13.1108 38.14 13.5231 38.5485 14.0334 38.5485H36.2921C36.5382 38.5485 36.7759 38.4513 36.9488 38.2767C37.1216 38.1021 37.2181 37.8666 37.2147 37.6228C37.1881 35.5557 37.1649 35.3432 37.1566 35.2741V35.2724ZM14.9743 36.7202C14.9976 36.0004 15.0408 35.1703 15.0907 34.887C16.0366 29.7036 21.8082 28.9295 25.1645 28.9295C28.0021 28.9295 34.673 29.5669 35.3213 35.4684C35.3296 35.559 35.3429 35.9757 35.3546 36.7218H14.9727L14.9743 36.7202Z" fill="#573E21"/>
<path d="M25.1628 24.3012C28.2558 24.3012 30.7632 21.8168 30.7632 18.7521C30.7632 15.6875 28.2558 13.2031 25.1628 13.2031C22.0698 13.2031 19.5624 15.6875 19.5624 18.7521C19.5624 21.8168 22.0698 24.3012 25.1628 24.3012Z" fill="#573E21"/>
<path d="M25.1628 25.1165C21.6203 25.1165 18.7395 22.2604 18.7395 18.7521C18.7395 15.2438 21.622 12.3878 25.1628 12.3878C28.7036 12.3878 31.586 15.2438 31.586 18.7521C31.586 22.2604 28.7036 25.1165 25.1628 25.1165ZM25.1628 14.0184C22.5296 14.0184 20.3869 16.1415 20.3869 18.7505C20.3869 21.3595 22.5296 23.4826 25.1628 23.4826C27.7959 23.4826 29.9387 21.3595 29.9387 18.7505C29.9387 16.1415 27.7959 14.0184 25.1628 14.0184Z" fill="#573E21"/>
</svg>
