<svg width="49" height="40" viewBox="0 0 49 40" fill="none" xmlns="http://www.w3.org/2000/svg">
<path d="M3.46501 34.1119H18.0897L15.3674 38.2176H13.2815C12.7196 38.2176 12.2642 38.6166 12.2642 39.1088C12.2642 39.601 12.7197 40 13.2815 40H35.5455C36.1074 40 36.5628 39.601 36.5628 39.1088C36.5628 38.6166 36.1073 38.2176 35.5455 38.2176H33.4599L30.7373 34.1119H45.362C47.2719 34.1119 48.826 32.7509 48.826 31.0774V26.8798C48.8264 26.8693 48.8332 26.8607 48.8332 26.8499C48.8332 26.839 48.8268 26.8304 48.8264 26.8195V3.03386C48.8264 1.3611 47.2727 0 45.3624 0H3.46404C1.55413 0 0 1.3611 0 3.03386V31.0773C0 32.7504 1.55413 34.1119 3.46404 34.1119L3.46501 34.1119ZM31.1074 38.2176H17.7209L20.4432 34.1119H28.3845L31.1074 38.2176ZM45.3633 32.3295H28.9978C28.9877 32.3291 28.9779 32.3258 28.9677 32.3258H19.8598C19.8496 32.3258 19.8398 32.3291 19.8297 32.3295H3.46511C2.67715 32.3295 2.03585 31.7677 2.03585 31.0774V27.7411H46.7919V31.0774C46.7919 31.7677 46.1506 32.3295 45.3631 32.3295H45.3633ZM3.46501 1.78256H45.3633C46.1513 1.78256 46.7926 2.34399 46.7926 3.03393V25.9584H2.03557V3.03393C2.03557 2.344 2.67684 1.78256 3.46482 1.78256H3.46501Z" fill="white"/>
<path d="M21.717 30.0769C21.717 30.6165 21.2442 31.0539 20.6605 31.0539C20.0768 31.0539 19.604 30.6165 19.604 30.0769C19.604 29.5376 20.0768 29.1002 20.6605 29.1002C21.2442 29.1002 21.717 29.5376 21.717 30.0769Z" fill="white"/>
<path d="M25.4738 30.0769C25.4738 30.6165 25.0008 31.0539 24.4175 31.0539C23.8339 31.0539 23.3608 30.6165 23.3608 30.0769C23.3608 29.5376 23.8339 29.1002 24.4175 29.1002C25.0007 29.1002 25.4738 29.5376 25.4738 30.0769Z" fill="white"/>
<path d="M29.2292 30.0769C29.2292 30.6165 28.7561 31.0539 28.1725 31.0539C27.5893 31.0539 27.1162 30.6165 27.1162 30.0769C27.1162 29.5376 27.5893 29.1002 28.1725 29.1002C28.7561 29.1002 29.2292 29.5376 29.2292 30.0769Z" fill="white"/>
<rect x="4.05908" y="3.55554" width="40.59" height="20.4444" rx="2" fill="white"/>
<path fill-rule="evenodd" clip-rule="evenodd" d="M26.6096 14.8023C25.7803 15.1729 24.8416 15.3822 23.8481 15.3822C22.8545 15.3822 21.9159 15.173 21.087 14.802C20.9537 14.7414 20.8043 14.7095 20.6527 14.7095H19.2641C18.8623 14.7095 18.3883 14.9897 17.9634 15.5127C17.1567 16.5049 16.4061 18.3782 16.2399 19.8507C16.2399 19.8534 16.2395 19.8558 16.2391 19.8582C16.2188 20.0919 16.3097 20.3223 16.4908 20.4945C16.6714 20.6665 16.926 20.764 17.1917 20.764C19.5494 20.764 28.147 20.764 30.5048 20.7623C30.7698 20.7623 31.0236 20.6648 31.2038 20.4931C31.3842 20.3216 31.4751 20.0915 31.4548 19.8585C31.4545 19.8561 31.4545 19.8538 31.4541 19.8514C31.2898 18.3784 30.5391 16.5049 29.7328 15.5125C29.3079 14.9895 28.834 14.7093 28.4321 14.7093C28.4321 14.7093 27.4201 14.7093 27.0431 14.71C26.8923 14.71 26.7429 14.7415 26.6081 14.8024L26.6096 14.8023ZM23.8481 5.96399C21.3181 5.96399 19.2641 7.77271 19.2641 10.0004C19.2641 12.2282 21.3181 14.0368 23.8481 14.0368C26.3781 14.0368 28.432 12.2282 28.432 10.0004C28.432 7.77271 26.3781 5.96399 23.8481 5.96399Z" fill="#4B4DB1"/>
</svg>
